ISO-10303-21;
HEADER;
/* Generated by software containing ST-Developer
 * from STEP Tools, Inc. (www.steptools.com) 
 */
/* OPTION: using custom renumber hook */

FILE_DESCRIPTION(
/* description */ ('STEP AP242 Edition 2',
'CAx-IF Rec.Pracs.---Representation and Presentation of Product Manufa
cturing Information (PMI)---4.0---2014-10-13',
'CAx-IF Rec.Pracs.---3D Tessellated Geometry---0.4---2014-09-14','2;1',
'CAx-IF Rec.Pracs.---User Defined Attributes---1.5---2016-08-15'),
/* implementation_level */ '2;1');

FILE_NAME(
/* name */ 'top_cap - BASE_top_cap',
/* time_stamp */ '2026-05-12T15:59:33Z',
/* author */ (''),
/* organization */ (''),
/* preprocessor_version */ 'ST-DEVELOPER v20',
/* originating_system */ 'ONSHAPE BY PTC INC, 1.214',
/* authorisation */ '  ');

FILE_SCHEMA (('AP242_MANAGED_MODEL_BASED_3D_ENGINEERING_MIM_LF { 1 0 10303 442 3 1 4 }'));
ENDSEC;

DATA;
#10=SHAPE_REPRESENTATION_RELATIONSHIP('','',#375,#11);
#11=ADVANCED_BREP_SHAPE_REPRESENTATION('',(#373),#679);
#12=TOROIDAL_SURFACE('',#411,0.005075,0.001);
#13=TOROIDAL_SURFACE('',#412,0.005075,0.001);
#14=TOROIDAL_SURFACE('',#416,0.0045,0.001);
#15=TOROIDAL_SURFACE('',#418,0.0045,0.001);
#16=TOROIDAL_SURFACE('',#420,0.007,0.001);
#17=TOROIDAL_SURFACE('',#422,0.007,0.001);
#18=TOROIDAL_SURFACE('',#428,0.0045,0.001);
#19=TOROIDAL_SURFACE('',#430,0.0045,0.001);
#20=TOROIDAL_SURFACE('',#432,0.007,0.001);
#21=TOROIDAL_SURFACE('',#434,0.007,0.001);
#22=PLANE('',#380);
#23=PLANE('',#387);
#24=PLANE('',#391);
#25=PLANE('',#396);
#26=PLANE('',#406);
#27=PLANE('',#410);
#28=CIRCLE('',#378,0.008);
#29=CIRCLE('',#379,0.008);
#30=CIRCLE('',#382,0.008);
#31=CIRCLE('',#383,0.008);
#32=CIRCLE('',#385,0.0035);
#33=CIRCLE('',#386,0.0035);
#34=CIRCLE('',#389,0.0035);
#35=CIRCLE('',#390,0.0035);
#36=CIRCLE('',#392,0.007);
#37=CIRCLE('',#393,0.007);
#38=CIRCLE('',#394,0.0045);
#39=CIRCLE('',#395,0.0045);
#40=CIRCLE('',#397,0.005075);
#41=CIRCLE('',#398,0.005075);
#42=CIRCLE('',#399,0.007);
#43=CIRCLE('',#400,0.007);
#44=CIRCLE('',#401,0.0045);
#45=CIRCLE('',#402,0.0045);
#46=CIRCLE('',#404,0.004075);
#47=CIRCLE('',#405,0.004075);
#48=CIRCLE('',#408,0.004075);
#49=CIRCLE('',#409,0.004075);
#50=CIRCLE('',#414,0.001);
#51=CIRCLE('',#415,0.001);
#52=CIRCLE('',#417,0.001);
#53=CIRCLE('',#419,0.001);
#54=CIRCLE('',#421,0.001);
#55=CIRCLE('',#423,0.001);
#56=CIRCLE('',#426,0.001);
#57=CIRCLE('',#427,0.001);
#58=CIRCLE('',#429,0.001);
#59=CIRCLE('',#431,0.001);
#60=CIRCLE('',#433,0.001);
#61=CIRCLE('',#435,0.001);
#62=ORIENTED_EDGE('',*,*,#158,.T.);
#63=ORIENTED_EDGE('',*,*,#159,.T.);
#64=ORIENTED_EDGE('',*,*,#160,.F.);
#65=ORIENTED_EDGE('',*,*,#161,.T.);
#66=ORIENTED_EDGE('',*,*,#160,.T.);
#67=ORIENTED_EDGE('',*,*,#162,.T.);
#68=ORIENTED_EDGE('',*,*,#163,.F.);
#69=ORIENTED_EDGE('',*,*,#164,.T.);
#70=ORIENTED_EDGE('',*,*,#163,.T.);
#71=ORIENTED_EDGE('',*,*,#165,.T.);
#72=ORIENTED_EDGE('',*,*,#166,.F.);
#73=ORIENTED_EDGE('',*,*,#167,.T.);
#74=ORIENTED_EDGE('',*,*,#166,.T.);
#75=ORIENTED_EDGE('',*,*,#168,.T.);
#76=ORIENTED_EDGE('',*,*,#169,.F.);
#77=ORIENTED_EDGE('',*,*,#170,.T.);
#78=ORIENTED_EDGE('',*,*,#169,.T.);
#79=ORIENTED_EDGE('',*,*,#171,.T.);
#80=ORIENTED_EDGE('',*,*,#172,.F.);
#81=ORIENTED_EDGE('',*,*,#173,.T.);
#82=ORIENTED_EDGE('',*,*,#172,.T.);
#83=ORIENTED_EDGE('',*,*,#174,.T.);
#84=ORIENTED_EDGE('',*,*,#158,.F.);
#85=ORIENTED_EDGE('',*,*,#175,.T.);
#86=ORIENTED_EDGE('',*,*,#176,.T.);
#87=ORIENTED_EDGE('',*,*,#177,.T.);
#88=ORIENTED_EDGE('',*,*,#178,.T.);
#89=ORIENTED_EDGE('',*,*,#179,.T.);
#90=ORIENTED_EDGE('',*,*,#180,.T.);
#91=ORIENTED_EDGE('',*,*,#181,.T.);
#92=ORIENTED_EDGE('',*,*,#182,.T.);
#93=ORIENTED_EDGE('',*,*,#183,.T.);
#94=ORIENTED_EDGE('',*,*,#184,.T.);
#95=ORIENTED_EDGE('',*,*,#185,.T.);
#96=ORIENTED_EDGE('',*,*,#186,.T.);
#97=ORIENTED_EDGE('',*,*,#187,.T.);
#98=ORIENTED_EDGE('',*,*,#188,.T.);
#99=ORIENTED_EDGE('',*,*,#189,.T.);
#100=ORIENTED_EDGE('',*,*,#190,.T.);
#101=ORIENTED_EDGE('',*,*,#191,.T.);
#102=ORIENTED_EDGE('',*,*,#191,.F.);
#103=ORIENTED_EDGE('',*,*,#192,.T.);
#104=ORIENTED_EDGE('',*,*,#193,.T.);
#105=ORIENTED_EDGE('',*,*,#193,.F.);
#106=ORIENTED_EDGE('',*,*,#190,.F.);
#107=ORIENTED_EDGE('',*,*,#182,.F.);
#108=ORIENTED_EDGE('',*,*,#192,.F.);
#109=ORIENTED_EDGE('',*,*,#183,.F.);
#110=ORIENTED_EDGE('',*,*,#194,.F.);
#111=ORIENTED_EDGE('',*,*,#171,.F.);
#112=ORIENTED_EDGE('',*,*,#195,.F.);
#113=ORIENTED_EDGE('',*,*,#188,.F.);
#114=ORIENTED_EDGE('',*,*,#195,.T.);
#115=ORIENTED_EDGE('',*,*,#168,.F.);
#116=ORIENTED_EDGE('',*,*,#196,.F.);
#117=ORIENTED_EDGE('',*,*,#189,.F.);
#118=ORIENTED_EDGE('',*,*,#194,.T.);
#119=ORIENTED_EDGE('',*,*,#187,.F.);
#120=ORIENTED_EDGE('',*,*,#197,.F.);
#121=ORIENTED_EDGE('',*,*,#174,.F.);
#122=ORIENTED_EDGE('',*,*,#196,.T.);
#123=ORIENTED_EDGE('',*,*,#165,.F.);
#124=ORIENTED_EDGE('',*,*,#198,.F.);
#125=ORIENTED_EDGE('',*,*,#184,.F.);
#126=ORIENTED_EDGE('',*,*,#197,.T.);
#127=ORIENTED_EDGE('',*,*,#186,.F.);
#128=ORIENTED_EDGE('',*,*,#199,.F.);
#129=ORIENTED_EDGE('',*,*,#159,.F.);
#130=ORIENTED_EDGE('',*,*,#198,.T.);
#131=ORIENTED_EDGE('',*,*,#162,.F.);
#132=ORIENTED_EDGE('',*,*,#199,.T.);
#133=ORIENTED_EDGE('',*,*,#185,.F.);
#134=ORIENTED_EDGE('',*,*,#200,.F.);
#135=ORIENTED_EDGE('',*,*,#180,.F.);
#136=ORIENTED_EDGE('',*,*,#201,.F.);
#137=ORIENTED_EDGE('',*,*,#173,.F.);
#138=ORIENTED_EDGE('',*,*,#201,.T.);
#139=ORIENTED_EDGE('',*,*,#179,.F.);
#140=ORIENTED_EDGE('',*,*,#202,.F.);
#141=ORIENTED_EDGE('',*,*,#170,.F.);
#142=ORIENTED_EDGE('',*,*,#200,.T.);
#143=ORIENTED_EDGE('',*,*,#175,.F.);
#144=ORIENTED_EDGE('',*,*,#203,.F.);
#145=ORIENTED_EDGE('',*,*,#181,.F.);
#146=ORIENTED_EDGE('',*,*,#202,.T.);
#147=ORIENTED_EDGE('',*,*,#178,.F.);
#148=ORIENTED_EDGE('',*,*,#204,.F.);
#149=ORIENTED_EDGE('',*,*,#167,.F.);
#150=ORIENTED_EDGE('',*,*,#203,.T.);
#151=ORIENTED_EDGE('',*,*,#161,.F.);
#152=ORIENTED_EDGE('',*,*,#205,.F.);
#153=ORIENTED_EDGE('',*,*,#176,.F.);
#154=ORIENTED_EDGE('',*,*,#204,.T.);
#155=ORIENTED_EDGE('',*,*,#177,.F.);
#156=ORIENTED_EDGE('',*,*,#205,.T.);
#157=ORIENTED_EDGE('',*,*,#164,.F.);
#158=EDGE_CURVE('',#206,#207,#236,.T.);
#159=EDGE_CURVE('',#207,#208,#28,.T.);
#160=EDGE_CURVE('',#209,#208,#237,.T.);
#161=EDGE_CURVE('',#209,#206,#29,.F.);
#162=EDGE_CURVE('',#208,#210,#238,.F.);
#163=EDGE_CURVE('',#211,#210,#239,.T.);
#164=EDGE_CURVE('',#211,#209,#240,.T.);
#165=EDGE_CURVE('',#210,#212,#30,.T.);
#166=EDGE_CURVE('',#213,#212,#241,.T.);
#167=EDGE_CURVE('',#213,#211,#31,.F.);
#168=EDGE_CURVE('',#212,#214,#32,.F.);
#169=EDGE_CURVE('',#215,#214,#242,.T.);
#170=EDGE_CURVE('',#215,#213,#33,.T.);
#171=EDGE_CURVE('',#214,#216,#243,.T.);
#172=EDGE_CURVE('',#217,#216,#244,.T.);
#173=EDGE_CURVE('',#217,#215,#245,.F.);
#174=EDGE_CURVE('',#216,#207,#34,.F.);
#175=EDGE_CURVE('',#206,#217,#35,.T.);
#176=EDGE_CURVE('',#218,#219,#36,.T.);
#177=EDGE_CURVE('',#219,#220,#246,.F.);
#178=EDGE_CURVE('',#220,#221,#37,.T.);
#179=EDGE_CURVE('',#221,#222,#38,.F.);
#180=EDGE_CURVE('',#222,#223,#247,.T.);
#181=EDGE_CURVE('',#223,#218,#39,.F.);
#182=EDGE_CURVE('',#224,#224,#40,.T.);
#183=EDGE_CURVE('',#225,#225,#41,.T.);
#184=EDGE_CURVE('',#226,#227,#42,.F.);
#185=EDGE_CURVE('',#227,#228,#248,.T.);
#186=EDGE_CURVE('',#228,#229,#43,.F.);
#187=EDGE_CURVE('',#229,#230,#44,.T.);
#188=EDGE_CURVE('',#230,#231,#249,.F.);
#189=EDGE_CURVE('',#231,#226,#45,.T.);
#190=EDGE_CURVE('',#232,#232,#46,.F.);
#191=EDGE_CURVE('',#233,#233,#47,.T.);
#192=EDGE_CURVE('',#234,#234,#48,.F.);
#193=EDGE_CURVE('',#235,#235,#49,.T.);
#194=EDGE_CURVE('',#216,#230,#50,.T.);
#195=EDGE_CURVE('',#231,#214,#51,.T.);
#196=EDGE_CURVE('',#226,#212,#52,.T.);
#197=EDGE_CURVE('',#207,#229,#53,.T.);
#198=EDGE_CURVE('',#227,#210,#54,.T.);
#199=EDGE_CURVE('',#208,#228,#55,.T.);
#200=EDGE_CURVE('',#223,#217,#56,.T.);
#201=EDGE_CURVE('',#215,#222,#57,.T.);
#202=EDGE_CURVE('',#213,#221,#58,.T.);
#203=EDGE_CURVE('',#218,#206,#59,.T.);
#204=EDGE_CURVE('',#211,#220,#60,.T.);
#205=EDGE_CURVE('',#219,#209,#61,.T.);
#206=VERTEX_POINT('',#576);
#207=VERTEX_POINT('',#577);
#208=VERTEX_POINT('',#579);
#209=VERTEX_POINT('',#581);
#210=VERTEX_POINT('',#585);
#211=VERTEX_POINT('',#587);
#212=VERTEX_POINT('',#591);
#213=VERTEX_POINT('',#593);
#214=VERTEX_POINT('',#597);
#215=VERTEX_POINT('',#599);
#216=VERTEX_POINT('',#603);
#217=VERTEX_POINT('',#605);
#218=VERTEX_POINT('',#612);
#219=VERTEX_POINT('',#613);
#220=VERTEX_POINT('',#615);
#221=VERTEX_POINT('',#617);
#222=VERTEX_POINT('',#619);
#223=VERTEX_POINT('',#621);
#224=VERTEX_POINT('',#625);
#225=VERTEX_POINT('',#627);
#226=VERTEX_POINT('',#629);
#227=VERTEX_POINT('',#630);
#228=VERTEX_POINT('',#632);
#229=VERTEX_POINT('',#634);
#230=VERTEX_POINT('',#636);
#231=VERTEX_POINT('',#638);
#232=VERTEX_POINT('',#642);
#233=VERTEX_POINT('',#644);
#234=VERTEX_POINT('',#648);
#235=VERTEX_POINT('',#650);
#236=LINE('',#575,#250);
#237=LINE('',#580,#251);
#238=LINE('',#584,#252);
#239=LINE('',#586,#253);
#240=LINE('',#588,#254);
#241=LINE('',#592,#255);
#242=LINE('',#598,#256);
#243=LINE('',#602,#257);
#244=LINE('',#604,#258);
#245=LINE('',#606,#259);
#246=LINE('',#614,#260);
#247=LINE('',#620,#261);
#248=LINE('',#631,#262);
#249=LINE('',#637,#263);
#250=VECTOR('',#441,1.);
#251=VECTOR('',#444,1.);
#252=VECTOR('',#449,1.);
#253=VECTOR('',#450,1.);
#254=VECTOR('',#451,1.);
#255=VECTOR('',#456,1.);
#256=VECTOR('',#463,1.);
#257=VECTOR('',#468,1.);
#258=VECTOR('',#469,1.);
#259=VECTOR('',#470,1.);
#260=VECTOR('',#481,1.);
#261=VECTOR('',#486,1.);
#262=VECTOR('',#497,1.);
#263=VECTOR('',#502,1.);
#264=EDGE_LOOP('',(#62,#63,#64,#65));
#265=EDGE_LOOP('',(#66,#67,#68,#69));
#266=EDGE_LOOP('',(#70,#71,#72,#73));
#267=EDGE_LOOP('',(#74,#75,#76,#77));
#268=EDGE_LOOP('',(#78,#79,#80,#81));
#269=EDGE_LOOP('',(#82,#83,#84,#85));
#270=EDGE_LOOP('',(#86,#87,#88,#89,#90,#91));
#271=EDGE_LOOP('',(#92));
#272=EDGE_LOOP('',(#93));
#273=EDGE_LOOP('',(#94,#95,#96,#97,#98,#99));
#274=EDGE_LOOP('',(#100));
#275=EDGE_LOOP('',(#101));
#276=EDGE_LOOP('',(#102));
#277=EDGE_LOOP('',(#103));
#278=EDGE_LOOP('',(#104));
#279=EDGE_LOOP('',(#105));
#280=EDGE_LOOP('',(#106));
#281=EDGE_LOOP('',(#107));
#282=EDGE_LOOP('',(#108));
#283=EDGE_LOOP('',(#109));
#284=EDGE_LOOP('',(#110,#111,#112,#113));
#285=EDGE_LOOP('',(#114,#115,#116,#117));
#286=EDGE_LOOP('',(#118,#119,#120,#121));
#287=EDGE_LOOP('',(#122,#123,#124,#125));
#288=EDGE_LOOP('',(#126,#127,#128,#129));
#289=EDGE_LOOP('',(#130,#131,#132,#133));
#290=EDGE_LOOP('',(#134,#135,#136,#137));
#291=EDGE_LOOP('',(#138,#139,#140,#141));
#292=EDGE_LOOP('',(#142,#143,#144,#145));
#293=EDGE_LOOP('',(#146,#147,#148,#149));
#294=EDGE_LOOP('',(#150,#151,#152,#153));
#295=EDGE_LOOP('',(#154,#155,#156,#157));
#296=FACE_BOUND('',#264,.T.);
#297=FACE_BOUND('',#265,.T.);
#298=FACE_BOUND('',#266,.T.);
#299=FACE_BOUND('',#267,.T.);
#300=FACE_BOUND('',#268,.T.);
#301=FACE_BOUND('',#269,.T.);
#302=FACE_BOUND('',#270,.T.);
#303=FACE_BOUND('',#271,.T.);
#304=FACE_BOUND('',#272,.T.);
#305=FACE_BOUND('',#273,.T.);
#306=FACE_BOUND('',#274,.T.);
#307=FACE_BOUND('',#275,.T.);
#308=FACE_BOUND('',#276,.T.);
#309=FACE_BOUND('',#277,.T.);
#310=FACE_BOUND('',#278,.T.);
#311=FACE_BOUND('',#279,.T.);
#312=FACE_BOUND('',#280,.T.);
#313=FACE_BOUND('',#281,.T.);
#314=FACE_BOUND('',#282,.T.);
#315=FACE_BOUND('',#283,.T.);
#316=FACE_BOUND('',#284,.T.);
#317=FACE_BOUND('',#285,.T.);
#318=FACE_BOUND('',#286,.T.);
#319=FACE_BOUND('',#287,.T.);
#320=FACE_BOUND('',#288,.T.);
#321=FACE_BOUND('',#289,.T.);
#322=FACE_BOUND('',#290,.T.);
#323=FACE_BOUND('',#291,.T.);
#324=FACE_BOUND('',#292,.T.);
#325=FACE_BOUND('',#293,.T.);
#326=FACE_BOUND('',#294,.T.);
#327=FACE_BOUND('',#295,.T.);
#328=CYLINDRICAL_SURFACE('',#377,0.008);
#329=CYLINDRICAL_SURFACE('',#381,0.008);
#330=CYLINDRICAL_SURFACE('',#384,0.0035);
#331=CYLINDRICAL_SURFACE('',#388,0.0035);
#332=CYLINDRICAL_SURFACE('',#403,0.004075);
#333=CYLINDRICAL_SURFACE('',#407,0.004075);
#334=CYLINDRICAL_SURFACE('',#413,0.001);
#335=CYLINDRICAL_SURFACE('',#424,0.001);
#336=CYLINDRICAL_SURFACE('',#425,0.001);
#337=CYLINDRICAL_SURFACE('',#436,0.001);
#338=ADVANCED_FACE('',(#296),#328,.T.);
#339=ADVANCED_FACE('',(#297),#22,.T.);
#340=ADVANCED_FACE('',(#298),#329,.T.);
#341=ADVANCED_FACE('',(#299),#330,.F.);
#342=ADVANCED_FACE('',(#300),#23,.F.);
#343=ADVANCED_FACE('',(#301),#331,.F.);
#344=ADVANCED_FACE('',(#302),#24,.T.);
#345=ADVANCED_FACE('',(#303,#304,#305),#25,.F.);
#346=ADVANCED_FACE('',(#306,#307),#332,.F.);
#347=ADVANCED_FACE('',(#308),#26,.F.);
#348=ADVANCED_FACE('',(#309,#310),#333,.F.);
#349=ADVANCED_FACE('',(#311),#27,.F.);
#350=ADVANCED_FACE('',(#312,#313),#12,.T.);
#351=ADVANCED_FACE('',(#314,#315),#13,.T.);
#352=ADVANCED_FACE('',(#316),#334,.T.);
#353=ADVANCED_FACE('',(#317),#14,.T.);
#354=ADVANCED_FACE('',(#318),#15,.T.);
#355=ADVANCED_FACE('',(#319),#16,.T.);
#356=ADVANCED_FACE('',(#320),#17,.T.);
#357=ADVANCED_FACE('',(#321),#335,.T.);
#358=ADVANCED_FACE('',(#322),#336,.T.);
#359=ADVANCED_FACE('',(#323),#18,.T.);
#360=ADVANCED_FACE('',(#324),#19,.T.);
#361=ADVANCED_FACE('',(#325),#20,.T.);
#362=ADVANCED_FACE('',(#326),#21,.T.);
#363=ADVANCED_FACE('',(#327),#337,.T.);
#364=CLOSED_SHELL('',(#338,#339,#340,#341,#342,#343,#344,#345,#346,#347,
#348,#349,#350,#351,#352,#353,#354,#355,#356,#357,#358,#359,#360,#361,#362,
#363));
#365=STYLED_ITEM('',(#366),#373);
#366=PRESENTATION_STYLE_ASSIGNMENT((#367));
#367=SURFACE_STYLE_USAGE(.BOTH.,#368);
#368=SURFACE_SIDE_STYLE('',(#369));
#369=SURFACE_STYLE_FILL_AREA(#370);
#370=FILL_AREA_STYLE('',(#371));
#371=FILL_AREA_STYLE_COLOUR('',#372);
#372=COLOUR_RGB('',0.768627450980392,0.886274509803922,0.952941176470588);
#373=MANIFOLD_SOLID_BREP('BASE_top_cap',#364);
#374=SHAPE_DEFINITION_REPRESENTATION(#684,#375);
#375=SHAPE_REPRESENTATION('BASE_top_cap',(#376),#679);
#376=AXIS2_PLACEMENT_3D('',#573,#437,#438);
#377=AXIS2_PLACEMENT_3D('',#574,#439,#440);
#378=AXIS2_PLACEMENT_3D('',#578,#442,#443);
#379=AXIS2_PLACEMENT_3D('',#582,#445,#446);
#380=AXIS2_PLACEMENT_3D('',#583,#447,#448);
#381=AXIS2_PLACEMENT_3D('',#589,#452,#453);
#382=AXIS2_PLACEMENT_3D('',#590,#454,#455);
#383=AXIS2_PLACEMENT_3D('',#594,#457,#458);
#384=AXIS2_PLACEMENT_3D('',#595,#459,#460);
#385=AXIS2_PLACEMENT_3D('',#596,#461,#462);
#386=AXIS2_PLACEMENT_3D('',#600,#464,#465);
#387=AXIS2_PLACEMENT_3D('',#601,#466,#467);
#388=AXIS2_PLACEMENT_3D('',#607,#471,#472);
#389=AXIS2_PLACEMENT_3D('',#608,#473,#474);
#390=AXIS2_PLACEMENT_3D('',#609,#475,#476);
#391=AXIS2_PLACEMENT_3D('',#610,#477,#478);
#392=AXIS2_PLACEMENT_3D('',#611,#479,#480);
#393=AXIS2_PLACEMENT_3D('',#616,#482,#483);
#394=AXIS2_PLACEMENT_3D('',#618,#484,#485);
#395=AXIS2_PLACEMENT_3D('',#622,#487,#488);
#396=AXIS2_PLACEMENT_3D('',#623,#489,#490);
#397=AXIS2_PLACEMENT_3D('',#624,#491,#492);
#398=AXIS2_PLACEMENT_3D('',#626,#493,#494);
#399=AXIS2_PLACEMENT_3D('',#628,#495,#496);
#400=AXIS2_PLACEMENT_3D('',#633,#498,#499);
#401=AXIS2_PLACEMENT_3D('',#635,#500,#501);
#402=AXIS2_PLACEMENT_3D('',#639,#503,#504);
#403=AXIS2_PLACEMENT_3D('',#640,#505,#506);
#404=AXIS2_PLACEMENT_3D('',#641,#507,#508);
#405=AXIS2_PLACEMENT_3D('',#643,#509,#510);
#406=AXIS2_PLACEMENT_3D('',#645,#511,#512);
#407=AXIS2_PLACEMENT_3D('',#646,#513,#514);
#408=AXIS2_PLACEMENT_3D('',#647,#515,#516);
#409=AXIS2_PLACEMENT_3D('',#649,#517,#518);
#410=AXIS2_PLACEMENT_3D('',#651,#519,#520);
#411=AXIS2_PLACEMENT_3D('',#652,#521,#522);
#412=AXIS2_PLACEMENT_3D('',#653,#523,#524);
#413=AXIS2_PLACEMENT_3D('',#654,#525,#526);
#414=AXIS2_PLACEMENT_3D('',#655,#527,#528);
#415=AXIS2_PLACEMENT_3D('',#656,#529,#530);
#416=AXIS2_PLACEMENT_3D('',#657,#531,#532);
#417=AXIS2_PLACEMENT_3D('',#658,#533,#534);
#418=AXIS2_PLACEMENT_3D('',#659,#535,#536);
#419=AXIS2_PLACEMENT_3D('',#660,#537,#538);
#420=AXIS2_PLACEMENT_3D('',#661,#539,#540);
#421=AXIS2_PLACEMENT_3D('',#662,#541,#542);
#422=AXIS2_PLACEMENT_3D('',#663,#543,#544);
#423=AXIS2_PLACEMENT_3D('',#664,#545,#546);
#424=AXIS2_PLACEMENT_3D('',#665,#547,#548);
#425=AXIS2_PLACEMENT_3D('',#666,#549,#550);
#426=AXIS2_PLACEMENT_3D('',#667,#551,#552);
#427=AXIS2_PLACEMENT_3D('',#668,#553,#554);
#428=AXIS2_PLACEMENT_3D('',#669,#555,#556);
#429=AXIS2_PLACEMENT_3D('',#670,#557,#558);
#430=AXIS2_PLACEMENT_3D('',#671,#559,#560);
#431=AXIS2_PLACEMENT_3D('',#672,#561,#562);
#432=AXIS2_PLACEMENT_3D('',#673,#563,#564);
#433=AXIS2_PLACEMENT_3D('',#674,#565,#566);
#434=AXIS2_PLACEMENT_3D('',#675,#567,#568);
#435=AXIS2_PLACEMENT_3D('',#676,#569,#570);
#436=AXIS2_PLACEMENT_3D('',#677,#571,#572);
#437=DIRECTION('',(0.,0.,1.));
#438=DIRECTION('',(1.,0.,0.));
#439=DIRECTION('',(0.,0.,-1.));
#440=DIRECTION('',(-1.,0.,0.));
#441=DIRECTION('',(0.,0.,-1.));
#442=DIRECTION('',(0.,0.,1.));
#443=DIRECTION('',(1.,0.,0.));
#444=DIRECTION('',(0.,0.,-1.));
#445=DIRECTION('',(0.,0.,1.));
#446=DIRECTION('',(1.,0.,0.));
#447=DIRECTION('',(0.,1.,0.));
#448=DIRECTION('',(0.,0.,1.));
#449=DIRECTION('',(1.,0.,0.));
#450=DIRECTION('',(0.,0.,-1.));
#451=DIRECTION('',(1.,0.,0.));
#452=DIRECTION('',(0.,0.,-1.));
#453=DIRECTION('',(-1.,0.,0.));
#454=DIRECTION('',(0.,0.,1.));
#455=DIRECTION('',(1.,0.,0.));
#456=DIRECTION('',(0.,0.,-1.));
#457=DIRECTION('',(0.,0.,1.));
#458=DIRECTION('',(1.,0.,0.));
#459=DIRECTION('',(0.,0.,-1.));
#460=DIRECTION('',(-1.,0.,0.));
#461=DIRECTION('',(0.,0.,1.));
#462=DIRECTION('',(1.,0.,0.));
#463=DIRECTION('',(0.,0.,-1.));
#464=DIRECTION('',(0.,0.,1.));
#465=DIRECTION('',(1.,0.,0.));
#466=DIRECTION('',(0.,1.,0.));
#467=DIRECTION('',(0.,0.,1.));
#468=DIRECTION('',(1.,0.,0.));
#469=DIRECTION('',(0.,0.,-1.));
#470=DIRECTION('',(1.,0.,0.));
#471=DIRECTION('',(0.,0.,-1.));
#472=DIRECTION('',(-1.,0.,0.));
#473=DIRECTION('',(0.,0.,1.));
#474=DIRECTION('',(1.,0.,0.));
#475=DIRECTION('',(0.,0.,1.));
#476=DIRECTION('',(1.,0.,0.));
#477=DIRECTION('',(0.,0.,1.));
#478=DIRECTION('',(1.,0.,0.));
#479=DIRECTION('',(0.,0.,1.));
#480=DIRECTION('',(1.,0.,0.));
#481=DIRECTION('',(1.,0.,0.));
#482=DIRECTION('',(0.,0.,1.));
#483=DIRECTION('',(1.,0.,0.));
#484=DIRECTION('',(0.,0.,1.));
#485=DIRECTION('',(1.,0.,0.));
#486=DIRECTION('',(1.,0.,0.));
#487=DIRECTION('',(0.,0.,1.));
#488=DIRECTION('',(1.,0.,0.));
#489=DIRECTION('',(0.,0.,1.));
#490=DIRECTION('',(1.,0.,0.));
#491=DIRECTION('',(0.,0.,1.));
#492=DIRECTION('',(1.,0.,0.));
#493=DIRECTION('',(0.,0.,1.));
#494=DIRECTION('',(1.,0.,0.));
#495=DIRECTION('',(0.,0.,1.));
#496=DIRECTION('',(1.,0.,0.));
#497=DIRECTION('',(1.,0.,0.));
#498=DIRECTION('',(0.,0.,1.));
#499=DIRECTION('',(1.,0.,0.));
#500=DIRECTION('',(0.,0.,1.));
#501=DIRECTION('',(1.,0.,0.));
#502=DIRECTION('',(1.,0.,0.));
#503=DIRECTION('',(0.,0.,1.));
#504=DIRECTION('',(1.,0.,0.));
#505=DIRECTION('',(0.,0.,-1.));
#506=DIRECTION('',(-1.,0.,0.));
#507=DIRECTION('',(0.,0.,1.));
#508=DIRECTION('',(1.,0.,0.));
#509=DIRECTION('',(0.,0.,1.));
#510=DIRECTION('',(1.,0.,0.));
#511=DIRECTION('',(0.,0.,1.));
#512=DIRECTION('',(1.,0.,0.));
#513=DIRECTION('',(0.,0.,-1.));
#514=DIRECTION('',(-1.,0.,0.));
#515=DIRECTION('',(0.,0.,1.));
#516=DIRECTION('',(1.,0.,0.));
#517=DIRECTION('',(0.,0.,1.));
#518=DIRECTION('',(1.,0.,0.));
#519=DIRECTION('',(0.,0.,1.));
#520=DIRECTION('',(1.,0.,0.));
#521=DIRECTION('',(0.,0.,1.));
#522=DIRECTION('',(1.,0.,0.));
#523=DIRECTION('',(0.,0.,1.));
#524=DIRECTION('',(1.,0.,0.));
#525=DIRECTION('',(1.,0.,0.));
#526=DIRECTION('',(0.,0.,-1.));
#527=DIRECTION('',(1.,0.,0.));
#528=DIRECTION('',(0.,0.,-1.));
#529=DIRECTION('',(-1.,0.,0.));
#530=DIRECTION('',(0.,0.,1.));
#531=DIRECTION('',(0.,0.,1.));
#532=DIRECTION('',(1.,0.,0.));
#533=DIRECTION('',(1.00947349806777E-16,-1.,0.));
#534=DIRECTION('',(1.,1.00947349806777E-16,0.));
#535=DIRECTION('',(0.,0.,1.));
#536=DIRECTION('',(1.,0.,0.));
#537=DIRECTION('',(3.06161699786854E-17,-1.,0.));
#538=DIRECTION('',(1.,3.06161699786854E-17,0.));
#539=DIRECTION('',(0.,0.,1.));
#540=DIRECTION('',(1.,0.,0.));
#541=DIRECTION('',(1.,0.,0.));
#542=DIRECTION('',(0.,0.,-1.));
#543=DIRECTION('',(0.,0.,1.));
#544=DIRECTION('',(1.,0.,0.));
#545=DIRECTION('',(-1.,-8.86678682450446E-16,8.86678682450445E-16));
#546=DIRECTION('',(8.86678682450446E-16,-1.,0.));
#547=DIRECTION('',(-1.,0.,0.));
#548=DIRECTION('',(0.,0.,1.));
#549=DIRECTION('',(-1.,0.,0.));
#550=DIRECTION('',(0.,0.,1.));
#551=DIRECTION('',(1.,0.,0.));
#552=DIRECTION('',(0.,0.,-1.));
#553=DIRECTION('',(-1.,0.,0.));
#554=DIRECTION('',(0.,0.,1.));
#555=DIRECTION('',(0.,0.,1.));
#556=DIRECTION('',(1.,0.,0.));
#557=DIRECTION('',(8.54041993345497E-18,-1.,-9.24069298733222E-17));
#558=DIRECTION('',(0.,9.24069298733222E-17,-1.));
#559=DIRECTION('',(0.,0.,1.));
#560=DIRECTION('',(1.,0.,0.));
#561=DIRECTION('',(3.06161699786854E-17,-1.,0.));
#562=DIRECTION('',(1.,3.06161699786854E-17,0.));
#563=DIRECTION('',(0.,0.,1.));
#564=DIRECTION('',(1.,0.,0.));
#565=DIRECTION('',(1.,0.,0.));
#566=DIRECTION('',(0.,0.,-1.));
#567=DIRECTION('',(0.,0.,1.));
#568=DIRECTION('',(1.,0.,0.));
#569=DIRECTION('',(-1.,-7.70371977754894E-31,0.));
#570=DIRECTION('',(7.70371977754894E-31,-1.,0.));
#571=DIRECTION('',(1.,0.,0.));
#572=DIRECTION('',(0.,0.,-1.));
#573=CARTESIAN_POINT('',(0.,0.,0.));
#574=CARTESIAN_POINT('',(1.54535555696351E-19,1.35722045764734E-18,0.018));
#575=CARTESIAN_POINT('',(-0.008,2.14313189850798E-19,0.018));
#576=CARTESIAN_POINT('',(-0.008,2.14313189850798E-19,0.017));
#577=CARTESIAN_POINT('',(-0.008,2.14313189850798E-19,0.001));
#578=CARTESIAN_POINT('',(1.54535555696351E-19,1.35722045764734E-18,0.001));
#579=CARTESIAN_POINT('',(-6.93889390390723E-18,0.008,0.001));
#580=CARTESIAN_POINT('',(-6.93889390390723E-18,0.008,0.018));
#581=CARTESIAN_POINT('',(-6.93889390390723E-18,0.008,0.017));
#582=CARTESIAN_POINT('',(1.54535555696351E-19,1.35722045764734E-18,0.017));
#583=CARTESIAN_POINT('',(-0.0225,0.008,0.018));
#584=CARTESIAN_POINT('',(-0.045,0.008,0.001));
#585=CARTESIAN_POINT('',(-0.045,0.008,0.001));
#586=CARTESIAN_POINT('',(-0.045,0.008,0.018));
#587=CARTESIAN_POINT('',(-0.045,0.008,0.017));
#588=CARTESIAN_POINT('',(-0.0225,0.008,0.017));
#589=CARTESIAN_POINT('',(-0.045,0.,0.018));
#590=CARTESIAN_POINT('',(-0.045,0.,0.001));
#591=CARTESIAN_POINT('',(-0.037,8.07578798454218E-19,0.001));
#592=CARTESIAN_POINT('',(-0.037,8.07578798454218E-19,0.018));
#593=CARTESIAN_POINT('',(-0.037,8.07578798454218E-19,0.017));
#594=CARTESIAN_POINT('',(-0.045,0.,0.017));
#595=CARTESIAN_POINT('',(-0.0335,8.37470268221311E-19,0.018));
#596=CARTESIAN_POINT('',(-0.0335,8.37470268221311E-19,0.001));
#597=CARTESIAN_POINT('',(-0.0335,0.0035,0.001));
#598=CARTESIAN_POINT('',(-0.0335,0.0035,0.018));
#599=CARTESIAN_POINT('',(-0.0335,0.0035,0.017));
#600=CARTESIAN_POINT('',(-0.0335,8.37470268221311E-19,0.017));
#601=CARTESIAN_POINT('',(-0.0225,0.0035,0.018));
#602=CARTESIAN_POINT('',(-0.0225,0.0035,0.001));
#603=CARTESIAN_POINT('',(-0.0115,0.0035,0.001));
#604=CARTESIAN_POINT('',(-0.0115,0.0035,0.018));
#605=CARTESIAN_POINT('',(-0.0115,0.0035,0.017));
#606=CARTESIAN_POINT('',(-0.0335,0.0035,0.017));
#607=CARTESIAN_POINT('',(-0.0115,1.07156594925399E-19,0.018));
#608=CARTESIAN_POINT('',(-0.0115,1.07156594925399E-19,0.001));
#609=CARTESIAN_POINT('',(-0.0115,1.07156594925399E-19,0.017));
#610=CARTESIAN_POINT('',(-0.0225,-3.46944695195361E-18,0.018));
#611=CARTESIAN_POINT('',(1.54535555696351E-19,1.35722045764734E-18,0.018));
#612=CARTESIAN_POINT('',(-0.007,2.44929359829484E-19,0.018));
#613=CARTESIAN_POINT('',(-6.93889390390722E-18,0.007,0.018));
#614=CARTESIAN_POINT('',(-0.0225,0.007,0.018));
#615=CARTESIAN_POINT('',(-0.045,0.007,0.018));
#616=CARTESIAN_POINT('',(-0.045,0.,0.018));
#617=CARTESIAN_POINT('',(-0.038,7.06631448647441E-19,0.018));
#618=CARTESIAN_POINT('',(-0.0335,8.37470268221311E-19,0.018));
#619=CARTESIAN_POINT('',(-0.0335,0.0045,0.018));
#620=CARTESIAN_POINT('',(-0.0115,0.0045,0.018));
#621=CARTESIAN_POINT('',(-0.0115,0.0045,0.018));
#622=CARTESIAN_POINT('',(-0.0115,1.07156594925399E-19,0.018));
#623=CARTESIAN_POINT('',(-0.0225,-3.46944695195361E-18,0.));
#624=CARTESIAN_POINT('',(-0.045,2.49521785326273E-19,0.));
#625=CARTESIAN_POINT('',(-0.039925,2.49521785326273E-19,0.));
#626=CARTESIAN_POINT('',(0.,2.49521785326273E-19,0.));
#627=CARTESIAN_POINT('',(0.005075,2.49521785326273E-19,0.));
#628=CARTESIAN_POINT('',(-0.045,0.,0.));
#629=CARTESIAN_POINT('',(-0.038,7.06631448647441E-19,0.));
#630=CARTESIAN_POINT('',(-0.045,0.007,0.));
#631=CARTESIAN_POINT('',(-6.93889390390723E-18,0.007,0.));
#632=CARTESIAN_POINT('',(-6.93889390390722E-18,0.007,0.));
#633=CARTESIAN_POINT('',(1.54535555696351E-19,1.35722045764734E-18,0.));
#634=CARTESIAN_POINT('',(-0.007,2.44929359829484E-19,0.));
#635=CARTESIAN_POINT('',(-0.0115,1.07156594925399E-19,0.));
#636=CARTESIAN_POINT('',(-0.0115,0.0045,0.));
#637=CARTESIAN_POINT('',(-0.0225,0.0045,0.));
#638=CARTESIAN_POINT('',(-0.0335,0.0045,0.));
#639=CARTESIAN_POINT('',(-0.0335,8.37470268221311E-19,0.));
#640=CARTESIAN_POINT('',(-0.045,2.49521785326273E-19,0.015));
#641=CARTESIAN_POINT('',(-0.045,2.49521785326273E-19,0.001));
#642=CARTESIAN_POINT('',(-0.040925,2.49521785326273E-19,0.001));
#643=CARTESIAN_POINT('',(-0.045,2.49521785326273E-19,0.015));
#644=CARTESIAN_POINT('',(-0.040925,2.49521785326273E-19,0.015));
#645=CARTESIAN_POINT('',(-0.0225,-3.46944695195361E-18,0.015));
#646=CARTESIAN_POINT('',(0.,2.49521785326273E-19,0.015));
#647=CARTESIAN_POINT('',(0.,2.49521785326273E-19,0.001));
#648=CARTESIAN_POINT('',(0.004075,2.49521785326273E-19,0.001));
#649=CARTESIAN_POINT('',(0.,2.49521785326273E-19,0.015));
#650=CARTESIAN_POINT('',(0.004075,2.49521785326273E-19,0.015));
#651=CARTESIAN_POINT('',(-0.0225,-3.46944695195361E-18,0.015));
#652=CARTESIAN_POINT('',(-0.045,2.49521785326273E-19,0.001));
#653=CARTESIAN_POINT('',(0.,2.49521785326273E-19,0.001));
#654=CARTESIAN_POINT('',(-0.0225,0.0045,0.001));
#655=CARTESIAN_POINT('',(-0.0115,0.0045,0.001));
#656=CARTESIAN_POINT('',(-0.0335,0.0045,0.001));
#657=CARTESIAN_POINT('',(-0.0335,8.37470268221311E-19,0.001));
#658=CARTESIAN_POINT('',(-0.038,7.06631448647441E-19,0.001));
#659=CARTESIAN_POINT('',(-0.0115,1.07156594925399E-19,0.001));
#660=CARTESIAN_POINT('',(-0.007,2.44929359829484E-19,0.001));
#661=CARTESIAN_POINT('',(-0.045,0.,0.001));
#662=CARTESIAN_POINT('',(-0.045,0.007,0.001));
#663=CARTESIAN_POINT('',(1.54535555696351E-19,1.35722045764734E-18,0.001));
#664=CARTESIAN_POINT('',(-6.05221522145677E-18,0.007,0.001));
#665=CARTESIAN_POINT('',(-0.0225,0.007,0.001));
#666=CARTESIAN_POINT('',(-0.0225,0.0045,0.017));
#667=CARTESIAN_POINT('',(-0.0115,0.0045,0.017));
#668=CARTESIAN_POINT('',(-0.0335,0.0045,0.017));
#669=CARTESIAN_POINT('',(-0.0335,8.37470268221311E-19,0.017));
#670=CARTESIAN_POINT('',(-0.038,7.99038378520763E-19,0.017));
#671=CARTESIAN_POINT('',(-0.0115,1.07156594925399E-19,0.017));
#672=CARTESIAN_POINT('',(-0.007,2.44929359829484E-19,0.017));
#673=CARTESIAN_POINT('',(-0.045,0.,0.017));
#674=CARTESIAN_POINT('',(-0.045,0.007,0.017));
#675=CARTESIAN_POINT('',(1.54535555696351E-19,1.35722045764734E-18,0.017));
#676=CARTESIAN_POINT('',(-6.93889390390722E-18,0.007,0.017));
#677=CARTESIAN_POINT('',(-0.0225,0.007,0.017));
#678=MECHANICAL_DESIGN_GEOMETRIC_PRESENTATION_REPRESENTATION('',(#365),
#679);
#679=(
GEOMETRIC_REPRESENTATION_CONTEXT(3)
GLOBAL_UNCERTAINTY_ASSIGNED_CONTEXT((#680))
GLOBAL_UNIT_ASSIGNED_CONTEXT((#683,#682,#681))
REPRESENTATION_CONTEXT('BASE_top_cap','TOP_LEVEL_ASSEMBLY_PART')
);
#680=UNCERTAINTY_MEASURE_WITH_UNIT(LENGTH_MEASURE(1.E-8),#683,
'DISTANCE_ACCURACY_VALUE','Maximum Tolerance applied to model');
#681=(
NAMED_UNIT(*)
SI_UNIT($,.STERADIAN.)
SOLID_ANGLE_UNIT()
);
#682=(
NAMED_UNIT(*)
PLANE_ANGLE_UNIT()
SI_UNIT($,.RADIAN.)
);
#683=(
LENGTH_UNIT()
NAMED_UNIT(*)
SI_UNIT($,.METRE.)
);
#684=PRODUCT_DEFINITION_SHAPE('','',#685);
#685=PRODUCT_DEFINITION('','',#687,#686);
#686=PRODUCT_DEFINITION_CONTEXT('',#693,'design');
#687=PRODUCT_DEFINITION_FORMATION_WITH_SPECIFIED_SOURCE('','',#689,
 .NOT_KNOWN.);
#688=PRODUCT_RELATED_PRODUCT_CATEGORY('','',(#689));
#689=PRODUCT('BASE_top_cap','BASE_top_cap','BASE_top_cap',(#691));
#690=PRODUCT_CATEGORY('','');
#691=PRODUCT_CONTEXT('',#693,'mechanical');
#692=APPLICATION_PROTOCOL_DEFINITION('international standard',
'ap242_managed_model_based_3d_engineering',2020,#693);
#693=APPLICATION_CONTEXT('managed model based 3d engineering');
ENDSEC;
END-ISO-10303-21;
