ISO-10303-21;
HEADER;
/* Generated by software containing ST-Developer
 * from STEP Tools, Inc. (www.steptools.com) 
 */
/* OPTION: using custom renumber hook */

FILE_DESCRIPTION(
/* description */ ('STEP AP242 Edition 2',
'CAx-IF Rec.Pracs.---Representation and Presentation of Product Manufa
cturing Information (PMI)---4.0---2014-10-13',
'CAx-IF Rec.Pracs.---3D Tessellated Geometry---0.4---2014-09-14','2;1',
'CAx-IF Rec.Pracs.---User Defined Attributes---1.5---2016-08-15'),
/* implementation_level */ '2;1');

FILE_NAME(
/* name */ 'laser_block - BLOCKS_laser_spacer',
/* time_stamp */ '2026-05-14T18:09:42Z',
/* author */ (''),
/* organization */ (''),
/* preprocessor_version */ 'ST-DEVELOPER v20',
/* originating_system */ 'ONSHAPE BY PTC INC, 1.214',
/* authorisation */ '  ');

FILE_SCHEMA (('AP242_MANAGED_MODEL_BASED_3D_ENGINEERING_MIM_LF { 1 0 10303 442 3 1 4 }'));
ENDSEC;

DATA;
#10=SHAPE_REPRESENTATION_RELATIONSHIP('','',#111,#11);
#11=ADVANCED_BREP_SHAPE_REPRESENTATION('',(#109),#189);
#12=TOROIDAL_SURFACE('',#125,0.01145,0.0005);
#13=TOROIDAL_SURFACE('',#126,0.01195,0.0005);
#14=TOROIDAL_SURFACE('',#127,0.01145,0.0005);
#15=TOROIDAL_SURFACE('',#128,0.01195,0.0005);
#16=PLANE('',#119);
#17=PLANE('',#122);
#18=ORIENTED_EDGE('',*,*,#34,.T.);
#19=ORIENTED_EDGE('',*,*,#35,.T.);
#20=ORIENTED_EDGE('',*,*,#36,.T.);
#21=ORIENTED_EDGE('',*,*,#37,.T.);
#22=ORIENTED_EDGE('',*,*,#38,.T.);
#23=ORIENTED_EDGE('',*,*,#39,.T.);
#24=ORIENTED_EDGE('',*,*,#40,.T.);
#25=ORIENTED_EDGE('',*,*,#41,.T.);
#26=ORIENTED_EDGE('',*,*,#38,.F.);
#27=ORIENTED_EDGE('',*,*,#34,.F.);
#28=ORIENTED_EDGE('',*,*,#36,.F.);
#29=ORIENTED_EDGE('',*,*,#39,.F.);
#30=ORIENTED_EDGE('',*,*,#35,.F.);
#31=ORIENTED_EDGE('',*,*,#40,.F.);
#32=ORIENTED_EDGE('',*,*,#41,.F.);
#33=ORIENTED_EDGE('',*,*,#37,.F.);
#34=EDGE_CURVE('',#42,#42,#50,.T.);
#35=EDGE_CURVE('',#43,#43,#51,.F.);
#36=EDGE_CURVE('',#44,#44,#52,.F.);
#37=EDGE_CURVE('',#45,#45,#53,.T.);
#38=EDGE_CURVE('',#46,#46,#54,.F.);
#39=EDGE_CURVE('',#47,#47,#55,.T.);
#40=EDGE_CURVE('',#48,#48,#56,.T.);
#41=EDGE_CURVE('',#49,#49,#57,.F.);
#42=VERTEX_POINT('',#166);
#43=VERTEX_POINT('',#168);
#44=VERTEX_POINT('',#171);
#45=VERTEX_POINT('',#173);
#46=VERTEX_POINT('',#176);
#47=VERTEX_POINT('',#178);
#48=VERTEX_POINT('',#181);
#49=VERTEX_POINT('',#183);
#50=CIRCLE('',#114,0.01095);
#51=CIRCLE('',#115,0.01095);
#52=CIRCLE('',#117,0.01245);
#53=CIRCLE('',#118,0.01245);
#54=CIRCLE('',#120,0.01145);
#55=CIRCLE('',#121,0.01195);
#56=CIRCLE('',#123,0.01145);
#57=CIRCLE('',#124,0.01195);
#58=EDGE_LOOP('',(#18));
#59=EDGE_LOOP('',(#19));
#60=EDGE_LOOP('',(#20));
#61=EDGE_LOOP('',(#21));
#62=EDGE_LOOP('',(#22));
#63=EDGE_LOOP('',(#23));
#64=EDGE_LOOP('',(#24));
#65=EDGE_LOOP('',(#25));
#66=EDGE_LOOP('',(#26));
#67=EDGE_LOOP('',(#27));
#68=EDGE_LOOP('',(#28));
#69=EDGE_LOOP('',(#29));
#70=EDGE_LOOP('',(#30));
#71=EDGE_LOOP('',(#31));
#72=EDGE_LOOP('',(#32));
#73=EDGE_LOOP('',(#33));
#74=FACE_BOUND('',#58,.T.);
#75=FACE_BOUND('',#59,.T.);
#76=FACE_BOUND('',#60,.T.);
#77=FACE_BOUND('',#61,.T.);
#78=FACE_BOUND('',#62,.T.);
#79=FACE_BOUND('',#63,.T.);
#80=FACE_BOUND('',#64,.T.);
#81=FACE_BOUND('',#65,.T.);
#82=FACE_BOUND('',#66,.T.);
#83=FACE_BOUND('',#67,.T.);
#84=FACE_BOUND('',#68,.T.);
#85=FACE_BOUND('',#69,.T.);
#86=FACE_BOUND('',#70,.T.);
#87=FACE_BOUND('',#71,.T.);
#88=FACE_BOUND('',#72,.T.);
#89=FACE_BOUND('',#73,.T.);
#90=CYLINDRICAL_SURFACE('',#113,0.01095);
#91=CYLINDRICAL_SURFACE('',#116,0.01245);
#92=ADVANCED_FACE('',(#74,#75),#90,.F.);
#93=ADVANCED_FACE('',(#76,#77),#91,.T.);
#94=ADVANCED_FACE('',(#78,#79),#16,.T.);
#95=ADVANCED_FACE('',(#80,#81),#17,.F.);
#96=ADVANCED_FACE('',(#82,#83),#12,.T.);
#97=ADVANCED_FACE('',(#84,#85),#13,.T.);
#98=ADVANCED_FACE('',(#86,#87),#14,.T.);
#99=ADVANCED_FACE('',(#88,#89),#15,.T.);
#100=CLOSED_SHELL('',(#92,#93,#94,#95,#96,#97,#98,#99));
#101=STYLED_ITEM('',(#102),#109);
#102=PRESENTATION_STYLE_ASSIGNMENT((#103));
#103=SURFACE_STYLE_USAGE(.BOTH.,#104);
#104=SURFACE_SIDE_STYLE('',(#105));
#105=SURFACE_STYLE_FILL_AREA(#106);
#106=FILL_AREA_STYLE('',(#107));
#107=FILL_AREA_STYLE_COLOUR('',#108);
#108=COLOUR_RGB('',0.768627450980392,0.886274509803922,0.952941176470588);
#109=MANIFOLD_SOLID_BREP('BLOCKS_laser_spacer',#100);
#110=SHAPE_DEFINITION_REPRESENTATION(#194,#111);
#111=SHAPE_REPRESENTATION('BLOCKS_laser_spacer',(#112),#189);
#112=AXIS2_PLACEMENT_3D('',#163,#129,#130);
#113=AXIS2_PLACEMENT_3D('',#164,#131,#132);
#114=AXIS2_PLACEMENT_3D('',#165,#133,#134);
#115=AXIS2_PLACEMENT_3D('',#167,#135,#136);
#116=AXIS2_PLACEMENT_3D('',#169,#137,#138);
#117=AXIS2_PLACEMENT_3D('',#170,#139,#140);
#118=AXIS2_PLACEMENT_3D('',#172,#141,#142);
#119=AXIS2_PLACEMENT_3D('',#174,#143,#144);
#120=AXIS2_PLACEMENT_3D('',#175,#145,#146);
#121=AXIS2_PLACEMENT_3D('',#177,#147,#148);
#122=AXIS2_PLACEMENT_3D('',#179,#149,#150);
#123=AXIS2_PLACEMENT_3D('',#180,#151,#152);
#124=AXIS2_PLACEMENT_3D('',#182,#153,#154);
#125=AXIS2_PLACEMENT_3D('',#184,#155,#156);
#126=AXIS2_PLACEMENT_3D('',#185,#157,#158);
#127=AXIS2_PLACEMENT_3D('',#186,#159,#160);
#128=AXIS2_PLACEMENT_3D('',#187,#161,#162);
#129=DIRECTION('',(0.,0.,1.));
#130=DIRECTION('',(1.,0.,0.));
#131=DIRECTION('',(0.,1.,0.));
#132=DIRECTION('',(0.,0.,1.));
#133=DIRECTION('',(0.,-1.,0.));
#134=DIRECTION('',(0.,0.,-1.));
#135=DIRECTION('',(0.,-1.,0.));
#136=DIRECTION('',(0.,0.,-1.));
#137=DIRECTION('',(0.,1.,0.));
#138=DIRECTION('',(0.,0.,1.));
#139=DIRECTION('',(0.,-1.,0.));
#140=DIRECTION('',(0.,0.,-1.));
#141=DIRECTION('',(0.,-1.,0.));
#142=DIRECTION('',(0.,0.,-1.));
#143=DIRECTION('',(0.,-1.,0.));
#144=DIRECTION('',(1.,0.,0.));
#145=DIRECTION('',(0.,-1.,0.));
#146=DIRECTION('',(0.,0.,-1.));
#147=DIRECTION('',(0.,-1.,0.));
#148=DIRECTION('',(0.,0.,-1.));
#149=DIRECTION('',(0.,-1.,0.));
#150=DIRECTION('',(1.,0.,0.));
#151=DIRECTION('',(0.,-1.,0.));
#152=DIRECTION('',(0.,0.,-1.));
#153=DIRECTION('',(0.,-1.,0.));
#154=DIRECTION('',(0.,0.,-1.));
#155=DIRECTION('',(0.,-1.,0.));
#156=DIRECTION('',(0.,0.,-1.));
#157=DIRECTION('',(0.,-1.,0.));
#158=DIRECTION('',(0.,0.,-1.));
#159=DIRECTION('',(0.,-1.,0.));
#160=DIRECTION('',(0.,0.,-1.));
#161=DIRECTION('',(0.,-1.,0.));
#162=DIRECTION('',(0.,0.,-1.));
#163=CARTESIAN_POINT('',(0.,0.,0.));
#164=CARTESIAN_POINT('',(0.,-0.198,6.70494122533176E-19));
#165=CARTESIAN_POINT('',(0.,-0.1975,6.70494122533176E-19));
#166=CARTESIAN_POINT('',(0.,-0.1975,-0.01095));
#167=CARTESIAN_POINT('',(0.,-0.151,6.70494122533176E-19));
#168=CARTESIAN_POINT('',(0.,-0.151,-0.01095));
#169=CARTESIAN_POINT('',(0.,-0.198,7.62342632469227E-19));
#170=CARTESIAN_POINT('',(0.,-0.1975,7.62342632469227E-19));
#171=CARTESIAN_POINT('',(0.,-0.1975,-0.01245));
#172=CARTESIAN_POINT('',(0.,-0.151,7.62342632469227E-19));
#173=CARTESIAN_POINT('',(0.,-0.151,-0.01245));
#174=CARTESIAN_POINT('',(-3.46944695195361E-18,-0.198,0.));
#175=CARTESIAN_POINT('',(0.,-0.198,6.70494122533176E-19));
#176=CARTESIAN_POINT('',(0.,-0.198,-0.01145));
#177=CARTESIAN_POINT('',(0.,-0.198,7.62342632469227E-19));
#178=CARTESIAN_POINT('',(0.,-0.198,-0.01195));
#179=CARTESIAN_POINT('',(-3.46944695195361E-18,-0.1505,0.));
#180=CARTESIAN_POINT('',(0.,-0.1505,6.70494122533176E-19));
#181=CARTESIAN_POINT('',(0.,-0.1505,-0.01145));
#182=CARTESIAN_POINT('',(0.,-0.1505,7.62342632469227E-19));
#183=CARTESIAN_POINT('',(0.,-0.1505,-0.01195));
#184=CARTESIAN_POINT('',(0.,-0.1975,6.70494122533176E-19));
#185=CARTESIAN_POINT('',(0.,-0.1975,7.62342632469227E-19));
#186=CARTESIAN_POINT('',(0.,-0.151,6.70494122533176E-19));
#187=CARTESIAN_POINT('',(0.,-0.151,7.62342632469227E-19));
#188=MECHANICAL_DESIGN_GEOMETRIC_PRESENTATION_REPRESENTATION('',(#101),
#189);
#189=(
GEOMETRIC_REPRESENTATION_CONTEXT(3)
GLOBAL_UNCERTAINTY_ASSIGNED_CONTEXT((#190))
GLOBAL_UNIT_ASSIGNED_CONTEXT((#193,#192,#191))
REPRESENTATION_CONTEXT('BLOCKS_laser_spacer','TOP_LEVEL_ASSEMBLY_PART')
);
#190=UNCERTAINTY_MEASURE_WITH_UNIT(LENGTH_MEASURE(1.E-8),#193,
'DISTANCE_ACCURACY_VALUE','Maximum Tolerance applied to model');
#191=(
NAMED_UNIT(*)
SI_UNIT($,.STERADIAN.)
SOLID_ANGLE_UNIT()
);
#192=(
NAMED_UNIT(*)
PLANE_ANGLE_UNIT()
SI_UNIT($,.RADIAN.)
);
#193=(
LENGTH_UNIT()
NAMED_UNIT(*)
SI_UNIT($,.METRE.)
);
#194=PRODUCT_DEFINITION_SHAPE('','',#195);
#195=PRODUCT_DEFINITION('','',#197,#196);
#196=PRODUCT_DEFINITION_CONTEXT('',#203,'design');
#197=PRODUCT_DEFINITION_FORMATION_WITH_SPECIFIED_SOURCE('','',#199,
 .NOT_KNOWN.);
#198=PRODUCT_RELATED_PRODUCT_CATEGORY('','',(#199));
#199=PRODUCT('BLOCKS_laser_spacer','BLOCKS_laser_spacer',
'BLOCKS_laser_spacer',(#201));
#200=PRODUCT_CATEGORY('','');
#201=PRODUCT_CONTEXT('',#203,'mechanical');
#202=APPLICATION_PROTOCOL_DEFINITION('international standard',
'ap242_managed_model_based_3d_engineering',2020,#203);
#203=APPLICATION_CONTEXT('managed model based 3d engineering');
ENDSEC;
END-ISO-10303-21;
