ISO-10303-21;
HEADER;
/* Generated by software containing ST-Developer
 * from STEP Tools, Inc. (www.steptools.com) 
 */
/* OPTION: using custom renumber hook */

FILE_DESCRIPTION(
/* description */ ('STEP AP242 Edition 2',
'CAx-IF Rec.Pracs.---Representation and Presentation of Product Manufa
cturing Information (PMI)---4.0---2014-10-13',
'CAx-IF Rec.Pracs.---3D Tessellated Geometry---0.4---2014-09-14','2;1',
'CAx-IF Rec.Pracs.---User Defined Attributes---1.5---2016-08-15'),
/* implementation_level */ '2;1');

FILE_NAME(
/* name */ 'detector_block - BLOCKS_detector_clamp',
/* time_stamp */ '2026-05-15T17:30:17Z',
/* author */ (''),
/* organization */ (''),
/* preprocessor_version */ 'ST-DEVELOPER v20',
/* originating_system */ 'ONSHAPE BY PTC INC, 1.214',
/* authorisation */ '  ');

FILE_SCHEMA (('AP242_MANAGED_MODEL_BASED_3D_ENGINEERING_MIM_LF { 1 0 10303 442 3 1 4 }'));
ENDSEC;

DATA;
#10=SHAPE_REPRESENTATION_RELATIONSHIP('','',#1100,#11);
#11=ADVANCED_BREP_SHAPE_REPRESENTATION('',(#1098),#2061);
#12=TOROIDAL_SURFACE('',#1146,0.016,0.00025);
#13=TOROIDAL_SURFACE('',#1162,0.0005,0.00025);
#14=TOROIDAL_SURFACE('',#1194,0.0005,0.00025);
#15=TOROIDAL_SURFACE('',#1222,0.0005,0.00025);
#16=TOROIDAL_SURFACE('',#1232,0.016,0.00025);
#17=TOROIDAL_SURFACE('',#1252,0.0005,0.00025);
#18=TOROIDAL_SURFACE('',#1257,0.002125,0.0005);
#19=(
BOUNDED_SURFACE()
B_SPLINE_SURFACE(3,2,((#1833,#1834,#1835),(#1836,#1837,#1838),(#1839,#1840,
#1841),(#1842,#1843,#1844)),.UNSPECIFIED.,.F.,.F.,.F.)
B_SPLINE_SURFACE_WITH_KNOTS((4,4),(3,3),(0.000701134757942546,0.00119285791074202),
(0.,1.),.PIECEWISE_BEZIER_KNOTS.)
GEOMETRIC_REPRESENTATION_ITEM()
RATIONAL_B_SPLINE_SURFACE(((1.,0.665134512886204,1.),(1.,0.645637511928659,
1.),(1.,0.634921267408083,1.),(1.,0.634921254960015,1.)))
REPRESENTATION_ITEM('')
SURFACE()
);
#20=(
BOUNDED_SURFACE()
B_SPLINE_SURFACE(3,2,((#1854,#1855,#1856),(#1857,#1858,#1859),(#1860,#1861,
#1862),(#1863,#1864,#1865)),.UNSPECIFIED.,.F.,.F.,.F.)
B_SPLINE_SURFACE_WITH_KNOTS((4,4),(3,3),(1.77998427441371,1.86241193718798),
(0.,1.),.PIECEWISE_BEZIER_KNOTS.)
GEOMETRIC_REPRESENTATION_ITEM()
RATIONAL_B_SPLINE_SURFACE(((1.,0.665134512886194,1.),(1.,0.659530899319645,
1.),(1.,0.653905380056989,1.),(1.,0.648276057550043,1.)))
REPRESENTATION_ITEM('')
SURFACE()
);
#21=(
BOUNDED_SURFACE()
B_SPLINE_SURFACE(3,2,((#1896,#1897,#1898),(#1899,#1900,#1901),(#1902,#1903,
#1904),(#1905,#1906,#1907)),.UNSPECIFIED.,.F.,.F.,.F.)
B_SPLINE_SURFACE_WITH_KNOTS((4,4),(3,3),(0.000497304569774081,0.000989090353982041),
(0.,1.),.PIECEWISE_BEZIER_KNOTS.)
GEOMETRIC_REPRESENTATION_ITEM()
RATIONAL_B_SPLINE_SURFACE(((1.,0.634921254960014,1.),(1.,0.634921269607259,
1.),(1.,0.64567901548329,1.),(1.,0.665134512886204,1.)))
REPRESENTATION_ITEM('')
SURFACE()
);
#22=(
BOUNDED_SURFACE()
B_SPLINE_SURFACE(3,2,((#1922,#1923,#1924),(#1925,#1926,#1927),(#1928,#1929,
#1930),(#1931,#1932,#1933)),.UNSPECIFIED.,.F.,.F.,.F.)
B_SPLINE_SURFACE_WITH_KNOTS((4,4),(3,3),(4.42077336999161,4.50320103276587),
(0.,1.),.PIECEWISE_BEZIER_KNOTS.)
GEOMETRIC_REPRESENTATION_ITEM()
RATIONAL_B_SPLINE_SURFACE(((1.,0.648276057550042,1.),(1.,0.65390538005751,
1.),(1.,0.659530899319761,1.),(1.,0.665134512886195,1.)))
REPRESENTATION_ITEM('')
SURFACE()
);
#23=(
BOUNDED_SURFACE()
B_SPLINE_SURFACE(3,2,((#1935,#1936,#1937),(#1938,#1939,#1940),(#1941,#1942,
#1943),(#1944,#1945,#1946)),.UNSPECIFIED.,.F.,.F.,.F.)
B_SPLINE_SURFACE_WITH_KNOTS((4,4),(3,3),(1.27918071640181,1.36160837917608),
(0.,1.),.PIECEWISE_BEZIER_KNOTS.)
GEOMETRIC_REPRESENTATION_ITEM()
RATIONAL_B_SPLINE_SURFACE(((1.,0.648276057550042,1.),(1.,0.65390538005751,
1.),(1.,0.65953089931982,1.),(1.,0.665134512886195,1.)))
REPRESENTATION_ITEM('')
SURFACE()
);
#24=(
BOUNDED_SURFACE()
B_SPLINE_SURFACE(3,2,((#1957,#1958,#1959),(#1960,#1961,#1962),(#1963,#1964,
#1965),(#1966,#1967,#1968)),.UNSPECIFIED.,.F.,.F.,.F.)
B_SPLINE_SURFACE_WITH_KNOTS((4,4),(3,3),(0.000497304569774109,0.000989090353982062),
(0.,1.),.PIECEWISE_BEZIER_KNOTS.)
GEOMETRIC_REPRESENTATION_ITEM()
RATIONAL_B_SPLINE_SURFACE(((1.,0.634921254960015,1.),(1.,0.634921269607039,
1.),(1.,0.64567901548277,1.),(1.,0.665134512886204,1.)))
REPRESENTATION_ITEM('')
SURFACE()
);
#25=(
BOUNDED_SURFACE()
B_SPLINE_SURFACE(3,2,((#2002,#2003,#2004),(#2005,#2006,#2007),(#2008,#2009,
#2010),(#2011,#2012,#2013)),.UNSPECIFIED.,.F.,.F.,.F.)
B_SPLINE_SURFACE_WITH_KNOTS((4,4),(3,3),(4.9215769280035,5.00400459077777),
(0.,1.),.PIECEWISE_BEZIER_KNOTS.)
GEOMETRIC_REPRESENTATION_ITEM()
RATIONAL_B_SPLINE_SURFACE(((1.,0.665134512886195,1.),(1.,0.659530899319238,
1.),(1.,0.653905380057511,1.),(1.,0.648276057550043,1.)))
REPRESENTATION_ITEM('')
SURFACE()
);
#26=(
BOUNDED_SURFACE()
B_SPLINE_SURFACE(3,2,((#2026,#2027,#2028),(#2029,#2030,#2031),(#2032,#2033,
#2034),(#2035,#2036,#2037)),.UNSPECIFIED.,.F.,.F.,.F.)
B_SPLINE_SURFACE_WITH_KNOTS((4,4),(3,3),(0.000701134757942524,0.00119285791074194),
(0.,1.),.PIECEWISE_BEZIER_KNOTS.)
GEOMETRIC_REPRESENTATION_ITEM()
RATIONAL_B_SPLINE_SURFACE(((1.,0.665134512886197,1.),(1.,0.645637511928184,
1.),(1.,0.634921267408027,1.),(1.,0.634921254960014,1.)))
REPRESENTATION_ITEM('')
SURFACE()
);
#27=SPHERICAL_SURFACE('',#1140,0.00025);
#28=SPHERICAL_SURFACE('',#1154,0.00025);
#29=SPHERICAL_SURFACE('',#1156,0.00025);
#30=SPHERICAL_SURFACE('',#1159,0.00025);
#31=SPHERICAL_SURFACE('',#1176,0.00025);
#32=SPHERICAL_SURFACE('',#1179,0.00025);
#33=SPHERICAL_SURFACE('',#1182,0.00025);
#34=SPHERICAL_SURFACE('',#1196,0.00025);
#35=SPHERICAL_SURFACE('',#1200,0.00025);
#36=SPHERICAL_SURFACE('',#1214,0.00025);
#37=SPHERICAL_SURFACE('',#1216,0.00025);
#38=SPHERICAL_SURFACE('',#1219,0.00025);
#39=SPHERICAL_SURFACE('',#1238,0.00025);
#40=SPHERICAL_SURFACE('',#1240,0.00025);
#41=SPHERICAL_SURFACE('',#1242,0.00025);
#42=SPHERICAL_SURFACE('',#1254,0.00025);
#43=PLANE('',#1109);
#44=PLANE('',#1110);
#45=PLANE('',#1112);
#46=PLANE('',#1118);
#47=PLANE('',#1120);
#48=PLANE('',#1121);
#49=PLANE('',#1123);
#50=PLANE('',#1124);
#51=PLANE('',#1126);
#52=PLANE('',#1127);
#53=PLANE('',#1129);
#54=PLANE('',#1130);
#55=PLANE('',#1132);
#56=PLANE('',#1136);
#57=CIRCLE('',#1104,0.01575);
#58=CIRCLE('',#1107,0.01575);
#59=CIRCLE('',#1113,0.002125);
#60=CIRCLE('',#1114,0.0005);
#61=CIRCLE('',#1115,0.0005);
#62=CIRCLE('',#1116,0.0005);
#63=CIRCLE('',#1117,0.0005);
#64=CIRCLE('',#1119,0.016);
#65=CIRCLE('',#1125,0.016);
#66=CIRCLE('',#1134,0.001625);
#67=CIRCLE('',#1135,0.001625);
#68=CIRCLE('',#1138,0.00025);
#69=CIRCLE('',#1139,0.00025);
#70=CIRCLE('',#1141,0.00025);
#71=CIRCLE('',#1142,0.00025);
#72=CIRCLE('',#1143,0.00025);
#73=CIRCLE('',#1145,0.00025);
#74=CIRCLE('',#1147,0.00025);
#75=CIRCLE('',#1148,0.00025);
#76=CIRCLE('',#1150,0.00025);
#77=CIRCLE('',#1152,0.00025);
#78=CIRCLE('',#1153,0.00025);
#79=CIRCLE('',#1155,0.00025);
#80=CIRCLE('',#1157,0.00025);
#81=CIRCLE('',#1158,0.00025);
#82=CIRCLE('',#1160,0.00025);
#83=CIRCLE('',#1161,0.00025);
#84=CIRCLE('',#1163,0.00025);
#85=CIRCLE('',#1165,0.00025);
#86=CIRCLE('',#1167,0.00025);
#87=CIRCLE('',#1169,0.00025);
#88=CIRCLE('',#1171,0.00025);
#89=CIRCLE('',#1173,0.00025);
#90=CIRCLE('',#1175,0.00025);
#91=CIRCLE('',#1177,0.00025);
#92=CIRCLE('',#1178,0.00025);
#93=CIRCLE('',#1180,0.00025);
#94=CIRCLE('',#1181,0.00025);
#95=CIRCLE('',#1183,0.00025);
#96=CIRCLE('',#1185,0.00025);
#97=CIRCLE('',#1187,0.00025);
#98=CIRCLE('',#1188,0.00025);
#99=CIRCLE('',#1189,0.00025);
#100=CIRCLE('',#1191,0.00025);
#101=CIRCLE('',#1193,0.00025);
#102=CIRCLE('',#1195,0.00025);
#103=CIRCLE('',#1197,0.00025);
#104=CIRCLE('',#1198,0.00025);
#105=CIRCLE('',#1199,0.00025);
#106=CIRCLE('',#1201,0.00025);
#107=CIRCLE('',#1203,0.00025);
#108=CIRCLE('',#1205,0.00025);
#109=CIRCLE('',#1207,0.00025);
#110=CIRCLE('',#1209,0.00025);
#111=CIRCLE('',#1211,0.00025);
#112=CIRCLE('',#1213,0.00025);
#113=CIRCLE('',#1215,0.00025);
#114=CIRCLE('',#1217,0.00025);
#115=CIRCLE('',#1218,0.00025);
#116=CIRCLE('',#1220,0.00025);
#117=CIRCLE('',#1221,0.00025);
#118=CIRCLE('',#1223,0.00025);
#119=CIRCLE('',#1225,0.00025);
#120=CIRCLE('',#1227,0.00025);
#121=CIRCLE('',#1228,0.00025);
#122=CIRCLE('',#1230,0.00025);
#123=CIRCLE('',#1231,0.00025);
#124=CIRCLE('',#1233,0.00025);
#125=CIRCLE('',#1235,0.00025);
#126=CIRCLE('',#1237,0.00025);
#127=CIRCLE('',#1239,0.00025);
#128=CIRCLE('',#1241,0.00025);
#129=CIRCLE('',#1243,0.00025);
#130=CIRCLE('',#1245,0.00025);
#131=CIRCLE('',#1247,0.00025);
#132=CIRCLE('',#1249,0.00025);
#133=CIRCLE('',#1251,0.00025);
#134=CIRCLE('',#1253,0.00025);
#135=CIRCLE('',#1255,0.00025);
#136=B_SPLINE_CURVE_WITH_KNOTS('',3,(#1639,#1640,#1641,#1642),
 .UNSPECIFIED.,.F.,.F.,(4,4),(0.,0.000490587522725044),.UNSPECIFIED.);
#137=B_SPLINE_CURVE_WITH_KNOTS('',3,(#1650,#1651,#1652,#1653),
 .UNSPECIFIED.,.F.,.F.,(4,4),(0.,0.00049016616924477),.UNSPECIFIED.);
#138=B_SPLINE_CURVE_WITH_KNOTS('',3,(#1661,#1662,#1663,#1664),
 .UNSPECIFIED.,.F.,.F.,(4,4),(0.,0.000490587522725025),.UNSPECIFIED.);
#139=B_SPLINE_CURVE_WITH_KNOTS('',3,(#1672,#1673,#1674,#1675),
 .UNSPECIFIED.,.F.,.F.,(4,4),(0.,0.000490166169244748),.UNSPECIFIED.);
#140=B_SPLINE_CURVE_WITH_KNOTS('',3,(#1846,#1847,#1848,#1849),
 .UNSPECIFIED.,.F.,.F.,(4,4),(0.,0.000249890889299772),.UNSPECIFIED.);
#141=B_SPLINE_CURVE_WITH_KNOTS('',3,(#1908,#1909,#1910,#1911),
 .UNSPECIFIED.,.F.,.F.,(4,4),(0.,0.00024971735112518),.UNSPECIFIED.);
#142=B_SPLINE_CURVE_WITH_KNOTS('',3,(#1970,#1971,#1972,#1973),
 .UNSPECIFIED.,.F.,.F.,(4,4),(0.,0.000249717351125173),.UNSPECIFIED.);
#143=B_SPLINE_CURVE_WITH_KNOTS('',3,(#2038,#2039,#2040,#2041),
 .UNSPECIFIED.,.F.,.F.,(4,4),(0.,0.000249890889299727),.UNSPECIFIED.);
#144=ELLIPSE('',#1103,0.0190220997205298,0.01575);
#145=ELLIPSE('',#1105,0.0190220997205298,0.01575);
#146=ELLIPSE('',#1106,0.0190220997205298,0.01575);
#147=ELLIPSE('',#1108,0.0190220997205298,0.01575);
#148=ELLIPSE('',#1111,0.0192296068024746,0.016);
#149=ELLIPSE('',#1122,0.0192296068024746,0.016);
#150=ELLIPSE('',#1128,0.0192296068024746,0.016);
#151=ELLIPSE('',#1131,0.0192296068024746,0.016);
#152=ORIENTED_EDGE('',*,*,#462,.T.);
#153=ORIENTED_EDGE('',*,*,#463,.T.);
#154=ORIENTED_EDGE('',*,*,#464,.F.);
#155=ORIENTED_EDGE('',*,*,#465,.T.);
#156=ORIENTED_EDGE('',*,*,#466,.T.);
#157=ORIENTED_EDGE('',*,*,#467,.T.);
#158=ORIENTED_EDGE('',*,*,#468,.F.);
#159=ORIENTED_EDGE('',*,*,#469,.T.);
#160=ORIENTED_EDGE('',*,*,#470,.T.);
#161=ORIENTED_EDGE('',*,*,#471,.T.);
#162=ORIENTED_EDGE('',*,*,#472,.F.);
#163=ORIENTED_EDGE('',*,*,#473,.T.);
#164=ORIENTED_EDGE('',*,*,#474,.T.);
#165=ORIENTED_EDGE('',*,*,#475,.T.);
#166=ORIENTED_EDGE('',*,*,#476,.F.);
#167=ORIENTED_EDGE('',*,*,#477,.T.);
#168=ORIENTED_EDGE('',*,*,#478,.T.);
#169=ORIENTED_EDGE('',*,*,#479,.T.);
#170=ORIENTED_EDGE('',*,*,#480,.T.);
#171=ORIENTED_EDGE('',*,*,#481,.T.);
#172=ORIENTED_EDGE('',*,*,#482,.T.);
#173=ORIENTED_EDGE('',*,*,#483,.T.);
#174=ORIENTED_EDGE('',*,*,#484,.T.);
#175=ORIENTED_EDGE('',*,*,#485,.T.);
#176=ORIENTED_EDGE('',*,*,#486,.T.);
#177=ORIENTED_EDGE('',*,*,#487,.T.);
#178=ORIENTED_EDGE('',*,*,#488,.T.);
#179=ORIENTED_EDGE('',*,*,#489,.F.);
#180=ORIENTED_EDGE('',*,*,#490,.T.);
#181=ORIENTED_EDGE('',*,*,#491,.T.);
#182=ORIENTED_EDGE('',*,*,#492,.T.);
#183=ORIENTED_EDGE('',*,*,#493,.F.);
#184=ORIENTED_EDGE('',*,*,#494,.T.);
#185=ORIENTED_EDGE('',*,*,#495,.T.);
#186=ORIENTED_EDGE('',*,*,#496,.T.);
#187=ORIENTED_EDGE('',*,*,#497,.F.);
#188=ORIENTED_EDGE('',*,*,#498,.T.);
#189=ORIENTED_EDGE('',*,*,#499,.T.);
#190=ORIENTED_EDGE('',*,*,#500,.T.);
#191=ORIENTED_EDGE('',*,*,#501,.F.);
#192=ORIENTED_EDGE('',*,*,#502,.T.);
#193=ORIENTED_EDGE('',*,*,#503,.T.);
#194=ORIENTED_EDGE('',*,*,#504,.T.);
#195=ORIENTED_EDGE('',*,*,#505,.T.);
#196=ORIENTED_EDGE('',*,*,#506,.T.);
#197=ORIENTED_EDGE('',*,*,#507,.T.);
#198=ORIENTED_EDGE('',*,*,#508,.T.);
#199=ORIENTED_EDGE('',*,*,#509,.T.);
#200=ORIENTED_EDGE('',*,*,#510,.T.);
#201=ORIENTED_EDGE('',*,*,#511,.T.);
#202=ORIENTED_EDGE('',*,*,#512,.T.);
#203=ORIENTED_EDGE('',*,*,#513,.T.);
#204=ORIENTED_EDGE('',*,*,#514,.T.);
#205=ORIENTED_EDGE('',*,*,#515,.T.);
#206=ORIENTED_EDGE('',*,*,#516,.T.);
#207=ORIENTED_EDGE('',*,*,#517,.T.);
#208=ORIENTED_EDGE('',*,*,#518,.T.);
#209=ORIENTED_EDGE('',*,*,#519,.T.);
#210=ORIENTED_EDGE('',*,*,#520,.T.);
#211=ORIENTED_EDGE('',*,*,#521,.T.);
#212=ORIENTED_EDGE('',*,*,#522,.T.);
#213=ORIENTED_EDGE('',*,*,#523,.T.);
#214=ORIENTED_EDGE('',*,*,#524,.T.);
#215=ORIENTED_EDGE('',*,*,#525,.T.);
#216=ORIENTED_EDGE('',*,*,#526,.T.);
#217=ORIENTED_EDGE('',*,*,#527,.T.);
#218=ORIENTED_EDGE('',*,*,#528,.T.);
#219=ORIENTED_EDGE('',*,*,#529,.T.);
#220=ORIENTED_EDGE('',*,*,#530,.T.);
#221=ORIENTED_EDGE('',*,*,#531,.T.);
#222=ORIENTED_EDGE('',*,*,#532,.T.);
#223=ORIENTED_EDGE('',*,*,#533,.T.);
#224=ORIENTED_EDGE('',*,*,#534,.T.);
#225=ORIENTED_EDGE('',*,*,#535,.T.);
#226=ORIENTED_EDGE('',*,*,#536,.T.);
#227=ORIENTED_EDGE('',*,*,#537,.T.);
#228=ORIENTED_EDGE('',*,*,#538,.T.);
#229=ORIENTED_EDGE('',*,*,#539,.T.);
#230=ORIENTED_EDGE('',*,*,#540,.T.);
#231=ORIENTED_EDGE('',*,*,#541,.T.);
#232=ORIENTED_EDGE('',*,*,#542,.T.);
#233=ORIENTED_EDGE('',*,*,#543,.T.);
#234=ORIENTED_EDGE('',*,*,#544,.F.);
#235=ORIENTED_EDGE('',*,*,#544,.T.);
#236=ORIENTED_EDGE('',*,*,#545,.F.);
#237=ORIENTED_EDGE('',*,*,#465,.F.);
#238=ORIENTED_EDGE('',*,*,#546,.F.);
#239=ORIENTED_EDGE('',*,*,#481,.F.);
#240=ORIENTED_EDGE('',*,*,#547,.F.);
#241=ORIENTED_EDGE('',*,*,#545,.T.);
#242=ORIENTED_EDGE('',*,*,#548,.F.);
#243=ORIENTED_EDGE('',*,*,#546,.T.);
#244=ORIENTED_EDGE('',*,*,#464,.T.);
#245=ORIENTED_EDGE('',*,*,#549,.F.);
#246=ORIENTED_EDGE('',*,*,#550,.F.);
#247=ORIENTED_EDGE('',*,*,#548,.T.);
#248=ORIENTED_EDGE('',*,*,#480,.F.);
#249=ORIENTED_EDGE('',*,*,#551,.F.);
#250=ORIENTED_EDGE('',*,*,#503,.F.);
#251=ORIENTED_EDGE('',*,*,#547,.T.);
#252=ORIENTED_EDGE('',*,*,#506,.F.);
#253=ORIENTED_EDGE('',*,*,#552,.F.);
#254=ORIENTED_EDGE('',*,*,#466,.F.);
#255=ORIENTED_EDGE('',*,*,#549,.T.);
#256=ORIENTED_EDGE('',*,*,#463,.F.);
#257=ORIENTED_EDGE('',*,*,#553,.F.);
#258=ORIENTED_EDGE('',*,*,#485,.F.);
#259=ORIENTED_EDGE('',*,*,#550,.T.);
#260=ORIENTED_EDGE('',*,*,#484,.F.);
#261=ORIENTED_EDGE('',*,*,#554,.F.);
#262=ORIENTED_EDGE('',*,*,#478,.F.);
#263=ORIENTED_EDGE('',*,*,#555,.F.);
#264=ORIENTED_EDGE('',*,*,#479,.F.);
#265=ORIENTED_EDGE('',*,*,#556,.F.);
#266=ORIENTED_EDGE('',*,*,#496,.F.);
#267=ORIENTED_EDGE('',*,*,#551,.T.);
#268=ORIENTED_EDGE('',*,*,#555,.T.);
#269=ORIENTED_EDGE('',*,*,#557,.F.);
#270=ORIENTED_EDGE('',*,*,#558,.F.);
#271=ORIENTED_EDGE('',*,*,#552,.T.);
#272=ORIENTED_EDGE('',*,*,#559,.F.);
#273=ORIENTED_EDGE('',*,*,#560,.F.);
#274=ORIENTED_EDGE('',*,*,#553,.T.);
#275=ORIENTED_EDGE('',*,*,#561,.F.);
#276=ORIENTED_EDGE('',*,*,#556,.T.);
#277=ORIENTED_EDGE('',*,*,#554,.T.);
#278=ORIENTED_EDGE('',*,*,#562,.F.);
#279=ORIENTED_EDGE('',*,*,#497,.T.);
#280=ORIENTED_EDGE('',*,*,#557,.T.);
#281=ORIENTED_EDGE('',*,*,#495,.F.);
#282=ORIENTED_EDGE('',*,*,#563,.F.);
#283=ORIENTED_EDGE('',*,*,#504,.F.);
#284=ORIENTED_EDGE('',*,*,#559,.T.);
#285=ORIENTED_EDGE('',*,*,#505,.F.);
#286=ORIENTED_EDGE('',*,*,#564,.F.);
#287=ORIENTED_EDGE('',*,*,#539,.F.);
#288=ORIENTED_EDGE('',*,*,#558,.T.);
#289=ORIENTED_EDGE('',*,*,#542,.F.);
#290=ORIENTED_EDGE('',*,*,#565,.F.);
#291=ORIENTED_EDGE('',*,*,#467,.F.);
#292=ORIENTED_EDGE('',*,*,#561,.T.);
#293=ORIENTED_EDGE('',*,*,#462,.F.);
#294=ORIENTED_EDGE('',*,*,#566,.F.);
#295=ORIENTED_EDGE('',*,*,#510,.F.);
#296=ORIENTED_EDGE('',*,*,#560,.T.);
#297=ORIENTED_EDGE('',*,*,#509,.F.);
#298=ORIENTED_EDGE('',*,*,#567,.F.);
#299=ORIENTED_EDGE('',*,*,#482,.F.);
#300=ORIENTED_EDGE('',*,*,#562,.T.);
#301=ORIENTED_EDGE('',*,*,#483,.F.);
#302=ORIENTED_EDGE('',*,*,#568,.F.);
#303=ORIENTED_EDGE('',*,*,#498,.F.);
#304=ORIENTED_EDGE('',*,*,#564,.T.);
#305=ORIENTED_EDGE('',*,*,#563,.T.);
#306=ORIENTED_EDGE('',*,*,#569,.F.);
#307=ORIENTED_EDGE('',*,*,#468,.T.);
#308=ORIENTED_EDGE('',*,*,#565,.T.);
#309=ORIENTED_EDGE('',*,*,#570,.F.);
#310=ORIENTED_EDGE('',*,*,#571,.F.);
#311=ORIENTED_EDGE('',*,*,#572,.F.);
#312=ORIENTED_EDGE('',*,*,#566,.T.);
#313=ORIENTED_EDGE('',*,*,#573,.F.);
#314=ORIENTED_EDGE('',*,*,#568,.T.);
#315=ORIENTED_EDGE('',*,*,#567,.T.);
#316=ORIENTED_EDGE('',*,*,#574,.F.);
#317=ORIENTED_EDGE('',*,*,#569,.T.);
#318=ORIENTED_EDGE('',*,*,#494,.F.);
#319=ORIENTED_EDGE('',*,*,#575,.F.);
#320=ORIENTED_EDGE('',*,*,#540,.F.);
#321=ORIENTED_EDGE('',*,*,#570,.T.);
#322=ORIENTED_EDGE('',*,*,#541,.F.);
#323=ORIENTED_EDGE('',*,*,#576,.F.);
#324=ORIENTED_EDGE('',*,*,#535,.F.);
#325=ORIENTED_EDGE('',*,*,#571,.T.);
#326=ORIENTED_EDGE('',*,*,#538,.F.);
#327=ORIENTED_EDGE('',*,*,#577,.F.);
#328=ORIENTED_EDGE('',*,*,#469,.F.);
#329=ORIENTED_EDGE('',*,*,#573,.T.);
#330=ORIENTED_EDGE('',*,*,#477,.F.);
#331=ORIENTED_EDGE('',*,*,#578,.F.);
#332=ORIENTED_EDGE('',*,*,#514,.F.);
#333=ORIENTED_EDGE('',*,*,#572,.T.);
#334=ORIENTED_EDGE('',*,*,#513,.F.);
#335=ORIENTED_EDGE('',*,*,#579,.F.);
#336=ORIENTED_EDGE('',*,*,#507,.F.);
#337=ORIENTED_EDGE('',*,*,#574,.T.);
#338=ORIENTED_EDGE('',*,*,#508,.F.);
#339=ORIENTED_EDGE('',*,*,#580,.F.);
#340=ORIENTED_EDGE('',*,*,#499,.F.);
#341=ORIENTED_EDGE('',*,*,#575,.T.);
#342=ORIENTED_EDGE('',*,*,#493,.T.);
#343=ORIENTED_EDGE('',*,*,#581,.F.);
#344=ORIENTED_EDGE('',*,*,#576,.T.);
#345=ORIENTED_EDGE('',*,*,#582,.F.);
#346=ORIENTED_EDGE('',*,*,#577,.T.);
#347=ORIENTED_EDGE('',*,*,#583,.F.);
#348=ORIENTED_EDGE('',*,*,#578,.T.);
#349=ORIENTED_EDGE('',*,*,#476,.T.);
#350=ORIENTED_EDGE('',*,*,#584,.F.);
#351=ORIENTED_EDGE('',*,*,#585,.F.);
#352=ORIENTED_EDGE('',*,*,#580,.T.);
#353=ORIENTED_EDGE('',*,*,#579,.T.);
#354=ORIENTED_EDGE('',*,*,#586,.F.);
#355=ORIENTED_EDGE('',*,*,#581,.T.);
#356=ORIENTED_EDGE('',*,*,#492,.F.);
#357=ORIENTED_EDGE('',*,*,#587,.F.);
#358=ORIENTED_EDGE('',*,*,#536,.F.);
#359=ORIENTED_EDGE('',*,*,#583,.T.);
#360=ORIENTED_EDGE('',*,*,#537,.F.);
#361=ORIENTED_EDGE('',*,*,#588,.F.);
#362=ORIENTED_EDGE('',*,*,#531,.F.);
#363=ORIENTED_EDGE('',*,*,#582,.T.);
#364=ORIENTED_EDGE('',*,*,#534,.F.);
#365=ORIENTED_EDGE('',*,*,#589,.F.);
#366=ORIENTED_EDGE('',*,*,#470,.F.);
#367=ORIENTED_EDGE('',*,*,#584,.T.);
#368=ORIENTED_EDGE('',*,*,#475,.F.);
#369=ORIENTED_EDGE('',*,*,#590,.F.);
#370=ORIENTED_EDGE('',*,*,#518,.F.);
#371=ORIENTED_EDGE('',*,*,#585,.T.);
#372=ORIENTED_EDGE('',*,*,#517,.F.);
#373=ORIENTED_EDGE('',*,*,#591,.F.);
#374=ORIENTED_EDGE('',*,*,#511,.F.);
#375=ORIENTED_EDGE('',*,*,#586,.T.);
#376=ORIENTED_EDGE('',*,*,#512,.F.);
#377=ORIENTED_EDGE('',*,*,#592,.F.);
#378=ORIENTED_EDGE('',*,*,#500,.F.);
#379=ORIENTED_EDGE('',*,*,#588,.T.);
#380=ORIENTED_EDGE('',*,*,#587,.T.);
#381=ORIENTED_EDGE('',*,*,#593,.F.);
#382=ORIENTED_EDGE('',*,*,#594,.F.);
#383=ORIENTED_EDGE('',*,*,#589,.T.);
#384=ORIENTED_EDGE('',*,*,#595,.F.);
#385=ORIENTED_EDGE('',*,*,#596,.F.);
#386=ORIENTED_EDGE('',*,*,#590,.T.);
#387=ORIENTED_EDGE('',*,*,#597,.F.);
#388=ORIENTED_EDGE('',*,*,#592,.T.);
#389=ORIENTED_EDGE('',*,*,#591,.T.);
#390=ORIENTED_EDGE('',*,*,#598,.F.);
#391=ORIENTED_EDGE('',*,*,#501,.T.);
#392=ORIENTED_EDGE('',*,*,#593,.T.);
#393=ORIENTED_EDGE('',*,*,#491,.F.);
#394=ORIENTED_EDGE('',*,*,#599,.F.);
#395=ORIENTED_EDGE('',*,*,#532,.F.);
#396=ORIENTED_EDGE('',*,*,#595,.T.);
#397=ORIENTED_EDGE('',*,*,#533,.F.);
#398=ORIENTED_EDGE('',*,*,#600,.F.);
#399=ORIENTED_EDGE('',*,*,#527,.F.);
#400=ORIENTED_EDGE('',*,*,#594,.T.);
#401=ORIENTED_EDGE('',*,*,#530,.F.);
#402=ORIENTED_EDGE('',*,*,#601,.F.);
#403=ORIENTED_EDGE('',*,*,#471,.F.);
#404=ORIENTED_EDGE('',*,*,#602,.F.);
#405=ORIENTED_EDGE('',*,*,#473,.F.);
#406=ORIENTED_EDGE('',*,*,#603,.F.);
#407=ORIENTED_EDGE('',*,*,#526,.F.);
#408=ORIENTED_EDGE('',*,*,#597,.T.);
#409=ORIENTED_EDGE('',*,*,#474,.F.);
#410=ORIENTED_EDGE('',*,*,#604,.F.);
#411=ORIENTED_EDGE('',*,*,#522,.F.);
#412=ORIENTED_EDGE('',*,*,#596,.T.);
#413=ORIENTED_EDGE('',*,*,#521,.F.);
#414=ORIENTED_EDGE('',*,*,#605,.F.);
#415=ORIENTED_EDGE('',*,*,#515,.F.);
#416=ORIENTED_EDGE('',*,*,#598,.T.);
#417=ORIENTED_EDGE('',*,*,#516,.F.);
#418=ORIENTED_EDGE('',*,*,#606,.F.);
#419=ORIENTED_EDGE('',*,*,#502,.F.);
#420=ORIENTED_EDGE('',*,*,#600,.T.);
#421=ORIENTED_EDGE('',*,*,#599,.T.);
#422=ORIENTED_EDGE('',*,*,#607,.F.);
#423=ORIENTED_EDGE('',*,*,#472,.T.);
#424=ORIENTED_EDGE('',*,*,#601,.T.);
#425=ORIENTED_EDGE('',*,*,#608,.F.);
#426=ORIENTED_EDGE('',*,*,#603,.T.);
#427=ORIENTED_EDGE('',*,*,#604,.T.);
#428=ORIENTED_EDGE('',*,*,#602,.T.);
#429=ORIENTED_EDGE('',*,*,#609,.F.);
#430=ORIENTED_EDGE('',*,*,#606,.T.);
#431=ORIENTED_EDGE('',*,*,#605,.T.);
#432=ORIENTED_EDGE('',*,*,#610,.F.);
#433=ORIENTED_EDGE('',*,*,#607,.T.);
#434=ORIENTED_EDGE('',*,*,#490,.F.);
#435=ORIENTED_EDGE('',*,*,#611,.F.);
#436=ORIENTED_EDGE('',*,*,#528,.F.);
#437=ORIENTED_EDGE('',*,*,#608,.T.);
#438=ORIENTED_EDGE('',*,*,#529,.F.);
#439=ORIENTED_EDGE('',*,*,#612,.F.);
#440=ORIENTED_EDGE('',*,*,#523,.F.);
#441=ORIENTED_EDGE('',*,*,#609,.T.);
#442=ORIENTED_EDGE('',*,*,#525,.F.);
#443=ORIENTED_EDGE('',*,*,#613,.F.);
#444=ORIENTED_EDGE('',*,*,#519,.F.);
#445=ORIENTED_EDGE('',*,*,#610,.T.);
#446=ORIENTED_EDGE('',*,*,#520,.F.);
#447=ORIENTED_EDGE('',*,*,#614,.F.);
#448=ORIENTED_EDGE('',*,*,#487,.F.);
#449=ORIENTED_EDGE('',*,*,#611,.T.);
#450=ORIENTED_EDGE('',*,*,#489,.T.);
#451=ORIENTED_EDGE('',*,*,#615,.F.);
#452=ORIENTED_EDGE('',*,*,#612,.T.);
#453=ORIENTED_EDGE('',*,*,#614,.T.);
#454=ORIENTED_EDGE('',*,*,#613,.T.);
#455=ORIENTED_EDGE('',*,*,#616,.F.);
#456=ORIENTED_EDGE('',*,*,#615,.T.);
#457=ORIENTED_EDGE('',*,*,#488,.F.);
#458=ORIENTED_EDGE('',*,*,#616,.T.);
#459=ORIENTED_EDGE('',*,*,#524,.F.);
#460=ORIENTED_EDGE('',*,*,#486,.F.);
#461=ORIENTED_EDGE('',*,*,#543,.F.);
#462=EDGE_CURVE('',#617,#618,#700,.T.);
#463=EDGE_CURVE('',#618,#619,#144,.T.);
#464=EDGE_CURVE('',#620,#619,#136,.T.);
#465=EDGE_CURVE('',#620,#621,#701,.T.);
#466=EDGE_CURVE('',#621,#622,#57,.T.);
#467=EDGE_CURVE('',#622,#623,#702,.F.);
#468=EDGE_CURVE('',#624,#623,#137,.T.);
#469=EDGE_CURVE('',#624,#625,#145,.T.);
#470=EDGE_CURVE('',#625,#626,#703,.F.);
#471=EDGE_CURVE('',#626,#627,#146,.T.);
#472=EDGE_CURVE('',#628,#627,#138,.T.);
#473=EDGE_CURVE('',#628,#629,#704,.F.);
#474=EDGE_CURVE('',#629,#630,#58,.T.);
#475=EDGE_CURVE('',#630,#631,#705,.T.);
#476=EDGE_CURVE('',#632,#631,#139,.T.);
#477=EDGE_CURVE('',#632,#617,#147,.T.);
#478=EDGE_CURVE('',#633,#634,#706,.T.);
#479=EDGE_CURVE('',#634,#635,#707,.T.);
#480=EDGE_CURVE('',#635,#636,#708,.F.);
#481=EDGE_CURVE('',#636,#633,#709,.T.);
#482=EDGE_CURVE('',#637,#638,#710,.T.);
#483=EDGE_CURVE('',#638,#639,#711,.T.);
#484=EDGE_CURVE('',#639,#640,#712,.F.);
#485=EDGE_CURVE('',#640,#637,#148,.T.);
#486=EDGE_CURVE('',#641,#641,#59,.T.);
#487=EDGE_CURVE('',#642,#643,#713,.T.);
#488=EDGE_CURVE('',#643,#644,#714,.F.);
#489=EDGE_CURVE('',#645,#644,#60,.F.);
#490=EDGE_CURVE('',#645,#646,#715,.F.);
#491=EDGE_CURVE('',#646,#647,#716,.F.);
#492=EDGE_CURVE('',#647,#648,#717,.F.);
#493=EDGE_CURVE('',#649,#648,#61,.F.);
#494=EDGE_CURVE('',#649,#650,#718,.F.);
#495=EDGE_CURVE('',#650,#651,#719,.T.);
#496=EDGE_CURVE('',#651,#652,#720,.F.);
#497=EDGE_CURVE('',#653,#652,#62,.F.);
#498=EDGE_CURVE('',#653,#654,#721,.F.);
#499=EDGE_CURVE('',#654,#655,#722,.F.);
#500=EDGE_CURVE('',#655,#656,#723,.F.);
#501=EDGE_CURVE('',#657,#656,#63,.F.);
#502=EDGE_CURVE('',#657,#642,#724,.F.);
#503=EDGE_CURVE('',#658,#659,#725,.T.);
#504=EDGE_CURVE('',#659,#660,#726,.F.);
#505=EDGE_CURVE('',#660,#661,#727,.F.);
#506=EDGE_CURVE('',#661,#658,#64,.F.);
#507=EDGE_CURVE('',#662,#663,#728,.T.);
#508=EDGE_CURVE('',#663,#664,#729,.T.);
#509=EDGE_CURVE('',#664,#665,#730,.F.);
#510=EDGE_CURVE('',#665,#662,#731,.T.);
#511=EDGE_CURVE('',#666,#667,#732,.T.);
#512=EDGE_CURVE('',#667,#668,#733,.T.);
#513=EDGE_CURVE('',#668,#669,#734,.F.);
#514=EDGE_CURVE('',#669,#666,#149,.T.);
#515=EDGE_CURVE('',#670,#671,#735,.T.);
#516=EDGE_CURVE('',#671,#672,#736,.T.);
#517=EDGE_CURVE('',#672,#673,#737,.F.);
#518=EDGE_CURVE('',#673,#670,#738,.T.);
#519=EDGE_CURVE('',#674,#675,#739,.T.);
#520=EDGE_CURVE('',#675,#676,#740,.F.);
#521=EDGE_CURVE('',#676,#677,#741,.F.);
#522=EDGE_CURVE('',#677,#674,#65,.F.);
#523=EDGE_CURVE('',#678,#679,#742,.T.);
#524=EDGE_CURVE('',#679,#680,#743,.T.);
#525=EDGE_CURVE('',#680,#681,#744,.F.);
#526=EDGE_CURVE('',#681,#678,#745,.F.);
#527=EDGE_CURVE('',#682,#683,#746,.T.);
#528=EDGE_CURVE('',#683,#684,#747,.T.);
#529=EDGE_CURVE('',#684,#685,#748,.F.);
#530=EDGE_CURVE('',#685,#682,#150,.T.);
#531=EDGE_CURVE('',#686,#687,#749,.T.);
#532=EDGE_CURVE('',#687,#688,#750,.T.);
#533=EDGE_CURVE('',#688,#689,#751,.F.);
#534=EDGE_CURVE('',#689,#686,#752,.F.);
#535=EDGE_CURVE('',#690,#691,#753,.T.);
#536=EDGE_CURVE('',#691,#692,#754,.T.);
#537=EDGE_CURVE('',#692,#693,#755,.F.);
#538=EDGE_CURVE('',#693,#690,#151,.T.);
#539=EDGE_CURVE('',#694,#695,#756,.T.);
#540=EDGE_CURVE('',#695,#696,#757,.T.);
#541=EDGE_CURVE('',#696,#697,#758,.F.);
#542=EDGE_CURVE('',#697,#694,#759,.F.);
#543=EDGE_CURVE('',#698,#698,#66,.F.);
#544=EDGE_CURVE('',#699,#699,#67,.T.);
#545=EDGE_CURVE('',#621,#636,#68,.T.);
#546=EDGE_CURVE('',#633,#620,#69,.T.);
#547=EDGE_CURVE('',#621,#658,#70,.F.);
#548=EDGE_CURVE('',#658,#636,#71,.F.);
#549=EDGE_CURVE('',#640,#619,#72,.F.);
#550=EDGE_CURVE('',#633,#640,#140,.F.);
#551=EDGE_CURVE('',#659,#635,#73,.T.);
#552=EDGE_CURVE('',#622,#661,#74,.T.);
#553=EDGE_CURVE('',#637,#618,#75,.T.);
#554=EDGE_CURVE('',#634,#639,#76,.T.);
#555=EDGE_CURVE('',#635,#651,#77,.T.);
#556=EDGE_CURVE('',#652,#634,#78,.T.);
#557=EDGE_CURVE('',#659,#651,#79,.F.);
#558=EDGE_CURVE('',#622,#694,#80,.F.);
#559=EDGE_CURVE('',#694,#661,#81,.F.);
#560=EDGE_CURVE('',#637,#665,#82,.F.);
#561=EDGE_CURVE('',#665,#618,#83,.F.);
#562=EDGE_CURVE('',#653,#639,#84,.F.);
#563=EDGE_CURVE('',#660,#650,#85,.T.);
#564=EDGE_CURVE('',#695,#660,#86,.T.);
#565=EDGE_CURVE('',#623,#697,#87,.T.);
#566=EDGE_CURVE('',#662,#617,#88,.T.);
#567=EDGE_CURVE('',#638,#664,#89,.T.);
#568=EDGE_CURVE('',#654,#638,#90,.T.);
#569=EDGE_CURVE('',#695,#650,#91,.F.);
#570=EDGE_CURVE('',#690,#697,#141,.F.);
#571=EDGE_CURVE('',#624,#690,#92,.F.);
#572=EDGE_CURVE('',#662,#669,#93,.F.);
#573=EDGE_CURVE('',#669,#617,#94,.F.);
#574=EDGE_CURVE('',#654,#664,#95,.F.);
#575=EDGE_CURVE('',#696,#649,#96,.T.);
#576=EDGE_CURVE('',#691,#696,#97,.T.);
#577=EDGE_CURVE('',#625,#693,#98,.T.);
#578=EDGE_CURVE('',#666,#632,#99,.T.);
#579=EDGE_CURVE('',#663,#668,#100,.T.);
#580=EDGE_CURVE('',#655,#663,#101,.T.);
#581=EDGE_CURVE('',#691,#648,#102,.F.);
#582=EDGE_CURVE('',#625,#686,#103,.F.);
#583=EDGE_CURVE('',#686,#693,#104,.F.);
#584=EDGE_CURVE('',#673,#631,#105,.F.);
#585=EDGE_CURVE('',#666,#673,#142,.F.);
#586=EDGE_CURVE('',#655,#668,#106,.F.);
#587=EDGE_CURVE('',#692,#647,#107,.T.);
#588=EDGE_CURVE('',#687,#692,#108,.T.);
#589=EDGE_CURVE('',#626,#689,#109,.T.);
#590=EDGE_CURVE('',#670,#630,#110,.T.);
#591=EDGE_CURVE('',#667,#672,#111,.T.);
#592=EDGE_CURVE('',#656,#667,#112,.T.);
#593=EDGE_CURVE('',#687,#647,#113,.F.);
#594=EDGE_CURVE('',#626,#682,#114,.F.);
#595=EDGE_CURVE('',#682,#689,#115,.F.);
#596=EDGE_CURVE('',#670,#677,#116,.F.);
#597=EDGE_CURVE('',#677,#630,#117,.F.);
#598=EDGE_CURVE('',#657,#672,#118,.F.);
#599=EDGE_CURVE('',#688,#646,#119,.T.);
#600=EDGE_CURVE('',#683,#688,#120,.T.);
#601=EDGE_CURVE('',#627,#685,#121,.T.);
#602=EDGE_CURVE('',#629,#681,#122,.T.);
#603=EDGE_CURVE('',#678,#628,#123,.T.);
#604=EDGE_CURVE('',#674,#629,#124,.T.);
#605=EDGE_CURVE('',#671,#676,#125,.T.);
#606=EDGE_CURVE('',#642,#671,#126,.T.);
#607=EDGE_CURVE('',#683,#646,#127,.F.);
#608=EDGE_CURVE('',#678,#685,#143,.F.);
#609=EDGE_CURVE('',#674,#681,#128,.F.);
#610=EDGE_CURVE('',#642,#676,#129,.F.);
#611=EDGE_CURVE('',#684,#645,#130,.T.);
#612=EDGE_CURVE('',#679,#684,#131,.T.);
#613=EDGE_CURVE('',#675,#680,#132,.T.);
#614=EDGE_CURVE('',#643,#675,#133,.T.);
#615=EDGE_CURVE('',#679,#644,#134,.F.);
#616=EDGE_CURVE('',#643,#680,#135,.F.);
#617=VERTEX_POINT('',#1635);
#618=VERTEX_POINT('',#1636);
#619=VERTEX_POINT('',#1638);
#620=VERTEX_POINT('',#1643);
#621=VERTEX_POINT('',#1645);
#622=VERTEX_POINT('',#1647);
#623=VERTEX_POINT('',#1649);
#624=VERTEX_POINT('',#1654);
#625=VERTEX_POINT('',#1656);
#626=VERTEX_POINT('',#1658);
#627=VERTEX_POINT('',#1660);
#628=VERTEX_POINT('',#1665);
#629=VERTEX_POINT('',#1667);
#630=VERTEX_POINT('',#1669);
#631=VERTEX_POINT('',#1671);
#632=VERTEX_POINT('',#1676);
#633=VERTEX_POINT('',#1680);
#634=VERTEX_POINT('',#1681);
#635=VERTEX_POINT('',#1683);
#636=VERTEX_POINT('',#1685);
#637=VERTEX_POINT('',#1689);
#638=VERTEX_POINT('',#1690);
#639=VERTEX_POINT('',#1692);
#640=VERTEX_POINT('',#1694);
#641=VERTEX_POINT('',#1698);
#642=VERTEX_POINT('',#1700);
#643=VERTEX_POINT('',#1701);
#644=VERTEX_POINT('',#1703);
#645=VERTEX_POINT('',#1705);
#646=VERTEX_POINT('',#1707);
#647=VERTEX_POINT('',#1709);
#648=VERTEX_POINT('',#1711);
#649=VERTEX_POINT('',#1713);
#650=VERTEX_POINT('',#1715);
#651=VERTEX_POINT('',#1717);
#652=VERTEX_POINT('',#1719);
#653=VERTEX_POINT('',#1721);
#654=VERTEX_POINT('',#1723);
#655=VERTEX_POINT('',#1725);
#656=VERTEX_POINT('',#1727);
#657=VERTEX_POINT('',#1729);
#658=VERTEX_POINT('',#1733);
#659=VERTEX_POINT('',#1734);
#660=VERTEX_POINT('',#1736);
#661=VERTEX_POINT('',#1738);
#662=VERTEX_POINT('',#1742);
#663=VERTEX_POINT('',#1743);
#664=VERTEX_POINT('',#1745);
#665=VERTEX_POINT('',#1747);
#666=VERTEX_POINT('',#1751);
#667=VERTEX_POINT('',#1752);
#668=VERTEX_POINT('',#1754);
#669=VERTEX_POINT('',#1756);
#670=VERTEX_POINT('',#1760);
#671=VERTEX_POINT('',#1761);
#672=VERTEX_POINT('',#1763);
#673=VERTEX_POINT('',#1765);
#674=VERTEX_POINT('',#1769);
#675=VERTEX_POINT('',#1770);
#676=VERTEX_POINT('',#1772);
#677=VERTEX_POINT('',#1774);
#678=VERTEX_POINT('',#1778);
#679=VERTEX_POINT('',#1779);
#680=VERTEX_POINT('',#1781);
#681=VERTEX_POINT('',#1783);
#682=VERTEX_POINT('',#1787);
#683=VERTEX_POINT('',#1788);
#684=VERTEX_POINT('',#1790);
#685=VERTEX_POINT('',#1792);
#686=VERTEX_POINT('',#1796);
#687=VERTEX_POINT('',#1797);
#688=VERTEX_POINT('',#1799);
#689=VERTEX_POINT('',#1801);
#690=VERTEX_POINT('',#1805);
#691=VERTEX_POINT('',#1806);
#692=VERTEX_POINT('',#1808);
#693=VERTEX_POINT('',#1810);
#694=VERTEX_POINT('',#1814);
#695=VERTEX_POINT('',#1815);
#696=VERTEX_POINT('',#1817);
#697=VERTEX_POINT('',#1819);
#698=VERTEX_POINT('',#1823);
#699=VERTEX_POINT('',#1825);
#700=LINE('',#1634,#760);
#701=LINE('',#1644,#761);
#702=LINE('',#1648,#762);
#703=LINE('',#1657,#763);
#704=LINE('',#1666,#764);
#705=LINE('',#1670,#765);
#706=LINE('',#1679,#766);
#707=LINE('',#1682,#767);
#708=LINE('',#1684,#768);
#709=LINE('',#1686,#769);
#710=LINE('',#1688,#770);
#711=LINE('',#1691,#771);
#712=LINE('',#1693,#772);
#713=LINE('',#1699,#773);
#714=LINE('',#1702,#774);
#715=LINE('',#1706,#775);
#716=LINE('',#1708,#776);
#717=LINE('',#1710,#777);
#718=LINE('',#1714,#778);
#719=LINE('',#1716,#779);
#720=LINE('',#1718,#780);
#721=LINE('',#1722,#781);
#722=LINE('',#1724,#782);
#723=LINE('',#1726,#783);
#724=LINE('',#1730,#784);
#725=LINE('',#1732,#785);
#726=LINE('',#1735,#786);
#727=LINE('',#1737,#787);
#728=LINE('',#1741,#788);
#729=LINE('',#1744,#789);
#730=LINE('',#1746,#790);
#731=LINE('',#1748,#791);
#732=LINE('',#1750,#792);
#733=LINE('',#1753,#793);
#734=LINE('',#1755,#794);
#735=LINE('',#1759,#795);
#736=LINE('',#1762,#796);
#737=LINE('',#1764,#797);
#738=LINE('',#1766,#798);
#739=LINE('',#1768,#799);
#740=LINE('',#1771,#800);
#741=LINE('',#1773,#801);
#742=LINE('',#1777,#802);
#743=LINE('',#1780,#803);
#744=LINE('',#1782,#804);
#745=LINE('',#1784,#805);
#746=LINE('',#1786,#806);
#747=LINE('',#1789,#807);
#748=LINE('',#1791,#808);
#749=LINE('',#1795,#809);
#750=LINE('',#1798,#810);
#751=LINE('',#1800,#811);
#752=LINE('',#1802,#812);
#753=LINE('',#1804,#813);
#754=LINE('',#1807,#814);
#755=LINE('',#1809,#815);
#756=LINE('',#1813,#816);
#757=LINE('',#1816,#817);
#758=LINE('',#1818,#818);
#759=LINE('',#1820,#819);
#760=VECTOR('',#1262,1.);
#761=VECTOR('',#1265,1.);
#762=VECTOR('',#1268,1.);
#763=VECTOR('',#1271,1.);
#764=VECTOR('',#1274,1.);
#765=VECTOR('',#1277,1.);
#766=VECTOR('',#1282,1.);
#767=VECTOR('',#1283,1.);
#768=VECTOR('',#1284,1.);
#769=VECTOR('',#1285,1.);
#770=VECTOR('',#1288,1.);
#771=VECTOR('',#1289,1.);
#772=VECTOR('',#1290,1.);
#773=VECTOR('',#1297,1.);
#774=VECTOR('',#1298,1.);
#775=VECTOR('',#1301,1.);
#776=VECTOR('',#1302,1.);
#777=VECTOR('',#1303,1.);
#778=VECTOR('',#1306,1.);
#779=VECTOR('',#1307,1.);
#780=VECTOR('',#1308,1.);
#781=VECTOR('',#1311,1.);
#782=VECTOR('',#1312,1.);
#783=VECTOR('',#1313,1.);
#784=VECTOR('',#1316,1.);
#785=VECTOR('',#1319,1.);
#786=VECTOR('',#1320,1.);
#787=VECTOR('',#1321,1.);
#788=VECTOR('',#1326,1.);
#789=VECTOR('',#1327,1.);
#790=VECTOR('',#1328,1.);
#791=VECTOR('',#1329,1.);
#792=VECTOR('',#1332,1.);
#793=VECTOR('',#1333,1.);
#794=VECTOR('',#1334,1.);
#795=VECTOR('',#1339,1.);
#796=VECTOR('',#1340,1.);
#797=VECTOR('',#1341,1.);
#798=VECTOR('',#1342,1.);
#799=VECTOR('',#1345,1.);
#800=VECTOR('',#1346,1.);
#801=VECTOR('',#1347,1.);
#802=VECTOR('',#1352,1.);
#803=VECTOR('',#1353,1.);
#804=VECTOR('',#1354,1.);
#805=VECTOR('',#1355,1.);
#806=VECTOR('',#1358,1.);
#807=VECTOR('',#1359,1.);
#808=VECTOR('',#1360,1.);
#809=VECTOR('',#1365,1.);
#810=VECTOR('',#1366,1.);
#811=VECTOR('',#1367,1.);
#812=VECTOR('',#1368,1.);
#813=VECTOR('',#1371,1.);
#814=VECTOR('',#1372,1.);
#815=VECTOR('',#1373,1.);
#816=VECTOR('',#1378,1.);
#817=VECTOR('',#1379,1.);
#818=VECTOR('',#1380,1.);
#819=VECTOR('',#1381,1.);
#820=EDGE_LOOP('',(#152,#153,#154,#155,#156,#157,#158,#159,#160,#161,#162,
#163,#164,#165,#166,#167));
#821=EDGE_LOOP('',(#168,#169,#170,#171));
#822=EDGE_LOOP('',(#172,#173,#174,#175));
#823=EDGE_LOOP('',(#176));
#824=EDGE_LOOP('',(#177,#178,#179,#180,#181,#182,#183,#184,#185,#186,#187,
#188,#189,#190,#191,#192));
#825=EDGE_LOOP('',(#193,#194,#195,#196));
#826=EDGE_LOOP('',(#197,#198,#199,#200));
#827=EDGE_LOOP('',(#201,#202,#203,#204));
#828=EDGE_LOOP('',(#205,#206,#207,#208));
#829=EDGE_LOOP('',(#209,#210,#211,#212));
#830=EDGE_LOOP('',(#213,#214,#215,#216));
#831=EDGE_LOOP('',(#217,#218,#219,#220));
#832=EDGE_LOOP('',(#221,#222,#223,#224));
#833=EDGE_LOOP('',(#225,#226,#227,#228));
#834=EDGE_LOOP('',(#229,#230,#231,#232));
#835=EDGE_LOOP('',(#233));
#836=EDGE_LOOP('',(#234));
#837=EDGE_LOOP('',(#235));
#838=EDGE_LOOP('',(#236,#237,#238,#239));
#839=EDGE_LOOP('',(#240,#241,#242));
#840=EDGE_LOOP('',(#243,#244,#245,#246));
#841=EDGE_LOOP('',(#247,#248,#249,#250));
#842=EDGE_LOOP('',(#251,#252,#253,#254));
#843=EDGE_LOOP('',(#255,#256,#257,#258));
#844=EDGE_LOOP('',(#259,#260,#261,#262));
#845=EDGE_LOOP('',(#263,#264,#265,#266));
#846=EDGE_LOOP('',(#267,#268,#269));
#847=EDGE_LOOP('',(#270,#271,#272));
#848=EDGE_LOOP('',(#273,#274,#275));
#849=EDGE_LOOP('',(#276,#277,#278,#279));
#850=EDGE_LOOP('',(#280,#281,#282,#283));
#851=EDGE_LOOP('',(#284,#285,#286,#287));
#852=EDGE_LOOP('',(#288,#289,#290,#291));
#853=EDGE_LOOP('',(#292,#293,#294,#295));
#854=EDGE_LOOP('',(#296,#297,#298,#299));
#855=EDGE_LOOP('',(#300,#301,#302,#303));
#856=EDGE_LOOP('',(#304,#305,#306));
#857=EDGE_LOOP('',(#307,#308,#309,#310));
#858=EDGE_LOOP('',(#311,#312,#313));
#859=EDGE_LOOP('',(#314,#315,#316));
#860=EDGE_LOOP('',(#317,#318,#319,#320));
#861=EDGE_LOOP('',(#321,#322,#323,#324));
#862=EDGE_LOOP('',(#325,#326,#327,#328));
#863=EDGE_LOOP('',(#329,#330,#331,#332));
#864=EDGE_LOOP('',(#333,#334,#335,#336));
#865=EDGE_LOOP('',(#337,#338,#339,#340));
#866=EDGE_LOOP('',(#341,#342,#343,#344));
#867=EDGE_LOOP('',(#345,#346,#347));
#868=EDGE_LOOP('',(#348,#349,#350,#351));
#869=EDGE_LOOP('',(#352,#353,#354));
#870=EDGE_LOOP('',(#355,#356,#357,#358));
#871=EDGE_LOOP('',(#359,#360,#361,#362));
#872=EDGE_LOOP('',(#363,#364,#365,#366));
#873=EDGE_LOOP('',(#367,#368,#369,#370));
#874=EDGE_LOOP('',(#371,#372,#373,#374));
#875=EDGE_LOOP('',(#375,#376,#377,#378));
#876=EDGE_LOOP('',(#379,#380,#381));
#877=EDGE_LOOP('',(#382,#383,#384));
#878=EDGE_LOOP('',(#385,#386,#387));
#879=EDGE_LOOP('',(#388,#389,#390,#391));
#880=EDGE_LOOP('',(#392,#393,#394,#395));
#881=EDGE_LOOP('',(#396,#397,#398,#399));
#882=EDGE_LOOP('',(#400,#401,#402,#403));
#883=EDGE_LOOP('',(#404,#405,#406,#407));
#884=EDGE_LOOP('',(#408,#409,#410,#411));
#885=EDGE_LOOP('',(#412,#413,#414,#415));
#886=EDGE_LOOP('',(#416,#417,#418,#419));
#887=EDGE_LOOP('',(#420,#421,#422));
#888=EDGE_LOOP('',(#423,#424,#425,#426));
#889=EDGE_LOOP('',(#427,#428,#429));
#890=EDGE_LOOP('',(#430,#431,#432));
#891=EDGE_LOOP('',(#433,#434,#435,#436));
#892=EDGE_LOOP('',(#437,#438,#439,#440));
#893=EDGE_LOOP('',(#441,#442,#443,#444));
#894=EDGE_LOOP('',(#445,#446,#447,#448));
#895=EDGE_LOOP('',(#449,#450,#451,#452));
#896=EDGE_LOOP('',(#453,#454,#455));
#897=EDGE_LOOP('',(#456,#457,#458,#459));
#898=EDGE_LOOP('',(#460));
#899=EDGE_LOOP('',(#461));
#900=FACE_BOUND('',#820,.T.);
#901=FACE_BOUND('',#821,.T.);
#902=FACE_BOUND('',#822,.T.);
#903=FACE_BOUND('',#823,.T.);
#904=FACE_BOUND('',#824,.T.);
#905=FACE_BOUND('',#825,.T.);
#906=FACE_BOUND('',#826,.T.);
#907=FACE_BOUND('',#827,.T.);
#908=FACE_BOUND('',#828,.T.);
#909=FACE_BOUND('',#829,.T.);
#910=FACE_BOUND('',#830,.T.);
#911=FACE_BOUND('',#831,.T.);
#912=FACE_BOUND('',#832,.T.);
#913=FACE_BOUND('',#833,.T.);
#914=FACE_BOUND('',#834,.T.);
#915=FACE_BOUND('',#835,.T.);
#916=FACE_BOUND('',#836,.T.);
#917=FACE_BOUND('',#837,.T.);
#918=FACE_BOUND('',#838,.T.);
#919=FACE_BOUND('',#839,.T.);
#920=FACE_BOUND('',#840,.T.);
#921=FACE_BOUND('',#841,.T.);
#922=FACE_BOUND('',#842,.T.);
#923=FACE_BOUND('',#843,.T.);
#924=FACE_BOUND('',#844,.T.);
#925=FACE_BOUND('',#845,.T.);
#926=FACE_BOUND('',#846,.T.);
#927=FACE_BOUND('',#847,.T.);
#928=FACE_BOUND('',#848,.T.);
#929=FACE_BOUND('',#849,.T.);
#930=FACE_BOUND('',#850,.T.);
#931=FACE_BOUND('',#851,.T.);
#932=FACE_BOUND('',#852,.T.);
#933=FACE_BOUND('',#853,.T.);
#934=FACE_BOUND('',#854,.T.);
#935=FACE_BOUND('',#855,.T.);
#936=FACE_BOUND('',#856,.T.);
#937=FACE_BOUND('',#857,.T.);
#938=FACE_BOUND('',#858,.T.);
#939=FACE_BOUND('',#859,.T.);
#940=FACE_BOUND('',#860,.T.);
#941=FACE_BOUND('',#861,.T.);
#942=FACE_BOUND('',#862,.T.);
#943=FACE_BOUND('',#863,.T.);
#944=FACE_BOUND('',#864,.T.);
#945=FACE_BOUND('',#865,.T.);
#946=FACE_BOUND('',#866,.T.);
#947=FACE_BOUND('',#867,.T.);
#948=FACE_BOUND('',#868,.T.);
#949=FACE_BOUND('',#869,.T.);
#950=FACE_BOUND('',#870,.T.);
#951=FACE_BOUND('',#871,.T.);
#952=FACE_BOUND('',#872,.T.);
#953=FACE_BOUND('',#873,.T.);
#954=FACE_BOUND('',#874,.T.);
#955=FACE_BOUND('',#875,.T.);
#956=FACE_BOUND('',#876,.T.);
#957=FACE_BOUND('',#877,.T.);
#958=FACE_BOUND('',#878,.T.);
#959=FACE_BOUND('',#879,.T.);
#960=FACE_BOUND('',#880,.T.);
#961=FACE_BOUND('',#881,.T.);
#962=FACE_BOUND('',#882,.T.);
#963=FACE_BOUND('',#883,.T.);
#964=FACE_BOUND('',#884,.T.);
#965=FACE_BOUND('',#885,.T.);
#966=FACE_BOUND('',#886,.T.);
#967=FACE_BOUND('',#887,.T.);
#968=FACE_BOUND('',#888,.T.);
#969=FACE_BOUND('',#889,.T.);
#970=FACE_BOUND('',#890,.T.);
#971=FACE_BOUND('',#891,.T.);
#972=FACE_BOUND('',#892,.T.);
#973=FACE_BOUND('',#893,.T.);
#974=FACE_BOUND('',#894,.T.);
#975=FACE_BOUND('',#895,.T.);
#976=FACE_BOUND('',#896,.T.);
#977=FACE_BOUND('',#897,.T.);
#978=FACE_BOUND('',#898,.T.);
#979=FACE_BOUND('',#899,.T.);
#980=CYLINDRICAL_SURFACE('',#1102,0.01575);
#981=CYLINDRICAL_SURFACE('',#1133,0.001625);
#982=CYLINDRICAL_SURFACE('',#1137,0.00025);
#983=CYLINDRICAL_SURFACE('',#1144,0.00025);
#984=CYLINDRICAL_SURFACE('',#1149,0.00025);
#985=CYLINDRICAL_SURFACE('',#1151,0.00025);
#986=CYLINDRICAL_SURFACE('',#1164,0.00025);
#987=CYLINDRICAL_SURFACE('',#1166,0.00025);
#988=CYLINDRICAL_SURFACE('',#1168,0.00025);
#989=CYLINDRICAL_SURFACE('',#1170,0.00025);
#990=CYLINDRICAL_SURFACE('',#1172,0.00025);
#991=CYLINDRICAL_SURFACE('',#1174,0.00025);
#992=CYLINDRICAL_SURFACE('',#1184,0.00025);
#993=CYLINDRICAL_SURFACE('',#1186,0.00025);
#994=CYLINDRICAL_SURFACE('',#1190,0.00025);
#995=CYLINDRICAL_SURFACE('',#1192,0.00025);
#996=CYLINDRICAL_SURFACE('',#1202,0.00025);
#997=CYLINDRICAL_SURFACE('',#1204,0.00025);
#998=CYLINDRICAL_SURFACE('',#1206,0.00025);
#999=CYLINDRICAL_SURFACE('',#1208,0.00025);
#1000=CYLINDRICAL_SURFACE('',#1210,0.00025);
#1001=CYLINDRICAL_SURFACE('',#1212,0.00025);
#1002=CYLINDRICAL_SURFACE('',#1224,0.00025);
#1003=CYLINDRICAL_SURFACE('',#1226,0.00025);
#1004=CYLINDRICAL_SURFACE('',#1229,0.00025);
#1005=CYLINDRICAL_SURFACE('',#1234,0.00025);
#1006=CYLINDRICAL_SURFACE('',#1236,0.00025);
#1007=CYLINDRICAL_SURFACE('',#1244,0.00025);
#1008=CYLINDRICAL_SURFACE('',#1246,0.00025);
#1009=CYLINDRICAL_SURFACE('',#1248,0.00025);
#1010=CYLINDRICAL_SURFACE('',#1250,0.00025);
#1011=CYLINDRICAL_SURFACE('',#1256,0.00025);
#1012=ADVANCED_FACE('',(#900),#980,.F.);
#1013=ADVANCED_FACE('',(#901),#43,.F.);
#1014=ADVANCED_FACE('',(#902),#44,.F.);
#1015=ADVANCED_FACE('',(#903,#904),#45,.F.);
#1016=ADVANCED_FACE('',(#905),#46,.T.);
#1017=ADVANCED_FACE('',(#906),#47,.F.);
#1018=ADVANCED_FACE('',(#907),#48,.F.);
#1019=ADVANCED_FACE('',(#908),#49,.F.);
#1020=ADVANCED_FACE('',(#909),#50,.T.);
#1021=ADVANCED_FACE('',(#910),#51,.F.);
#1022=ADVANCED_FACE('',(#911),#52,.F.);
#1023=ADVANCED_FACE('',(#912),#53,.F.);
#1024=ADVANCED_FACE('',(#913),#54,.F.);
#1025=ADVANCED_FACE('',(#914),#55,.F.);
#1026=ADVANCED_FACE('',(#915,#916),#981,.F.);
#1027=ADVANCED_FACE('',(#917),#56,.T.);
#1028=ADVANCED_FACE('',(#918),#982,.T.);
#1029=ADVANCED_FACE('',(#919),#27,.T.);
#1030=ADVANCED_FACE('',(#920),#19,.T.);
#1031=ADVANCED_FACE('',(#921),#983,.T.);
#1032=ADVANCED_FACE('',(#922),#12,.T.);
#1033=ADVANCED_FACE('',(#923),#20,.T.);
#1034=ADVANCED_FACE('',(#924),#984,.F.);
#1035=ADVANCED_FACE('',(#925),#985,.T.);
#1036=ADVANCED_FACE('',(#926),#28,.T.);
#1037=ADVANCED_FACE('',(#927),#29,.T.);
#1038=ADVANCED_FACE('',(#928),#30,.T.);
#1039=ADVANCED_FACE('',(#929),#13,.T.);
#1040=ADVANCED_FACE('',(#930),#986,.T.);
#1041=ADVANCED_FACE('',(#931),#987,.T.);
#1042=ADVANCED_FACE('',(#932),#988,.T.);
#1043=ADVANCED_FACE('',(#933),#989,.T.);
#1044=ADVANCED_FACE('',(#934),#990,.T.);
#1045=ADVANCED_FACE('',(#935),#991,.T.);
#1046=ADVANCED_FACE('',(#936),#31,.T.);
#1047=ADVANCED_FACE('',(#937),#21,.T.);
#1048=ADVANCED_FACE('',(#938),#32,.T.);
#1049=ADVANCED_FACE('',(#939),#33,.T.);
#1050=ADVANCED_FACE('',(#940),#992,.T.);
#1051=ADVANCED_FACE('',(#941),#993,.F.);
#1052=ADVANCED_FACE('',(#942),#22,.T.);
#1053=ADVANCED_FACE('',(#943),#23,.T.);
#1054=ADVANCED_FACE('',(#944),#994,.T.);
#1055=ADVANCED_FACE('',(#945),#995,.T.);
#1056=ADVANCED_FACE('',(#946),#14,.T.);
#1057=ADVANCED_FACE('',(#947),#34,.T.);
#1058=ADVANCED_FACE('',(#948),#24,.T.);
#1059=ADVANCED_FACE('',(#949),#35,.T.);
#1060=ADVANCED_FACE('',(#950),#996,.T.);
#1061=ADVANCED_FACE('',(#951),#997,.T.);
#1062=ADVANCED_FACE('',(#952),#998,.T.);
#1063=ADVANCED_FACE('',(#953),#999,.T.);
#1064=ADVANCED_FACE('',(#954),#1000,.F.);
#1065=ADVANCED_FACE('',(#955),#1001,.T.);
#1066=ADVANCED_FACE('',(#956),#36,.T.);
#1067=ADVANCED_FACE('',(#957),#37,.T.);
#1068=ADVANCED_FACE('',(#958),#38,.T.);
#1069=ADVANCED_FACE('',(#959),#15,.T.);
#1070=ADVANCED_FACE('',(#960),#1002,.T.);
#1071=ADVANCED_FACE('',(#961),#1003,.T.);
#1072=ADVANCED_FACE('',(#962),#25,.T.);
#1073=ADVANCED_FACE('',(#963),#1004,.T.);
#1074=ADVANCED_FACE('',(#964),#16,.T.);
#1075=ADVANCED_FACE('',(#965),#1005,.T.);
#1076=ADVANCED_FACE('',(#966),#1006,.T.);
#1077=ADVANCED_FACE('',(#967),#39,.T.);
#1078=ADVANCED_FACE('',(#968),#26,.T.);
#1079=ADVANCED_FACE('',(#969),#40,.T.);
#1080=ADVANCED_FACE('',(#970),#41,.T.);
#1081=ADVANCED_FACE('',(#971),#1007,.T.);
#1082=ADVANCED_FACE('',(#972),#1008,.F.);
#1083=ADVANCED_FACE('',(#973),#1009,.T.);
#1084=ADVANCED_FACE('',(#974),#1010,.T.);
#1085=ADVANCED_FACE('',(#975),#17,.T.);
#1086=ADVANCED_FACE('',(#976),#42,.T.);
#1087=ADVANCED_FACE('',(#977),#1011,.T.);
#1088=ADVANCED_FACE('',(#978,#979),#18,.T.);
#1089=CLOSED_SHELL('',(#1012,#1013,#1014,#1015,#1016,#1017,#1018,#1019,
#1020,#1021,#1022,#1023,#1024,#1025,#1026,#1027,#1028,#1029,#1030,#1031,
#1032,#1033,#1034,#1035,#1036,#1037,#1038,#1039,#1040,#1041,#1042,#1043,
#1044,#1045,#1046,#1047,#1048,#1049,#1050,#1051,#1052,#1053,#1054,#1055,
#1056,#1057,#1058,#1059,#1060,#1061,#1062,#1063,#1064,#1065,#1066,#1067,
#1068,#1069,#1070,#1071,#1072,#1073,#1074,#1075,#1076,#1077,#1078,#1079,
#1080,#1081,#1082,#1083,#1084,#1085,#1086,#1087,#1088));
#1090=STYLED_ITEM('',(#1091),#1098);
#1091=PRESENTATION_STYLE_ASSIGNMENT((#1092));
#1092=SURFACE_STYLE_USAGE(.BOTH.,#1093);
#1093=SURFACE_SIDE_STYLE('',(#1094));
#1094=SURFACE_STYLE_FILL_AREA(#1095);
#1095=FILL_AREA_STYLE('',(#1096));
#1096=FILL_AREA_STYLE_COLOUR('',#1097);
#1097=COLOUR_RGB('',0.231372549019608,0.380392156862745,0.705882352941177);
#1098=MANIFOLD_SOLID_BREP('BLOCKS_detector_clamp',#1089);
#1099=SHAPE_DEFINITION_REPRESENTATION(#2066,#1100);
#1100=SHAPE_REPRESENTATION('BLOCKS_detector_clamp',(#1101),#2061);
#1101=AXIS2_PLACEMENT_3D('',#1632,#1258,#1259);
#1102=AXIS2_PLACEMENT_3D('',#1633,#1260,#1261);
#1103=AXIS2_PLACEMENT_3D('',#1637,#1263,#1264);
#1104=AXIS2_PLACEMENT_3D('',#1646,#1266,#1267);
#1105=AXIS2_PLACEMENT_3D('',#1655,#1269,#1270);
#1106=AXIS2_PLACEMENT_3D('',#1659,#1272,#1273);
#1107=AXIS2_PLACEMENT_3D('',#1668,#1275,#1276);
#1108=AXIS2_PLACEMENT_3D('',#1677,#1278,#1279);
#1109=AXIS2_PLACEMENT_3D('',#1678,#1280,#1281);
#1110=AXIS2_PLACEMENT_3D('',#1687,#1286,#1287);
#1111=AXIS2_PLACEMENT_3D('',#1695,#1291,#1292);
#1112=AXIS2_PLACEMENT_3D('',#1696,#1293,#1294);
#1113=AXIS2_PLACEMENT_3D('',#1697,#1295,#1296);
#1114=AXIS2_PLACEMENT_3D('',#1704,#1299,#1300);
#1115=AXIS2_PLACEMENT_3D('',#1712,#1304,#1305);
#1116=AXIS2_PLACEMENT_3D('',#1720,#1309,#1310);
#1117=AXIS2_PLACEMENT_3D('',#1728,#1314,#1315);
#1118=AXIS2_PLACEMENT_3D('',#1731,#1317,#1318);
#1119=AXIS2_PLACEMENT_3D('',#1739,#1322,#1323);
#1120=AXIS2_PLACEMENT_3D('',#1740,#1324,#1325);
#1121=AXIS2_PLACEMENT_3D('',#1749,#1330,#1331);
#1122=AXIS2_PLACEMENT_3D('',#1757,#1335,#1336);
#1123=AXIS2_PLACEMENT_3D('',#1758,#1337,#1338);
#1124=AXIS2_PLACEMENT_3D('',#1767,#1343,#1344);
#1125=AXIS2_PLACEMENT_3D('',#1775,#1348,#1349);
#1126=AXIS2_PLACEMENT_3D('',#1776,#1350,#1351);
#1127=AXIS2_PLACEMENT_3D('',#1785,#1356,#1357);
#1128=AXIS2_PLACEMENT_3D('',#1793,#1361,#1362);
#1129=AXIS2_PLACEMENT_3D('',#1794,#1363,#1364);
#1130=AXIS2_PLACEMENT_3D('',#1803,#1369,#1370);
#1131=AXIS2_PLACEMENT_3D('',#1811,#1374,#1375);
#1132=AXIS2_PLACEMENT_3D('',#1812,#1376,#1377);
#1133=AXIS2_PLACEMENT_3D('',#1821,#1382,#1383);
#1134=AXIS2_PLACEMENT_3D('',#1822,#1384,#1385);
#1135=AXIS2_PLACEMENT_3D('',#1824,#1386,#1387);
#1136=AXIS2_PLACEMENT_3D('',#1826,#1388,#1389);
#1137=AXIS2_PLACEMENT_3D('',#1827,#1390,#1391);
#1138=AXIS2_PLACEMENT_3D('',#1828,#1392,#1393);
#1139=AXIS2_PLACEMENT_3D('',#1829,#1394,#1395);
#1140=AXIS2_PLACEMENT_3D('',#1830,#1396,#1397);
#1141=AXIS2_PLACEMENT_3D('',#1831,#1398,#1399);
#1142=AXIS2_PLACEMENT_3D('',#1832,#1400,#1401);
#1143=AXIS2_PLACEMENT_3D('',#1845,#1402,#1403);
#1144=AXIS2_PLACEMENT_3D('',#1850,#1404,#1405);
#1145=AXIS2_PLACEMENT_3D('',#1851,#1406,#1407);
#1146=AXIS2_PLACEMENT_3D('',#1852,#1408,#1409);
#1147=AXIS2_PLACEMENT_3D('',#1853,#1410,#1411);
#1148=AXIS2_PLACEMENT_3D('',#1866,#1412,#1413);
#1149=AXIS2_PLACEMENT_3D('',#1867,#1414,#1415);
#1150=AXIS2_PLACEMENT_3D('',#1868,#1416,#1417);
#1151=AXIS2_PLACEMENT_3D('',#1869,#1418,#1419);
#1152=AXIS2_PLACEMENT_3D('',#1870,#1420,#1421);
#1153=AXIS2_PLACEMENT_3D('',#1871,#1422,#1423);
#1154=AXIS2_PLACEMENT_3D('',#1872,#1424,#1425);
#1155=AXIS2_PLACEMENT_3D('',#1873,#1426,#1427);
#1156=AXIS2_PLACEMENT_3D('',#1874,#1428,#1429);
#1157=AXIS2_PLACEMENT_3D('',#1875,#1430,#1431);
#1158=AXIS2_PLACEMENT_3D('',#1876,#1432,#1433);
#1159=AXIS2_PLACEMENT_3D('',#1877,#1434,#1435);
#1160=AXIS2_PLACEMENT_3D('',#1878,#1436,#1437);
#1161=AXIS2_PLACEMENT_3D('',#1879,#1438,#1439);
#1162=AXIS2_PLACEMENT_3D('',#1880,#1440,#1441);
#1163=AXIS2_PLACEMENT_3D('',#1881,#1442,#1443);
#1164=AXIS2_PLACEMENT_3D('',#1882,#1444,#1445);
#1165=AXIS2_PLACEMENT_3D('',#1883,#1446,#1447);
#1166=AXIS2_PLACEMENT_3D('',#1884,#1448,#1449);
#1167=AXIS2_PLACEMENT_3D('',#1885,#1450,#1451);
#1168=AXIS2_PLACEMENT_3D('',#1886,#1452,#1453);
#1169=AXIS2_PLACEMENT_3D('',#1887,#1454,#1455);
#1170=AXIS2_PLACEMENT_3D('',#1888,#1456,#1457);
#1171=AXIS2_PLACEMENT_3D('',#1889,#1458,#1459);
#1172=AXIS2_PLACEMENT_3D('',#1890,#1460,#1461);
#1173=AXIS2_PLACEMENT_3D('',#1891,#1462,#1463);
#1174=AXIS2_PLACEMENT_3D('',#1892,#1464,#1465);
#1175=AXIS2_PLACEMENT_3D('',#1893,#1466,#1467);
#1176=AXIS2_PLACEMENT_3D('',#1894,#1468,#1469);
#1177=AXIS2_PLACEMENT_3D('',#1895,#1470,#1471);
#1178=AXIS2_PLACEMENT_3D('',#1912,#1472,#1473);
#1179=AXIS2_PLACEMENT_3D('',#1913,#1474,#1475);
#1180=AXIS2_PLACEMENT_3D('',#1914,#1476,#1477);
#1181=AXIS2_PLACEMENT_3D('',#1915,#1478,#1479);
#1182=AXIS2_PLACEMENT_3D('',#1916,#1480,#1481);
#1183=AXIS2_PLACEMENT_3D('',#1917,#1482,#1483);
#1184=AXIS2_PLACEMENT_3D('',#1918,#1484,#1485);
#1185=AXIS2_PLACEMENT_3D('',#1919,#1486,#1487);
#1186=AXIS2_PLACEMENT_3D('',#1920,#1488,#1489);
#1187=AXIS2_PLACEMENT_3D('',#1921,#1490,#1491);
#1188=AXIS2_PLACEMENT_3D('',#1934,#1492,#1493);
#1189=AXIS2_PLACEMENT_3D('',#1947,#1494,#1495);
#1190=AXIS2_PLACEMENT_3D('',#1948,#1496,#1497);
#1191=AXIS2_PLACEMENT_3D('',#1949,#1498,#1499);
#1192=AXIS2_PLACEMENT_3D('',#1950,#1500,#1501);
#1193=AXIS2_PLACEMENT_3D('',#1951,#1502,#1503);
#1194=AXIS2_PLACEMENT_3D('',#1952,#1504,#1505);
#1195=AXIS2_PLACEMENT_3D('',#1953,#1506,#1507);
#1196=AXIS2_PLACEMENT_3D('',#1954,#1508,#1509);
#1197=AXIS2_PLACEMENT_3D('',#1955,#1510,#1511);
#1198=AXIS2_PLACEMENT_3D('',#1956,#1512,#1513);
#1199=AXIS2_PLACEMENT_3D('',#1969,#1514,#1515);
#1200=AXIS2_PLACEMENT_3D('',#1974,#1516,#1517);
#1201=AXIS2_PLACEMENT_3D('',#1975,#1518,#1519);
#1202=AXIS2_PLACEMENT_3D('',#1976,#1520,#1521);
#1203=AXIS2_PLACEMENT_3D('',#1977,#1522,#1523);
#1204=AXIS2_PLACEMENT_3D('',#1978,#1524,#1525);
#1205=AXIS2_PLACEMENT_3D('',#1979,#1526,#1527);
#1206=AXIS2_PLACEMENT_3D('',#1980,#1528,#1529);
#1207=AXIS2_PLACEMENT_3D('',#1981,#1530,#1531);
#1208=AXIS2_PLACEMENT_3D('',#1982,#1532,#1533);
#1209=AXIS2_PLACEMENT_3D('',#1983,#1534,#1535);
#1210=AXIS2_PLACEMENT_3D('',#1984,#1536,#1537);
#1211=AXIS2_PLACEMENT_3D('',#1985,#1538,#1539);
#1212=AXIS2_PLACEMENT_3D('',#1986,#1540,#1541);
#1213=AXIS2_PLACEMENT_3D('',#1987,#1542,#1543);
#1214=AXIS2_PLACEMENT_3D('',#1988,#1544,#1545);
#1215=AXIS2_PLACEMENT_3D('',#1989,#1546,#1547);
#1216=AXIS2_PLACEMENT_3D('',#1990,#1548,#1549);
#1217=AXIS2_PLACEMENT_3D('',#1991,#1550,#1551);
#1218=AXIS2_PLACEMENT_3D('',#1992,#1552,#1553);
#1219=AXIS2_PLACEMENT_3D('',#1993,#1554,#1555);
#1220=AXIS2_PLACEMENT_3D('',#1994,#1556,#1557);
#1221=AXIS2_PLACEMENT_3D('',#1995,#1558,#1559);
#1222=AXIS2_PLACEMENT_3D('',#1996,#1560,#1561);
#1223=AXIS2_PLACEMENT_3D('',#1997,#1562,#1563);
#1224=AXIS2_PLACEMENT_3D('',#1998,#1564,#1565);
#1225=AXIS2_PLACEMENT_3D('',#1999,#1566,#1567);
#1226=AXIS2_PLACEMENT_3D('',#2000,#1568,#1569);
#1227=AXIS2_PLACEMENT_3D('',#2001,#1570,#1571);
#1228=AXIS2_PLACEMENT_3D('',#2014,#1572,#1573);
#1229=AXIS2_PLACEMENT_3D('',#2015,#1574,#1575);
#1230=AXIS2_PLACEMENT_3D('',#2016,#1576,#1577);
#1231=AXIS2_PLACEMENT_3D('',#2017,#1578,#1579);
#1232=AXIS2_PLACEMENT_3D('',#2018,#1580,#1581);
#1233=AXIS2_PLACEMENT_3D('',#2019,#1582,#1583);
#1234=AXIS2_PLACEMENT_3D('',#2020,#1584,#1585);
#1235=AXIS2_PLACEMENT_3D('',#2021,#1586,#1587);
#1236=AXIS2_PLACEMENT_3D('',#2022,#1588,#1589);
#1237=AXIS2_PLACEMENT_3D('',#2023,#1590,#1591);
#1238=AXIS2_PLACEMENT_3D('',#2024,#1592,#1593);
#1239=AXIS2_PLACEMENT_3D('',#2025,#1594,#1595);
#1240=AXIS2_PLACEMENT_3D('',#2042,#1596,#1597);
#1241=AXIS2_PLACEMENT_3D('',#2043,#1598,#1599);
#1242=AXIS2_PLACEMENT_3D('',#2044,#1600,#1601);
#1243=AXIS2_PLACEMENT_3D('',#2045,#1602,#1603);
#1244=AXIS2_PLACEMENT_3D('',#2046,#1604,#1605);
#1245=AXIS2_PLACEMENT_3D('',#2047,#1606,#1607);
#1246=AXIS2_PLACEMENT_3D('',#2048,#1608,#1609);
#1247=AXIS2_PLACEMENT_3D('',#2049,#1610,#1611);
#1248=AXIS2_PLACEMENT_3D('',#2050,#1612,#1613);
#1249=AXIS2_PLACEMENT_3D('',#2051,#1614,#1615);
#1250=AXIS2_PLACEMENT_3D('',#2052,#1616,#1617);
#1251=AXIS2_PLACEMENT_3D('',#2053,#1618,#1619);
#1252=AXIS2_PLACEMENT_3D('',#2054,#1620,#1621);
#1253=AXIS2_PLACEMENT_3D('',#2055,#1622,#1623);
#1254=AXIS2_PLACEMENT_3D('',#2056,#1624,#1625);
#1255=AXIS2_PLACEMENT_3D('',#2057,#1626,#1627);
#1256=AXIS2_PLACEMENT_3D('',#2058,#1628,#1629);
#1257=AXIS2_PLACEMENT_3D('',#2059,#1630,#1631);
#1258=DIRECTION('',(0.,0.,1.));
#1259=DIRECTION('',(1.,0.,0.));
#1260=DIRECTION('',(0.,-1.,0.));
#1261=DIRECTION('',(0.,0.,-1.));
#1262=DIRECTION('',(0.,-1.,0.));
#1263=DIRECTION('',(0.560751274747792,-0.827984304119786,0.));
#1264=DIRECTION('',(-0.827984304119786,-0.560751274747792,0.));
#1265=DIRECTION('',(0.,-1.,0.));
#1266=DIRECTION('',(0.,-1.,0.));
#1267=DIRECTION('',(0.,0.,-1.));
#1268=DIRECTION('',(0.,-1.,0.));
#1269=DIRECTION('',(-0.560751274747791,-0.827984304119786,0.));
#1270=DIRECTION('',(0.827984304119786,-0.560751274747791,0.));
#1271=DIRECTION('',(0.,-1.,0.));
#1272=DIRECTION('',(-0.560751274747791,0.827984304119786,0.));
#1273=DIRECTION('',(-0.827984304119786,-0.560751274747791,0.));
#1274=DIRECTION('',(0.,-1.,0.));
#1275=DIRECTION('',(0.,1.,0.));
#1276=DIRECTION('',(0.,0.,1.));
#1277=DIRECTION('',(0.,-1.,0.));
#1278=DIRECTION('',(0.560751274747793,0.827984304119786,0.));
#1279=DIRECTION('',(0.827984304119786,-0.560751274747792,0.));
#1280=DIRECTION('',(-1.,0.,0.));
#1281=DIRECTION('',(0.,0.,1.));
#1282=DIRECTION('',(0.,0.,1.));
#1283=DIRECTION('',(0.,-1.,0.));
#1284=DIRECTION('',(0.,0.,1.));
#1285=DIRECTION('',(0.,1.,0.));
#1286=DIRECTION('',(-0.55470019622523,0.832050294337843,0.));
#1287=DIRECTION('',(-0.832050294337843,-0.55470019622523,0.));
#1288=DIRECTION('',(0.,0.,1.));
#1289=DIRECTION('',(-0.832050294337843,-0.55470019622523,0.));
#1290=DIRECTION('',(0.,0.,1.));
#1291=DIRECTION('',(-0.55470019622523,0.832050294337843,0.));
#1292=DIRECTION('',(-0.832050294337843,-0.55470019622523,0.));
#1293=DIRECTION('',(0.,0.,-1.));
#1294=DIRECTION('',(1.,0.,0.));
#1295=DIRECTION('',(0.,0.,-1.));
#1296=DIRECTION('',(-1.,0.,0.));
#1297=DIRECTION('',(-1.,0.,0.));
#1298=DIRECTION('',(0.,1.,0.));
#1299=DIRECTION('',(0.,0.,-1.));
#1300=DIRECTION('',(-1.,0.,0.));
#1301=DIRECTION('',(0.832050294337844,0.554700196225229,0.));
#1302=DIRECTION('',(0.,1.,0.));
#1303=DIRECTION('',(-0.832050294337844,0.554700196225229,0.));
#1304=DIRECTION('',(0.,0.,-1.));
#1305=DIRECTION('',(-1.,0.,0.));
#1306=DIRECTION('',(0.,1.,0.));
#1307=DIRECTION('',(1.,0.,0.));
#1308=DIRECTION('',(0.,-1.,0.));
#1309=DIRECTION('',(0.,0.,-1.));
#1310=DIRECTION('',(-1.,0.,0.));
#1311=DIRECTION('',(-0.832050294337843,-0.55470019622523,0.));
#1312=DIRECTION('',(0.,-1.,0.));
#1313=DIRECTION('',(0.832050294337843,-0.55470019622523,0.));
#1314=DIRECTION('',(0.,0.,-1.));
#1315=DIRECTION('',(-1.,0.,0.));
#1316=DIRECTION('',(0.,-1.,0.));
#1317=DIRECTION('',(0.,-1.,0.));
#1318=DIRECTION('',(0.,0.,-1.));
#1319=DIRECTION('',(0.,0.,1.));
#1320=DIRECTION('',(1.,0.,0.));
#1321=DIRECTION('',(0.,0.,1.));
#1322=DIRECTION('',(0.,-1.,0.));
#1323=DIRECTION('',(0.,0.,-1.));
#1324=DIRECTION('',(-1.,0.,0.));
#1325=DIRECTION('',(0.,0.,1.));
#1326=DIRECTION('',(0.,0.,1.));
#1327=DIRECTION('',(0.,-1.,0.));
#1328=DIRECTION('',(0.,0.,1.));
#1329=DIRECTION('',(0.,1.,0.));
#1330=DIRECTION('',(-0.55470019622523,-0.832050294337843,0.));
#1331=DIRECTION('',(0.832050294337843,-0.55470019622523,0.));
#1332=DIRECTION('',(0.,0.,1.));
#1333=DIRECTION('',(0.832050294337843,-0.55470019622523,0.));
#1334=DIRECTION('',(0.,0.,1.));
#1335=DIRECTION('',(-0.55470019622523,-0.832050294337843,0.));
#1336=DIRECTION('',(0.832050294337843,-0.55470019622523,0.));
#1337=DIRECTION('',(-1.,0.,0.));
#1338=DIRECTION('',(0.,0.,1.));
#1339=DIRECTION('',(0.,0.,1.));
#1340=DIRECTION('',(0.,-1.,0.));
#1341=DIRECTION('',(0.,0.,1.));
#1342=DIRECTION('',(0.,1.,0.));
#1343=DIRECTION('',(0.,1.,0.));
#1344=DIRECTION('',(0.,0.,1.));
#1345=DIRECTION('',(0.,0.,1.));
#1346=DIRECTION('',(-1.,0.,0.));
#1347=DIRECTION('',(0.,0.,1.));
#1348=DIRECTION('',(0.,1.,0.));
#1349=DIRECTION('',(0.,0.,1.));
#1350=DIRECTION('',(1.,0.,0.));
#1351=DIRECTION('',(0.,0.,-1.));
#1352=DIRECTION('',(0.,0.,1.));
#1353=DIRECTION('',(0.,1.,0.));
#1354=DIRECTION('',(0.,0.,1.));
#1355=DIRECTION('',(0.,1.,0.));
#1356=DIRECTION('',(0.554700196225229,-0.832050294337844,0.));
#1357=DIRECTION('',(0.832050294337844,0.554700196225229,0.));
#1358=DIRECTION('',(0.,0.,1.));
#1359=DIRECTION('',(0.832050294337844,0.554700196225229,0.));
#1360=DIRECTION('',(0.,0.,1.));
#1361=DIRECTION('',(0.554700196225229,-0.832050294337844,0.));
#1362=DIRECTION('',(-0.832050294337844,-0.554700196225229,0.));
#1363=DIRECTION('',(1.,0.,0.));
#1364=DIRECTION('',(0.,0.,-1.));
#1365=DIRECTION('',(0.,0.,1.));
#1366=DIRECTION('',(0.,1.,0.));
#1367=DIRECTION('',(0.,0.,1.));
#1368=DIRECTION('',(0.,1.,0.));
#1369=DIRECTION('',(0.554700196225229,0.832050294337844,0.));
#1370=DIRECTION('',(-0.832050294337844,0.554700196225229,0.));
#1371=DIRECTION('',(0.,0.,1.));
#1372=DIRECTION('',(-0.832050294337844,0.554700196225229,0.));
#1373=DIRECTION('',(0.,0.,1.));
#1374=DIRECTION('',(0.554700196225229,0.832050294337844,0.));
#1375=DIRECTION('',(0.832050294337844,-0.554700196225229,0.));
#1376=DIRECTION('',(1.,0.,0.));
#1377=DIRECTION('',(0.,0.,-1.));
#1378=DIRECTION('',(0.,0.,1.));
#1379=DIRECTION('',(0.,1.,0.));
#1380=DIRECTION('',(0.,0.,1.));
#1381=DIRECTION('',(0.,1.,0.));
#1382=DIRECTION('',(0.,0.,1.));
#1383=DIRECTION('',(1.,0.,0.));
#1384=DIRECTION('',(0.,0.,-1.));
#1385=DIRECTION('',(-1.,0.,0.));
#1386=DIRECTION('',(0.,0.,1.));
#1387=DIRECTION('',(1.,0.,0.));
#1388=DIRECTION('',(0.,0.,1.));
#1389=DIRECTION('',(1.,0.,0.));
#1390=DIRECTION('',(0.,-1.,0.));
#1391=DIRECTION('',(0.,0.,-1.));
#1392=DIRECTION('',(0.,-1.,0.));
#1393=DIRECTION('',(0.,0.,-1.));
#1394=DIRECTION('',(0.,1.,0.));
#1395=DIRECTION('',(0.,0.,1.));
#1396=DIRECTION('',(0.,-1.,0.));
#1397=DIRECTION('',(0.,0.,-1.));
#1398=DIRECTION('',(0.98105093522202,0.,-0.19375));
#1399=DIRECTION('',(-0.19375,0.,-0.98105093522202));
#1400=DIRECTION('',(0.,0.,-1.));
#1401=DIRECTION('',(-1.,0.,0.));
#1402=DIRECTION('',(-0.819365824309429,-0.546243882872936,0.173946159421899));
#1403=DIRECTION('',(0.554700196225218,-0.832050294337851,0.));
#1404=DIRECTION('',(0.,0.,-1.));
#1405=DIRECTION('',(-1.,0.,0.));
#1406=DIRECTION('',(0.,0.,1.));
#1407=DIRECTION('',(1.,0.,0.));
#1408=DIRECTION('',(0.,-1.,0.));
#1409=DIRECTION('',(0.,0.,-1.));
#1410=DIRECTION('',(-0.98105093522202,0.,-0.19375));
#1411=DIRECTION('',(-0.19375,0.,0.98105093522202));
#1412=DIRECTION('',(0.807253083195447,0.538168722130287,-0.242315674672727));
#1413=DIRECTION('',(-0.554700196225221,0.832050294337849,0.));
#1414=DIRECTION('',(0.,0.,-1.));
#1415=DIRECTION('',(-1.,0.,0.));
#1416=DIRECTION('',(0.,0.,-1.));
#1417=DIRECTION('',(-1.,0.,0.));
#1418=DIRECTION('',(0.,-1.,0.));
#1419=DIRECTION('',(0.,0.,-1.));
#1420=DIRECTION('',(0.,-1.,0.));
#1421=DIRECTION('',(0.,0.,-1.));
#1422=DIRECTION('',(0.,1.,0.));
#1423=DIRECTION('',(0.,0.,1.));
#1424=DIRECTION('',(1.,0.,0.));
#1425=DIRECTION('',(0.,0.,-1.));
#1426=DIRECTION('',(1.,0.,0.));
#1427=DIRECTION('',(0.,0.,-1.));
#1428=DIRECTION('',(0.,-1.,0.));
#1429=DIRECTION('',(0.,0.,-1.));
#1430=DIRECTION('',(0.,-1.,0.));
#1431=DIRECTION('',(0.,0.,-1.));
#1432=DIRECTION('',(0.,0.,-1.));
#1433=DIRECTION('',(-1.,0.,0.));
#1434=DIRECTION('',(-0.287499999999995,0.,-0.957780637724528));
#1435=DIRECTION('',(-0.957780637724528,0.,0.287499999999995));
#1436=DIRECTION('',(0.,0.,-1.));
#1437=DIRECTION('',(-1.,0.,0.));
#1438=DIRECTION('',(0.,-1.,0.));
#1439=DIRECTION('',(0.,0.,-1.));
#1440=DIRECTION('',(0.,0.,-1.));
#1441=DIRECTION('',(-1.,0.,0.));
#1442=DIRECTION('',(-0.832050294337848,-0.554700196225222,7.21688589390638E-15));
#1443=DIRECTION('',(0.554700196225222,-0.832050294337848,0.));
#1444=DIRECTION('',(-1.,0.,0.));
#1445=DIRECTION('',(0.,0.,1.));
#1446=DIRECTION('',(-1.,0.,0.));
#1447=DIRECTION('',(0.,0.,1.));
#1448=DIRECTION('',(0.,0.,-1.));
#1449=DIRECTION('',(-1.,0.,0.));
#1450=DIRECTION('',(0.,0.,1.));
#1451=DIRECTION('',(1.,0.,0.));
#1452=DIRECTION('',(0.,-1.,0.));
#1453=DIRECTION('',(0.,0.,-1.));
#1454=DIRECTION('',(0.,1.,0.));
#1455=DIRECTION('',(0.,0.,1.));
#1456=DIRECTION('',(0.,-1.,0.));
#1457=DIRECTION('',(0.,0.,-1.));
#1458=DIRECTION('',(0.,1.,0.));
#1459=DIRECTION('',(0.,0.,1.));
#1460=DIRECTION('',(0.,0.,1.));
#1461=DIRECTION('',(1.,0.,0.));
#1462=DIRECTION('',(0.,0.,1.));
#1463=DIRECTION('',(1.,0.,0.));
#1464=DIRECTION('',(-0.832050294337843,-0.55470019622523,0.));
#1465=DIRECTION('',(0.55470019622523,-0.832050294337843,0.));
#1466=DIRECTION('',(0.832050294337852,0.554700196225216,0.));
#1467=DIRECTION('',(-0.554700196225216,0.832050294337852,0.));
#1468=DIRECTION('',(0.,-1.,0.));
#1469=DIRECTION('',(0.,0.,-1.));
#1470=DIRECTION('',(0.,-1.,0.));
#1471=DIRECTION('',(0.,0.,-1.));
#1472=DIRECTION('',(0.819365824309427,-0.54624388287294,0.173946159421892));
#1473=DIRECTION('',(0.554700196225221,0.832050294337849,0.));
#1474=DIRECTION('',(-0.2875,0.,-0.957780637724525));
#1475=DIRECTION('',(-0.957780637724526,0.,0.2875));
#1476=DIRECTION('',(0.,0.,-1.));
#1477=DIRECTION('',(-1.,0.,0.));
#1478=DIRECTION('',(0.807253083195442,-0.538168722130297,-0.242315674672721));
#1479=DIRECTION('',(0.554700196225231,0.832050294337842,0.));
#1480=DIRECTION('',(3.46944695195361E-15,0.,1.));
#1481=DIRECTION('',(1.,0.,-3.46944695195361E-15));
#1482=DIRECTION('',(0.,-1.,0.));
#1483=DIRECTION('',(0.,0.,-1.));
#1484=DIRECTION('',(0.,1.,0.));
#1485=DIRECTION('',(0.,0.,1.));
#1486=DIRECTION('',(0.,1.,0.));
#1487=DIRECTION('',(0.,0.,1.));
#1488=DIRECTION('',(0.,0.,-1.));
#1489=DIRECTION('',(-1.,0.,0.));
#1490=DIRECTION('',(0.,0.,-1.));
#1491=DIRECTION('',(-1.,0.,0.));
#1492=DIRECTION('',(-0.807253083195451,0.538168722130283,-0.242315674672724));
#1493=DIRECTION('',(-0.554700196225216,-0.832050294337852,0.));
#1494=DIRECTION('',(-0.819365824309427,0.546243882872941,0.173946159421892));
#1495=DIRECTION('',(-0.554700196225222,-0.832050294337848,0.));
#1496=DIRECTION('',(0.,0.,1.));
#1497=DIRECTION('',(1.,0.,0.));
#1498=DIRECTION('',(0.,0.,1.));
#1499=DIRECTION('',(1.,0.,0.));
#1500=DIRECTION('',(0.,-1.,0.));
#1501=DIRECTION('',(0.,0.,-1.));
#1502=DIRECTION('',(0.,1.,0.));
#1503=DIRECTION('',(0.,0.,1.));
#1504=DIRECTION('',(0.,0.,-1.));
#1505=DIRECTION('',(-1.,0.,0.));
#1506=DIRECTION('',(0.832050294337854,-0.554700196225214,0.));
#1507=DIRECTION('',(0.554700196225214,0.832050294337854,0.));
#1508=DIRECTION('',(0.287499999999995,0.,-0.957780637724528));
#1509=DIRECTION('',(-0.957780637724528,0.,-0.287499999999995));
#1510=DIRECTION('',(0.,-1.,0.));
#1511=DIRECTION('',(0.,0.,-1.));
#1512=DIRECTION('',(0.,0.,-1.));
#1513=DIRECTION('',(-1.,0.,0.));
#1514=DIRECTION('',(0.,-1.,0.));
#1515=DIRECTION('',(0.,0.,-1.));
#1516=DIRECTION('',(3.46944695195361E-15,0.,1.));
#1517=DIRECTION('',(1.,0.,-3.46944695195361E-15));
#1518=DIRECTION('',(0.832050294337849,-0.554700196225221,2.88675435756256E-15));
#1519=DIRECTION('',(0.554700196225221,0.832050294337849,0.));
#1520=DIRECTION('',(-0.832050294337844,0.554700196225229,0.));
#1521=DIRECTION('',(-0.554700196225229,-0.832050294337844,0.));
#1522=DIRECTION('',(-0.832050294337849,0.554700196225221,-5.77350871512511E-15));
#1523=DIRECTION('',(-0.554700196225221,-0.832050294337849,0.));
#1524=DIRECTION('',(0.,0.,1.));
#1525=DIRECTION('',(1.,0.,0.));
#1526=DIRECTION('',(0.,0.,1.));
#1527=DIRECTION('',(1.,0.,0.));
#1528=DIRECTION('',(0.,-1.,0.));
#1529=DIRECTION('',(0.,0.,-1.));
#1530=DIRECTION('',(0.,1.,0.));
#1531=DIRECTION('',(0.,0.,1.));
#1532=DIRECTION('',(0.,-1.,0.));
#1533=DIRECTION('',(0.,0.,-1.));
#1534=DIRECTION('',(0.,1.,0.));
#1535=DIRECTION('',(0.,0.,1.));
#1536=DIRECTION('',(0.,0.,-1.));
#1537=DIRECTION('',(-1.,0.,0.));
#1538=DIRECTION('',(0.,0.,-1.));
#1539=DIRECTION('',(-1.,0.,0.));
#1540=DIRECTION('',(0.832050294337843,-0.55470019622523,0.));
#1541=DIRECTION('',(0.55470019622523,0.832050294337843,0.));
#1542=DIRECTION('',(-0.832050294337851,0.554700196225219,0.));
#1543=DIRECTION('',(-0.554700196225219,-0.832050294337851,0.));
#1544=DIRECTION('',(-3.46944695195361E-15,0.,1.));
#1545=DIRECTION('',(1.,0.,3.46944695195361E-15));
#1546=DIRECTION('',(0.,-1.,0.));
#1547=DIRECTION('',(0.,0.,-1.));
#1548=DIRECTION('',(0.287499999999995,0.,-0.957780637724528));
#1549=DIRECTION('',(-0.957780637724528,0.,-0.287499999999995));
#1550=DIRECTION('',(-0.807253083195447,-0.538168722130287,-0.24231567467273));
#1551=DIRECTION('',(0.554700196225221,-0.832050294337849,0.));
#1552=DIRECTION('',(0.,-1.66790251770277E-14,-1.));
#1553=DIRECTION('',(0.,1.,-1.66790251770277E-14));
#1554=DIRECTION('',(0.,1.,0.));
#1555=DIRECTION('',(0.,0.,1.));
#1556=DIRECTION('',(0.,0.,-1.));
#1557=DIRECTION('',(-1.,0.,0.));
#1558=DIRECTION('',(0.98105093522202,0.,-0.19375));
#1559=DIRECTION('',(-0.19375,0.,-0.98105093522202));
#1560=DIRECTION('',(0.,0.,-1.));
#1561=DIRECTION('',(-1.,0.,0.));
#1562=DIRECTION('',(0.,-1.,0.));
#1563=DIRECTION('',(0.,0.,-1.));
#1564=DIRECTION('',(0.,1.,0.));
#1565=DIRECTION('',(0.,0.,1.));
#1566=DIRECTION('',(0.,1.,0.));
#1567=DIRECTION('',(0.,0.,1.));
#1568=DIRECTION('',(0.,0.,1.));
#1569=DIRECTION('',(1.,0.,0.));
#1570=DIRECTION('',(0.,0.,1.));
#1571=DIRECTION('',(1.,0.,0.));
#1572=DIRECTION('',(0.819365824309429,0.546243882872935,0.173946159421899));
#1573=DIRECTION('',(-0.554700196225216,0.832050294337852,0.));
#1574=DIRECTION('',(0.,-1.,0.));
#1575=DIRECTION('',(0.,0.,-1.));
#1576=DIRECTION('',(0.,1.,0.));
#1577=DIRECTION('',(0.,0.,1.));
#1578=DIRECTION('',(0.,-1.,0.));
#1579=DIRECTION('',(0.,0.,-1.));
#1580=DIRECTION('',(0.,1.,0.));
#1581=DIRECTION('',(0.,0.,1.));
#1582=DIRECTION('',(-0.98105093522202,0.,-0.19375));
#1583=DIRECTION('',(-0.19375,0.,0.98105093522202));
#1584=DIRECTION('',(0.,0.,-1.));
#1585=DIRECTION('',(-1.,0.,0.));
#1586=DIRECTION('',(0.,0.,1.));
#1587=DIRECTION('',(1.,0.,0.));
#1588=DIRECTION('',(0.,-1.,0.));
#1589=DIRECTION('',(0.,0.,-1.));
#1590=DIRECTION('',(0.,1.,0.));
#1591=DIRECTION('',(0.,0.,1.));
#1592=DIRECTION('',(-6.93889390390722E-15,0.,1.));
#1593=DIRECTION('',(1.,0.,6.93889390390722E-15));
#1594=DIRECTION('',(-0.832050294337846,-0.554700196225226,0.));
#1595=DIRECTION('',(0.554700196225226,-0.832050294337846,0.));
#1596=DIRECTION('',(0.,1.,0.));
#1597=DIRECTION('',(0.,0.,1.));
#1598=DIRECTION('',(0.,0.,-1.));
#1599=DIRECTION('',(-1.,0.,0.));
#1600=DIRECTION('',(1.,0.,0.));
#1601=DIRECTION('',(0.,0.,-1.));
#1602=DIRECTION('',(1.,0.,0.));
#1603=DIRECTION('',(0.,0.,-1.));
#1604=DIRECTION('',(0.832050294337844,0.554700196225229,0.));
#1605=DIRECTION('',(-0.554700196225229,0.832050294337844,0.));
#1606=DIRECTION('',(0.832050294337849,0.554700196225221,2.88675435756256E-15));
#1607=DIRECTION('',(-0.554700196225221,0.832050294337849,0.));
#1608=DIRECTION('',(0.,0.,-1.));
#1609=DIRECTION('',(-1.,0.,0.));
#1610=DIRECTION('',(0.,0.,-1.));
#1611=DIRECTION('',(-1.,0.,0.));
#1612=DIRECTION('',(0.,0.,-1.));
#1613=DIRECTION('',(-1.,0.,0.));
#1614=DIRECTION('',(0.,0.,1.));
#1615=DIRECTION('',(1.,0.,0.));
#1616=DIRECTION('',(1.,0.,0.));
#1617=DIRECTION('',(0.,0.,-1.));
#1618=DIRECTION('',(-1.,0.,0.));
#1619=DIRECTION('',(0.,0.,1.));
#1620=DIRECTION('',(0.,0.,-1.));
#1621=DIRECTION('',(-1.,0.,0.));
#1622=DIRECTION('',(0.,-1.,0.));
#1623=DIRECTION('',(0.,0.,-1.));
#1624=DIRECTION('',(0.,1.,0.));
#1625=DIRECTION('',(0.,0.,1.));
#1626=DIRECTION('',(0.,1.,0.));
#1627=DIRECTION('',(0.,0.,1.));
#1628=DIRECTION('',(0.,1.,0.));
#1629=DIRECTION('',(0.,0.,1.));
#1630=DIRECTION('',(0.,0.,-1.));
#1631=DIRECTION('',(-1.,0.,0.));
#1632=CARTESIAN_POINT('',(0.,0.,0.));
#1633=CARTESIAN_POINT('',(9.15421959172488E-18,0.162,0.000707106781186545));
#1634=CARTESIAN_POINT('',(0.004528125,0.162,0.0157921518253478));
#1635=CARTESIAN_POINT('',(0.004528125,0.159785926496605,0.0157921518253478));
#1636=CARTESIAN_POINT('',(0.004528125,0.156964073503395,0.0157921518253478));
#1637=CARTESIAN_POINT('',(9.15421959172488E-18,0.153897406836729,0.000707106781186545));
#1638=CARTESIAN_POINT('',(0.00327073349717041,0.15611250677132,0.01611375477452));
#1639=CARTESIAN_POINT('',(0.00305156250000001,0.155696481624151,0.0161586590109334));
#1640=CARTESIAN_POINT('',(0.0030515625,0.155862004006147,0.0161586590109334));
#1641=CARTESIAN_POINT('',(0.00313576231120001,0.156021097714155,0.0161424082998876));
#1642=CARTESIAN_POINT('',(0.00327073349717041,0.15611250677132,0.01611375477452));
#1643=CARTESIAN_POINT('',(0.00305156250000001,0.155696481624151,0.0161586590109334));
#1644=CARTESIAN_POINT('',(0.00305156250000001,0.162,0.0161586590109334));
#1645=CARTESIAN_POINT('',(0.00305156250000001,0.15515,0.0161586590109334));
#1646=CARTESIAN_POINT('',(9.15421959172488E-18,0.15515,0.000707106781186545));
#1647=CARTESIAN_POINT('',(-0.0030515625,0.15515,0.0161586590109334));
#1648=CARTESIAN_POINT('',(-0.0030515625,0.162,0.0161586590109334));
#1649=CARTESIAN_POINT('',(-0.0030515625,0.155696481624151,0.0161586590109334));
#1650=CARTESIAN_POINT('',(-0.0032707334971704,0.15611250677132,0.01611375477452));
#1651=CARTESIAN_POINT('',(-0.00313576635598742,0.156021100453482,0.0161424074412049));
#1652=CARTESIAN_POINT('',(-0.0030515625,0.155861998197133,0.0161586590109334));
#1653=CARTESIAN_POINT('',(-0.0030515625,0.155696481624151,0.0161586590109334));
#1654=CARTESIAN_POINT('',(-0.0032707334971704,0.15611250677132,0.01611375477452));
#1655=CARTESIAN_POINT('',(9.15421959172488E-18,0.153897406836729,0.000707106781186545));
#1656=CARTESIAN_POINT('',(-0.004528125,0.156964073503395,0.0157921518253478));
#1657=CARTESIAN_POINT('',(-0.004528125,0.162,0.0157921518253478));
#1658=CARTESIAN_POINT('',(-0.004528125,0.159785926496605,0.0157921518253478));
#1659=CARTESIAN_POINT('',(9.15421959172488E-18,0.162852593163271,0.000707106781186545));
#1660=CARTESIAN_POINT('',(-0.00327073349717038,0.16063749322868,0.01611375477452));
#1661=CARTESIAN_POINT('',(-0.0030515625,0.161053518375849,0.0161586590109334));
#1662=CARTESIAN_POINT('',(-0.0030515625,0.160887995993853,0.0161586590109334));
#1663=CARTESIAN_POINT('',(-0.00313576231120002,0.160728902285845,0.0161424082998876));
#1664=CARTESIAN_POINT('',(-0.0032707334971704,0.16063749322868,0.01611375477452));
#1665=CARTESIAN_POINT('',(-0.0030515625,0.161053518375849,0.0161586590109334));
#1666=CARTESIAN_POINT('',(-0.0030515625,0.162,0.0161586590109334));
#1667=CARTESIAN_POINT('',(-0.0030515625,0.1616,0.0161586590109334));
#1668=CARTESIAN_POINT('',(9.15421959172488E-18,0.1616,0.000707106781186545));
#1669=CARTESIAN_POINT('',(0.00305156250000001,0.1616,0.0161586590109334));
#1670=CARTESIAN_POINT('',(0.00305156250000001,0.162,0.0161586590109334));
#1671=CARTESIAN_POINT('',(0.00305156250000001,0.161053518375849,0.0161586590109334));
#1672=CARTESIAN_POINT('',(0.00327073349717041,0.16063749322868,0.01611375477452));
#1673=CARTESIAN_POINT('',(0.00313576635598744,0.160728899546518,0.0161424074412049));
#1674=CARTESIAN_POINT('',(0.00305156250000001,0.160888001802867,0.0161586590109334));
#1675=CARTESIAN_POINT('',(0.00305156250000001,0.161053518375849,0.0161586590109334));
#1676=CARTESIAN_POINT('',(0.00327073349717041,0.16063749322868,0.01611375477452));
#1677=CARTESIAN_POINT('',(9.15421959172488E-18,0.162852593163271,0.000707106781186545));
#1678=CARTESIAN_POINT('',(0.00335,0.155365138781886,-0.0150448932188135));
#1679=CARTESIAN_POINT('',(0.00335,0.155696481624151,0.02));
#1680=CARTESIAN_POINT('',(0.00335,0.155696481624151,0.0164039217447389));
#1681=CARTESIAN_POINT('',(0.00335,0.155696481624151,0.01975));
#1682=CARTESIAN_POINT('',(0.00335,0.155365138781886,0.01975));
#1683=CARTESIAN_POINT('',(0.00335,0.15515,0.01975));
#1684=CARTESIAN_POINT('',(0.00335,0.15515,0.016096713663755));
#1685=CARTESIAN_POINT('',(0.00335,0.15515,0.0164039217447389));
#1686=CARTESIAN_POINT('',(0.00335,0.155830277563773,0.0164039217447389));
#1687=CARTESIAN_POINT('',(0.0041,0.156330277563773,-0.0150448932188135));
#1688=CARTESIAN_POINT('',(0.00473867504905631,0.15675606092981,-0.0150448932188135));
#1689=CARTESIAN_POINT('',(0.00473867504905631,0.15675606092981,0.016031596984779));
#1690=CARTESIAN_POINT('',(0.00473867504905631,0.15675606092981,0.01975));
#1691=CARTESIAN_POINT('',(0.0041,0.156330277563773,0.01975));
#1692=CARTESIAN_POINT('',(0.00346132495094371,0.155904494197735,0.01975));
#1693=CARTESIAN_POINT('',(0.00346132495094371,0.155904494197735,0.016096713663755));
#1694=CARTESIAN_POINT('',(0.00346132495094371,0.155904494197735,0.0163583047426682));
#1695=CARTESIAN_POINT('',(0.000138675049056317,0.153689394263144,0.000707106781186545));
#1696=CARTESIAN_POINT('',(0.,0.158375,0.02));
#1697=CARTESIAN_POINT('',(0.,0.157875,0.02));
#1698=CARTESIAN_POINT('',(-0.002125,0.157875,0.02));
#1699=CARTESIAN_POINT('',(-0.00335,0.1616,0.02));
#1700=CARTESIAN_POINT('',(0.0031,0.1616,0.02));
#1701=CARTESIAN_POINT('',(-0.0031,0.1616,0.02));
#1702=CARTESIAN_POINT('',(-0.0031,0.158375,0.02));
#1703=CARTESIAN_POINT('',(-0.0031,0.161053518375849,0.02));
#1704=CARTESIAN_POINT('',(-0.0036,0.161053518375849,0.02));
#1705=CARTESIAN_POINT('',(-0.00332264990188737,0.16063749322868,0.02));
#1706=CARTESIAN_POINT('',(-0.00206658145997146,0.161474872189957,0.02));
#1707=CARTESIAN_POINT('',(-0.0046,0.159785926496605,0.02));
#1708=CARTESIAN_POINT('',(-0.0046,0.158375,0.02));
#1709=CARTESIAN_POINT('',(-0.0046,0.156964073503395,0.02));
#1710=CARTESIAN_POINT('',(-0.00206658145997145,0.155275127810043,0.02));
#1711=CARTESIAN_POINT('',(-0.0033226499018874,0.15611250677132,0.02));
#1712=CARTESIAN_POINT('',(-0.0036,0.155696481624151,0.02));
#1713=CARTESIAN_POINT('',(-0.0031,0.155696481624151,0.02));
#1714=CARTESIAN_POINT('',(-0.0031,0.158375,0.02));
#1715=CARTESIAN_POINT('',(-0.0031,0.15515,0.02));
#1716=CARTESIAN_POINT('',(0.00335,0.15515,0.02));
#1717=CARTESIAN_POINT('',(0.0031,0.15515,0.02));
#1718=CARTESIAN_POINT('',(0.0031,0.158375,0.02));
#1719=CARTESIAN_POINT('',(0.0031,0.155696481624151,0.02));
#1720=CARTESIAN_POINT('',(0.0036,0.155696481624151,0.02));
#1721=CARTESIAN_POINT('',(0.0033226499018874,0.15611250677132,0.02));
#1722=CARTESIAN_POINT('',(0.00206658145997145,0.155275127810043,0.02));
#1723=CARTESIAN_POINT('',(0.0046,0.156964073503395,0.02));
#1724=CARTESIAN_POINT('',(0.0046,0.158375,0.02));
#1725=CARTESIAN_POINT('',(0.0046,0.159785926496605,0.02));
#1726=CARTESIAN_POINT('',(0.00206658145997146,0.161474872189957,0.02));
#1727=CARTESIAN_POINT('',(0.0033226499018874,0.16063749322868,0.02));
#1728=CARTESIAN_POINT('',(0.0036,0.161053518375849,0.02));
#1729=CARTESIAN_POINT('',(0.0031,0.161053518375849,0.02));
#1730=CARTESIAN_POINT('',(0.0031,0.158375,0.02));
#1731=CARTESIAN_POINT('',(1.7347234759768E-18,0.1549,-0.0150448932188135));
#1732=CARTESIAN_POINT('',(0.0031,0.1549,0.02));
#1733=CARTESIAN_POINT('',(0.0031,0.1549,0.0164039217447389));
#1734=CARTESIAN_POINT('',(0.0031,0.1549,0.01975));
#1735=CARTESIAN_POINT('',(-0.00335,0.1549,0.01975));
#1736=CARTESIAN_POINT('',(-0.0031,0.1549,0.01975));
#1737=CARTESIAN_POINT('',(-0.0031,0.1549,0.016096713663755));
#1738=CARTESIAN_POINT('',(-0.0031,0.1549,0.0164039217447389));
#1739=CARTESIAN_POINT('',(9.15421959172488E-18,0.1549,0.000707106781186545));
#1740=CARTESIAN_POINT('',(0.00485,0.158375,-0.0150448932188135));
#1741=CARTESIAN_POINT('',(0.00485,0.159785926496605,-0.0150448932188135));
#1742=CARTESIAN_POINT('',(0.00485,0.159785926496605,0.016031596984779));
#1743=CARTESIAN_POINT('',(0.00485,0.159785926496605,0.01975));
#1744=CARTESIAN_POINT('',(0.00485,0.158375,0.01975));
#1745=CARTESIAN_POINT('',(0.00485,0.156964073503395,0.01975));
#1746=CARTESIAN_POINT('',(0.00485,0.156964073503395,-0.0150448932188135));
#1747=CARTESIAN_POINT('',(0.00485,0.156964073503395,0.016031596984779));
#1748=CARTESIAN_POINT('',(0.00485,0.159919722436227,0.016031596984779));
#1749=CARTESIAN_POINT('',(0.0041,0.160419722436227,-0.0150448932188135));
#1750=CARTESIAN_POINT('',(0.00346132495094371,0.160845505802265,0.02));
#1751=CARTESIAN_POINT('',(0.00346132495094371,0.160845505802265,0.0163583047426682));
#1752=CARTESIAN_POINT('',(0.00346132495094371,0.160845505802265,0.01975));
#1753=CARTESIAN_POINT('',(0.0041,0.160419722436227,0.01975));
#1754=CARTESIAN_POINT('',(0.00473867504905631,0.159993939070189,0.01975));
#1755=CARTESIAN_POINT('',(0.00473867504905631,0.159993939070189,-0.0150448932188135));
#1756=CARTESIAN_POINT('',(0.00473867504905631,0.159993939070189,0.016031596984779));
#1757=CARTESIAN_POINT('',(0.000138675049056317,0.163060605736856,0.000707106781186545));
#1758=CARTESIAN_POINT('',(0.00335,0.161384861218114,-0.0150448932188135));
#1759=CARTESIAN_POINT('',(0.00335,0.1616,0.02));
#1760=CARTESIAN_POINT('',(0.00335,0.1616,0.0164039217447389));
#1761=CARTESIAN_POINT('',(0.00335,0.1616,0.01975));
#1762=CARTESIAN_POINT('',(0.00335,0.161384861218114,0.01975));
#1763=CARTESIAN_POINT('',(0.00335,0.161053518375849,0.01975));
#1764=CARTESIAN_POINT('',(0.00335,0.161053518375849,0.016096713663755));
#1765=CARTESIAN_POINT('',(0.00335,0.161053518375849,0.0164039217447389));
#1766=CARTESIAN_POINT('',(0.00335,0.16185,0.0164039217447389));
#1767=CARTESIAN_POINT('',(1.7347234759768E-18,0.16185,-0.0150448932188135));
#1768=CARTESIAN_POINT('',(-0.0031,0.16185,0.02));
#1769=CARTESIAN_POINT('',(-0.0031,0.16185,0.0164039217447389));
#1770=CARTESIAN_POINT('',(-0.0031,0.16185,0.01975));
#1771=CARTESIAN_POINT('',(0.00335,0.16185,0.01975));
#1772=CARTESIAN_POINT('',(0.0031,0.16185,0.01975));
#1773=CARTESIAN_POINT('',(0.0031,0.16185,0.016096713663755));
#1774=CARTESIAN_POINT('',(0.0031,0.16185,0.0164039217447389));
#1775=CARTESIAN_POINT('',(9.15421959172488E-18,0.16185,0.000707106781186545));
#1776=CARTESIAN_POINT('',(-0.00335,0.161384861218114,-0.0150448932188135));
#1777=CARTESIAN_POINT('',(-0.00335,0.161053518375849,0.02));
#1778=CARTESIAN_POINT('',(-0.00335,0.161053518375849,0.0164039217447389));
#1779=CARTESIAN_POINT('',(-0.00335,0.161053518375849,0.01975));
#1780=CARTESIAN_POINT('',(-0.00335,0.161384861218114,0.01975));
#1781=CARTESIAN_POINT('',(-0.00335,0.1616,0.01975));
#1782=CARTESIAN_POINT('',(-0.00335,0.1616,0.016096713663755));
#1783=CARTESIAN_POINT('',(-0.00335,0.1616,0.0164039217447389));
#1784=CARTESIAN_POINT('',(-0.00335,0.160919722436227,0.0164039217447389));
#1785=CARTESIAN_POINT('',(-0.0041,0.160419722436227,-0.0150448932188135));
#1786=CARTESIAN_POINT('',(-0.00473867504905631,0.159993939070189,-0.0150448932188135));
#1787=CARTESIAN_POINT('',(-0.00473867504905631,0.159993939070189,0.016031596984779));
#1788=CARTESIAN_POINT('',(-0.00473867504905631,0.159993939070189,0.01975));
#1789=CARTESIAN_POINT('',(-0.0041,0.160419722436227,0.01975));
#1790=CARTESIAN_POINT('',(-0.00346132495094368,0.160845505802265,0.01975));
#1791=CARTESIAN_POINT('',(-0.00346132495094368,0.160845505802265,0.016096713663755));
#1792=CARTESIAN_POINT('',(-0.00346132495094368,0.160845505802265,0.0163583047426682));
#1793=CARTESIAN_POINT('',(-0.000138675049056298,0.163060605736856,0.000707106781186545));
#1794=CARTESIAN_POINT('',(-0.00485,0.158375,-0.0150448932188135));
#1795=CARTESIAN_POINT('',(-0.00485,0.156964073503395,-0.0150448932188135));
#1796=CARTESIAN_POINT('',(-0.00485,0.156964073503395,0.016031596984779));
#1797=CARTESIAN_POINT('',(-0.00485,0.156964073503395,0.01975));
#1798=CARTESIAN_POINT('',(-0.00485,0.158375,0.01975));
#1799=CARTESIAN_POINT('',(-0.00485,0.159785926496605,0.01975));
#1800=CARTESIAN_POINT('',(-0.00485,0.159785926496605,-0.0150448932188135));
#1801=CARTESIAN_POINT('',(-0.00485,0.159785926496605,0.016031596984779));
#1802=CARTESIAN_POINT('',(-0.00485,0.156830277563773,0.016031596984779));
#1803=CARTESIAN_POINT('',(-0.0041,0.156330277563773,-0.0150448932188135));
#1804=CARTESIAN_POINT('',(-0.0034613249509437,0.155904494197735,0.02));
#1805=CARTESIAN_POINT('',(-0.00346132495094371,0.155904494197735,0.0163583047426682));
#1806=CARTESIAN_POINT('',(-0.0034613249509437,0.155904494197735,0.01975));
#1807=CARTESIAN_POINT('',(-0.0041,0.156330277563773,0.01975));
#1808=CARTESIAN_POINT('',(-0.00473867504905631,0.15675606092981,0.01975));
#1809=CARTESIAN_POINT('',(-0.00473867504905631,0.15675606092981,-0.0150448932188135));
#1810=CARTESIAN_POINT('',(-0.00473867504905631,0.15675606092981,0.016031596984779));
#1811=CARTESIAN_POINT('',(-0.000138675049056298,0.153689394263144,0.000707106781186545));
#1812=CARTESIAN_POINT('',(-0.00335,0.155365138781886,-0.0150448932188135));
#1813=CARTESIAN_POINT('',(-0.00335,0.15515,0.02));
#1814=CARTESIAN_POINT('',(-0.00335,0.15515,0.0164039217447389));
#1815=CARTESIAN_POINT('',(-0.00335,0.15515,0.01975));
#1816=CARTESIAN_POINT('',(-0.00335,0.155365138781886,0.01975));
#1817=CARTESIAN_POINT('',(-0.00335,0.155696481624151,0.01975));
#1818=CARTESIAN_POINT('',(-0.00335,0.155696481624151,0.016096713663755));
#1819=CARTESIAN_POINT('',(-0.00335,0.155696481624151,0.0164039217447389));
#1820=CARTESIAN_POINT('',(-0.00335,0.1549,0.0164039217447389));
#1821=CARTESIAN_POINT('',(0.,0.157875,0.018));
#1822=CARTESIAN_POINT('',(0.,0.157875,0.0195));
#1823=CARTESIAN_POINT('',(-0.001625,0.157875,0.0195));
#1824=CARTESIAN_POINT('',(0.,0.157875,0.018));
#1825=CARTESIAN_POINT('',(0.001625,0.157875,0.018));
#1826=CARTESIAN_POINT('',(0.,0.158375,0.018));
#1827=CARTESIAN_POINT('',(0.0031,0.162,0.0164039217447389));
#1828=CARTESIAN_POINT('',(0.0031,0.15515,0.0164039217447389));
#1829=CARTESIAN_POINT('',(0.0031,0.155696481624151,0.0164039217447389));
#1830=CARTESIAN_POINT('',(0.0031,0.15515,0.0164039217447389));
#1831=CARTESIAN_POINT('',(0.0031,0.15515,0.0164039217447389));
#1832=CARTESIAN_POINT('',(0.0031,0.15515,0.0164039217447389));
#1833=CARTESIAN_POINT('',(0.00346132495094368,0.155904494197735,0.0163583047426682));
#1834=CARTESIAN_POINT('',(0.00342070355870595,0.155877413269577,0.0160819170831514));
#1835=CARTESIAN_POINT('',(0.00327073349717041,0.15611250677132,0.01611375477452));
#1836=CARTESIAN_POINT('',(0.00339319036722429,0.155859071141923,0.01638723379867));
#1837=CARTESIAN_POINT('',(0.00336805096829141,0.155822511886385,0.0160945006811092));
#1838=CARTESIAN_POINT('',(0.00313659358715505,0.156021660584586,0.0161422318252831));
#1839=CARTESIAN_POINT('',(0.00335,0.1557793319197,0.0164039217255051));
#1840=CARTESIAN_POINT('',(0.00335000002502469,0.155759422049446,0.0160997198974796));
#1841=CARTESIAN_POINT('',(0.00305156259602569,0.155862182215252,0.016158658991969));
#1842=CARTESIAN_POINT('',(0.00335,0.155696481624151,0.0164039217447389));
#1843=CARTESIAN_POINT('',(0.00335,0.155696481624151,0.0160997199043599));
#1844=CARTESIAN_POINT('',(0.0030515625,0.155696481624151,0.0161586590109334));
#1845=CARTESIAN_POINT('',(0.0033226499018874,0.15611250677132,0.0163583047426682));
#1846=CARTESIAN_POINT('',(0.00346132495094371,0.155904494197735,0.0163583047426682));
#1847=CARTESIAN_POINT('',(0.00339506976018709,0.155860324070564,0.0163864358548819));
#1848=CARTESIAN_POINT('',(0.00335,0.155781064031605,0.0164039217447389));
#1849=CARTESIAN_POINT('',(0.00335,0.155696481624151,0.0164039217447389));
#1850=CARTESIAN_POINT('',(0.0031,0.15515,-0.0150448932188135));
#1851=CARTESIAN_POINT('',(0.0031,0.15515,0.01975));
#1852=CARTESIAN_POINT('',(9.15421959172488E-18,0.15515,0.000707106781186545));
#1853=CARTESIAN_POINT('',(-0.0031,0.15515,0.0164039217447389));
#1854=CARTESIAN_POINT('',(0.00327073349717036,0.15611250677132,0.0161137547745201));
#1855=CARTESIAN_POINT('',(0.00342070355870593,0.155877413269577,0.0160819170831514));
#1856=CARTESIAN_POINT('',(0.00346132495094365,0.155904494197736,0.0163583047426682));
#1857=CARTESIAN_POINT('',(0.00369404482598202,0.156399193808825,0.0160238884685283));
#1858=CARTESIAN_POINT('',(0.00384839549158847,0.156162541224848,0.0159867779463217));
#1859=CARTESIAN_POINT('',(0.00389135550719845,0.156191181235239,0.0162670119873769));
#1860=CARTESIAN_POINT('',(0.00411364999767155,0.156683370856309,0.0159165660789629));
#1861=CARTESIAN_POINT('',(0.00426843659712729,0.15644256862851,0.0158745974284861));
#1862=CARTESIAN_POINT('',(0.00431762107843456,0.15647535828273,0.0161579860678163));
#1863=CARTESIAN_POINT('',(0.00452812499999991,0.156964073503395,0.0157921518253479));
#1864=CARTESIAN_POINT('',(0.00467947432007692,0.156716593777158,0.0157467208280941));
#1865=CARTESIAN_POINT('',(0.00473867504905621,0.156756060929811,0.016031596984779));
#1866=CARTESIAN_POINT('',(0.0046,0.156964073503395,0.016031596984779));
#1867=CARTESIAN_POINT('',(0.0036,0.155696481624151,-0.0150448932188135));
#1868=CARTESIAN_POINT('',(0.0036,0.155696481624151,0.01975));
#1869=CARTESIAN_POINT('',(0.0031,0.155365138781886,0.01975));
#1870=CARTESIAN_POINT('',(0.0031,0.15515,0.01975));
#1871=CARTESIAN_POINT('',(0.0031,0.155696481624151,0.01975));
#1872=CARTESIAN_POINT('',(0.0031,0.15515,0.01975));
#1873=CARTESIAN_POINT('',(0.0031,0.15515,0.01975));
#1874=CARTESIAN_POINT('',(-0.0031,0.15515,0.0164039217447389));
#1875=CARTESIAN_POINT('',(-0.0031,0.15515,0.0164039217447389));
#1876=CARTESIAN_POINT('',(-0.0031,0.15515,0.0164039217447389));
#1877=CARTESIAN_POINT('',(0.0046,0.156964073503395,0.016031596984779));
#1878=CARTESIAN_POINT('',(0.0046,0.156964073503395,0.016031596984779));
#1879=CARTESIAN_POINT('',(0.0046,0.156964073503395,0.016031596984779));
#1880=CARTESIAN_POINT('',(0.0036,0.155696481624151,0.01975));
#1881=CARTESIAN_POINT('',(0.0033226499018874,0.15611250677132,0.01975));
#1882=CARTESIAN_POINT('',(0.,0.15515,0.01975));
#1883=CARTESIAN_POINT('',(-0.0031,0.15515,0.01975));
#1884=CARTESIAN_POINT('',(-0.0031,0.15515,-0.0150448932188135));
#1885=CARTESIAN_POINT('',(-0.0031,0.15515,0.01975));
#1886=CARTESIAN_POINT('',(-0.0031,0.162,0.0164039217447389));
#1887=CARTESIAN_POINT('',(-0.0031,0.155696481624151,0.0164039217447389));
#1888=CARTESIAN_POINT('',(0.0046,0.162,0.016031596984779));
#1889=CARTESIAN_POINT('',(0.0046,0.159785926496605,0.016031596984779));
#1890=CARTESIAN_POINT('',(0.0046,0.156964073503395,-0.0150448932188135));
#1891=CARTESIAN_POINT('',(0.0046,0.156964073503395,0.01975));
#1892=CARTESIAN_POINT('',(0.00396132495094368,0.156538290137358,0.01975));
#1893=CARTESIAN_POINT('',(0.0046,0.156964073503395,0.01975));
#1894=CARTESIAN_POINT('',(-0.0031,0.15515,0.01975));
#1895=CARTESIAN_POINT('',(-0.0031,0.15515,0.01975));
#1896=CARTESIAN_POINT('',(-0.00335,0.155696481624151,0.0164039217447389));
#1897=CARTESIAN_POINT('',(-0.00335,0.155696481624151,0.0160997199043599));
#1898=CARTESIAN_POINT('',(-0.0030515625,0.155696481624151,0.0161586590109333));
#1899=CARTESIAN_POINT('',(-0.00335,0.155779637982863,0.0164039217221124));
#1900=CARTESIAN_POINT('',(-0.00335000002948647,0.15575965456195,0.0160997198962616));
#1901=CARTESIAN_POINT('',(-0.00305156261294283,0.155862794341583,0.016158658988628));
#1902=CARTESIAN_POINT('',(-0.00339333540934073,0.155859167836667,0.0163871722168801));
#1903=CARTESIAN_POINT('',(-0.00336816642635522,0.155822632280956,0.0160944730873573));
#1904=CARTESIAN_POINT('',(-0.00313687913400208,0.156021853981339,0.0161421712055014));
#1905=CARTESIAN_POINT('',(-0.00346132495094372,0.155904494197735,0.0163583047426682));
#1906=CARTESIAN_POINT('',(-0.00342070355870599,0.155877413269577,0.0160819170831514));
#1907=CARTESIAN_POINT('',(-0.00327073349717045,0.15611250677132,0.01611375477452));
#1908=CARTESIAN_POINT('',(-0.00335,0.155696481624151,0.0164039217447389));
#1909=CARTESIAN_POINT('',(-0.00335,0.15578106362128,0.0164039217447389));
#1910=CARTESIAN_POINT('',(-0.00339506571888781,0.155860321376365,0.0163864375707663));
#1911=CARTESIAN_POINT('',(-0.00346132495094371,0.155904494197735,0.0163583047426682));
#1912=CARTESIAN_POINT('',(-0.0033226499018874,0.15611250677132,0.0163583047426682));
#1913=CARTESIAN_POINT('',(0.0046,0.159785926496605,0.016031596984779));
#1914=CARTESIAN_POINT('',(0.0046,0.159785926496605,0.016031596984779));
#1915=CARTESIAN_POINT('',(0.0046,0.159785926496605,0.016031596984779));
#1916=CARTESIAN_POINT('',(0.0046,0.156964073503395,0.01975));
#1917=CARTESIAN_POINT('',(0.0046,0.156964073503395,0.01975));
#1918=CARTESIAN_POINT('',(-0.0031,0.155365138781886,0.01975));
#1919=CARTESIAN_POINT('',(-0.0031,0.155696481624151,0.01975));
#1920=CARTESIAN_POINT('',(-0.0036,0.155696481624151,-0.0150448932188135));
#1921=CARTESIAN_POINT('',(-0.0036,0.155696481624151,0.01975));
#1922=CARTESIAN_POINT('',(-0.00452812499999991,0.156964073503395,0.0157921518253479));
#1923=CARTESIAN_POINT('',(-0.00467947432007693,0.156716593777158,0.0157467208280941));
#1924=CARTESIAN_POINT('',(-0.00473867504905622,0.156756060929811,0.016031596984779));
#1925=CARTESIAN_POINT('',(-0.00411364999767218,0.156683370856331,0.0159165660789627));
#1926=CARTESIAN_POINT('',(-0.00426843659712908,0.156442568628557,0.0158745974284859));
#1927=CARTESIAN_POINT('',(-0.00431762107844459,0.156475358282736,0.0161579860678163));
#1928=CARTESIAN_POINT('',(-0.00369404482598269,0.156399193808818,0.0160238884685282));
#1929=CARTESIAN_POINT('',(-0.00384839549158901,0.156162541224837,0.0159867779463175));
#1930=CARTESIAN_POINT('',(-0.00389135550719509,0.156191181235237,0.0162670119873741));
#1931=CARTESIAN_POINT('',(-0.00327073349717036,0.15611250677132,0.0161137547745201));
#1932=CARTESIAN_POINT('',(-0.00342070355870594,0.155877413269577,0.0160819170831514));
#1933=CARTESIAN_POINT('',(-0.00346132495094366,0.155904494197736,0.0163583047426682));
#1934=CARTESIAN_POINT('',(-0.0046,0.156964073503395,0.016031596984779));
#1935=CARTESIAN_POINT('',(0.00452812499999992,0.159785926496605,0.0157921518253478));
#1936=CARTESIAN_POINT('',(0.00467947432007693,0.160033406222842,0.0157467208280941));
#1937=CARTESIAN_POINT('',(0.00473867504905622,0.159993939070189,0.016031596984779));
#1938=CARTESIAN_POINT('',(0.00411364999767181,0.160066629143669,0.0159165660789628));
#1939=CARTESIAN_POINT('',(0.00426843659712874,0.160307431371453,0.0158745974284824));
#1940=CARTESIAN_POINT('',(0.00431762107844413,0.160274641717264,0.0161579860678153));
#1941=CARTESIAN_POINT('',(0.0036940448259828,0.160350806191182,0.0160238884685282));
#1942=CARTESIAN_POINT('',(0.00384839549158936,0.160587458775172,0.0159867779463175));
#1943=CARTESIAN_POINT('',(0.00389135550719518,0.160558818764763,0.0162670119873741));
#1944=CARTESIAN_POINT('',(0.00327073349717037,0.16063749322868,0.0161137547745201));
#1945=CARTESIAN_POINT('',(0.00342070355870594,0.160872586730423,0.0160819170831514));
#1946=CARTESIAN_POINT('',(0.00346132495094367,0.160845505802264,0.0163583047426682));
#1947=CARTESIAN_POINT('',(0.0033226499018874,0.16063749322868,0.0163583047426682));
#1948=CARTESIAN_POINT('',(0.0046,0.159785926496605,-0.0150448932188135));
#1949=CARTESIAN_POINT('',(0.0046,0.159785926496605,0.01975));
#1950=CARTESIAN_POINT('',(0.0046,0.158375,0.01975));
#1951=CARTESIAN_POINT('',(0.0046,0.159785926496605,0.01975));
#1952=CARTESIAN_POINT('',(-0.0036,0.155696481624151,0.01975));
#1953=CARTESIAN_POINT('',(-0.0033226499018874,0.15611250677132,0.01975));
#1954=CARTESIAN_POINT('',(-0.0046,0.156964073503395,0.016031596984779));
#1955=CARTESIAN_POINT('',(-0.0046,0.156964073503395,0.016031596984779));
#1956=CARTESIAN_POINT('',(-0.0046,0.156964073503395,0.016031596984779));
#1957=CARTESIAN_POINT('',(0.00335,0.161053518375849,0.0164039217447389));
#1958=CARTESIAN_POINT('',(0.00335,0.161053518375849,0.0160997199043599));
#1959=CARTESIAN_POINT('',(0.0030515625,0.161053518375849,0.0161586590109333));
#1960=CARTESIAN_POINT('',(0.00335,0.160970362017137,0.0164039217221133));
#1961=CARTESIAN_POINT('',(0.00335000002948633,0.160990345438047,0.0160997198962609));
#1962=CARTESIAN_POINT('',(0.00305156261294252,0.160887205658417,0.0161586589886281));
#1963=CARTESIAN_POINT('',(0.00339333540933724,0.160890832163336,0.0163871722168807));
#1964=CARTESIAN_POINT('',(0.00336816642635017,0.160927367719046,0.0160944730873582));
#1965=CARTESIAN_POINT('',(0.00313687913399486,0.160728146018661,0.016142171205503));
#1966=CARTESIAN_POINT('',(0.00346132495094372,0.160845505802265,0.0163583047426682));
#1967=CARTESIAN_POINT('',(0.00342070355870599,0.160872586730423,0.0160819170831514));
#1968=CARTESIAN_POINT('',(0.00327073349717045,0.16063749322868,0.01611375477452));
#1969=CARTESIAN_POINT('',(0.0031,0.161053518375849,0.0164039217447389));
#1970=CARTESIAN_POINT('',(0.00335,0.161053518375849,0.0164039217447389));
#1971=CARTESIAN_POINT('',(0.00335,0.16096893637872,0.0164039217447389));
#1972=CARTESIAN_POINT('',(0.00339506571888783,0.160889678623635,0.0163864375707663));
#1973=CARTESIAN_POINT('',(0.00346132495094371,0.160845505802265,0.0163583047426682));
#1974=CARTESIAN_POINT('',(0.0046,0.159785926496605,0.01975));
#1975=CARTESIAN_POINT('',(0.0046,0.159785926496605,0.01975));
#1976=CARTESIAN_POINT('',(-0.00396132495094368,0.156538290137358,0.01975));
#1977=CARTESIAN_POINT('',(-0.0046,0.156964073503395,0.01975));
#1978=CARTESIAN_POINT('',(-0.0046,0.156964073503395,-0.0150448932188135));
#1979=CARTESIAN_POINT('',(-0.0046,0.156964073503395,0.01975));
#1980=CARTESIAN_POINT('',(-0.0046,0.162,0.016031596984779));
#1981=CARTESIAN_POINT('',(-0.0046,0.159785926496605,0.016031596984779));
#1982=CARTESIAN_POINT('',(0.0031,0.162,0.0164039217447389));
#1983=CARTESIAN_POINT('',(0.0031,0.1616,0.0164039217447389));
#1984=CARTESIAN_POINT('',(0.0036,0.161053518375849,-0.0150448932188135));
#1985=CARTESIAN_POINT('',(0.0036,0.161053518375849,0.01975));
#1986=CARTESIAN_POINT('',(0.00396132495094369,0.160211709862642,0.01975));
#1987=CARTESIAN_POINT('',(0.0033226499018874,0.16063749322868,0.01975));
#1988=CARTESIAN_POINT('',(-0.0046,0.156964073503395,0.01975));
#1989=CARTESIAN_POINT('',(-0.0046,0.156964073503395,0.01975));
#1990=CARTESIAN_POINT('',(-0.0046,0.159785926496605,0.016031596984779));
#1991=CARTESIAN_POINT('',(-0.0046,0.159785926496605,0.016031596984779));
#1992=CARTESIAN_POINT('',(-0.0046,0.159785926496605,0.016031596984779));
#1993=CARTESIAN_POINT('',(0.0031,0.1616,0.0164039217447389));
#1994=CARTESIAN_POINT('',(0.0031,0.1616,0.0164039217447389));
#1995=CARTESIAN_POINT('',(0.0031,0.1616,0.0164039217447389));
#1996=CARTESIAN_POINT('',(0.0036,0.161053518375849,0.01975));
#1997=CARTESIAN_POINT('',(0.0031,0.161053518375849,0.01975));
#1998=CARTESIAN_POINT('',(-0.0046,0.158375,0.01975));
#1999=CARTESIAN_POINT('',(-0.0046,0.159785926496605,0.01975));
#2000=CARTESIAN_POINT('',(-0.0046,0.159785926496605,-0.0150448932188135));
#2001=CARTESIAN_POINT('',(-0.0046,0.159785926496605,0.01975));
#2002=CARTESIAN_POINT('',(-0.00327073349717032,0.16063749322868,0.0161137547745201));
#2003=CARTESIAN_POINT('',(-0.00342070355870589,0.160872586730423,0.0160819170831514));
#2004=CARTESIAN_POINT('',(-0.00346132495094361,0.160845505802264,0.0163583047426682));
#2005=CARTESIAN_POINT('',(-0.00369404482598189,0.160350806191183,0.0160238884685284));
#2006=CARTESIAN_POINT('',(-0.00384839549158703,0.16058745877516,0.0159867779463178));
#2007=CARTESIAN_POINT('',(-0.00389135550719451,0.160558818764764,0.0162670119873741));
#2008=CARTESIAN_POINT('',(-0.00411364999767088,0.160066629143698,0.0159165660789631));
#2009=CARTESIAN_POINT('',(-0.00426843659712695,0.160307431371492,0.0158745974284852));
#2010=CARTESIAN_POINT('',(-0.00431762107843023,0.160274641717273,0.0161579860678163));
#2011=CARTESIAN_POINT('',(-0.00452812499999987,0.159785926496605,0.0157921518253479));
#2012=CARTESIAN_POINT('',(-0.00467947432007688,0.160033406222842,0.0157467208280941));
#2013=CARTESIAN_POINT('',(-0.00473867504905617,0.159993939070189,0.016031596984779));
#2014=CARTESIAN_POINT('',(-0.00332264990188737,0.16063749322868,0.0163583047426682));
#2015=CARTESIAN_POINT('',(-0.0031,0.162,0.0164039217447389));
#2016=CARTESIAN_POINT('',(-0.0031,0.1616,0.0164039217447389));
#2017=CARTESIAN_POINT('',(-0.0031,0.161053518375849,0.0164039217447389));
#2018=CARTESIAN_POINT('',(9.15421959172488E-18,0.1616,0.000707106781186545));
#2019=CARTESIAN_POINT('',(-0.0031,0.1616,0.0164039217447389));
#2020=CARTESIAN_POINT('',(0.0031,0.1616,-0.0150448932188135));
#2021=CARTESIAN_POINT('',(0.0031,0.1616,0.01975));
#2022=CARTESIAN_POINT('',(0.0031,0.161384861218114,0.01975));
#2023=CARTESIAN_POINT('',(0.0031,0.1616,0.01975));
#2024=CARTESIAN_POINT('',(-0.0046,0.159785926496605,0.01975));
#2025=CARTESIAN_POINT('',(-0.0046,0.159785926496605,0.01975));
#2026=CARTESIAN_POINT('',(-0.00346132495094367,0.160845505802264,0.0163583047426682));
#2027=CARTESIAN_POINT('',(-0.00342070355870595,0.160872586730423,0.0160819170831514));
#2028=CARTESIAN_POINT('',(-0.00327073349717039,0.16063749322868,0.01611375477452));
#2029=CARTESIAN_POINT('',(-0.00339319036722363,0.160890928858078,0.0163872337986712));
#2030=CARTESIAN_POINT('',(-0.00336805096828968,0.160927488113617,0.0160945006811091));
#2031=CARTESIAN_POINT('',(-0.00313659358715122,0.160728339415414,0.0161422318252839));
#2032=CARTESIAN_POINT('',(-0.00334999999999999,0.160970668080293,0.0164039217255051));
#2033=CARTESIAN_POINT('',(-0.00335000002502464,0.160990577950546,0.0160997198974801));
#2034=CARTESIAN_POINT('',(-0.00305156259602565,0.160887817784741,0.016158658991969));
#2035=CARTESIAN_POINT('',(-0.00335,0.161053518375849,0.0164039217447389));
#2036=CARTESIAN_POINT('',(-0.00335,0.161053518375849,0.0160997199043599));
#2037=CARTESIAN_POINT('',(-0.0030515625,0.161053518375849,0.0161586590109334));
#2038=CARTESIAN_POINT('',(-0.00346132495094368,0.160845505802265,0.0163583047426682));
#2039=CARTESIAN_POINT('',(-0.00339506976018709,0.160889675929436,0.0163864358548819));
#2040=CARTESIAN_POINT('',(-0.00335,0.160968935968395,0.0164039217447389));
#2041=CARTESIAN_POINT('',(-0.00335,0.161053518375849,0.0164039217447389));
#2042=CARTESIAN_POINT('',(-0.0031,0.1616,0.0164039217447389));
#2043=CARTESIAN_POINT('',(-0.0031,0.1616,0.0164039217447389));
#2044=CARTESIAN_POINT('',(0.0031,0.1616,0.01975));
#2045=CARTESIAN_POINT('',(0.0031,0.1616,0.01975));
#2046=CARTESIAN_POINT('',(-0.00396132495094369,0.160211709862642,0.01975));
#2047=CARTESIAN_POINT('',(-0.00332264990188737,0.16063749322868,0.01975));
#2048=CARTESIAN_POINT('',(-0.0036,0.161053518375849,-0.0150448932188135));
#2049=CARTESIAN_POINT('',(-0.0036,0.161053518375849,0.01975));
#2050=CARTESIAN_POINT('',(-0.0031,0.1616,-0.0150448932188135));
#2051=CARTESIAN_POINT('',(-0.0031,0.1616,0.01975));
#2052=CARTESIAN_POINT('',(0.,0.1616,0.01975));
#2053=CARTESIAN_POINT('',(-0.0031,0.1616,0.01975));
#2054=CARTESIAN_POINT('',(-0.0036,0.161053518375849,0.01975));
#2055=CARTESIAN_POINT('',(-0.0031,0.161053518375849,0.01975));
#2056=CARTESIAN_POINT('',(-0.0031,0.1616,0.01975));
#2057=CARTESIAN_POINT('',(-0.0031,0.1616,0.01975));
#2058=CARTESIAN_POINT('',(-0.0031,0.161384861218114,0.01975));
#2059=CARTESIAN_POINT('',(0.,0.157875,0.0195));
#2060=MECHANICAL_DESIGN_GEOMETRIC_PRESENTATION_REPRESENTATION('',(#1090),
#2061);
#2061=(
GEOMETRIC_REPRESENTATION_CONTEXT(3)
GLOBAL_UNCERTAINTY_ASSIGNED_CONTEXT((#2062))
GLOBAL_UNIT_ASSIGNED_CONTEXT((#2065,#2064,#2063))
REPRESENTATION_CONTEXT('BLOCKS_detector_clamp',
'TOP_LEVEL_ASSEMBLY_PART')
);
#2062=UNCERTAINTY_MEASURE_WITH_UNIT(LENGTH_MEASURE(2.E-5),#2065,
'DISTANCE_ACCURACY_VALUE','Maximum Tolerance applied to model');
#2063=(
NAMED_UNIT(*)
SI_UNIT($,.STERADIAN.)
SOLID_ANGLE_UNIT()
);
#2064=(
NAMED_UNIT(*)
PLANE_ANGLE_UNIT()
SI_UNIT($,.RADIAN.)
);
#2065=(
LENGTH_UNIT()
NAMED_UNIT(*)
SI_UNIT($,.METRE.)
);
#2066=PRODUCT_DEFINITION_SHAPE('','',#2067);
#2067=PRODUCT_DEFINITION('','',#2069,#2068);
#2068=PRODUCT_DEFINITION_CONTEXT('',#2075,'design');
#2069=PRODUCT_DEFINITION_FORMATION_WITH_SPECIFIED_SOURCE('','',#2071,
 .NOT_KNOWN.);
#2070=PRODUCT_RELATED_PRODUCT_CATEGORY('','',(#2071));
#2071=PRODUCT('BLOCKS_detector_clamp','BLOCKS_detector_clamp',
'BLOCKS_detector_clamp',(#2073));
#2072=PRODUCT_CATEGORY('','');
#2073=PRODUCT_CONTEXT('',#2075,'mechanical');
#2074=APPLICATION_PROTOCOL_DEFINITION('international standard',
'ap242_managed_model_based_3d_engineering',2020,#2075);
#2075=APPLICATION_CONTEXT('managed model based 3d engineering');
ENDSEC;
END-ISO-10303-21;
