ISO-10303-21;
HEADER;
/* Generated by software containing ST-Developer
 * from STEP Tools, Inc. (www.steptools.com) 
 */
/* OPTION: using custom renumber hook */

FILE_DESCRIPTION(
/* description */ ('STEP AP242 Edition 2',
'CAx-IF Rec.Pracs.---Representation and Presentation of Product Manufa
cturing Information (PMI)---4.0---2014-10-13',
'CAx-IF Rec.Pracs.---3D Tessellated Geometry---0.4---2014-09-14','2;1',
'CAx-IF Rec.Pracs.---User Defined Attributes---1.5---2016-08-15'),
/* implementation_level */ '2;1');

FILE_NAME(
/* name */ 'laser_block - BLOCKS_laser_cap',
/* time_stamp */ '2026-05-14T18:09:56Z',
/* author */ (''),
/* organization */ (''),
/* preprocessor_version */ 'ST-DEVELOPER v20',
/* originating_system */ 'ONSHAPE BY PTC INC, 1.214',
/* authorisation */ '  ');

FILE_SCHEMA (('AP242_MANAGED_MODEL_BASED_3D_ENGINEERING_MIM_LF { 1 0 10303 442 3 1 4 }'));
ENDSEC;

DATA;
#10=SHAPE_REPRESENTATION_RELATIONSHIP('','',#724,#11);
#11=ADVANCED_BREP_SHAPE_REPRESENTATION('',(#722),#1315);
#12=TOROIDAL_SURFACE('',#789,0.00275,0.0005);
#13=TOROIDAL_SURFACE('',#790,0.003575,0.0005);
#14=TOROIDAL_SURFACE('',#791,0.002125,0.0005);
#15=TOROIDAL_SURFACE('',#792,0.002125,0.0005);
#16=TOROIDAL_SURFACE('',#796,0.0045,0.0005);
#17=TOROIDAL_SURFACE('',#798,0.0025,0.0005);
#18=TOROIDAL_SURFACE('',#802,0.0151,0.0005);
#19=TOROIDAL_SURFACE('',#804,0.0025,0.0005);
#20=TOROIDAL_SURFACE('',#806,0.0025,0.0005);
#21=TOROIDAL_SURFACE('',#808,0.0151,0.0005);
#22=TOROIDAL_SURFACE('',#812,0.0025,0.0005);
#23=TOROIDAL_SURFACE('',#814,0.0045,0.0005);
#24=TOROIDAL_SURFACE('',#817,0.002125,0.0005);
#25=TOROIDAL_SURFACE('',#818,0.002125,0.0005);
#26=TOROIDAL_SURFACE('',#822,0.0045,0.0005);
#27=TOROIDAL_SURFACE('',#824,0.0025,0.0005);
#28=TOROIDAL_SURFACE('',#828,0.0151,0.0005);
#29=TOROIDAL_SURFACE('',#830,0.0025,0.0005);
#30=TOROIDAL_SURFACE('',#832,0.0025,0.0005);
#31=TOROIDAL_SURFACE('',#834,0.0151,0.0005);
#32=TOROIDAL_SURFACE('',#838,0.0025,0.0005);
#33=TOROIDAL_SURFACE('',#840,0.0045,0.0005);
#34=CIRCLE('',#728,0.0156);
#35=CIRCLE('',#729,0.0156);
#36=CIRCLE('',#732,0.005);
#37=CIRCLE('',#733,0.005);
#38=CIRCLE('',#736,0.0156);
#39=CIRCLE('',#737,0.0156);
#40=CIRCLE('',#740,0.001625);
#41=CIRCLE('',#741,0.001625);
#42=CIRCLE('',#743,0.001625);
#43=CIRCLE('',#744,0.001625);
#44=CIRCLE('',#746,0.005);
#45=CIRCLE('',#747,0.005);
#46=CIRCLE('',#749,0.003575);
#47=CIRCLE('',#750,0.002125);
#48=CIRCLE('',#751,0.002125);
#49=CIRCLE('',#752,0.0045);
#50=CIRCLE('',#753,0.0025);
#51=CIRCLE('',#754,0.0151);
#52=CIRCLE('',#755,0.0025);
#53=CIRCLE('',#756,0.0045);
#54=CIRCLE('',#757,0.0025);
#55=CIRCLE('',#758,0.0151);
#56=CIRCLE('',#759,0.0025);
#57=CIRCLE('',#761,0.00275);
#58=CIRCLE('',#762,0.002125);
#59=CIRCLE('',#763,0.002125);
#60=CIRCLE('',#764,0.0025);
#61=CIRCLE('',#765,0.0045);
#62=CIRCLE('',#766,0.0025);
#63=CIRCLE('',#767,0.0151);
#64=CIRCLE('',#768,0.0025);
#65=CIRCLE('',#769,0.0045);
#66=CIRCLE('',#770,0.0025);
#67=CIRCLE('',#771,0.0151);
#68=CIRCLE('',#773,0.003075);
#69=CIRCLE('',#774,0.003075);
#70=CIRCLE('',#776,0.00275);
#71=CIRCLE('',#778,0.002);
#72=CIRCLE('',#779,0.002);
#73=CIRCLE('',#781,0.002);
#74=CIRCLE('',#782,0.002);
#75=CIRCLE('',#784,0.002);
#76=CIRCLE('',#785,0.002);
#77=CIRCLE('',#787,0.002);
#78=CIRCLE('',#788,0.002);
#79=CIRCLE('',#794,0.0005);
#80=CIRCLE('',#795,0.0005);
#81=CIRCLE('',#797,0.0005);
#82=CIRCLE('',#799,0.0005);
#83=CIRCLE('',#801,0.0005);
#84=CIRCLE('',#803,0.0005);
#85=CIRCLE('',#805,0.0005);
#86=CIRCLE('',#807,0.0005);
#87=CIRCLE('',#809,0.0005);
#88=CIRCLE('',#811,0.0005);
#89=CIRCLE('',#813,0.0005);
#90=CIRCLE('',#815,0.0005);
#91=CIRCLE('',#820,0.0005);
#92=CIRCLE('',#821,0.0005);
#93=CIRCLE('',#823,0.0005);
#94=CIRCLE('',#825,0.0005);
#95=CIRCLE('',#827,0.0005);
#96=CIRCLE('',#829,0.0005);
#97=CIRCLE('',#831,0.0005);
#98=CIRCLE('',#833,0.0005);
#99=CIRCLE('',#835,0.0005);
#100=CIRCLE('',#837,0.0005);
#101=CIRCLE('',#839,0.0005);
#102=CIRCLE('',#841,0.0005);
#103=CYLINDRICAL_SURFACE('',#727,0.0156);
#104=CYLINDRICAL_SURFACE('',#731,0.005);
#105=CYLINDRICAL_SURFACE('',#735,0.0156);
#106=CYLINDRICAL_SURFACE('',#739,0.001625);
#107=CYLINDRICAL_SURFACE('',#742,0.001625);
#108=CYLINDRICAL_SURFACE('',#745,0.005);
#109=CYLINDRICAL_SURFACE('',#772,0.003075);
#110=CYLINDRICAL_SURFACE('',#777,0.002);
#111=CYLINDRICAL_SURFACE('',#780,0.002);
#112=CYLINDRICAL_SURFACE('',#783,0.002);
#113=CYLINDRICAL_SURFACE('',#786,0.002);
#114=CYLINDRICAL_SURFACE('',#793,0.0005);
#115=CYLINDRICAL_SURFACE('',#800,0.0005);
#116=CYLINDRICAL_SURFACE('',#810,0.0005);
#117=CYLINDRICAL_SURFACE('',#816,0.0005);
#118=CYLINDRICAL_SURFACE('',#819,0.0005);
#119=CYLINDRICAL_SURFACE('',#826,0.0005);
#120=CYLINDRICAL_SURFACE('',#836,0.0005);
#121=CYLINDRICAL_SURFACE('',#842,0.0005);
#122=ORIENTED_EDGE('',*,*,#316,.T.);
#123=ORIENTED_EDGE('',*,*,#317,.T.);
#124=ORIENTED_EDGE('',*,*,#318,.T.);
#125=ORIENTED_EDGE('',*,*,#319,.T.);
#126=ORIENTED_EDGE('',*,*,#320,.T.);
#127=ORIENTED_EDGE('',*,*,#321,.T.);
#128=ORIENTED_EDGE('',*,*,#322,.T.);
#129=ORIENTED_EDGE('',*,*,#323,.T.);
#130=ORIENTED_EDGE('',*,*,#324,.F.);
#131=ORIENTED_EDGE('',*,*,#325,.T.);
#132=ORIENTED_EDGE('',*,*,#326,.T.);
#133=ORIENTED_EDGE('',*,*,#327,.T.);
#134=ORIENTED_EDGE('',*,*,#328,.F.);
#135=ORIENTED_EDGE('',*,*,#329,.T.);
#136=ORIENTED_EDGE('',*,*,#324,.T.);
#137=ORIENTED_EDGE('',*,*,#330,.T.);
#138=ORIENTED_EDGE('',*,*,#331,.T.);
#139=ORIENTED_EDGE('',*,*,#332,.T.);
#140=ORIENTED_EDGE('',*,*,#328,.T.);
#141=ORIENTED_EDGE('',*,*,#333,.T.);
#142=ORIENTED_EDGE('',*,*,#334,.T.);
#143=ORIENTED_EDGE('',*,*,#335,.T.);
#144=ORIENTED_EDGE('',*,*,#336,.T.);
#145=ORIENTED_EDGE('',*,*,#337,.T.);
#146=ORIENTED_EDGE('',*,*,#338,.F.);
#147=ORIENTED_EDGE('',*,*,#339,.T.);
#148=ORIENTED_EDGE('',*,*,#340,.T.);
#149=ORIENTED_EDGE('',*,*,#341,.T.);
#150=ORIENTED_EDGE('',*,*,#342,.T.);
#151=ORIENTED_EDGE('',*,*,#343,.T.);
#152=ORIENTED_EDGE('',*,*,#344,.T.);
#153=ORIENTED_EDGE('',*,*,#345,.T.);
#154=ORIENTED_EDGE('',*,*,#318,.F.);
#155=ORIENTED_EDGE('',*,*,#346,.T.);
#156=ORIENTED_EDGE('',*,*,#338,.T.);
#157=ORIENTED_EDGE('',*,*,#347,.T.);
#158=ORIENTED_EDGE('',*,*,#348,.T.);
#159=ORIENTED_EDGE('',*,*,#349,.T.);
#160=ORIENTED_EDGE('',*,*,#350,.T.);
#161=ORIENTED_EDGE('',*,*,#351,.T.);
#162=ORIENTED_EDGE('',*,*,#352,.T.);
#163=ORIENTED_EDGE('',*,*,#353,.T.);
#164=ORIENTED_EDGE('',*,*,#354,.T.);
#165=ORIENTED_EDGE('',*,*,#355,.T.);
#166=ORIENTED_EDGE('',*,*,#356,.T.);
#167=ORIENTED_EDGE('',*,*,#357,.T.);
#168=ORIENTED_EDGE('',*,*,#358,.T.);
#169=ORIENTED_EDGE('',*,*,#359,.T.);
#170=ORIENTED_EDGE('',*,*,#360,.T.);
#171=ORIENTED_EDGE('',*,*,#361,.T.);
#172=ORIENTED_EDGE('',*,*,#362,.T.);
#173=ORIENTED_EDGE('',*,*,#363,.T.);
#174=ORIENTED_EDGE('',*,*,#364,.T.);
#175=ORIENTED_EDGE('',*,*,#365,.T.);
#176=ORIENTED_EDGE('',*,*,#366,.T.);
#177=ORIENTED_EDGE('',*,*,#367,.T.);
#178=ORIENTED_EDGE('',*,*,#368,.T.);
#179=ORIENTED_EDGE('',*,*,#369,.T.);
#180=ORIENTED_EDGE('',*,*,#370,.T.);
#181=ORIENTED_EDGE('',*,*,#371,.T.);
#182=ORIENTED_EDGE('',*,*,#372,.T.);
#183=ORIENTED_EDGE('',*,*,#373,.T.);
#184=ORIENTED_EDGE('',*,*,#374,.T.);
#185=ORIENTED_EDGE('',*,*,#375,.T.);
#186=ORIENTED_EDGE('',*,*,#376,.T.);
#187=ORIENTED_EDGE('',*,*,#377,.T.);
#188=ORIENTED_EDGE('',*,*,#378,.T.);
#189=ORIENTED_EDGE('',*,*,#379,.F.);
#190=ORIENTED_EDGE('',*,*,#380,.T.);
#191=ORIENTED_EDGE('',*,*,#379,.T.);
#192=ORIENTED_EDGE('',*,*,#326,.F.);
#193=ORIENTED_EDGE('',*,*,#381,.T.);
#194=ORIENTED_EDGE('',*,*,#320,.F.);
#195=ORIENTED_EDGE('',*,*,#382,.T.);
#196=ORIENTED_EDGE('',*,*,#336,.F.);
#197=ORIENTED_EDGE('',*,*,#383,.T.);
#198=ORIENTED_EDGE('',*,*,#331,.F.);
#199=ORIENTED_EDGE('',*,*,#384,.T.);
#200=ORIENTED_EDGE('',*,*,#322,.F.);
#201=ORIENTED_EDGE('',*,*,#385,.T.);
#202=ORIENTED_EDGE('',*,*,#316,.F.);
#203=ORIENTED_EDGE('',*,*,#386,.T.);
#204=ORIENTED_EDGE('',*,*,#340,.F.);
#205=ORIENTED_EDGE('',*,*,#387,.T.);
#206=ORIENTED_EDGE('',*,*,#334,.F.);
#207=ORIENTED_EDGE('',*,*,#388,.T.);
#208=ORIENTED_EDGE('',*,*,#363,.F.);
#209=ORIENTED_EDGE('',*,*,#380,.F.);
#210=ORIENTED_EDGE('',*,*,#348,.F.);
#211=ORIENTED_EDGE('',*,*,#378,.F.);
#212=ORIENTED_EDGE('',*,*,#349,.F.);
#213=ORIENTED_EDGE('',*,*,#344,.F.);
#214=ORIENTED_EDGE('',*,*,#350,.F.);
#215=ORIENTED_EDGE('',*,*,#342,.F.);
#216=ORIENTED_EDGE('',*,*,#389,.F.);
#217=ORIENTED_EDGE('',*,*,#358,.F.);
#218=ORIENTED_EDGE('',*,*,#390,.F.);
#219=ORIENTED_EDGE('',*,*,#317,.F.);
#220=ORIENTED_EDGE('',*,*,#390,.T.);
#221=ORIENTED_EDGE('',*,*,#357,.F.);
#222=ORIENTED_EDGE('',*,*,#391,.F.);
#223=ORIENTED_EDGE('',*,*,#346,.F.);
#224=ORIENTED_EDGE('',*,*,#389,.T.);
#225=ORIENTED_EDGE('',*,*,#385,.F.);
#226=ORIENTED_EDGE('',*,*,#392,.F.);
#227=ORIENTED_EDGE('',*,*,#359,.F.);
#228=ORIENTED_EDGE('',*,*,#391,.T.);
#229=ORIENTED_EDGE('',*,*,#356,.F.);
#230=ORIENTED_EDGE('',*,*,#393,.F.);
#231=ORIENTED_EDGE('',*,*,#339,.F.);
#232=ORIENTED_EDGE('',*,*,#392,.T.);
#233=ORIENTED_EDGE('',*,*,#321,.F.);
#234=ORIENTED_EDGE('',*,*,#394,.F.);
#235=ORIENTED_EDGE('',*,*,#360,.F.);
#236=ORIENTED_EDGE('',*,*,#393,.T.);
#237=ORIENTED_EDGE('',*,*,#355,.F.);
#238=ORIENTED_EDGE('',*,*,#395,.F.);
#239=ORIENTED_EDGE('',*,*,#387,.F.);
#240=ORIENTED_EDGE('',*,*,#394,.T.);
#241=ORIENTED_EDGE('',*,*,#381,.F.);
#242=ORIENTED_EDGE('',*,*,#396,.F.);
#243=ORIENTED_EDGE('',*,*,#361,.F.);
#244=ORIENTED_EDGE('',*,*,#395,.T.);
#245=ORIENTED_EDGE('',*,*,#354,.F.);
#246=ORIENTED_EDGE('',*,*,#397,.F.);
#247=ORIENTED_EDGE('',*,*,#335,.F.);
#248=ORIENTED_EDGE('',*,*,#396,.T.);
#249=ORIENTED_EDGE('',*,*,#325,.F.);
#250=ORIENTED_EDGE('',*,*,#398,.F.);
#251=ORIENTED_EDGE('',*,*,#362,.F.);
#252=ORIENTED_EDGE('',*,*,#397,.T.);
#253=ORIENTED_EDGE('',*,*,#353,.F.);
#254=ORIENTED_EDGE('',*,*,#399,.F.);
#255=ORIENTED_EDGE('',*,*,#383,.F.);
#256=ORIENTED_EDGE('',*,*,#398,.T.);
#257=ORIENTED_EDGE('',*,*,#329,.F.);
#258=ORIENTED_EDGE('',*,*,#400,.F.);
#259=ORIENTED_EDGE('',*,*,#351,.F.);
#260=ORIENTED_EDGE('',*,*,#399,.T.);
#261=ORIENTED_EDGE('',*,*,#352,.F.);
#262=ORIENTED_EDGE('',*,*,#400,.T.);
#263=ORIENTED_EDGE('',*,*,#332,.F.);
#264=ORIENTED_EDGE('',*,*,#345,.F.);
#265=ORIENTED_EDGE('',*,*,#364,.F.);
#266=ORIENTED_EDGE('',*,*,#343,.F.);
#267=ORIENTED_EDGE('',*,*,#365,.F.);
#268=ORIENTED_EDGE('',*,*,#401,.F.);
#269=ORIENTED_EDGE('',*,*,#319,.F.);
#270=ORIENTED_EDGE('',*,*,#402,.F.);
#271=ORIENTED_EDGE('',*,*,#373,.F.);
#272=ORIENTED_EDGE('',*,*,#402,.T.);
#273=ORIENTED_EDGE('',*,*,#347,.F.);
#274=ORIENTED_EDGE('',*,*,#403,.F.);
#275=ORIENTED_EDGE('',*,*,#374,.F.);
#276=ORIENTED_EDGE('',*,*,#401,.T.);
#277=ORIENTED_EDGE('',*,*,#372,.F.);
#278=ORIENTED_EDGE('',*,*,#404,.F.);
#279=ORIENTED_EDGE('',*,*,#386,.F.);
#280=ORIENTED_EDGE('',*,*,#403,.T.);
#281=ORIENTED_EDGE('',*,*,#341,.F.);
#282=ORIENTED_EDGE('',*,*,#405,.F.);
#283=ORIENTED_EDGE('',*,*,#375,.F.);
#284=ORIENTED_EDGE('',*,*,#404,.T.);
#285=ORIENTED_EDGE('',*,*,#371,.F.);
#286=ORIENTED_EDGE('',*,*,#406,.F.);
#287=ORIENTED_EDGE('',*,*,#323,.F.);
#288=ORIENTED_EDGE('',*,*,#405,.T.);
#289=ORIENTED_EDGE('',*,*,#388,.F.);
#290=ORIENTED_EDGE('',*,*,#407,.F.);
#291=ORIENTED_EDGE('',*,*,#376,.F.);
#292=ORIENTED_EDGE('',*,*,#406,.T.);
#293=ORIENTED_EDGE('',*,*,#370,.F.);
#294=ORIENTED_EDGE('',*,*,#408,.F.);
#295=ORIENTED_EDGE('',*,*,#382,.F.);
#296=ORIENTED_EDGE('',*,*,#407,.T.);
#297=ORIENTED_EDGE('',*,*,#337,.F.);
#298=ORIENTED_EDGE('',*,*,#409,.F.);
#299=ORIENTED_EDGE('',*,*,#377,.F.);
#300=ORIENTED_EDGE('',*,*,#408,.T.);
#301=ORIENTED_EDGE('',*,*,#369,.F.);
#302=ORIENTED_EDGE('',*,*,#410,.F.);
#303=ORIENTED_EDGE('',*,*,#327,.F.);
#304=ORIENTED_EDGE('',*,*,#409,.T.);
#305=ORIENTED_EDGE('',*,*,#384,.F.);
#306=ORIENTED_EDGE('',*,*,#411,.F.);
#307=ORIENTED_EDGE('',*,*,#366,.F.);
#308=ORIENTED_EDGE('',*,*,#410,.T.);
#309=ORIENTED_EDGE('',*,*,#368,.F.);
#310=ORIENTED_EDGE('',*,*,#412,.F.);
#311=ORIENTED_EDGE('',*,*,#330,.F.);
#312=ORIENTED_EDGE('',*,*,#411,.T.);
#313=ORIENTED_EDGE('',*,*,#333,.F.);
#314=ORIENTED_EDGE('',*,*,#412,.T.);
#315=ORIENTED_EDGE('',*,*,#367,.F.);
#316=EDGE_CURVE('',#413,#414,#474,.F.);
#317=EDGE_CURVE('',#414,#415,#475,.T.);
#318=EDGE_CURVE('',#415,#416,#476,.T.);
#319=EDGE_CURVE('',#416,#413,#477,.F.);
#320=EDGE_CURVE('',#417,#418,#478,.F.);
#321=EDGE_CURVE('',#418,#419,#34,.F.);
#322=EDGE_CURVE('',#419,#420,#479,.T.);
#323=EDGE_CURVE('',#420,#417,#35,.T.);
#324=EDGE_CURVE('',#421,#422,#480,.T.);
#325=EDGE_CURVE('',#421,#423,#481,.F.);
#326=EDGE_CURVE('',#423,#424,#482,.F.);
#327=EDGE_CURVE('',#424,#422,#483,.T.);
#328=EDGE_CURVE('',#425,#426,#484,.T.);
#329=EDGE_CURVE('',#425,#421,#36,.F.);
#330=EDGE_CURVE('',#422,#426,#37,.T.);
#331=EDGE_CURVE('',#427,#428,#485,.F.);
#332=EDGE_CURVE('',#428,#425,#486,.T.);
#333=EDGE_CURVE('',#426,#427,#487,.F.);
#334=EDGE_CURVE('',#429,#430,#488,.F.);
#335=EDGE_CURVE('',#430,#431,#38,.F.);
#336=EDGE_CURVE('',#431,#432,#489,.T.);
#337=EDGE_CURVE('',#432,#429,#39,.T.);
#338=EDGE_CURVE('',#433,#434,#490,.T.);
#339=EDGE_CURVE('',#433,#435,#491,.F.);
#340=EDGE_CURVE('',#435,#436,#492,.F.);
#341=EDGE_CURVE('',#436,#434,#493,.T.);
#342=EDGE_CURVE('',#437,#437,#40,.T.);
#343=EDGE_CURVE('',#438,#438,#41,.F.);
#344=EDGE_CURVE('',#439,#439,#42,.T.);
#345=EDGE_CURVE('',#440,#440,#43,.F.);
#346=EDGE_CURVE('',#415,#433,#44,.F.);
#347=EDGE_CURVE('',#434,#416,#45,.T.);
#348=EDGE_CURVE('',#441,#441,#46,.F.);
#349=EDGE_CURVE('',#442,#442,#47,.F.);
#350=EDGE_CURVE('',#443,#443,#48,.F.);
#351=EDGE_CURVE('',#444,#445,#49,.T.);
#352=EDGE_CURVE('',#445,#446,#494,.F.);
#353=EDGE_CURVE('',#446,#447,#50,.F.);
#354=EDGE_CURVE('',#447,#448,#51,.T.);
#355=EDGE_CURVE('',#448,#449,#52,.F.);
#356=EDGE_CURVE('',#449,#450,#495,.T.);
#357=EDGE_CURVE('',#450,#451,#53,.T.);
#358=EDGE_CURVE('',#451,#452,#496,.F.);
#359=EDGE_CURVE('',#452,#453,#54,.F.);
#360=EDGE_CURVE('',#453,#454,#55,.T.);
#361=EDGE_CURVE('',#454,#455,#56,.F.);
#362=EDGE_CURVE('',#455,#444,#497,.T.);
#363=EDGE_CURVE('',#456,#456,#57,.T.);
#364=EDGE_CURVE('',#457,#457,#58,.T.);
#365=EDGE_CURVE('',#458,#458,#59,.T.);
#366=EDGE_CURVE('',#459,#460,#60,.T.);
#367=EDGE_CURVE('',#460,#461,#498,.T.);
#368=EDGE_CURVE('',#461,#462,#61,.F.);
#369=EDGE_CURVE('',#462,#463,#499,.F.);
#370=EDGE_CURVE('',#463,#464,#62,.T.);
#371=EDGE_CURVE('',#464,#465,#63,.F.);
#372=EDGE_CURVE('',#465,#466,#64,.T.);
#373=EDGE_CURVE('',#466,#467,#500,.T.);
#374=EDGE_CURVE('',#467,#468,#65,.F.);
#375=EDGE_CURVE('',#468,#469,#501,.F.);
#376=EDGE_CURVE('',#469,#470,#66,.T.);
#377=EDGE_CURVE('',#470,#459,#67,.F.);
#378=EDGE_CURVE('',#471,#471,#68,.T.);
#379=EDGE_CURVE('',#472,#472,#69,.T.);
#380=EDGE_CURVE('',#473,#473,#70,.F.);
#381=EDGE_CURVE('',#423,#418,#71,.T.);
#382=EDGE_CURVE('',#417,#424,#72,.F.);
#383=EDGE_CURVE('',#431,#428,#73,.T.);
#384=EDGE_CURVE('',#427,#432,#74,.F.);
#385=EDGE_CURVE('',#419,#414,#75,.T.);
#386=EDGE_CURVE('',#413,#420,#76,.F.);
#387=EDGE_CURVE('',#435,#430,#77,.T.);
#388=EDGE_CURVE('',#429,#436,#78,.F.);
#389=EDGE_CURVE('',#452,#414,#79,.T.);
#390=EDGE_CURVE('',#415,#451,#80,.T.);
#391=EDGE_CURVE('',#433,#450,#81,.T.);
#392=EDGE_CURVE('',#453,#419,#82,.T.);
#393=EDGE_CURVE('',#435,#449,#83,.T.);
#394=EDGE_CURVE('',#454,#418,#84,.T.);
#395=EDGE_CURVE('',#430,#448,#85,.T.);
#396=EDGE_CURVE('',#455,#423,#86,.T.);
#397=EDGE_CURVE('',#431,#447,#87,.T.);
#398=EDGE_CURVE('',#444,#421,#88,.T.);
#399=EDGE_CURVE('',#428,#446,#89,.T.);
#400=EDGE_CURVE('',#445,#425,#90,.T.);
#401=EDGE_CURVE('',#413,#466,#91,.T.);
#402=EDGE_CURVE('',#467,#416,#92,.T.);
#403=EDGE_CURVE('',#468,#434,#93,.T.);
#404=EDGE_CURVE('',#420,#465,#94,.T.);
#405=EDGE_CURVE('',#469,#436,#95,.T.);
#406=EDGE_CURVE('',#417,#464,#96,.T.);
#407=EDGE_CURVE('',#470,#429,#97,.T.);
#408=EDGE_CURVE('',#424,#463,#98,.T.);
#409=EDGE_CURVE('',#459,#432,#99,.T.);
#410=EDGE_CURVE('',#422,#462,#100,.T.);
#411=EDGE_CURVE('',#460,#427,#101,.T.);
#412=EDGE_CURVE('',#426,#461,#102,.T.);
#413=VERTEX_POINT('',#1110);
#414=VERTEX_POINT('',#1111);
#415=VERTEX_POINT('',#1113);
#416=VERTEX_POINT('',#1115);
#417=VERTEX_POINT('',#1119);
#418=VERTEX_POINT('',#1120);
#419=VERTEX_POINT('',#1122);
#420=VERTEX_POINT('',#1124);
#421=VERTEX_POINT('',#1128);
#422=VERTEX_POINT('',#1129);
#423=VERTEX_POINT('',#1131);
#424=VERTEX_POINT('',#1133);
#425=VERTEX_POINT('',#1137);
#426=VERTEX_POINT('',#1138);
#427=VERTEX_POINT('',#1143);
#428=VERTEX_POINT('',#1144);
#429=VERTEX_POINT('',#1149);
#430=VERTEX_POINT('',#1150);
#431=VERTEX_POINT('',#1152);
#432=VERTEX_POINT('',#1154);
#433=VERTEX_POINT('',#1158);
#434=VERTEX_POINT('',#1159);
#435=VERTEX_POINT('',#1161);
#436=VERTEX_POINT('',#1163);
#437=VERTEX_POINT('',#1167);
#438=VERTEX_POINT('',#1169);
#439=VERTEX_POINT('',#1172);
#440=VERTEX_POINT('',#1174);
#441=VERTEX_POINT('',#1180);
#442=VERTEX_POINT('',#1182);
#443=VERTEX_POINT('',#1184);
#444=VERTEX_POINT('',#1186);
#445=VERTEX_POINT('',#1187);
#446=VERTEX_POINT('',#1189);
#447=VERTEX_POINT('',#1191);
#448=VERTEX_POINT('',#1193);
#449=VERTEX_POINT('',#1195);
#450=VERTEX_POINT('',#1197);
#451=VERTEX_POINT('',#1199);
#452=VERTEX_POINT('',#1201);
#453=VERTEX_POINT('',#1203);
#454=VERTEX_POINT('',#1205);
#455=VERTEX_POINT('',#1207);
#456=VERTEX_POINT('',#1211);
#457=VERTEX_POINT('',#1213);
#458=VERTEX_POINT('',#1215);
#459=VERTEX_POINT('',#1217);
#460=VERTEX_POINT('',#1218);
#461=VERTEX_POINT('',#1220);
#462=VERTEX_POINT('',#1222);
#463=VERTEX_POINT('',#1224);
#464=VERTEX_POINT('',#1226);
#465=VERTEX_POINT('',#1228);
#466=VERTEX_POINT('',#1230);
#467=VERTEX_POINT('',#1232);
#468=VERTEX_POINT('',#1234);
#469=VERTEX_POINT('',#1236);
#470=VERTEX_POINT('',#1238);
#471=VERTEX_POINT('',#1242);
#472=VERTEX_POINT('',#1244);
#473=VERTEX_POINT('',#1247);
#474=LINE('',#1109,#502);
#475=LINE('',#1112,#503);
#476=LINE('',#1114,#504);
#477=LINE('',#1116,#505);
#478=LINE('',#1118,#506);
#479=LINE('',#1123,#507);
#480=LINE('',#1127,#508);
#481=LINE('',#1130,#509);
#482=LINE('',#1132,#510);
#483=LINE('',#1134,#511);
#484=LINE('',#1136,#512);
#485=LINE('',#1142,#513);
#486=LINE('',#1145,#514);
#487=LINE('',#1146,#515);
#488=LINE('',#1148,#516);
#489=LINE('',#1153,#517);
#490=LINE('',#1157,#518);
#491=LINE('',#1160,#519);
#492=LINE('',#1162,#520);
#493=LINE('',#1164,#521);
#494=LINE('',#1188,#522);
#495=LINE('',#1196,#523);
#496=LINE('',#1200,#524);
#497=LINE('',#1208,#525);
#498=LINE('',#1219,#526);
#499=LINE('',#1223,#527);
#500=LINE('',#1231,#528);
#501=LINE('',#1235,#529);
#502=VECTOR('',#847,1.);
#503=VECTOR('',#848,1.);
#504=VECTOR('',#849,1.);
#505=VECTOR('',#850,1.);
#506=VECTOR('',#853,1.);
#507=VECTOR('',#856,1.);
#508=VECTOR('',#861,1.);
#509=VECTOR('',#862,1.);
#510=VECTOR('',#863,1.);
#511=VECTOR('',#864,1.);
#512=VECTOR('',#867,1.);
#513=VECTOR('',#874,1.);
#514=VECTOR('',#875,1.);
#515=VECTOR('',#876,1.);
#516=VECTOR('',#879,1.);
#517=VECTOR('',#882,1.);
#518=VECTOR('',#887,1.);
#519=VECTOR('',#888,1.);
#520=VECTOR('',#889,1.);
#521=VECTOR('',#890,1.);
#522=VECTOR('',#919,1.);
#523=VECTOR('',#926,1.);
#524=VECTOR('',#929,1.);
#525=VECTOR('',#936,1.);
#526=VECTOR('',#947,1.);
#527=VECTOR('',#950,1.);
#528=VECTOR('',#957,1.);
#529=VECTOR('',#960,1.);
#530=EDGE_LOOP('',(#122,#123,#124,#125));
#531=EDGE_LOOP('',(#126,#127,#128,#129));
#532=EDGE_LOOP('',(#130,#131,#132,#133));
#533=EDGE_LOOP('',(#134,#135,#136,#137));
#534=EDGE_LOOP('',(#138,#139,#140,#141));
#535=EDGE_LOOP('',(#142,#143,#144,#145));
#536=EDGE_LOOP('',(#146,#147,#148,#149));
#537=EDGE_LOOP('',(#150));
#538=EDGE_LOOP('',(#151));
#539=EDGE_LOOP('',(#152));
#540=EDGE_LOOP('',(#153));
#541=EDGE_LOOP('',(#154,#155,#156,#157));
#542=EDGE_LOOP('',(#158));
#543=EDGE_LOOP('',(#159));
#544=EDGE_LOOP('',(#160));
#545=EDGE_LOOP('',(#161,#162,#163,#164,#165,#166,#167,#168,#169,#170,#171,
#172));
#546=EDGE_LOOP('',(#173));
#547=EDGE_LOOP('',(#174));
#548=EDGE_LOOP('',(#175));
#549=EDGE_LOOP('',(#176,#177,#178,#179,#180,#181,#182,#183,#184,#185,#186,
#187));
#550=EDGE_LOOP('',(#188));
#551=EDGE_LOOP('',(#189));
#552=EDGE_LOOP('',(#190));
#553=EDGE_LOOP('',(#191));
#554=EDGE_LOOP('',(#192,#193,#194,#195));
#555=EDGE_LOOP('',(#196,#197,#198,#199));
#556=EDGE_LOOP('',(#200,#201,#202,#203));
#557=EDGE_LOOP('',(#204,#205,#206,#207));
#558=EDGE_LOOP('',(#208));
#559=EDGE_LOOP('',(#209));
#560=EDGE_LOOP('',(#210));
#561=EDGE_LOOP('',(#211));
#562=EDGE_LOOP('',(#212));
#563=EDGE_LOOP('',(#213));
#564=EDGE_LOOP('',(#214));
#565=EDGE_LOOP('',(#215));
#566=EDGE_LOOP('',(#216,#217,#218,#219));
#567=EDGE_LOOP('',(#220,#221,#222,#223));
#568=EDGE_LOOP('',(#224,#225,#226,#227));
#569=EDGE_LOOP('',(#228,#229,#230,#231));
#570=EDGE_LOOP('',(#232,#233,#234,#235));
#571=EDGE_LOOP('',(#236,#237,#238,#239));
#572=EDGE_LOOP('',(#240,#241,#242,#243));
#573=EDGE_LOOP('',(#244,#245,#246,#247));
#574=EDGE_LOOP('',(#248,#249,#250,#251));
#575=EDGE_LOOP('',(#252,#253,#254,#255));
#576=EDGE_LOOP('',(#256,#257,#258,#259));
#577=EDGE_LOOP('',(#260,#261,#262,#263));
#578=EDGE_LOOP('',(#264));
#579=EDGE_LOOP('',(#265));
#580=EDGE_LOOP('',(#266));
#581=EDGE_LOOP('',(#267));
#582=EDGE_LOOP('',(#268,#269,#270,#271));
#583=EDGE_LOOP('',(#272,#273,#274,#275));
#584=EDGE_LOOP('',(#276,#277,#278,#279));
#585=EDGE_LOOP('',(#280,#281,#282,#283));
#586=EDGE_LOOP('',(#284,#285,#286,#287));
#587=EDGE_LOOP('',(#288,#289,#290,#291));
#588=EDGE_LOOP('',(#292,#293,#294,#295));
#589=EDGE_LOOP('',(#296,#297,#298,#299));
#590=EDGE_LOOP('',(#300,#301,#302,#303));
#591=EDGE_LOOP('',(#304,#305,#306,#307));
#592=EDGE_LOOP('',(#308,#309,#310,#311));
#593=EDGE_LOOP('',(#312,#313,#314,#315));
#594=FACE_BOUND('',#530,.T.);
#595=FACE_BOUND('',#531,.T.);
#596=FACE_BOUND('',#532,.T.);
#597=FACE_BOUND('',#533,.T.);
#598=FACE_BOUND('',#534,.T.);
#599=FACE_BOUND('',#535,.T.);
#600=FACE_BOUND('',#536,.T.);
#601=FACE_BOUND('',#537,.T.);
#602=FACE_BOUND('',#538,.T.);
#603=FACE_BOUND('',#539,.T.);
#604=FACE_BOUND('',#540,.T.);
#605=FACE_BOUND('',#541,.T.);
#606=FACE_BOUND('',#542,.T.);
#607=FACE_BOUND('',#543,.T.);
#608=FACE_BOUND('',#544,.T.);
#609=FACE_BOUND('',#545,.T.);
#610=FACE_BOUND('',#546,.T.);
#611=FACE_BOUND('',#547,.T.);
#612=FACE_BOUND('',#548,.T.);
#613=FACE_BOUND('',#549,.T.);
#614=FACE_BOUND('',#550,.T.);
#615=FACE_BOUND('',#551,.T.);
#616=FACE_BOUND('',#552,.T.);
#617=FACE_BOUND('',#553,.T.);
#618=FACE_BOUND('',#554,.T.);
#619=FACE_BOUND('',#555,.T.);
#620=FACE_BOUND('',#556,.T.);
#621=FACE_BOUND('',#557,.T.);
#622=FACE_BOUND('',#558,.T.);
#623=FACE_BOUND('',#559,.T.);
#624=FACE_BOUND('',#560,.T.);
#625=FACE_BOUND('',#561,.T.);
#626=FACE_BOUND('',#562,.T.);
#627=FACE_BOUND('',#563,.T.);
#628=FACE_BOUND('',#564,.T.);
#629=FACE_BOUND('',#565,.T.);
#630=FACE_BOUND('',#566,.T.);
#631=FACE_BOUND('',#567,.T.);
#632=FACE_BOUND('',#568,.T.);
#633=FACE_BOUND('',#569,.T.);
#634=FACE_BOUND('',#570,.T.);
#635=FACE_BOUND('',#571,.T.);
#636=FACE_BOUND('',#572,.T.);
#637=FACE_BOUND('',#573,.T.);
#638=FACE_BOUND('',#574,.T.);
#639=FACE_BOUND('',#575,.T.);
#640=FACE_BOUND('',#576,.T.);
#641=FACE_BOUND('',#577,.T.);
#642=FACE_BOUND('',#578,.T.);
#643=FACE_BOUND('',#579,.T.);
#644=FACE_BOUND('',#580,.T.);
#645=FACE_BOUND('',#581,.T.);
#646=FACE_BOUND('',#582,.T.);
#647=FACE_BOUND('',#583,.T.);
#648=FACE_BOUND('',#584,.T.);
#649=FACE_BOUND('',#585,.T.);
#650=FACE_BOUND('',#586,.T.);
#651=FACE_BOUND('',#587,.T.);
#652=FACE_BOUND('',#588,.T.);
#653=FACE_BOUND('',#589,.T.);
#654=FACE_BOUND('',#590,.T.);
#655=FACE_BOUND('',#591,.T.);
#656=FACE_BOUND('',#592,.T.);
#657=FACE_BOUND('',#593,.T.);
#658=PLANE('',#726);
#659=PLANE('',#730);
#660=PLANE('',#734);
#661=PLANE('',#738);
#662=PLANE('',#748);
#663=PLANE('',#760);
#664=PLANE('',#775);
#665=ADVANCED_FACE('',(#594),#658,.T.);
#666=ADVANCED_FACE('',(#595),#103,.T.);
#667=ADVANCED_FACE('',(#596),#659,.F.);
#668=ADVANCED_FACE('',(#597),#104,.T.);
#669=ADVANCED_FACE('',(#598),#660,.T.);
#670=ADVANCED_FACE('',(#599),#105,.T.);
#671=ADVANCED_FACE('',(#600),#661,.F.);
#672=ADVANCED_FACE('',(#601,#602),#106,.F.);
#673=ADVANCED_FACE('',(#603,#604),#107,.F.);
#674=ADVANCED_FACE('',(#605),#108,.T.);
#675=ADVANCED_FACE('',(#606,#607,#608,#609),#662,.T.);
#676=ADVANCED_FACE('',(#610,#611,#612,#613),#663,.F.);
#677=ADVANCED_FACE('',(#614,#615),#109,.F.);
#678=ADVANCED_FACE('',(#616,#617),#664,.T.);
#679=ADVANCED_FACE('',(#618),#110,.F.);
#680=ADVANCED_FACE('',(#619),#111,.F.);
#681=ADVANCED_FACE('',(#620),#112,.F.);
#682=ADVANCED_FACE('',(#621),#113,.F.);
#683=ADVANCED_FACE('',(#622,#623),#12,.T.);
#684=ADVANCED_FACE('',(#624,#625),#13,.T.);
#685=ADVANCED_FACE('',(#626,#627),#14,.T.);
#686=ADVANCED_FACE('',(#628,#629),#15,.T.);
#687=ADVANCED_FACE('',(#630),#114,.T.);
#688=ADVANCED_FACE('',(#631),#16,.T.);
#689=ADVANCED_FACE('',(#632),#17,.T.);
#690=ADVANCED_FACE('',(#633),#115,.T.);
#691=ADVANCED_FACE('',(#634),#18,.T.);
#692=ADVANCED_FACE('',(#635),#19,.T.);
#693=ADVANCED_FACE('',(#636),#20,.T.);
#694=ADVANCED_FACE('',(#637),#21,.T.);
#695=ADVANCED_FACE('',(#638),#116,.T.);
#696=ADVANCED_FACE('',(#639),#22,.T.);
#697=ADVANCED_FACE('',(#640),#23,.T.);
#698=ADVANCED_FACE('',(#641),#117,.T.);
#699=ADVANCED_FACE('',(#642,#643),#24,.T.);
#700=ADVANCED_FACE('',(#644,#645),#25,.T.);
#701=ADVANCED_FACE('',(#646),#118,.T.);
#702=ADVANCED_FACE('',(#647),#26,.T.);
#703=ADVANCED_FACE('',(#648),#27,.T.);
#704=ADVANCED_FACE('',(#649),#119,.T.);
#705=ADVANCED_FACE('',(#650),#28,.T.);
#706=ADVANCED_FACE('',(#651),#29,.T.);
#707=ADVANCED_FACE('',(#652),#30,.T.);
#708=ADVANCED_FACE('',(#653),#31,.T.);
#709=ADVANCED_FACE('',(#654),#120,.T.);
#710=ADVANCED_FACE('',(#655),#32,.T.);
#711=ADVANCED_FACE('',(#656),#33,.T.);
#712=ADVANCED_FACE('',(#657),#121,.T.);
#713=CLOSED_SHELL('',(#665,#666,#667,#668,#669,#670,#671,#672,#673,#674,
#675,#676,#677,#678,#679,#680,#681,#682,#683,#684,#685,#686,#687,#688,#689,
#690,#691,#692,#693,#694,#695,#696,#697,#698,#699,#700,#701,#702,#703,#704,
#705,#706,#707,#708,#709,#710,#711,#712));
#714=STYLED_ITEM('',(#715),#722);
#715=PRESENTATION_STYLE_ASSIGNMENT((#716));
#716=SURFACE_STYLE_USAGE(.BOTH.,#717);
#717=SURFACE_SIDE_STYLE('',(#718));
#718=SURFACE_STYLE_FILL_AREA(#719);
#719=FILL_AREA_STYLE('',(#720));
#720=FILL_AREA_STYLE_COLOUR('',#721);
#721=COLOUR_RGB('',0.615686274509804,0.811764705882353,0.929411764705882);
#722=MANIFOLD_SOLID_BREP('BLOCKS_laser_cap',#713);
#723=SHAPE_DEFINITION_REPRESENTATION(#1320,#724);
#724=SHAPE_REPRESENTATION('BLOCKS_laser_cap',(#725),#1315);
#725=AXIS2_PLACEMENT_3D('',#1107,#843,#844);
#726=AXIS2_PLACEMENT_3D('',#1108,#845,#846);
#727=AXIS2_PLACEMENT_3D('',#1117,#851,#852);
#728=AXIS2_PLACEMENT_3D('',#1121,#854,#855);
#729=AXIS2_PLACEMENT_3D('',#1125,#857,#858);
#730=AXIS2_PLACEMENT_3D('',#1126,#859,#860);
#731=AXIS2_PLACEMENT_3D('',#1135,#865,#866);
#732=AXIS2_PLACEMENT_3D('',#1139,#868,#869);
#733=AXIS2_PLACEMENT_3D('',#1140,#870,#871);
#734=AXIS2_PLACEMENT_3D('',#1141,#872,#873);
#735=AXIS2_PLACEMENT_3D('',#1147,#877,#878);
#736=AXIS2_PLACEMENT_3D('',#1151,#880,#881);
#737=AXIS2_PLACEMENT_3D('',#1155,#883,#884);
#738=AXIS2_PLACEMENT_3D('',#1156,#885,#886);
#739=AXIS2_PLACEMENT_3D('',#1165,#891,#892);
#740=AXIS2_PLACEMENT_3D('',#1166,#893,#894);
#741=AXIS2_PLACEMENT_3D('',#1168,#895,#896);
#742=AXIS2_PLACEMENT_3D('',#1170,#897,#898);
#743=AXIS2_PLACEMENT_3D('',#1171,#899,#900);
#744=AXIS2_PLACEMENT_3D('',#1173,#901,#902);
#745=AXIS2_PLACEMENT_3D('',#1175,#903,#904);
#746=AXIS2_PLACEMENT_3D('',#1176,#905,#906);
#747=AXIS2_PLACEMENT_3D('',#1177,#907,#908);
#748=AXIS2_PLACEMENT_3D('',#1178,#909,#910);
#749=AXIS2_PLACEMENT_3D('',#1179,#911,#912);
#750=AXIS2_PLACEMENT_3D('',#1181,#913,#914);
#751=AXIS2_PLACEMENT_3D('',#1183,#915,#916);
#752=AXIS2_PLACEMENT_3D('',#1185,#917,#918);
#753=AXIS2_PLACEMENT_3D('',#1190,#920,#921);
#754=AXIS2_PLACEMENT_3D('',#1192,#922,#923);
#755=AXIS2_PLACEMENT_3D('',#1194,#924,#925);
#756=AXIS2_PLACEMENT_3D('',#1198,#927,#928);
#757=AXIS2_PLACEMENT_3D('',#1202,#930,#931);
#758=AXIS2_PLACEMENT_3D('',#1204,#932,#933);
#759=AXIS2_PLACEMENT_3D('',#1206,#934,#935);
#760=AXIS2_PLACEMENT_3D('',#1209,#937,#938);
#761=AXIS2_PLACEMENT_3D('',#1210,#939,#940);
#762=AXIS2_PLACEMENT_3D('',#1212,#941,#942);
#763=AXIS2_PLACEMENT_3D('',#1214,#943,#944);
#764=AXIS2_PLACEMENT_3D('',#1216,#945,#946);
#765=AXIS2_PLACEMENT_3D('',#1221,#948,#949);
#766=AXIS2_PLACEMENT_3D('',#1225,#951,#952);
#767=AXIS2_PLACEMENT_3D('',#1227,#953,#954);
#768=AXIS2_PLACEMENT_3D('',#1229,#955,#956);
#769=AXIS2_PLACEMENT_3D('',#1233,#958,#959);
#770=AXIS2_PLACEMENT_3D('',#1237,#961,#962);
#771=AXIS2_PLACEMENT_3D('',#1239,#963,#964);
#772=AXIS2_PLACEMENT_3D('',#1240,#965,#966);
#773=AXIS2_PLACEMENT_3D('',#1241,#967,#968);
#774=AXIS2_PLACEMENT_3D('',#1243,#969,#970);
#775=AXIS2_PLACEMENT_3D('',#1245,#971,#972);
#776=AXIS2_PLACEMENT_3D('',#1246,#973,#974);
#777=AXIS2_PLACEMENT_3D('',#1248,#975,#976);
#778=AXIS2_PLACEMENT_3D('',#1249,#977,#978);
#779=AXIS2_PLACEMENT_3D('',#1250,#979,#980);
#780=AXIS2_PLACEMENT_3D('',#1251,#981,#982);
#781=AXIS2_PLACEMENT_3D('',#1252,#983,#984);
#782=AXIS2_PLACEMENT_3D('',#1253,#985,#986);
#783=AXIS2_PLACEMENT_3D('',#1254,#987,#988);
#784=AXIS2_PLACEMENT_3D('',#1255,#989,#990);
#785=AXIS2_PLACEMENT_3D('',#1256,#991,#992);
#786=AXIS2_PLACEMENT_3D('',#1257,#993,#994);
#787=AXIS2_PLACEMENT_3D('',#1258,#995,#996);
#788=AXIS2_PLACEMENT_3D('',#1259,#997,#998);
#789=AXIS2_PLACEMENT_3D('',#1260,#999,#1000);
#790=AXIS2_PLACEMENT_3D('',#1261,#1001,#1002);
#791=AXIS2_PLACEMENT_3D('',#1262,#1003,#1004);
#792=AXIS2_PLACEMENT_3D('',#1263,#1005,#1006);
#793=AXIS2_PLACEMENT_3D('',#1264,#1007,#1008);
#794=AXIS2_PLACEMENT_3D('',#1265,#1009,#1010);
#795=AXIS2_PLACEMENT_3D('',#1266,#1011,#1012);
#796=AXIS2_PLACEMENT_3D('',#1267,#1013,#1014);
#797=AXIS2_PLACEMENT_3D('',#1268,#1015,#1016);
#798=AXIS2_PLACEMENT_3D('',#1269,#1017,#1018);
#799=AXIS2_PLACEMENT_3D('',#1270,#1019,#1020);
#800=AXIS2_PLACEMENT_3D('',#1271,#1021,#1022);
#801=AXIS2_PLACEMENT_3D('',#1272,#1023,#1024);
#802=AXIS2_PLACEMENT_3D('',#1273,#1025,#1026);
#803=AXIS2_PLACEMENT_3D('',#1274,#1027,#1028);
#804=AXIS2_PLACEMENT_3D('',#1275,#1029,#1030);
#805=AXIS2_PLACEMENT_3D('',#1276,#1031,#1032);
#806=AXIS2_PLACEMENT_3D('',#1277,#1033,#1034);
#807=AXIS2_PLACEMENT_3D('',#1278,#1035,#1036);
#808=AXIS2_PLACEMENT_3D('',#1279,#1037,#1038);
#809=AXIS2_PLACEMENT_3D('',#1280,#1039,#1040);
#810=AXIS2_PLACEMENT_3D('',#1281,#1041,#1042);
#811=AXIS2_PLACEMENT_3D('',#1282,#1043,#1044);
#812=AXIS2_PLACEMENT_3D('',#1283,#1045,#1046);
#813=AXIS2_PLACEMENT_3D('',#1284,#1047,#1048);
#814=AXIS2_PLACEMENT_3D('',#1285,#1049,#1050);
#815=AXIS2_PLACEMENT_3D('',#1286,#1051,#1052);
#816=AXIS2_PLACEMENT_3D('',#1287,#1053,#1054);
#817=AXIS2_PLACEMENT_3D('',#1288,#1055,#1056);
#818=AXIS2_PLACEMENT_3D('',#1289,#1057,#1058);
#819=AXIS2_PLACEMENT_3D('',#1290,#1059,#1060);
#820=AXIS2_PLACEMENT_3D('',#1291,#1061,#1062);
#821=AXIS2_PLACEMENT_3D('',#1292,#1063,#1064);
#822=AXIS2_PLACEMENT_3D('',#1293,#1065,#1066);
#823=AXIS2_PLACEMENT_3D('',#1294,#1067,#1068);
#824=AXIS2_PLACEMENT_3D('',#1295,#1069,#1070);
#825=AXIS2_PLACEMENT_3D('',#1296,#1071,#1072);
#826=AXIS2_PLACEMENT_3D('',#1297,#1073,#1074);
#827=AXIS2_PLACEMENT_3D('',#1298,#1075,#1076);
#828=AXIS2_PLACEMENT_3D('',#1299,#1077,#1078);
#829=AXIS2_PLACEMENT_3D('',#1300,#1079,#1080);
#830=AXIS2_PLACEMENT_3D('',#1301,#1081,#1082);
#831=AXIS2_PLACEMENT_3D('',#1302,#1083,#1084);
#832=AXIS2_PLACEMENT_3D('',#1303,#1085,#1086);
#833=AXIS2_PLACEMENT_3D('',#1304,#1087,#1088);
#834=AXIS2_PLACEMENT_3D('',#1305,#1089,#1090);
#835=AXIS2_PLACEMENT_3D('',#1306,#1091,#1092);
#836=AXIS2_PLACEMENT_3D('',#1307,#1093,#1094);
#837=AXIS2_PLACEMENT_3D('',#1308,#1095,#1096);
#838=AXIS2_PLACEMENT_3D('',#1309,#1097,#1098);
#839=AXIS2_PLACEMENT_3D('',#1310,#1099,#1100);
#840=AXIS2_PLACEMENT_3D('',#1311,#1101,#1102);
#841=AXIS2_PLACEMENT_3D('',#1312,#1103,#1104);
#842=AXIS2_PLACEMENT_3D('',#1313,#1105,#1106);
#843=DIRECTION('',(0.,0.,1.));
#844=DIRECTION('',(1.,0.,0.));
#845=DIRECTION('',(1.7347234759768E-16,0.,-1.));
#846=DIRECTION('',(-1.,0.,-1.7347234759768E-16));
#847=DIRECTION('',(0.,1.,0.));
#848=DIRECTION('',(-1.,0.,-1.7347234759768E-16));
#849=DIRECTION('',(0.,1.,0.));
#850=DIRECTION('',(-1.,0.,-1.7347234759768E-16));
#851=DIRECTION('',(0.,1.,0.));
#852=DIRECTION('',(0.,0.,1.));
#853=DIRECTION('',(0.,1.,0.));
#854=DIRECTION('',(0.,-1.,0.));
#855=DIRECTION('',(0.,0.,-1.));
#856=DIRECTION('',(0.,1.,0.));
#857=DIRECTION('',(0.,-1.,0.));
#858=DIRECTION('',(0.,0.,-1.));
#859=DIRECTION('',(0.,0.,1.));
#860=DIRECTION('',(1.,0.,0.));
#861=DIRECTION('',(0.,1.,0.));
#862=DIRECTION('',(1.,0.,0.));
#863=DIRECTION('',(0.,-1.,0.));
#864=DIRECTION('',(1.,0.,0.));
#865=DIRECTION('',(0.,1.,0.));
#866=DIRECTION('',(0.,0.,1.));
#867=DIRECTION('',(0.,1.,0.));
#868=DIRECTION('',(0.,-1.,0.));
#869=DIRECTION('',(0.,0.,-1.));
#870=DIRECTION('',(0.,-1.,0.));
#871=DIRECTION('',(0.,0.,-1.));
#872=DIRECTION('',(0.,0.,1.));
#873=DIRECTION('',(1.,0.,0.));
#874=DIRECTION('',(0.,1.,0.));
#875=DIRECTION('',(1.,0.,0.));
#876=DIRECTION('',(1.,0.,0.));
#877=DIRECTION('',(0.,1.,0.));
#878=DIRECTION('',(0.,0.,1.));
#879=DIRECTION('',(0.,1.,0.));
#880=DIRECTION('',(0.,-1.,0.));
#881=DIRECTION('',(0.,0.,-1.));
#882=DIRECTION('',(0.,1.,0.));
#883=DIRECTION('',(0.,-1.,0.));
#884=DIRECTION('',(0.,0.,-1.));
#885=DIRECTION('',(-1.7347234759768E-16,0.,-1.));
#886=DIRECTION('',(-1.,0.,1.7347234759768E-16));
#887=DIRECTION('',(0.,1.,0.));
#888=DIRECTION('',(-1.,0.,1.7347234759768E-16));
#889=DIRECTION('',(0.,-1.,0.));
#890=DIRECTION('',(-1.,0.,1.7347234759768E-16));
#891=DIRECTION('',(0.,1.,0.));
#892=DIRECTION('',(0.,0.,1.));
#893=DIRECTION('',(0.,-1.,0.));
#894=DIRECTION('',(0.,0.,-1.));
#895=DIRECTION('',(0.,-1.,0.));
#896=DIRECTION('',(0.,0.,-1.));
#897=DIRECTION('',(0.,1.,0.));
#898=DIRECTION('',(0.,0.,1.));
#899=DIRECTION('',(0.,-1.,0.));
#900=DIRECTION('',(0.,0.,-1.));
#901=DIRECTION('',(0.,-1.,0.));
#902=DIRECTION('',(0.,0.,-1.));
#903=DIRECTION('',(0.,1.,0.));
#904=DIRECTION('',(0.,0.,1.));
#905=DIRECTION('',(0.,-1.,0.));
#906=DIRECTION('',(0.,0.,-1.));
#907=DIRECTION('',(0.,-1.,0.));
#908=DIRECTION('',(0.,0.,-1.));
#909=DIRECTION('',(0.,-1.,0.));
#910=DIRECTION('',(1.,0.,0.));
#911=DIRECTION('',(0.,-1.,0.));
#912=DIRECTION('',(0.,0.,-1.));
#913=DIRECTION('',(0.,-1.,0.));
#914=DIRECTION('',(0.,0.,-1.));
#915=DIRECTION('',(0.,-1.,0.));
#916=DIRECTION('',(0.,0.,-1.));
#917=DIRECTION('',(0.,-1.,0.));
#918=DIRECTION('',(0.,0.,-1.));
#919=DIRECTION('',(1.,0.,0.));
#920=DIRECTION('',(0.,-1.,0.));
#921=DIRECTION('',(0.,0.,-1.));
#922=DIRECTION('',(0.,-1.,0.));
#923=DIRECTION('',(0.,0.,-1.));
#924=DIRECTION('',(0.,-1.,0.));
#925=DIRECTION('',(0.,0.,-1.));
#926=DIRECTION('',(-1.,0.,1.7347234759768E-16));
#927=DIRECTION('',(0.,-1.,0.));
#928=DIRECTION('',(0.,0.,-1.));
#929=DIRECTION('',(-1.,0.,-1.7347234759768E-16));
#930=DIRECTION('',(0.,-1.,0.));
#931=DIRECTION('',(0.,0.,-1.));
#932=DIRECTION('',(0.,-1.,0.));
#933=DIRECTION('',(0.,0.,-1.));
#934=DIRECTION('',(0.,-1.,0.));
#935=DIRECTION('',(0.,0.,-1.));
#936=DIRECTION('',(1.,0.,0.));
#937=DIRECTION('',(0.,-1.,0.));
#938=DIRECTION('',(1.,0.,0.));
#939=DIRECTION('',(0.,-1.,0.));
#940=DIRECTION('',(0.,0.,-1.));
#941=DIRECTION('',(0.,-1.,0.));
#942=DIRECTION('',(0.,0.,-1.));
#943=DIRECTION('',(0.,-1.,0.));
#944=DIRECTION('',(0.,0.,-1.));
#945=DIRECTION('',(0.,-1.,0.));
#946=DIRECTION('',(0.,0.,-1.));
#947=DIRECTION('',(1.,0.,0.));
#948=DIRECTION('',(0.,-1.,0.));
#949=DIRECTION('',(0.,0.,-1.));
#950=DIRECTION('',(1.,0.,0.));
#951=DIRECTION('',(0.,-1.,0.));
#952=DIRECTION('',(0.,0.,-1.));
#953=DIRECTION('',(0.,-1.,0.));
#954=DIRECTION('',(0.,0.,-1.));
#955=DIRECTION('',(0.,-1.,0.));
#956=DIRECTION('',(0.,0.,-1.));
#957=DIRECTION('',(-1.,0.,-1.7347234759768E-16));
#958=DIRECTION('',(0.,-1.,0.));
#959=DIRECTION('',(0.,0.,-1.));
#960=DIRECTION('',(-1.,0.,1.7347234759768E-16));
#961=DIRECTION('',(0.,-1.,0.));
#962=DIRECTION('',(0.,0.,-1.));
#963=DIRECTION('',(0.,-1.,0.));
#964=DIRECTION('',(0.,0.,-1.));
#965=DIRECTION('',(0.,-1.,0.));
#966=DIRECTION('',(0.,0.,-1.));
#967=DIRECTION('',(0.,-1.,0.));
#968=DIRECTION('',(0.,0.,-1.));
#969=DIRECTION('',(0.,-1.,0.));
#970=DIRECTION('',(0.,0.,-1.));
#971=DIRECTION('',(0.,-1.,0.));
#972=DIRECTION('',(1.,0.,0.));
#973=DIRECTION('',(0.,-1.,0.));
#974=DIRECTION('',(0.,0.,-1.));
#975=DIRECTION('',(0.,1.,0.));
#976=DIRECTION('',(0.,0.,1.));
#977=DIRECTION('',(0.,-1.,0.));
#978=DIRECTION('',(0.,0.,-1.));
#979=DIRECTION('',(0.,-1.,0.));
#980=DIRECTION('',(0.,0.,-1.));
#981=DIRECTION('',(0.,1.,0.));
#982=DIRECTION('',(0.,0.,1.));
#983=DIRECTION('',(0.,-1.,0.));
#984=DIRECTION('',(0.,0.,-1.));
#985=DIRECTION('',(0.,-1.,0.));
#986=DIRECTION('',(0.,0.,-1.));
#987=DIRECTION('',(0.,1.,0.));
#988=DIRECTION('',(0.,0.,1.));
#989=DIRECTION('',(0.,-1.,0.));
#990=DIRECTION('',(0.,0.,-1.));
#991=DIRECTION('',(0.,-1.,0.));
#992=DIRECTION('',(0.,0.,-1.));
#993=DIRECTION('',(0.,1.,0.));
#994=DIRECTION('',(0.,0.,1.));
#995=DIRECTION('',(0.,-1.,0.));
#996=DIRECTION('',(0.,0.,-1.));
#997=DIRECTION('',(0.,-1.,0.));
#998=DIRECTION('',(0.,0.,-1.));
#999=DIRECTION('',(0.,-1.,0.));
#1000=DIRECTION('',(0.,0.,-1.));
#1001=DIRECTION('',(0.,-1.,0.));
#1002=DIRECTION('',(0.,0.,-1.));
#1003=DIRECTION('',(0.,-1.,0.));
#1004=DIRECTION('',(0.,0.,-1.));
#1005=DIRECTION('',(0.,-1.,0.));
#1006=DIRECTION('',(0.,0.,-1.));
#1007=DIRECTION('',(-1.,0.,-1.7347234759768E-16));
#1008=DIRECTION('',(-1.7347234759768E-16,0.,1.));
#1009=DIRECTION('',(1.,0.,0.));
#1010=DIRECTION('',(0.,0.,-1.));
#1011=DIRECTION('',(-1.,0.,0.));
#1012=DIRECTION('',(0.,0.,1.));
#1013=DIRECTION('',(0.,-1.,0.));
#1014=DIRECTION('',(0.,0.,-1.));
#1015=DIRECTION('',(1.,0.,0.));
#1016=DIRECTION('',(0.,0.,-1.));
#1017=DIRECTION('',(0.,-1.,0.));
#1018=DIRECTION('',(0.,0.,-1.));
#1019=DIRECTION('',(0.397727272727274,0.,-0.917503687474293));
#1020=DIRECTION('',(-0.917503687474293,0.,-0.397727272727274));
#1021=DIRECTION('',(1.,0.,-1.7347234759768E-16));
#1022=DIRECTION('',(-1.7347234759768E-16,0.,-1.));
#1023=DIRECTION('',(1.,0.,0.));
#1024=DIRECTION('',(0.,0.,-1.));
#1025=DIRECTION('',(0.,-1.,0.));
#1026=DIRECTION('',(0.,0.,-1.));
#1027=DIRECTION('',(0.397727272727274,0.,0.917503687474293));
#1028=DIRECTION('',(0.917503687474293,0.,-0.397727272727274));
#1029=DIRECTION('',(0.,-1.,0.));
#1030=DIRECTION('',(0.,0.,-1.));
#1031=DIRECTION('',(0.397727272727274,1.37989367407246E-15,0.917503687474293));
#1032=DIRECTION('',(0.917503687474293,0.,-0.397727272727274));
#1033=DIRECTION('',(0.,-1.,0.));
#1034=DIRECTION('',(0.,0.,-1.));
#1035=DIRECTION('',(1.,0.,0.));
#1036=DIRECTION('',(0.,0.,-1.));
#1037=DIRECTION('',(0.,-1.,0.));
#1038=DIRECTION('',(0.,0.,-1.));
#1039=DIRECTION('',(0.397727272727274,0.,-0.917503687474293));
#1040=DIRECTION('',(-0.917503687474293,0.,-0.397727272727274));
#1041=DIRECTION('',(-1.,0.,0.));
#1042=DIRECTION('',(0.,0.,1.));
#1043=DIRECTION('',(1.,0.,0.));
#1044=DIRECTION('',(0.,0.,-1.));
#1045=DIRECTION('',(0.,-1.,0.));
#1046=DIRECTION('',(0.,0.,-1.));
#1047=DIRECTION('',(1.,0.,0.));
#1048=DIRECTION('',(0.,0.,-1.));
#1049=DIRECTION('',(0.,-1.,0.));
#1050=DIRECTION('',(0.,0.,-1.));
#1051=DIRECTION('',(-1.,0.,0.));
#1052=DIRECTION('',(0.,0.,1.));
#1053=DIRECTION('',(1.,0.,0.));
#1054=DIRECTION('',(0.,0.,-1.));
#1055=DIRECTION('',(0.,-1.,0.));
#1056=DIRECTION('',(0.,0.,-1.));
#1057=DIRECTION('',(0.,-1.,0.));
#1058=DIRECTION('',(0.,0.,-1.));
#1059=DIRECTION('',(1.,0.,1.7347234759768E-16));
#1060=DIRECTION('',(1.7347234759768E-16,0.,-1.));
#1061=DIRECTION('',(1.,0.,0.));
#1062=DIRECTION('',(0.,0.,-1.));
#1063=DIRECTION('',(-1.,0.,0.));
#1064=DIRECTION('',(0.,0.,1.));
#1065=DIRECTION('',(0.,-1.,0.));
#1066=DIRECTION('',(0.,0.,-1.));
#1067=DIRECTION('',(1.,0.,0.));
#1068=DIRECTION('',(0.,0.,-1.));
#1069=DIRECTION('',(0.,-1.,0.));
#1070=DIRECTION('',(0.,0.,-1.));
#1071=DIRECTION('',(0.397727272727274,0.,-0.917503687474293));
#1072=DIRECTION('',(-0.917503687474293,0.,-0.397727272727274));
#1073=DIRECTION('',(-1.,0.,1.7347234759768E-16));
#1074=DIRECTION('',(1.7347234759768E-16,0.,1.));
#1075=DIRECTION('',(1.,0.,0.));
#1076=DIRECTION('',(0.,0.,-1.));
#1077=DIRECTION('',(0.,-1.,0.));
#1078=DIRECTION('',(0.,0.,-1.));
#1079=DIRECTION('',(0.397727272727274,-2.1172151188448E-16,0.917503687474293));
#1080=DIRECTION('',(0.917503687474293,0.,-0.397727272727274));
#1081=DIRECTION('',(0.,-1.,0.));
#1082=DIRECTION('',(0.,0.,-1.));
#1083=DIRECTION('',(0.397727272727273,0.,0.917503687474293));
#1084=DIRECTION('',(0.917503687474293,0.,-0.397727272727273));
#1085=DIRECTION('',(0.,-1.,0.));
#1086=DIRECTION('',(0.,0.,-1.));
#1087=DIRECTION('',(1.,0.,0.));
#1088=DIRECTION('',(0.,0.,-1.));
#1089=DIRECTION('',(0.,-1.,0.));
#1090=DIRECTION('',(0.,0.,-1.));
#1091=DIRECTION('',(0.397727272727274,0.,-0.917503687474293));
#1092=DIRECTION('',(-0.917503687474293,0.,-0.397727272727274));
#1093=DIRECTION('',(1.,0.,0.));
#1094=DIRECTION('',(0.,0.,-1.));
#1095=DIRECTION('',(1.,0.,0.));
#1096=DIRECTION('',(0.,0.,-1.));
#1097=DIRECTION('',(0.,-1.,0.));
#1098=DIRECTION('',(0.,0.,-1.));
#1099=DIRECTION('',(1.,0.,0.));
#1100=DIRECTION('',(0.,0.,-1.));
#1101=DIRECTION('',(0.,-1.,0.));
#1102=DIRECTION('',(0.,0.,-1.));
#1103=DIRECTION('',(-1.,0.,0.));
#1104=DIRECTION('',(0.,0.,1.));
#1105=DIRECTION('',(-1.,0.,0.));
#1106=DIRECTION('',(0.,0.,1.));
#1107=CARTESIAN_POINT('',(0.,0.,0.));
#1108=CARTESIAN_POINT('',(-0.0172770091696527,-0.2305,-0.005));
#1109=CARTESIAN_POINT('',(-0.0161480648995476,-0.2305,-0.005));
#1110=CARTESIAN_POINT('',(-0.0161480648995476,-0.226,-0.005));
#1111=CARTESIAN_POINT('',(-0.0161480648995476,-0.23,-0.005));
#1112=CARTESIAN_POINT('',(-0.0172770091696527,-0.23,-0.005));
#1113=CARTESIAN_POINT('',(-0.0197770091696527,-0.23,-0.005));
#1114=CARTESIAN_POINT('',(-0.0197770091696527,-0.2305,-0.005));
#1115=CARTESIAN_POINT('',(-0.0197770091696527,-0.226,-0.005));
#1116=CARTESIAN_POINT('',(-0.0161480648995476,-0.226,-0.005));
#1117=CARTESIAN_POINT('',(0.,-0.2305,9.55224503334935E-19));
#1118=CARTESIAN_POINT('',(0.014313057524599,-0.2305,-0.00620454545454546));
#1119=CARTESIAN_POINT('',(0.014313057524599,-0.226,-0.00620454545454546));
#1120=CARTESIAN_POINT('',(0.014313057524599,-0.23,-0.00620454545454546));
#1121=CARTESIAN_POINT('',(0.,-0.23,9.55224503334935E-19));
#1122=CARTESIAN_POINT('',(-0.014313057524599,-0.23,-0.00620454545454546));
#1123=CARTESIAN_POINT('',(-0.014313057524599,-0.2305,-0.00620454545454546));
#1124=CARTESIAN_POINT('',(-0.014313057524599,-0.226,-0.00620454545454546));
#1125=CARTESIAN_POINT('',(0.,-0.226,9.55224503334935E-19));
#1126=CARTESIAN_POINT('',(0.0172770091696527,-0.2305,-0.005));
#1127=CARTESIAN_POINT('',(0.0197770091696527,-0.2305,-0.005));
#1128=CARTESIAN_POINT('',(0.0197770091696527,-0.23,-0.005));
#1129=CARTESIAN_POINT('',(0.0197770091696527,-0.226,-0.005));
#1130=CARTESIAN_POINT('',(0.0161480648995476,-0.23,-0.005));
#1131=CARTESIAN_POINT('',(0.0161480648995476,-0.23,-0.005));
#1132=CARTESIAN_POINT('',(0.0161480648995476,-0.2255,-0.005));
#1133=CARTESIAN_POINT('',(0.0161480648995476,-0.226,-0.005));
#1134=CARTESIAN_POINT('',(0.0172770091696527,-0.226,-0.005));
#1135=CARTESIAN_POINT('',(0.0197770091696527,-0.2305,0.));
#1136=CARTESIAN_POINT('',(0.0197770091696527,-0.2305,0.005));
#1137=CARTESIAN_POINT('',(0.0197770091696527,-0.23,0.005));
#1138=CARTESIAN_POINT('',(0.0197770091696527,-0.226,0.005));
#1139=CARTESIAN_POINT('',(0.0197770091696527,-0.23,0.));
#1140=CARTESIAN_POINT('',(0.0197770091696527,-0.226,0.));
#1141=CARTESIAN_POINT('',(0.0172770091696527,-0.2305,0.005));
#1142=CARTESIAN_POINT('',(0.0161480648995476,-0.2305,0.005));
#1143=CARTESIAN_POINT('',(0.0161480648995476,-0.226,0.005));
#1144=CARTESIAN_POINT('',(0.0161480648995476,-0.23,0.005));
#1145=CARTESIAN_POINT('',(0.0172770091696527,-0.23,0.005));
#1146=CARTESIAN_POINT('',(0.0161480648995476,-0.226,0.005));
#1147=CARTESIAN_POINT('',(0.,-0.2305,9.55224503334935E-19));
#1148=CARTESIAN_POINT('',(-0.014313057524599,-0.2305,0.00620454545454545));
#1149=CARTESIAN_POINT('',(-0.014313057524599,-0.226,0.00620454545454545));
#1150=CARTESIAN_POINT('',(-0.014313057524599,-0.23,0.00620454545454545));
#1151=CARTESIAN_POINT('',(0.,-0.23,9.55224503334935E-19));
#1152=CARTESIAN_POINT('',(0.014313057524599,-0.23,0.00620454545454546));
#1153=CARTESIAN_POINT('',(0.014313057524599,-0.2305,0.00620454545454546));
#1154=CARTESIAN_POINT('',(0.014313057524599,-0.226,0.00620454545454546));
#1155=CARTESIAN_POINT('',(0.,-0.226,9.55224503334935E-19));
#1156=CARTESIAN_POINT('',(-0.0172770091696527,-0.2305,0.005));
#1157=CARTESIAN_POINT('',(-0.0197770091696527,-0.2305,0.005));
#1158=CARTESIAN_POINT('',(-0.0197770091696527,-0.23,0.005));
#1159=CARTESIAN_POINT('',(-0.0197770091696527,-0.226,0.005));
#1160=CARTESIAN_POINT('',(-0.0161480648995476,-0.23,0.005));
#1161=CARTESIAN_POINT('',(-0.0161480648995476,-0.23,0.005));
#1162=CARTESIAN_POINT('',(-0.0161480648995476,-0.2255,0.005));
#1163=CARTESIAN_POINT('',(-0.0161480648995476,-0.226,0.005));
#1164=CARTESIAN_POINT('',(-0.0172770091696527,-0.226,0.005));
#1165=CARTESIAN_POINT('',(0.0197770091696527,-0.2305,9.95025524307225E-20));
#1166=CARTESIAN_POINT('',(0.0197770091696527,-0.23,9.95025524307225E-20));
#1167=CARTESIAN_POINT('',(0.0197770091696527,-0.23,-0.001625));
#1168=CARTESIAN_POINT('',(0.0197770091696527,-0.226,9.95025524307225E-20));
#1169=CARTESIAN_POINT('',(0.0197770091696527,-0.226,-0.001625));
#1170=CARTESIAN_POINT('',(-0.0197770091696527,-0.2305,-2.35939980344566E-18));
#1171=CARTESIAN_POINT('',(-0.0197770091696527,-0.23,-2.35939980344566E-18));
#1172=CARTESIAN_POINT('',(-0.0197770091696527,-0.23,-0.001625));
#1173=CARTESIAN_POINT('',(-0.0197770091696527,-0.226,-2.35939980344566E-18));
#1174=CARTESIAN_POINT('',(-0.0197770091696527,-0.226,-0.001625));
#1175=CARTESIAN_POINT('',(-0.0197770091696527,-0.2305,-2.60208521396521E-18));
#1176=CARTESIAN_POINT('',(-0.0197770091696527,-0.23,-2.60208521396521E-18));
#1177=CARTESIAN_POINT('',(-0.0197770091696527,-0.226,-2.60208521396521E-18));
#1178=CARTESIAN_POINT('',(-3.46944695195361E-18,-0.2305,0.));
#1179=CARTESIAN_POINT('',(0.,-0.2305,7.98692281203551E-20));
#1180=CARTESIAN_POINT('',(0.,-0.2305,-0.003575));
#1181=CARTESIAN_POINT('',(-0.0197770091696527,-0.2305,-2.35939980344566E-18));
#1182=CARTESIAN_POINT('',(-0.0197770091696527,-0.2305,-0.002125));
#1183=CARTESIAN_POINT('',(0.0197770091696527,-0.2305,9.95025524307225E-20));
#1184=CARTESIAN_POINT('',(0.0197770091696527,-0.2305,-0.002125));
#1185=CARTESIAN_POINT('',(0.0197770091696527,-0.2305,0.));
#1186=CARTESIAN_POINT('',(0.0197770091696527,-0.2305,-0.0045));
#1187=CARTESIAN_POINT('',(0.0197770091696527,-0.2305,0.0045));
#1188=CARTESIAN_POINT('',(-3.46944695195361E-18,-0.2305,0.0045));
#1189=CARTESIAN_POINT('',(0.0161480648995476,-0.2305,0.0045));
#1190=CARTESIAN_POINT('',(0.0161480648995476,-0.2305,0.007));
#1191=CARTESIAN_POINT('',(0.0138543056808618,-0.2305,0.00600568181818182));
#1192=CARTESIAN_POINT('',(0.,-0.2305,9.55224503334935E-19));
#1193=CARTESIAN_POINT('',(-0.0138543056808618,-0.2305,0.00600568181818182));
#1194=CARTESIAN_POINT('',(-0.0161480648995476,-0.2305,0.007));
#1195=CARTESIAN_POINT('',(-0.0161480648995476,-0.2305,0.0045));
#1196=CARTESIAN_POINT('',(-0.0197770091696527,-0.2305,0.0045));
#1197=CARTESIAN_POINT('',(-0.0197770091696527,-0.2305,0.0045));
#1198=CARTESIAN_POINT('',(-0.0197770091696527,-0.2305,-2.60208521396521E-18));
#1199=CARTESIAN_POINT('',(-0.0197770091696527,-0.2305,-0.0045));
#1200=CARTESIAN_POINT('',(-2.68882138776405E-18,-0.2305,-0.0045));
#1201=CARTESIAN_POINT('',(-0.0161480648995476,-0.2305,-0.0045));
#1202=CARTESIAN_POINT('',(-0.0161480648995476,-0.2305,-0.007));
#1203=CARTESIAN_POINT('',(-0.0138543056808618,-0.2305,-0.00600568181818182));
#1204=CARTESIAN_POINT('',(0.,-0.2305,9.55224503334935E-19));
#1205=CARTESIAN_POINT('',(0.0138543056808618,-0.2305,-0.00600568181818182));
#1206=CARTESIAN_POINT('',(0.0161480648995476,-0.2305,-0.007));
#1207=CARTESIAN_POINT('',(0.0161480648995476,-0.2305,-0.0045));
#1208=CARTESIAN_POINT('',(0.0197770091696527,-0.2305,-0.0045));
#1209=CARTESIAN_POINT('',(-3.46944695195361E-18,-0.2255,0.));
#1210=CARTESIAN_POINT('',(0.,-0.2255,1.37772764904077E-19));
#1211=CARTESIAN_POINT('',(0.,-0.2255,-0.00275));
#1212=CARTESIAN_POINT('',(-0.0197770091696527,-0.2255,-2.35939980344566E-18));
#1213=CARTESIAN_POINT('',(-0.0197770091696527,-0.2255,-0.002125));
#1214=CARTESIAN_POINT('',(0.0197770091696527,-0.2255,9.95025524307225E-20));
#1215=CARTESIAN_POINT('',(0.0197770091696527,-0.2255,-0.002125));
#1216=CARTESIAN_POINT('',(0.0161480648995476,-0.2255,0.007));
#1217=CARTESIAN_POINT('',(0.0138543056808618,-0.2255,0.00600568181818182));
#1218=CARTESIAN_POINT('',(0.0161480648995476,-0.2255,0.0045));
#1219=CARTESIAN_POINT('',(0.0197770091696527,-0.2255,0.0045));
#1220=CARTESIAN_POINT('',(0.0197770091696527,-0.2255,0.0045));
#1221=CARTESIAN_POINT('',(0.0197770091696527,-0.2255,0.));
#1222=CARTESIAN_POINT('',(0.0197770091696527,-0.2255,-0.0045));
#1223=CARTESIAN_POINT('',(-3.46944695195361E-18,-0.2255,-0.0045));
#1224=CARTESIAN_POINT('',(0.0161480648995476,-0.2255,-0.0045));
#1225=CARTESIAN_POINT('',(0.0161480648995476,-0.2255,-0.007));
#1226=CARTESIAN_POINT('',(0.0138543056808618,-0.2255,-0.00600568181818182));
#1227=CARTESIAN_POINT('',(0.,-0.2255,9.55224503334935E-19));
#1228=CARTESIAN_POINT('',(-0.0138543056808618,-0.2255,-0.00600568181818182));
#1229=CARTESIAN_POINT('',(-0.0161480648995476,-0.2255,-0.007));
#1230=CARTESIAN_POINT('',(-0.0161480648995476,-0.2255,-0.0045));
#1231=CARTESIAN_POINT('',(-0.0197770091696527,-0.2255,-0.0045));
#1232=CARTESIAN_POINT('',(-0.0197770091696527,-0.2255,-0.0045));
#1233=CARTESIAN_POINT('',(-0.0197770091696527,-0.2255,-2.60208521396521E-18));
#1234=CARTESIAN_POINT('',(-0.0197770091696527,-0.2255,0.0045));
#1235=CARTESIAN_POINT('',(-2.68882138776405E-18,-0.2255,0.0045));
#1236=CARTESIAN_POINT('',(-0.0161480648995476,-0.2255,0.0045));
#1237=CARTESIAN_POINT('',(-0.0161480648995476,-0.2255,0.007));
#1238=CARTESIAN_POINT('',(-0.0138543056808618,-0.2255,0.00600568181818182));
#1239=CARTESIAN_POINT('',(0.,-0.2255,9.55224503334935E-19));
#1240=CARTESIAN_POINT('',(0.,-0.2265,7.98692281203551E-20));
#1241=CARTESIAN_POINT('',(0.,-0.23,7.98692281203551E-20));
#1242=CARTESIAN_POINT('',(0.,-0.23,-0.003075));
#1243=CARTESIAN_POINT('',(0.,-0.2265,7.98692281203551E-20));
#1244=CARTESIAN_POINT('',(0.,-0.2265,-0.003075));
#1245=CARTESIAN_POINT('',(-3.46944695195361E-18,-0.2265,0.));
#1246=CARTESIAN_POINT('',(0.,-0.2265,1.37772764904077E-19));
#1247=CARTESIAN_POINT('',(0.,-0.2265,-0.00275));
#1248=CARTESIAN_POINT('',(0.0161480648995476,-0.2305,-0.007));
#1249=CARTESIAN_POINT('',(0.0161480648995476,-0.23,-0.007));
#1250=CARTESIAN_POINT('',(0.0161480648995476,-0.226,-0.007));
#1251=CARTESIAN_POINT('',(0.0161480648995476,-0.2305,0.007));
#1252=CARTESIAN_POINT('',(0.0161480648995476,-0.23,0.007));
#1253=CARTESIAN_POINT('',(0.0161480648995476,-0.226,0.007));
#1254=CARTESIAN_POINT('',(-0.0161480648995476,-0.2305,-0.007));
#1255=CARTESIAN_POINT('',(-0.0161480648995476,-0.23,-0.007));
#1256=CARTESIAN_POINT('',(-0.0161480648995476,-0.226,-0.007));
#1257=CARTESIAN_POINT('',(-0.0161480648995476,-0.2305,0.007));
#1258=CARTESIAN_POINT('',(-0.0161480648995476,-0.23,0.007));
#1259=CARTESIAN_POINT('',(-0.0161480648995476,-0.226,0.007));
#1260=CARTESIAN_POINT('',(0.,-0.226,1.37772764904077E-19));
#1261=CARTESIAN_POINT('',(0.,-0.23,7.98692281203551E-20));
#1262=CARTESIAN_POINT('',(-0.0197770091696527,-0.23,-2.35939980344566E-18));
#1263=CARTESIAN_POINT('',(0.0197770091696527,-0.23,9.95025524307225E-20));
#1264=CARTESIAN_POINT('',(-0.0172770091696527,-0.23,-0.0045));
#1265=CARTESIAN_POINT('',(-0.0161480648995476,-0.23,-0.0045));
#1266=CARTESIAN_POINT('',(-0.0197770091696527,-0.23,-0.0045));
#1267=CARTESIAN_POINT('',(-0.0197770091696527,-0.23,-2.60208521396521E-18));
#1268=CARTESIAN_POINT('',(-0.0197770091696527,-0.23,0.0045));
#1269=CARTESIAN_POINT('',(-0.0161480648995476,-0.23,-0.007));
#1270=CARTESIAN_POINT('',(-0.0138543056808618,-0.23,-0.00600568181818182));
#1271=CARTESIAN_POINT('',(-2.68882138776405E-18,-0.23,0.0045));
#1272=CARTESIAN_POINT('',(-0.0161480648995476,-0.23,0.0045));
#1273=CARTESIAN_POINT('',(0.,-0.23,9.55224503334935E-19));
#1274=CARTESIAN_POINT('',(0.0138543056808618,-0.23,-0.00600568181818182));
#1275=CARTESIAN_POINT('',(-0.0161480648995476,-0.23,0.007));
#1276=CARTESIAN_POINT('',(-0.0138543056808618,-0.23,0.00600568181818182));
#1277=CARTESIAN_POINT('',(0.0161480648995476,-0.23,-0.007));
#1278=CARTESIAN_POINT('',(0.0161480648995476,-0.23,-0.0045));
#1279=CARTESIAN_POINT('',(0.,-0.23,9.55224503334935E-19));
#1280=CARTESIAN_POINT('',(0.0138543056808618,-0.23,0.00600568181818182));
#1281=CARTESIAN_POINT('',(-3.46944695195361E-18,-0.23,-0.0045));
#1282=CARTESIAN_POINT('',(0.0197770091696527,-0.23,-0.0045));
#1283=CARTESIAN_POINT('',(0.0161480648995476,-0.23,0.007));
#1284=CARTESIAN_POINT('',(0.0161480648995476,-0.23,0.0045));
#1285=CARTESIAN_POINT('',(0.0197770091696527,-0.23,0.));
#1286=CARTESIAN_POINT('',(0.0197770091696527,-0.23,0.0045));
#1287=CARTESIAN_POINT('',(0.0172770091696527,-0.23,0.0045));
#1288=CARTESIAN_POINT('',(-0.0197770091696527,-0.226,-2.35939980344566E-18));
#1289=CARTESIAN_POINT('',(0.0197770091696527,-0.226,9.95025524307225E-20));
#1290=CARTESIAN_POINT('',(-2.68882138776405E-18,-0.226,-0.0045));
#1291=CARTESIAN_POINT('',(-0.0161480648995476,-0.226,-0.0045));
#1292=CARTESIAN_POINT('',(-0.0197770091696527,-0.226,-0.0045));
#1293=CARTESIAN_POINT('',(-0.0197770091696527,-0.226,-2.60208521396521E-18));
#1294=CARTESIAN_POINT('',(-0.0197770091696527,-0.226,0.0045));
#1295=CARTESIAN_POINT('',(-0.0161480648995476,-0.226,-0.007));
#1296=CARTESIAN_POINT('',(-0.0138543056808618,-0.226,-0.00600568181818182));
#1297=CARTESIAN_POINT('',(-0.0172770091696527,-0.226,0.0045));
#1298=CARTESIAN_POINT('',(-0.0161480648995476,-0.226,0.0045));
#1299=CARTESIAN_POINT('',(0.,-0.226,9.55224503334935E-19));
#1300=CARTESIAN_POINT('',(0.0138543056808618,-0.226,-0.00600568181818182));
#1301=CARTESIAN_POINT('',(-0.0161480648995476,-0.226,0.007));
#1302=CARTESIAN_POINT('',(-0.0138543056808618,-0.226,0.00600568181818182));
#1303=CARTESIAN_POINT('',(0.0161480648995476,-0.226,-0.007));
#1304=CARTESIAN_POINT('',(0.0161480648995476,-0.226,-0.0045));
#1305=CARTESIAN_POINT('',(0.,-0.226,9.55224503334935E-19));
#1306=CARTESIAN_POINT('',(0.0138543056808618,-0.226,0.00600568181818182));
#1307=CARTESIAN_POINT('',(0.0172770091696527,-0.226,-0.0045));
#1308=CARTESIAN_POINT('',(0.0197770091696527,-0.226,-0.0045));
#1309=CARTESIAN_POINT('',(0.0161480648995476,-0.226,0.007));
#1310=CARTESIAN_POINT('',(0.0161480648995476,-0.226,0.0045));
#1311=CARTESIAN_POINT('',(0.0197770091696527,-0.226,0.));
#1312=CARTESIAN_POINT('',(0.0197770091696527,-0.226,0.0045));
#1313=CARTESIAN_POINT('',(-3.46944695195361E-18,-0.226,0.0045));
#1314=MECHANICAL_DESIGN_GEOMETRIC_PRESENTATION_REPRESENTATION('',(#714),
#1315);
#1315=(
GEOMETRIC_REPRESENTATION_CONTEXT(3)
GLOBAL_UNCERTAINTY_ASSIGNED_CONTEXT((#1316))
GLOBAL_UNIT_ASSIGNED_CONTEXT((#1319,#1318,#1317))
REPRESENTATION_CONTEXT('BLOCKS_laser_cap','TOP_LEVEL_ASSEMBLY_PART')
);
#1316=UNCERTAINTY_MEASURE_WITH_UNIT(LENGTH_MEASURE(1.E-8),#1319,
'DISTANCE_ACCURACY_VALUE','Maximum Tolerance applied to model');
#1317=(
NAMED_UNIT(*)
SI_UNIT($,.STERADIAN.)
SOLID_ANGLE_UNIT()
);
#1318=(
NAMED_UNIT(*)
PLANE_ANGLE_UNIT()
SI_UNIT($,.RADIAN.)
);
#1319=(
LENGTH_UNIT()
NAMED_UNIT(*)
SI_UNIT($,.METRE.)
);
#1320=PRODUCT_DEFINITION_SHAPE('','',#1321);
#1321=PRODUCT_DEFINITION('','',#1323,#1322);
#1322=PRODUCT_DEFINITION_CONTEXT('',#1329,'design');
#1323=PRODUCT_DEFINITION_FORMATION_WITH_SPECIFIED_SOURCE('','',#1325,
 .NOT_KNOWN.);
#1324=PRODUCT_RELATED_PRODUCT_CATEGORY('','',(#1325));
#1325=PRODUCT('BLOCKS_laser_cap','BLOCKS_laser_cap','BLOCKS_laser_cap',
(#1327));
#1326=PRODUCT_CATEGORY('','');
#1327=PRODUCT_CONTEXT('',#1329,'mechanical');
#1328=APPLICATION_PROTOCOL_DEFINITION('international standard',
'ap242_managed_model_based_3d_engineering',2020,#1329);
#1329=APPLICATION_CONTEXT('managed model based 3d engineering');
ENDSEC;
END-ISO-10303-21;
