ISO-10303-21;
HEADER;
/* Generated by software containing ST-Developer
 * from STEP Tools, Inc. (www.steptools.com) 
 */
/* OPTION: using custom renumber hook */

FILE_DESCRIPTION(
/* description */ ('STEP AP242 Edition 2',
'CAx-IF Rec.Pracs.---Representation and Presentation of Product Manufa
cturing Information (PMI)---4.0---2014-10-13',
'CAx-IF Rec.Pracs.---3D Tessellated Geometry---0.4---2014-09-14','2;1',
'CAx-IF Rec.Pracs.---User Defined Attributes---1.5---2016-08-15'),
/* implementation_level */ '2;1');

FILE_NAME(
/* name */ 'calibration_spacers - CALIBRATION_spacer_0.4',
/* time_stamp */ '2026-06-01T11:08:44Z',
/* author */ (''),
/* organization */ (''),
/* preprocessor_version */ 'ST-DEVELOPER v20',
/* originating_system */ 'ONSHAPE BY PTC INC, 1.215',
/* authorisation */ '  ');

FILE_SCHEMA (('AP242_MANAGED_MODEL_BASED_3D_ENGINEERING_MIM_LF { 1 0 10303 442 3 1 4 }'));
ENDSEC;

DATA;
#10=SHAPE_REPRESENTATION_RELATIONSHIP('','',#809,#11);
#11=ADVANCED_BREP_SHAPE_REPRESENTATION('',(#807),#1516);
#12=SPHERICAL_SURFACE('',#905,0.0002);
#13=(
BOUNDED_SURFACE()
B_SPLINE_SURFACE(3,2,((#1408,#1409,#1410),(#1411,#1412,#1413),(#1414,#1415,
#1416),(#1417,#1418,#1419)),.UNSPECIFIED.,.F.,.F.,.F.)
B_SPLINE_SURFACE_WITH_KNOTS((4,4),(3,3),(-1.18720137887163E-17,0.0010066810399232),
(0.,1.),.PIECEWISE_BEZIER_KNOTS.)
GEOMETRIC_REPRESENTATION_ITEM()
RATIONAL_B_SPLINE_SURFACE(((1.,0.707106781186548,1.),(1.,0.707106781186548,
1.),(1.,0.707106781186548,1.),(1.,0.707106781186548,1.)))
REPRESENTATION_ITEM('')
SURFACE()
);
#14=(
BOUNDED_SURFACE()
B_SPLINE_SURFACE(3,2,((#1422,#1423,#1424),(#1425,#1426,#1427),(#1428,#1429,
#1430),(#1431,#1432,#1433)),.UNSPECIFIED.,.F.,.F.,.F.)
B_SPLINE_SURFACE_WITH_KNOTS((4,4),(3,3),(-3.41523684332934E-18,0.000997451048123803),
(0.,1.),.PIECEWISE_BEZIER_KNOTS.)
GEOMETRIC_REPRESENTATION_ITEM()
RATIONAL_B_SPLINE_SURFACE(((1.,0.707106781186548,1.),(1.,0.707106781186548,
1.),(1.,0.707106781186548,1.),(1.,0.707106781186548,1.)))
REPRESENTATION_ITEM('')
SURFACE()
);
#15=(
BOUNDED_SURFACE()
B_SPLINE_SURFACE(3,2,((#1435,#1436,#1437),(#1438,#1439,#1440),(#1441,#1442,
#1443),(#1444,#1445,#1446)),.UNSPECIFIED.,.F.,.F.,.F.)
B_SPLINE_SURFACE_WITH_KNOTS((4,4),(3,3),(-2.02745806254789E-17,0.00101321610684023),
(0.,1.),.PIECEWISE_BEZIER_KNOTS.)
GEOMETRIC_REPRESENTATION_ITEM()
RATIONAL_B_SPLINE_SURFACE(((1.,0.707106781186548,1.),(1.,0.707106781186548,
1.),(1.,0.707106781186548,1.),(1.,0.707106781186548,1.)))
REPRESENTATION_ITEM('')
SURFACE()
);
#16=(
BOUNDED_SURFACE()
B_SPLINE_SURFACE(3,2,((#1448,#1449,#1450),(#1451,#1452,#1453),(#1454,#1455,
#1456),(#1457,#1458,#1459)),.UNSPECIFIED.,.F.,.F.,.F.)
B_SPLINE_SURFACE_WITH_KNOTS((4,4),(3,3),(1.55040910665427E-17,0.00101219947397143),
(0.,1.),.PIECEWISE_BEZIER_KNOTS.)
GEOMETRIC_REPRESENTATION_ITEM()
RATIONAL_B_SPLINE_SURFACE(((1.,0.707106781186548,1.),(1.,0.707106781186548,
1.),(1.,0.707106781186548,1.),(1.,0.707106781186548,1.)))
REPRESENTATION_ITEM('')
SURFACE()
);
#17=(
BOUNDED_SURFACE()
B_SPLINE_SURFACE(3,2,((#1461,#1462,#1463),(#1464,#1465,#1466),(#1467,#1468,
#1469),(#1470,#1471,#1472)),.UNSPECIFIED.,.F.,.F.,.F.)
B_SPLINE_SURFACE_WITH_KNOTS((4,4),(3,3),(1.52601455777335E-17,0.00100548926026217),
(0.,1.),.PIECEWISE_BEZIER_KNOTS.)
GEOMETRIC_REPRESENTATION_ITEM()
RATIONAL_B_SPLINE_SURFACE(((1.,0.707106781186548,1.),(1.,0.707106781186548,
1.),(1.,0.707106781186548,1.),(1.,0.707106781186548,1.)))
REPRESENTATION_ITEM('')
SURFACE()
);
#18=(
BOUNDED_SURFACE()
B_SPLINE_SURFACE(3,2,((#1474,#1475,#1476),(#1477,#1478,#1479),(#1480,#1481,
#1482),(#1483,#1484,#1485)),.UNSPECIFIED.,.F.,.F.,.F.)
B_SPLINE_SURFACE_WITH_KNOTS((4,4),(3,3),(-7.26415455565288E-18,0.00100757596139308),
(0.,1.),.PIECEWISE_BEZIER_KNOTS.)
GEOMETRIC_REPRESENTATION_ITEM()
RATIONAL_B_SPLINE_SURFACE(((1.,0.707106781186548,1.),(1.,0.707106781186548,
1.),(1.,0.707106781186543,1.),(1.,0.707106781186543,1.)))
REPRESENTATION_ITEM('')
SURFACE()
);
#19=(
BOUNDED_SURFACE()
B_SPLINE_SURFACE(3,2,((#1487,#1488,#1489),(#1490,#1491,#1492),(#1493,#1494,
#1495),(#1496,#1497,#1498)),.UNSPECIFIED.,.F.,.F.,.F.)
B_SPLINE_SURFACE_WITH_KNOTS((4,4),(3,3),(-3.45318391936633E-17,0.00100754712293541),
(0.,1.),.PIECEWISE_BEZIER_KNOTS.)
GEOMETRIC_REPRESENTATION_ITEM()
RATIONAL_B_SPLINE_SURFACE(((1.,0.707106781186548,1.),(1.,0.707106781186548,
1.),(1.,0.707106781186548,1.),(1.,0.707106781186548,1.)))
REPRESENTATION_ITEM('')
SURFACE()
);
#20=(
BOUNDED_SURFACE()
B_SPLINE_SURFACE(3,2,((#1500,#1501,#1502),(#1503,#1504,#1505),(#1506,#1507,
#1508),(#1509,#1510,#1511)),.UNSPECIFIED.,.F.,.F.,.F.)
B_SPLINE_SURFACE_WITH_KNOTS((4,4),(3,3),(2.42861286636753E-17,0.00099691142227259),
(0.,1.),.PIECEWISE_BEZIER_KNOTS.)
GEOMETRIC_REPRESENTATION_ITEM()
RATIONAL_B_SPLINE_SURFACE(((1.,0.707106781186543,1.),(1.,0.707106781186543,
1.),(1.,0.707106781186548,1.),(1.,0.707106781186548,1.)))
REPRESENTATION_ITEM('')
SURFACE()
);
#21=TOROIDAL_SURFACE('',#841,0.0032,0.0002);
#22=TOROIDAL_SURFACE('',#848,0.0028,0.0002);
#23=TOROIDAL_SURFACE('',#850,0.0028,0.0002);
#24=TOROIDAL_SURFACE('',#856,0.0028,0.0002);
#25=TOROIDAL_SURFACE('',#858,0.0028,0.0002);
#26=TOROIDAL_SURFACE('',#864,0.0032,0.0002);
#27=TOROIDAL_SURFACE('',#866,0.0028,0.0002);
#28=TOROIDAL_SURFACE('',#872,0.0028,0.0002);
#29=ELLIPSE('',#834,0.000200044209185964,0.0002);
#30=ELLIPSE('',#835,0.000777687029418193,0.0002);
#31=ELLIPSE('',#838,0.000413927878183073,0.0002);
#32=ELLIPSE('',#840,0.000720898824616312,0.0002);
#33=ELLIPSE('',#874,0.000282842712474619,0.0002);
#34=ELLIPSE('',#875,0.000282842712474619,0.0002);
#35=ELLIPSE('',#877,0.000282842712474619,0.0002);
#36=ELLIPSE('',#879,0.000273195760302608,0.0002);
#37=ELLIPSE('',#881,0.000282842712474619,0.0002);
#38=ELLIPSE('',#883,0.000210565052362898,0.0002);
#39=ELLIPSE('',#885,0.000282842712474619,0.0002);
#40=ELLIPSE('',#887,0.000228304647433911,0.0002);
#41=ELLIPSE('',#889,0.000282842712474619,0.0002);
#42=ELLIPSE('',#891,0.000282842712474619,0.0002);
#43=ELLIPSE('',#893,0.000282842712474619,0.0002);
#44=CYLINDRICAL_SURFACE('',#833,0.0002);
#45=CYLINDRICAL_SURFACE('',#836,0.0002);
#46=CYLINDRICAL_SURFACE('',#839,0.0002);
#47=CYLINDRICAL_SURFACE('',#844,0.0002);
#48=CYLINDRICAL_SURFACE('',#846,0.0002);
#49=CYLINDRICAL_SURFACE('',#852,0.0002);
#50=CYLINDRICAL_SURFACE('',#854,0.0002);
#51=CYLINDRICAL_SURFACE('',#860,0.0002);
#52=CYLINDRICAL_SURFACE('',#862,0.0002);
#53=CYLINDRICAL_SURFACE('',#868,0.0002);
#54=CYLINDRICAL_SURFACE('',#870,0.0002);
#55=CYLINDRICAL_SURFACE('',#873,0.0002);
#56=CYLINDRICAL_SURFACE('',#876,0.0002);
#57=CYLINDRICAL_SURFACE('',#878,0.0002);
#58=CYLINDRICAL_SURFACE('',#880,0.0002);
#59=CYLINDRICAL_SURFACE('',#882,0.0002);
#60=CYLINDRICAL_SURFACE('',#884,0.0002);
#61=CYLINDRICAL_SURFACE('',#886,0.0002);
#62=CYLINDRICAL_SURFACE('',#888,0.0002);
#63=CYLINDRICAL_SURFACE('',#890,0.0002);
#64=CYLINDRICAL_SURFACE('',#892,0.0002);
#65=CYLINDRICAL_SURFACE('',#894,0.0002);
#66=CYLINDRICAL_SURFACE('',#903,0.0002);
#67=CIRCLE('',#812,0.0028);
#68=CIRCLE('',#813,0.0028);
#69=CIRCLE('',#814,0.0028);
#70=CIRCLE('',#815,0.0028);
#71=CIRCLE('',#816,0.0032);
#72=CIRCLE('',#817,0.0028);
#73=CIRCLE('',#818,0.0028);
#74=CIRCLE('',#819,0.0032);
#75=CIRCLE('',#821,0.0028);
#76=CIRCLE('',#822,0.0032);
#77=CIRCLE('',#823,0.0028);
#78=CIRCLE('',#824,0.0028);
#79=CIRCLE('',#825,0.0032);
#80=CIRCLE('',#826,0.0028);
#81=CIRCLE('',#827,0.0028);
#82=CIRCLE('',#828,0.0028);
#83=CIRCLE('',#831,0.0002);
#84=CIRCLE('',#837,0.0002);
#85=CIRCLE('',#842,0.0002);
#86=CIRCLE('',#843,0.0002);
#87=CIRCLE('',#845,0.0002);
#88=CIRCLE('',#847,0.0002);
#89=CIRCLE('',#849,0.0002);
#90=CIRCLE('',#851,0.0002);
#91=CIRCLE('',#853,0.0002);
#92=CIRCLE('',#855,0.0002);
#93=CIRCLE('',#857,0.0002);
#94=CIRCLE('',#859,0.0002);
#95=CIRCLE('',#861,0.0002);
#96=CIRCLE('',#863,0.0002);
#97=CIRCLE('',#865,0.0002);
#98=CIRCLE('',#867,0.0002);
#99=CIRCLE('',#869,0.0002);
#100=CIRCLE('',#871,0.0002);
#101=CIRCLE('',#895,0.0002);
#102=CIRCLE('',#896,0.0002);
#103=CIRCLE('',#897,0.0002);
#104=CIRCLE('',#898,0.0002);
#105=CIRCLE('',#899,0.0002);
#106=CIRCLE('',#900,0.0002);
#107=CIRCLE('',#901,0.0002);
#108=CIRCLE('',#902,0.0002);
#109=CIRCLE('',#904,0.0002);
#110=B_SPLINE_CURVE_WITH_KNOTS('',3,(#1167,#1168,#1169,#1170),
 .UNSPECIFIED.,.F.,.F.,(4,4),(0.,0.00100757596139309),.UNSPECIFIED.);
#111=B_SPLINE_CURVE_WITH_KNOTS('',3,(#1173,#1174,#1175,#1176),
 .UNSPECIFIED.,.F.,.F.,(4,4),(0.,0.000996911422272567),.UNSPECIFIED.);
#112=B_SPLINE_CURVE_WITH_KNOTS('',3,(#1178,#1179,#1180,#1181),
 .UNSPECIFIED.,.F.,.F.,(4,4),(0.,0.00100754712293567),.UNSPECIFIED.);
#113=B_SPLINE_CURVE_WITH_KNOTS('',3,(#1183,#1184,#1185,#1186),
 .UNSPECIFIED.,.F.,.F.,(4,4),(0.,0.00100548926026218),.UNSPECIFIED.);
#114=B_SPLINE_CURVE_WITH_KNOTS('',3,(#1188,#1189,#1190,#1191),
 .UNSPECIFIED.,.F.,.F.,(4,4),(0.,0.00101321610684024),.UNSPECIFIED.);
#115=B_SPLINE_CURVE_WITH_KNOTS('',3,(#1193,#1194,#1195,#1196),
 .UNSPECIFIED.,.F.,.F.,(4,4),(0.,0.00100668103992318),.UNSPECIFIED.);
#116=B_SPLINE_CURVE_WITH_KNOTS('',3,(#1198,#1199,#1200,#1201),
 .UNSPECIFIED.,.F.,.F.,(4,4),(0.,0.000997451048123785),.UNSPECIFIED.);
#117=B_SPLINE_CURVE_WITH_KNOTS('',3,(#1203,#1204,#1205,#1206),
 .UNSPECIFIED.,.F.,.F.,(4,4),(0.,0.0010121994739714),.UNSPECIFIED.);
#118=B_SPLINE_CURVE_WITH_KNOTS('',2,(#1273,#1274,#1275),.UNSPECIFIED.,.F.,
 .F.,(3,3),(0.,1.),.PIECEWISE_BEZIER_KNOTS.);
#119=B_SPLINE_CURVE_WITH_KNOTS('',2,(#1278,#1279,#1280),.UNSPECIFIED.,.F.,
 .F.,(3,3),(0.,1.),.PIECEWISE_BEZIER_KNOTS.);
#120=B_SPLINE_CURVE_WITH_KNOTS('',2,(#1282,#1283,#1284),.UNSPECIFIED.,.F.,
 .F.,(3,3),(0.,1.),.PIECEWISE_BEZIER_KNOTS.);
#121=B_SPLINE_CURVE_WITH_KNOTS('',2,(#1286,#1287,#1288),.UNSPECIFIED.,.F.,
 .F.,(3,3),(0.,1.),.PIECEWISE_BEZIER_KNOTS.);
#122=B_SPLINE_CURVE_WITH_KNOTS('',2,(#1290,#1291,#1292),.UNSPECIFIED.,.F.,
 .F.,(3,3),(0.,1.),.PIECEWISE_BEZIER_KNOTS.);
#123=B_SPLINE_CURVE_WITH_KNOTS('',2,(#1294,#1295,#1296),.UNSPECIFIED.,.F.,
 .F.,(3,3),(0.,1.),.PIECEWISE_BEZIER_KNOTS.);
#124=B_SPLINE_CURVE_WITH_KNOTS('',2,(#1298,#1299,#1300),.UNSPECIFIED.,.F.,
 .F.,(3,3),(0.,1.),.PIECEWISE_BEZIER_KNOTS.);
#125=B_SPLINE_CURVE_WITH_KNOTS('',2,(#1302,#1303,#1304),.UNSPECIFIED.,.F.,
 .F.,(3,3),(0.,1.),.PIECEWISE_BEZIER_KNOTS.);
#126=ORIENTED_EDGE('',*,*,#364,.T.);
#127=ORIENTED_EDGE('',*,*,#365,.T.);
#128=ORIENTED_EDGE('',*,*,#366,.T.);
#129=ORIENTED_EDGE('',*,*,#367,.T.);
#130=ORIENTED_EDGE('',*,*,#368,.T.);
#131=ORIENTED_EDGE('',*,*,#369,.T.);
#132=ORIENTED_EDGE('',*,*,#370,.T.);
#133=ORIENTED_EDGE('',*,*,#371,.T.);
#134=ORIENTED_EDGE('',*,*,#372,.T.);
#135=ORIENTED_EDGE('',*,*,#373,.T.);
#136=ORIENTED_EDGE('',*,*,#374,.T.);
#137=ORIENTED_EDGE('',*,*,#375,.T.);
#138=ORIENTED_EDGE('',*,*,#376,.T.);
#139=ORIENTED_EDGE('',*,*,#377,.T.);
#140=ORIENTED_EDGE('',*,*,#378,.T.);
#141=ORIENTED_EDGE('',*,*,#379,.T.);
#142=ORIENTED_EDGE('',*,*,#380,.T.);
#143=ORIENTED_EDGE('',*,*,#381,.T.);
#144=ORIENTED_EDGE('',*,*,#382,.T.);
#145=ORIENTED_EDGE('',*,*,#383,.T.);
#146=ORIENTED_EDGE('',*,*,#384,.T.);
#147=ORIENTED_EDGE('',*,*,#385,.T.);
#148=ORIENTED_EDGE('',*,*,#386,.T.);
#149=ORIENTED_EDGE('',*,*,#387,.T.);
#150=ORIENTED_EDGE('',*,*,#388,.T.);
#151=ORIENTED_EDGE('',*,*,#389,.T.);
#152=ORIENTED_EDGE('',*,*,#390,.T.);
#153=ORIENTED_EDGE('',*,*,#391,.T.);
#154=ORIENTED_EDGE('',*,*,#392,.T.);
#155=ORIENTED_EDGE('',*,*,#393,.T.);
#156=ORIENTED_EDGE('',*,*,#394,.T.);
#157=ORIENTED_EDGE('',*,*,#395,.T.);
#158=ORIENTED_EDGE('',*,*,#396,.T.);
#159=ORIENTED_EDGE('',*,*,#397,.T.);
#160=ORIENTED_EDGE('',*,*,#398,.T.);
#161=ORIENTED_EDGE('',*,*,#399,.T.);
#162=ORIENTED_EDGE('',*,*,#400,.T.);
#163=ORIENTED_EDGE('',*,*,#401,.T.);
#164=ORIENTED_EDGE('',*,*,#402,.T.);
#165=ORIENTED_EDGE('',*,*,#403,.T.);
#166=ORIENTED_EDGE('',*,*,#404,.T.);
#167=ORIENTED_EDGE('',*,*,#405,.T.);
#168=ORIENTED_EDGE('',*,*,#406,.T.);
#169=ORIENTED_EDGE('',*,*,#407,.T.);
#170=ORIENTED_EDGE('',*,*,#408,.T.);
#171=ORIENTED_EDGE('',*,*,#409,.T.);
#172=ORIENTED_EDGE('',*,*,#410,.T.);
#173=ORIENTED_EDGE('',*,*,#411,.T.);
#174=ORIENTED_EDGE('',*,*,#412,.T.);
#175=ORIENTED_EDGE('',*,*,#413,.T.);
#176=ORIENTED_EDGE('',*,*,#414,.T.);
#177=ORIENTED_EDGE('',*,*,#415,.F.);
#178=ORIENTED_EDGE('',*,*,#416,.F.);
#179=ORIENTED_EDGE('',*,*,#417,.F.);
#180=ORIENTED_EDGE('',*,*,#418,.F.);
#181=ORIENTED_EDGE('',*,*,#419,.F.);
#182=ORIENTED_EDGE('',*,*,#420,.F.);
#183=ORIENTED_EDGE('',*,*,#421,.F.);
#184=ORIENTED_EDGE('',*,*,#422,.F.);
#185=ORIENTED_EDGE('',*,*,#423,.F.);
#186=ORIENTED_EDGE('',*,*,#424,.F.);
#187=ORIENTED_EDGE('',*,*,#425,.F.);
#188=ORIENTED_EDGE('',*,*,#426,.F.);
#189=ORIENTED_EDGE('',*,*,#427,.F.);
#190=ORIENTED_EDGE('',*,*,#428,.F.);
#191=ORIENTED_EDGE('',*,*,#429,.F.);
#192=ORIENTED_EDGE('',*,*,#430,.F.);
#193=ORIENTED_EDGE('',*,*,#431,.F.);
#194=ORIENTED_EDGE('',*,*,#432,.F.);
#195=ORIENTED_EDGE('',*,*,#433,.F.);
#196=ORIENTED_EDGE('',*,*,#434,.F.);
#197=ORIENTED_EDGE('',*,*,#435,.F.);
#198=ORIENTED_EDGE('',*,*,#436,.F.);
#199=ORIENTED_EDGE('',*,*,#437,.F.);
#200=ORIENTED_EDGE('',*,*,#438,.T.);
#201=ORIENTED_EDGE('',*,*,#439,.T.);
#202=ORIENTED_EDGE('',*,*,#440,.T.);
#203=ORIENTED_EDGE('',*,*,#441,.T.);
#204=ORIENTED_EDGE('',*,*,#442,.F.);
#205=ORIENTED_EDGE('',*,*,#443,.T.);
#206=ORIENTED_EDGE('',*,*,#436,.T.);
#207=ORIENTED_EDGE('',*,*,#434,.T.);
#208=ORIENTED_EDGE('',*,*,#444,.T.);
#209=ORIENTED_EDGE('',*,*,#439,.F.);
#210=ORIENTED_EDGE('',*,*,#445,.F.);
#211=ORIENTED_EDGE('',*,*,#441,.F.);
#212=ORIENTED_EDGE('',*,*,#446,.T.);
#213=ORIENTED_EDGE('',*,*,#442,.T.);
#214=ORIENTED_EDGE('',*,*,#435,.T.);
#215=ORIENTED_EDGE('',*,*,#445,.T.);
#216=ORIENTED_EDGE('',*,*,#447,.F.);
#217=ORIENTED_EDGE('',*,*,#392,.F.);
#218=ORIENTED_EDGE('',*,*,#448,.F.);
#219=ORIENTED_EDGE('',*,*,#408,.F.);
#220=ORIENTED_EDGE('',*,*,#393,.F.);
#221=ORIENTED_EDGE('',*,*,#447,.T.);
#222=ORIENTED_EDGE('',*,*,#407,.F.);
#223=ORIENTED_EDGE('',*,*,#449,.F.);
#224=ORIENTED_EDGE('',*,*,#448,.T.);
#225=ORIENTED_EDGE('',*,*,#391,.F.);
#226=ORIENTED_EDGE('',*,*,#450,.F.);
#227=ORIENTED_EDGE('',*,*,#409,.F.);
#228=ORIENTED_EDGE('',*,*,#394,.F.);
#229=ORIENTED_EDGE('',*,*,#449,.T.);
#230=ORIENTED_EDGE('',*,*,#406,.F.);
#231=ORIENTED_EDGE('',*,*,#451,.F.);
#232=ORIENTED_EDGE('',*,*,#450,.T.);
#233=ORIENTED_EDGE('',*,*,#390,.F.);
#234=ORIENTED_EDGE('',*,*,#452,.F.);
#235=ORIENTED_EDGE('',*,*,#410,.F.);
#236=ORIENTED_EDGE('',*,*,#395,.F.);
#237=ORIENTED_EDGE('',*,*,#451,.T.);
#238=ORIENTED_EDGE('',*,*,#405,.F.);
#239=ORIENTED_EDGE('',*,*,#453,.F.);
#240=ORIENTED_EDGE('',*,*,#452,.T.);
#241=ORIENTED_EDGE('',*,*,#389,.F.);
#242=ORIENTED_EDGE('',*,*,#454,.F.);
#243=ORIENTED_EDGE('',*,*,#411,.F.);
#244=ORIENTED_EDGE('',*,*,#396,.F.);
#245=ORIENTED_EDGE('',*,*,#453,.T.);
#246=ORIENTED_EDGE('',*,*,#404,.F.);
#247=ORIENTED_EDGE('',*,*,#455,.F.);
#248=ORIENTED_EDGE('',*,*,#454,.T.);
#249=ORIENTED_EDGE('',*,*,#388,.F.);
#250=ORIENTED_EDGE('',*,*,#456,.F.);
#251=ORIENTED_EDGE('',*,*,#412,.F.);
#252=ORIENTED_EDGE('',*,*,#397,.F.);
#253=ORIENTED_EDGE('',*,*,#455,.T.);
#254=ORIENTED_EDGE('',*,*,#403,.F.);
#255=ORIENTED_EDGE('',*,*,#457,.F.);
#256=ORIENTED_EDGE('',*,*,#456,.T.);
#257=ORIENTED_EDGE('',*,*,#387,.F.);
#258=ORIENTED_EDGE('',*,*,#458,.F.);
#259=ORIENTED_EDGE('',*,*,#413,.F.);
#260=ORIENTED_EDGE('',*,*,#398,.F.);
#261=ORIENTED_EDGE('',*,*,#457,.T.);
#262=ORIENTED_EDGE('',*,*,#402,.F.);
#263=ORIENTED_EDGE('',*,*,#459,.F.);
#264=ORIENTED_EDGE('',*,*,#458,.T.);
#265=ORIENTED_EDGE('',*,*,#386,.F.);
#266=ORIENTED_EDGE('',*,*,#460,.F.);
#267=ORIENTED_EDGE('',*,*,#414,.F.);
#268=ORIENTED_EDGE('',*,*,#383,.F.);
#269=ORIENTED_EDGE('',*,*,#459,.T.);
#270=ORIENTED_EDGE('',*,*,#401,.F.);
#271=ORIENTED_EDGE('',*,*,#461,.F.);
#272=ORIENTED_EDGE('',*,*,#460,.T.);
#273=ORIENTED_EDGE('',*,*,#385,.F.);
#274=ORIENTED_EDGE('',*,*,#462,.F.);
#275=ORIENTED_EDGE('',*,*,#399,.F.);
#276=ORIENTED_EDGE('',*,*,#384,.F.);
#277=ORIENTED_EDGE('',*,*,#461,.T.);
#278=ORIENTED_EDGE('',*,*,#400,.F.);
#279=ORIENTED_EDGE('',*,*,#462,.T.);
#280=ORIENTED_EDGE('',*,*,#463,.F.);
#281=ORIENTED_EDGE('',*,*,#371,.F.);
#282=ORIENTED_EDGE('',*,*,#464,.F.);
#283=ORIENTED_EDGE('',*,*,#429,.T.);
#284=ORIENTED_EDGE('',*,*,#464,.T.);
#285=ORIENTED_EDGE('',*,*,#370,.F.);
#286=ORIENTED_EDGE('',*,*,#465,.F.);
#287=ORIENTED_EDGE('',*,*,#430,.T.);
#288=ORIENTED_EDGE('',*,*,#463,.T.);
#289=ORIENTED_EDGE('',*,*,#428,.T.);
#290=ORIENTED_EDGE('',*,*,#466,.F.);
#291=ORIENTED_EDGE('',*,*,#372,.F.);
#292=ORIENTED_EDGE('',*,*,#465,.T.);
#293=ORIENTED_EDGE('',*,*,#369,.F.);
#294=ORIENTED_EDGE('',*,*,#467,.F.);
#295=ORIENTED_EDGE('',*,*,#431,.T.);
#296=ORIENTED_EDGE('',*,*,#466,.T.);
#297=ORIENTED_EDGE('',*,*,#427,.T.);
#298=ORIENTED_EDGE('',*,*,#468,.F.);
#299=ORIENTED_EDGE('',*,*,#373,.F.);
#300=ORIENTED_EDGE('',*,*,#467,.T.);
#301=ORIENTED_EDGE('',*,*,#368,.F.);
#302=ORIENTED_EDGE('',*,*,#469,.F.);
#303=ORIENTED_EDGE('',*,*,#432,.T.);
#304=ORIENTED_EDGE('',*,*,#468,.T.);
#305=ORIENTED_EDGE('',*,*,#426,.T.);
#306=ORIENTED_EDGE('',*,*,#470,.F.);
#307=ORIENTED_EDGE('',*,*,#374,.F.);
#308=ORIENTED_EDGE('',*,*,#469,.T.);
#309=ORIENTED_EDGE('',*,*,#367,.F.);
#310=ORIENTED_EDGE('',*,*,#471,.F.);
#311=ORIENTED_EDGE('',*,*,#433,.T.);
#312=ORIENTED_EDGE('',*,*,#470,.T.);
#313=ORIENTED_EDGE('',*,*,#425,.T.);
#314=ORIENTED_EDGE('',*,*,#472,.F.);
#315=ORIENTED_EDGE('',*,*,#364,.F.);
#316=ORIENTED_EDGE('',*,*,#471,.T.);
#317=ORIENTED_EDGE('',*,*,#366,.F.);
#318=ORIENTED_EDGE('',*,*,#473,.F.);
#319=ORIENTED_EDGE('',*,*,#423,.T.);
#320=ORIENTED_EDGE('',*,*,#472,.T.);
#321=ORIENTED_EDGE('',*,*,#424,.T.);
#322=ORIENTED_EDGE('',*,*,#473,.T.);
#323=ORIENTED_EDGE('',*,*,#365,.F.);
#324=ORIENTED_EDGE('',*,*,#474,.F.);
#325=ORIENTED_EDGE('',*,*,#420,.T.);
#326=ORIENTED_EDGE('',*,*,#475,.F.);
#327=ORIENTED_EDGE('',*,*,#380,.F.);
#328=ORIENTED_EDGE('',*,*,#475,.T.);
#329=ORIENTED_EDGE('',*,*,#419,.T.);
#330=ORIENTED_EDGE('',*,*,#476,.F.);
#331=ORIENTED_EDGE('',*,*,#381,.F.);
#332=ORIENTED_EDGE('',*,*,#474,.T.);
#333=ORIENTED_EDGE('',*,*,#379,.F.);
#334=ORIENTED_EDGE('',*,*,#477,.F.);
#335=ORIENTED_EDGE('',*,*,#421,.T.);
#336=ORIENTED_EDGE('',*,*,#476,.T.);
#337=ORIENTED_EDGE('',*,*,#418,.T.);
#338=ORIENTED_EDGE('',*,*,#478,.F.);
#339=ORIENTED_EDGE('',*,*,#382,.F.);
#340=ORIENTED_EDGE('',*,*,#477,.T.);
#341=ORIENTED_EDGE('',*,*,#378,.F.);
#342=ORIENTED_EDGE('',*,*,#479,.F.);
#343=ORIENTED_EDGE('',*,*,#422,.T.);
#344=ORIENTED_EDGE('',*,*,#478,.T.);
#345=ORIENTED_EDGE('',*,*,#417,.T.);
#346=ORIENTED_EDGE('',*,*,#480,.F.);
#347=ORIENTED_EDGE('',*,*,#375,.F.);
#348=ORIENTED_EDGE('',*,*,#479,.T.);
#349=ORIENTED_EDGE('',*,*,#377,.F.);
#350=ORIENTED_EDGE('',*,*,#481,.F.);
#351=ORIENTED_EDGE('',*,*,#415,.T.);
#352=ORIENTED_EDGE('',*,*,#480,.T.);
#353=ORIENTED_EDGE('',*,*,#416,.T.);
#354=ORIENTED_EDGE('',*,*,#481,.T.);
#355=ORIENTED_EDGE('',*,*,#376,.F.);
#356=ORIENTED_EDGE('',*,*,#446,.F.);
#357=ORIENTED_EDGE('',*,*,#440,.F.);
#358=ORIENTED_EDGE('',*,*,#482,.F.);
#359=ORIENTED_EDGE('',*,*,#437,.T.);
#360=ORIENTED_EDGE('',*,*,#443,.F.);
#361=ORIENTED_EDGE('',*,*,#482,.T.);
#362=ORIENTED_EDGE('',*,*,#444,.F.);
#363=ORIENTED_EDGE('',*,*,#438,.F.);
#364=EDGE_CURVE('',#483,#484,#562,.T.);
#365=EDGE_CURVE('',#484,#485,#563,.T.);
#366=EDGE_CURVE('',#485,#486,#564,.T.);
#367=EDGE_CURVE('',#486,#487,#565,.T.);
#368=EDGE_CURVE('',#487,#488,#566,.T.);
#369=EDGE_CURVE('',#488,#489,#567,.T.);
#370=EDGE_CURVE('',#489,#490,#568,.T.);
#371=EDGE_CURVE('',#490,#491,#569,.T.);
#372=EDGE_CURVE('',#491,#492,#570,.T.);
#373=EDGE_CURVE('',#492,#493,#571,.T.);
#374=EDGE_CURVE('',#493,#483,#572,.T.);
#375=EDGE_CURVE('',#494,#495,#110,.T.);
#376=EDGE_CURVE('',#495,#496,#111,.T.);
#377=EDGE_CURVE('',#496,#497,#112,.T.);
#378=EDGE_CURVE('',#497,#498,#113,.T.);
#379=EDGE_CURVE('',#498,#499,#114,.T.);
#380=EDGE_CURVE('',#499,#500,#115,.T.);
#381=EDGE_CURVE('',#500,#501,#116,.T.);
#382=EDGE_CURVE('',#501,#494,#117,.T.);
#383=EDGE_CURVE('',#502,#503,#573,.F.);
#384=EDGE_CURVE('',#503,#504,#67,.T.);
#385=EDGE_CURVE('',#504,#505,#574,.T.);
#386=EDGE_CURVE('',#505,#506,#68,.T.);
#387=EDGE_CURVE('',#506,#507,#575,.T.);
#388=EDGE_CURVE('',#507,#508,#69,.T.);
#389=EDGE_CURVE('',#508,#509,#576,.F.);
#390=EDGE_CURVE('',#509,#510,#70,.T.);
#391=EDGE_CURVE('',#510,#511,#577,.F.);
#392=EDGE_CURVE('',#511,#512,#71,.F.);
#393=EDGE_CURVE('',#512,#513,#578,.T.);
#394=EDGE_CURVE('',#513,#514,#72,.T.);
#395=EDGE_CURVE('',#514,#515,#579,.F.);
#396=EDGE_CURVE('',#515,#516,#73,.T.);
#397=EDGE_CURVE('',#516,#517,#580,.F.);
#398=EDGE_CURVE('',#517,#502,#74,.F.);
#399=EDGE_CURVE('',#518,#519,#581,.F.);
#400=EDGE_CURVE('',#519,#520,#75,.F.);
#401=EDGE_CURVE('',#520,#521,#582,.T.);
#402=EDGE_CURVE('',#521,#522,#76,.T.);
#403=EDGE_CURVE('',#522,#523,#583,.T.);
#404=EDGE_CURVE('',#523,#524,#77,.F.);
#405=EDGE_CURVE('',#524,#525,#584,.T.);
#406=EDGE_CURVE('',#525,#526,#78,.F.);
#407=EDGE_CURVE('',#526,#527,#585,.F.);
#408=EDGE_CURVE('',#527,#528,#79,.T.);
#409=EDGE_CURVE('',#528,#529,#586,.T.);
#410=EDGE_CURVE('',#529,#530,#80,.F.);
#411=EDGE_CURVE('',#530,#531,#587,.T.);
#412=EDGE_CURVE('',#531,#532,#81,.F.);
#413=EDGE_CURVE('',#532,#533,#588,.F.);
#414=EDGE_CURVE('',#533,#518,#82,.F.);
#415=EDGE_CURVE('',#534,#535,#118,.T.);
#416=EDGE_CURVE('',#536,#534,#119,.T.);
#417=EDGE_CURVE('',#537,#536,#120,.T.);
#418=EDGE_CURVE('',#538,#537,#121,.T.);
#419=EDGE_CURVE('',#539,#538,#122,.T.);
#420=EDGE_CURVE('',#540,#539,#123,.T.);
#421=EDGE_CURVE('',#541,#540,#124,.T.);
#422=EDGE_CURVE('',#535,#541,#125,.T.);
#423=EDGE_CURVE('',#542,#543,#589,.T.);
#424=EDGE_CURVE('',#544,#542,#590,.T.);
#425=EDGE_CURVE('',#545,#544,#591,.T.);
#426=EDGE_CURVE('',#546,#545,#592,.T.);
#427=EDGE_CURVE('',#547,#546,#593,.T.);
#428=EDGE_CURVE('',#548,#547,#594,.T.);
#429=EDGE_CURVE('',#549,#548,#595,.T.);
#430=EDGE_CURVE('',#550,#549,#596,.T.);
#431=EDGE_CURVE('',#551,#550,#597,.T.);
#432=EDGE_CURVE('',#552,#551,#598,.T.);
#433=EDGE_CURVE('',#543,#552,#599,.T.);
#434=EDGE_CURVE('',#553,#554,#600,.T.);
#435=EDGE_CURVE('',#555,#553,#601,.T.);
#436=EDGE_CURVE('',#556,#555,#602,.T.);
#437=EDGE_CURVE('',#557,#556,#603,.T.);
#438=EDGE_CURVE('',#557,#554,#83,.F.);
#439=EDGE_CURVE('',#558,#559,#604,.T.);
#440=EDGE_CURVE('',#559,#560,#605,.T.);
#441=EDGE_CURVE('',#560,#558,#606,.T.);
#442=EDGE_CURVE('',#561,#555,#29,.T.);
#443=EDGE_CURVE('',#561,#556,#30,.F.);
#444=EDGE_CURVE('',#554,#559,#84,.F.);
#445=EDGE_CURVE('',#553,#558,#31,.F.);
#446=EDGE_CURVE('',#560,#561,#32,.T.);
#447=EDGE_CURVE('',#512,#527,#85,.T.);
#448=EDGE_CURVE('',#528,#511,#86,.T.);
#449=EDGE_CURVE('',#513,#526,#87,.T.);
#450=EDGE_CURVE('',#529,#510,#88,.T.);
#451=EDGE_CURVE('',#514,#525,#89,.T.);
#452=EDGE_CURVE('',#530,#509,#90,.T.);
#453=EDGE_CURVE('',#515,#524,#91,.T.);
#454=EDGE_CURVE('',#531,#508,#92,.T.);
#455=EDGE_CURVE('',#516,#523,#93,.T.);
#456=EDGE_CURVE('',#532,#507,#94,.T.);
#457=EDGE_CURVE('',#517,#522,#95,.T.);
#458=EDGE_CURVE('',#533,#506,#96,.T.);
#459=EDGE_CURVE('',#502,#521,#97,.T.);
#460=EDGE_CURVE('',#518,#505,#98,.T.);
#461=EDGE_CURVE('',#503,#520,#99,.T.);
#462=EDGE_CURVE('',#519,#504,#100,.T.);
#463=EDGE_CURVE('',#491,#548,#33,.T.);
#464=EDGE_CURVE('',#549,#490,#34,.F.);
#465=EDGE_CURVE('',#550,#489,#35,.F.);
#466=EDGE_CURVE('',#492,#547,#36,.T.);
#467=EDGE_CURVE('',#551,#488,#37,.F.);
#468=EDGE_CURVE('',#493,#546,#38,.T.);
#469=EDGE_CURVE('',#552,#487,#39,.F.);
#470=EDGE_CURVE('',#483,#545,#40,.T.);
#471=EDGE_CURVE('',#543,#486,#41,.F.);
#472=EDGE_CURVE('',#484,#544,#42,.T.);
#473=EDGE_CURVE('',#542,#485,#43,.F.);
#474=EDGE_CURVE('',#540,#499,#101,.T.);
#475=EDGE_CURVE('',#500,#539,#102,.T.);
#476=EDGE_CURVE('',#501,#538,#103,.T.);
#477=EDGE_CURVE('',#541,#498,#104,.T.);
#478=EDGE_CURVE('',#494,#537,#105,.T.);
#479=EDGE_CURVE('',#535,#497,#106,.T.);
#480=EDGE_CURVE('',#495,#536,#107,.T.);
#481=EDGE_CURVE('',#534,#496,#108,.T.);
#482=EDGE_CURVE('',#557,#559,#109,.T.);
#483=VERTEX_POINT('',#1146);
#484=VERTEX_POINT('',#1147);
#485=VERTEX_POINT('',#1149);
#486=VERTEX_POINT('',#1151);
#487=VERTEX_POINT('',#1153);
#488=VERTEX_POINT('',#1155);
#489=VERTEX_POINT('',#1157);
#490=VERTEX_POINT('',#1159);
#491=VERTEX_POINT('',#1161);
#492=VERTEX_POINT('',#1163);
#493=VERTEX_POINT('',#1165);
#494=VERTEX_POINT('',#1171);
#495=VERTEX_POINT('',#1172);
#496=VERTEX_POINT('',#1177);
#497=VERTEX_POINT('',#1182);
#498=VERTEX_POINT('',#1187);
#499=VERTEX_POINT('',#1192);
#500=VERTEX_POINT('',#1197);
#501=VERTEX_POINT('',#1202);
#502=VERTEX_POINT('',#1208);
#503=VERTEX_POINT('',#1209);
#504=VERTEX_POINT('',#1211);
#505=VERTEX_POINT('',#1213);
#506=VERTEX_POINT('',#1215);
#507=VERTEX_POINT('',#1217);
#508=VERTEX_POINT('',#1219);
#509=VERTEX_POINT('',#1221);
#510=VERTEX_POINT('',#1223);
#511=VERTEX_POINT('',#1225);
#512=VERTEX_POINT('',#1227);
#513=VERTEX_POINT('',#1229);
#514=VERTEX_POINT('',#1231);
#515=VERTEX_POINT('',#1233);
#516=VERTEX_POINT('',#1235);
#517=VERTEX_POINT('',#1237);
#518=VERTEX_POINT('',#1241);
#519=VERTEX_POINT('',#1242);
#520=VERTEX_POINT('',#1244);
#521=VERTEX_POINT('',#1246);
#522=VERTEX_POINT('',#1248);
#523=VERTEX_POINT('',#1250);
#524=VERTEX_POINT('',#1252);
#525=VERTEX_POINT('',#1254);
#526=VERTEX_POINT('',#1256);
#527=VERTEX_POINT('',#1258);
#528=VERTEX_POINT('',#1260);
#529=VERTEX_POINT('',#1262);
#530=VERTEX_POINT('',#1264);
#531=VERTEX_POINT('',#1266);
#532=VERTEX_POINT('',#1268);
#533=VERTEX_POINT('',#1270);
#534=VERTEX_POINT('',#1276);
#535=VERTEX_POINT('',#1277);
#536=VERTEX_POINT('',#1281);
#537=VERTEX_POINT('',#1285);
#538=VERTEX_POINT('',#1289);
#539=VERTEX_POINT('',#1293);
#540=VERTEX_POINT('',#1297);
#541=VERTEX_POINT('',#1301);
#542=VERTEX_POINT('',#1307);
#543=VERTEX_POINT('',#1308);
#544=VERTEX_POINT('',#1310);
#545=VERTEX_POINT('',#1312);
#546=VERTEX_POINT('',#1314);
#547=VERTEX_POINT('',#1316);
#548=VERTEX_POINT('',#1318);
#549=VERTEX_POINT('',#1320);
#550=VERTEX_POINT('',#1322);
#551=VERTEX_POINT('',#1324);
#552=VERTEX_POINT('',#1326);
#553=VERTEX_POINT('',#1329);
#554=VERTEX_POINT('',#1330);
#555=VERTEX_POINT('',#1332);
#556=VERTEX_POINT('',#1334);
#557=VERTEX_POINT('',#1336);
#558=VERTEX_POINT('',#1340);
#559=VERTEX_POINT('',#1341);
#560=VERTEX_POINT('',#1343);
#561=VERTEX_POINT('',#1347);
#562=LINE('',#1145,#607);
#563=LINE('',#1148,#608);
#564=LINE('',#1150,#609);
#565=LINE('',#1152,#610);
#566=LINE('',#1154,#611);
#567=LINE('',#1156,#612);
#568=LINE('',#1158,#613);
#569=LINE('',#1160,#614);
#570=LINE('',#1162,#615);
#571=LINE('',#1164,#616);
#572=LINE('',#1166,#617);
#573=LINE('',#1207,#618);
#574=LINE('',#1212,#619);
#575=LINE('',#1216,#620);
#576=LINE('',#1220,#621);
#577=LINE('',#1224,#622);
#578=LINE('',#1228,#623);
#579=LINE('',#1232,#624);
#580=LINE('',#1236,#625);
#581=LINE('',#1240,#626);
#582=LINE('',#1245,#627);
#583=LINE('',#1249,#628);
#584=LINE('',#1253,#629);
#585=LINE('',#1257,#630);
#586=LINE('',#1261,#631);
#587=LINE('',#1265,#632);
#588=LINE('',#1269,#633);
#589=LINE('',#1306,#634);
#590=LINE('',#1309,#635);
#591=LINE('',#1311,#636);
#592=LINE('',#1313,#637);
#593=LINE('',#1315,#638);
#594=LINE('',#1317,#639);
#595=LINE('',#1319,#640);
#596=LINE('',#1321,#641);
#597=LINE('',#1323,#642);
#598=LINE('',#1325,#643);
#599=LINE('',#1327,#644);
#600=LINE('',#1328,#645);
#601=LINE('',#1331,#646);
#602=LINE('',#1333,#647);
#603=LINE('',#1335,#648);
#604=LINE('',#1339,#649);
#605=LINE('',#1342,#650);
#606=LINE('',#1344,#651);
#607=VECTOR('',#910,1.);
#608=VECTOR('',#911,1.);
#609=VECTOR('',#912,1.);
#610=VECTOR('',#913,1.);
#611=VECTOR('',#914,1.);
#612=VECTOR('',#915,1.);
#613=VECTOR('',#916,1.);
#614=VECTOR('',#917,1.);
#615=VECTOR('',#918,1.);
#616=VECTOR('',#919,1.);
#617=VECTOR('',#920,1.);
#618=VECTOR('',#921,1.);
#619=VECTOR('',#924,1.);
#620=VECTOR('',#927,1.);
#621=VECTOR('',#930,1.);
#622=VECTOR('',#933,1.);
#623=VECTOR('',#936,1.);
#624=VECTOR('',#939,1.);
#625=VECTOR('',#942,1.);
#626=VECTOR('',#947,1.);
#627=VECTOR('',#950,1.);
#628=VECTOR('',#953,1.);
#629=VECTOR('',#956,1.);
#630=VECTOR('',#959,1.);
#631=VECTOR('',#962,1.);
#632=VECTOR('',#965,1.);
#633=VECTOR('',#968,1.);
#634=VECTOR('',#975,1.);
#635=VECTOR('',#976,1.);
#636=VECTOR('',#977,1.);
#637=VECTOR('',#978,1.);
#638=VECTOR('',#979,1.);
#639=VECTOR('',#980,1.);
#640=VECTOR('',#981,1.);
#641=VECTOR('',#982,1.);
#642=VECTOR('',#983,1.);
#643=VECTOR('',#984,1.);
#644=VECTOR('',#985,1.);
#645=VECTOR('',#986,1.);
#646=VECTOR('',#987,1.);
#647=VECTOR('',#988,1.);
#648=VECTOR('',#989,1.);
#649=VECTOR('',#994,1.);
#650=VECTOR('',#995,1.);
#651=VECTOR('',#996,1.);
#652=EDGE_LOOP('',(#126,#127,#128,#129,#130,#131,#132,#133,#134,#135,#136));
#653=EDGE_LOOP('',(#137,#138,#139,#140,#141,#142,#143,#144));
#654=EDGE_LOOP('',(#145,#146,#147,#148,#149,#150,#151,#152,#153,#154,#155,
#156,#157,#158,#159,#160));
#655=EDGE_LOOP('',(#161,#162,#163,#164,#165,#166,#167,#168,#169,#170,#171,
#172,#173,#174,#175,#176));
#656=EDGE_LOOP('',(#177,#178,#179,#180,#181,#182,#183,#184));
#657=EDGE_LOOP('',(#185,#186,#187,#188,#189,#190,#191,#192,#193,#194,#195));
#658=EDGE_LOOP('',(#196,#197,#198,#199,#200));
#659=EDGE_LOOP('',(#201,#202,#203));
#660=EDGE_LOOP('',(#204,#205,#206));
#661=EDGE_LOOP('',(#207,#208,#209,#210));
#662=EDGE_LOOP('',(#211,#212,#213,#214,#215));
#663=EDGE_LOOP('',(#216,#217,#218,#219));
#664=EDGE_LOOP('',(#220,#221,#222,#223));
#665=EDGE_LOOP('',(#224,#225,#226,#227));
#666=EDGE_LOOP('',(#228,#229,#230,#231));
#667=EDGE_LOOP('',(#232,#233,#234,#235));
#668=EDGE_LOOP('',(#236,#237,#238,#239));
#669=EDGE_LOOP('',(#240,#241,#242,#243));
#670=EDGE_LOOP('',(#244,#245,#246,#247));
#671=EDGE_LOOP('',(#248,#249,#250,#251));
#672=EDGE_LOOP('',(#252,#253,#254,#255));
#673=EDGE_LOOP('',(#256,#257,#258,#259));
#674=EDGE_LOOP('',(#260,#261,#262,#263));
#675=EDGE_LOOP('',(#264,#265,#266,#267));
#676=EDGE_LOOP('',(#268,#269,#270,#271));
#677=EDGE_LOOP('',(#272,#273,#274,#275));
#678=EDGE_LOOP('',(#276,#277,#278,#279));
#679=EDGE_LOOP('',(#280,#281,#282,#283));
#680=EDGE_LOOP('',(#284,#285,#286,#287));
#681=EDGE_LOOP('',(#288,#289,#290,#291));
#682=EDGE_LOOP('',(#292,#293,#294,#295));
#683=EDGE_LOOP('',(#296,#297,#298,#299));
#684=EDGE_LOOP('',(#300,#301,#302,#303));
#685=EDGE_LOOP('',(#304,#305,#306,#307));
#686=EDGE_LOOP('',(#308,#309,#310,#311));
#687=EDGE_LOOP('',(#312,#313,#314,#315));
#688=EDGE_LOOP('',(#316,#317,#318,#319));
#689=EDGE_LOOP('',(#320,#321,#322,#323));
#690=EDGE_LOOP('',(#324,#325,#326,#327));
#691=EDGE_LOOP('',(#328,#329,#330,#331));
#692=EDGE_LOOP('',(#332,#333,#334,#335));
#693=EDGE_LOOP('',(#336,#337,#338,#339));
#694=EDGE_LOOP('',(#340,#341,#342,#343));
#695=EDGE_LOOP('',(#344,#345,#346,#347));
#696=EDGE_LOOP('',(#348,#349,#350,#351));
#697=EDGE_LOOP('',(#352,#353,#354,#355));
#698=EDGE_LOOP('',(#356,#357,#358,#359,#360));
#699=EDGE_LOOP('',(#361,#362,#363));
#700=FACE_BOUND('',#652,.T.);
#701=FACE_BOUND('',#653,.T.);
#702=FACE_BOUND('',#654,.T.);
#703=FACE_BOUND('',#655,.T.);
#704=FACE_BOUND('',#656,.T.);
#705=FACE_BOUND('',#657,.T.);
#706=FACE_BOUND('',#658,.T.);
#707=FACE_BOUND('',#659,.T.);
#708=FACE_BOUND('',#660,.T.);
#709=FACE_BOUND('',#661,.T.);
#710=FACE_BOUND('',#662,.T.);
#711=FACE_BOUND('',#663,.T.);
#712=FACE_BOUND('',#664,.T.);
#713=FACE_BOUND('',#665,.T.);
#714=FACE_BOUND('',#666,.T.);
#715=FACE_BOUND('',#667,.T.);
#716=FACE_BOUND('',#668,.T.);
#717=FACE_BOUND('',#669,.T.);
#718=FACE_BOUND('',#670,.T.);
#719=FACE_BOUND('',#671,.T.);
#720=FACE_BOUND('',#672,.T.);
#721=FACE_BOUND('',#673,.T.);
#722=FACE_BOUND('',#674,.T.);
#723=FACE_BOUND('',#675,.T.);
#724=FACE_BOUND('',#676,.T.);
#725=FACE_BOUND('',#677,.T.);
#726=FACE_BOUND('',#678,.T.);
#727=FACE_BOUND('',#679,.T.);
#728=FACE_BOUND('',#680,.T.);
#729=FACE_BOUND('',#681,.T.);
#730=FACE_BOUND('',#682,.T.);
#731=FACE_BOUND('',#683,.T.);
#732=FACE_BOUND('',#684,.T.);
#733=FACE_BOUND('',#685,.T.);
#734=FACE_BOUND('',#686,.T.);
#735=FACE_BOUND('',#687,.T.);
#736=FACE_BOUND('',#688,.T.);
#737=FACE_BOUND('',#689,.T.);
#738=FACE_BOUND('',#690,.T.);
#739=FACE_BOUND('',#691,.T.);
#740=FACE_BOUND('',#692,.T.);
#741=FACE_BOUND('',#693,.T.);
#742=FACE_BOUND('',#694,.T.);
#743=FACE_BOUND('',#695,.T.);
#744=FACE_BOUND('',#696,.T.);
#745=FACE_BOUND('',#697,.T.);
#746=FACE_BOUND('',#698,.T.);
#747=FACE_BOUND('',#699,.T.);
#748=PLANE('',#811);
#749=PLANE('',#820);
#750=PLANE('',#829);
#751=PLANE('',#830);
#752=PLANE('',#832);
#753=ADVANCED_FACE('',(#700,#701,#702),#748,.T.);
#754=ADVANCED_FACE('',(#703),#749,.F.);
#755=ADVANCED_FACE('',(#704),#750,.T.);
#756=ADVANCED_FACE('',(#705,#706),#751,.T.);
#757=ADVANCED_FACE('',(#707),#752,.T.);
#758=ADVANCED_FACE('',(#708),#44,.T.);
#759=ADVANCED_FACE('',(#709),#45,.T.);
#760=ADVANCED_FACE('',(#710),#46,.T.);
#761=ADVANCED_FACE('',(#711),#21,.T.);
#762=ADVANCED_FACE('',(#712),#47,.T.);
#763=ADVANCED_FACE('',(#713),#48,.T.);
#764=ADVANCED_FACE('',(#714),#22,.T.);
#765=ADVANCED_FACE('',(#715),#23,.T.);
#766=ADVANCED_FACE('',(#716),#49,.T.);
#767=ADVANCED_FACE('',(#717),#50,.T.);
#768=ADVANCED_FACE('',(#718),#24,.T.);
#769=ADVANCED_FACE('',(#719),#25,.T.);
#770=ADVANCED_FACE('',(#720),#51,.T.);
#771=ADVANCED_FACE('',(#721),#52,.T.);
#772=ADVANCED_FACE('',(#722),#26,.T.);
#773=ADVANCED_FACE('',(#723),#27,.T.);
#774=ADVANCED_FACE('',(#724),#53,.T.);
#775=ADVANCED_FACE('',(#725),#54,.T.);
#776=ADVANCED_FACE('',(#726),#28,.T.);
#777=ADVANCED_FACE('',(#727),#55,.T.);
#778=ADVANCED_FACE('',(#728),#56,.T.);
#779=ADVANCED_FACE('',(#729),#57,.T.);
#780=ADVANCED_FACE('',(#730),#58,.T.);
#781=ADVANCED_FACE('',(#731),#59,.T.);
#782=ADVANCED_FACE('',(#732),#60,.T.);
#783=ADVANCED_FACE('',(#733),#61,.T.);
#784=ADVANCED_FACE('',(#734),#62,.T.);
#785=ADVANCED_FACE('',(#735),#63,.T.);
#786=ADVANCED_FACE('',(#736),#64,.T.);
#787=ADVANCED_FACE('',(#737),#65,.T.);
#788=ADVANCED_FACE('',(#738),#13,.T.);
#789=ADVANCED_FACE('',(#739),#14,.T.);
#790=ADVANCED_FACE('',(#740),#15,.T.);
#791=ADVANCED_FACE('',(#741),#16,.T.);
#792=ADVANCED_FACE('',(#742),#17,.T.);
#793=ADVANCED_FACE('',(#743),#18,.T.);
#794=ADVANCED_FACE('',(#744),#19,.T.);
#795=ADVANCED_FACE('',(#745),#20,.T.);
#796=ADVANCED_FACE('',(#746),#66,.T.);
#797=ADVANCED_FACE('',(#747),#12,.T.);
#798=CLOSED_SHELL('',(#753,#754,#755,#756,#757,#758,#759,#760,#761,#762,
#763,#764,#765,#766,#767,#768,#769,#770,#771,#772,#773,#774,#775,#776,#777,
#778,#779,#780,#781,#782,#783,#784,#785,#786,#787,#788,#789,#790,#791,#792,
#793,#794,#795,#796,#797));
#799=STYLED_ITEM('',(#800),#807);
#800=PRESENTATION_STYLE_ASSIGNMENT((#801));
#801=SURFACE_STYLE_USAGE(.BOTH.,#802);
#802=SURFACE_SIDE_STYLE('',(#803));
#803=SURFACE_STYLE_FILL_AREA(#804);
#804=FILL_AREA_STYLE('',(#805));
#805=FILL_AREA_STYLE_COLOUR('',#806);
#806=COLOUR_RGB('',0.231372549019608,0.380392156862745,0.705882352941177);
#807=MANIFOLD_SOLID_BREP('CALIBRATION_spacer_0.4',#798);
#808=SHAPE_DEFINITION_REPRESENTATION(#1521,#809);
#809=SHAPE_REPRESENTATION('CALIBRATION_spacer_0.4',(#810),#1516);
#810=AXIS2_PLACEMENT_3D('',#1143,#906,#907);
#811=AXIS2_PLACEMENT_3D('',#1144,#908,#909);
#812=AXIS2_PLACEMENT_3D('',#1210,#922,#923);
#813=AXIS2_PLACEMENT_3D('',#1214,#925,#926);
#814=AXIS2_PLACEMENT_3D('',#1218,#928,#929);
#815=AXIS2_PLACEMENT_3D('',#1222,#931,#932);
#816=AXIS2_PLACEMENT_3D('',#1226,#934,#935);
#817=AXIS2_PLACEMENT_3D('',#1230,#937,#938);
#818=AXIS2_PLACEMENT_3D('',#1234,#940,#941);
#819=AXIS2_PLACEMENT_3D('',#1238,#943,#944);
#820=AXIS2_PLACEMENT_3D('',#1239,#945,#946);
#821=AXIS2_PLACEMENT_3D('',#1243,#948,#949);
#822=AXIS2_PLACEMENT_3D('',#1247,#951,#952);
#823=AXIS2_PLACEMENT_3D('',#1251,#954,#955);
#824=AXIS2_PLACEMENT_3D('',#1255,#957,#958);
#825=AXIS2_PLACEMENT_3D('',#1259,#960,#961);
#826=AXIS2_PLACEMENT_3D('',#1263,#963,#964);
#827=AXIS2_PLACEMENT_3D('',#1267,#966,#967);
#828=AXIS2_PLACEMENT_3D('',#1271,#969,#970);
#829=AXIS2_PLACEMENT_3D('',#1272,#971,#972);
#830=AXIS2_PLACEMENT_3D('',#1305,#973,#974);
#831=AXIS2_PLACEMENT_3D('',#1337,#990,#991);
#832=AXIS2_PLACEMENT_3D('',#1338,#992,#993);
#833=AXIS2_PLACEMENT_3D('',#1345,#997,#998);
#834=AXIS2_PLACEMENT_3D('',#1346,#999,#1000);
#835=AXIS2_PLACEMENT_3D('',#1348,#1001,#1002);
#836=AXIS2_PLACEMENT_3D('',#1349,#1003,#1004);
#837=AXIS2_PLACEMENT_3D('',#1350,#1005,#1006);
#838=AXIS2_PLACEMENT_3D('',#1351,#1007,#1008);
#839=AXIS2_PLACEMENT_3D('',#1352,#1009,#1010);
#840=AXIS2_PLACEMENT_3D('',#1353,#1011,#1012);
#841=AXIS2_PLACEMENT_3D('',#1354,#1013,#1014);
#842=AXIS2_PLACEMENT_3D('',#1355,#1015,#1016);
#843=AXIS2_PLACEMENT_3D('',#1356,#1017,#1018);
#844=AXIS2_PLACEMENT_3D('',#1357,#1019,#1020);
#845=AXIS2_PLACEMENT_3D('',#1358,#1021,#1022);
#846=AXIS2_PLACEMENT_3D('',#1359,#1023,#1024);
#847=AXIS2_PLACEMENT_3D('',#1360,#1025,#1026);
#848=AXIS2_PLACEMENT_3D('',#1361,#1027,#1028);
#849=AXIS2_PLACEMENT_3D('',#1362,#1029,#1030);
#850=AXIS2_PLACEMENT_3D('',#1363,#1031,#1032);
#851=AXIS2_PLACEMENT_3D('',#1364,#1033,#1034);
#852=AXIS2_PLACEMENT_3D('',#1365,#1035,#1036);
#853=AXIS2_PLACEMENT_3D('',#1366,#1037,#1038);
#854=AXIS2_PLACEMENT_3D('',#1367,#1039,#1040);
#855=AXIS2_PLACEMENT_3D('',#1368,#1041,#1042);
#856=AXIS2_PLACEMENT_3D('',#1369,#1043,#1044);
#857=AXIS2_PLACEMENT_3D('',#1370,#1045,#1046);
#858=AXIS2_PLACEMENT_3D('',#1371,#1047,#1048);
#859=AXIS2_PLACEMENT_3D('',#1372,#1049,#1050);
#860=AXIS2_PLACEMENT_3D('',#1373,#1051,#1052);
#861=AXIS2_PLACEMENT_3D('',#1374,#1053,#1054);
#862=AXIS2_PLACEMENT_3D('',#1375,#1055,#1056);
#863=AXIS2_PLACEMENT_3D('',#1376,#1057,#1058);
#864=AXIS2_PLACEMENT_3D('',#1377,#1059,#1060);
#865=AXIS2_PLACEMENT_3D('',#1378,#1061,#1062);
#866=AXIS2_PLACEMENT_3D('',#1379,#1063,#1064);
#867=AXIS2_PLACEMENT_3D('',#1380,#1065,#1066);
#868=AXIS2_PLACEMENT_3D('',#1381,#1067,#1068);
#869=AXIS2_PLACEMENT_3D('',#1382,#1069,#1070);
#870=AXIS2_PLACEMENT_3D('',#1383,#1071,#1072);
#871=AXIS2_PLACEMENT_3D('',#1384,#1073,#1074);
#872=AXIS2_PLACEMENT_3D('',#1385,#1075,#1076);
#873=AXIS2_PLACEMENT_3D('',#1386,#1077,#1078);
#874=AXIS2_PLACEMENT_3D('',#1387,#1079,#1080);
#875=AXIS2_PLACEMENT_3D('',#1388,#1081,#1082);
#876=AXIS2_PLACEMENT_3D('',#1389,#1083,#1084);
#877=AXIS2_PLACEMENT_3D('',#1390,#1085,#1086);
#878=AXIS2_PLACEMENT_3D('',#1391,#1087,#1088);
#879=AXIS2_PLACEMENT_3D('',#1392,#1089,#1090);
#880=AXIS2_PLACEMENT_3D('',#1393,#1091,#1092);
#881=AXIS2_PLACEMENT_3D('',#1394,#1093,#1094);
#882=AXIS2_PLACEMENT_3D('',#1395,#1095,#1096);
#883=AXIS2_PLACEMENT_3D('',#1396,#1097,#1098);
#884=AXIS2_PLACEMENT_3D('',#1397,#1099,#1100);
#885=AXIS2_PLACEMENT_3D('',#1398,#1101,#1102);
#886=AXIS2_PLACEMENT_3D('',#1399,#1103,#1104);
#887=AXIS2_PLACEMENT_3D('',#1400,#1105,#1106);
#888=AXIS2_PLACEMENT_3D('',#1401,#1107,#1108);
#889=AXIS2_PLACEMENT_3D('',#1402,#1109,#1110);
#890=AXIS2_PLACEMENT_3D('',#1403,#1111,#1112);
#891=AXIS2_PLACEMENT_3D('',#1404,#1113,#1114);
#892=AXIS2_PLACEMENT_3D('',#1405,#1115,#1116);
#893=AXIS2_PLACEMENT_3D('',#1406,#1117,#1118);
#894=AXIS2_PLACEMENT_3D('',#1407,#1119,#1120);
#895=AXIS2_PLACEMENT_3D('',#1420,#1121,#1122);
#896=AXIS2_PLACEMENT_3D('',#1421,#1123,#1124);
#897=AXIS2_PLACEMENT_3D('',#1434,#1125,#1126);
#898=AXIS2_PLACEMENT_3D('',#1447,#1127,#1128);
#899=AXIS2_PLACEMENT_3D('',#1460,#1129,#1130);
#900=AXIS2_PLACEMENT_3D('',#1473,#1131,#1132);
#901=AXIS2_PLACEMENT_3D('',#1486,#1133,#1134);
#902=AXIS2_PLACEMENT_3D('',#1499,#1135,#1136);
#903=AXIS2_PLACEMENT_3D('',#1512,#1137,#1138);
#904=AXIS2_PLACEMENT_3D('',#1513,#1139,#1140);
#905=AXIS2_PLACEMENT_3D('',#1514,#1141,#1142);
#906=DIRECTION('',(0.,0.,1.));
#907=DIRECTION('',(1.,0.,0.));
#908=DIRECTION('',(0.,0.,1.));
#909=DIRECTION('',(1.,0.,0.));
#910=DIRECTION('',(1.,0.,0.));
#911=DIRECTION('',(0.,-1.,0.));
#912=DIRECTION('',(1.,0.,0.));
#913=DIRECTION('',(0.,-1.,0.));
#914=DIRECTION('',(-1.,0.,0.));
#915=DIRECTION('',(0.,-1.,0.));
#916=DIRECTION('',(-1.,0.,0.));
#917=DIRECTION('',(0.,1.,0.));
#918=DIRECTION('',(-1.,0.,0.));
#919=DIRECTION('',(-0.0718699026543979,0.997414014886721,0.));
#920=DIRECTION('',(0.534830718123612,0.844959231532138,0.));
#921=DIRECTION('',(1.,0.,0.));
#922=DIRECTION('',(0.,0.,1.));
#923=DIRECTION('',(1.,0.,0.));
#924=DIRECTION('',(-1.44560289664734E-16,-1.,0.));
#925=DIRECTION('',(0.,0.,1.));
#926=DIRECTION('',(1.,0.,0.));
#927=DIRECTION('',(1.,0.,0.));
#928=DIRECTION('',(0.,0.,1.));
#929=DIRECTION('',(1.,0.,0.));
#930=DIRECTION('',(0.,-1.,0.));
#931=DIRECTION('',(0.,0.,1.));
#932=DIRECTION('',(1.,0.,0.));
#933=DIRECTION('',(1.,0.,0.));
#934=DIRECTION('',(0.,0.,1.));
#935=DIRECTION('',(1.,0.,0.));
#936=DIRECTION('',(0.,1.,0.));
#937=DIRECTION('',(0.,0.,1.));
#938=DIRECTION('',(1.,0.,0.));
#939=DIRECTION('',(1.,0.,0.));
#940=DIRECTION('',(0.,0.,1.));
#941=DIRECTION('',(1.,0.,0.));
#942=DIRECTION('',(0.,1.,0.));
#943=DIRECTION('',(0.,0.,1.));
#944=DIRECTION('',(1.,0.,0.));
#945=DIRECTION('',(0.,0.,1.));
#946=DIRECTION('',(1.,0.,0.));
#947=DIRECTION('',(-1.44560289664734E-16,-1.,0.));
#948=DIRECTION('',(0.,0.,1.));
#949=DIRECTION('',(1.,0.,0.));
#950=DIRECTION('',(1.,0.,0.));
#951=DIRECTION('',(0.,0.,1.));
#952=DIRECTION('',(1.,0.,0.));
#953=DIRECTION('',(0.,1.,0.));
#954=DIRECTION('',(0.,0.,1.));
#955=DIRECTION('',(1.,0.,0.));
#956=DIRECTION('',(1.,0.,0.));
#957=DIRECTION('',(0.,0.,1.));
#958=DIRECTION('',(1.,0.,0.));
#959=DIRECTION('',(0.,1.,0.));
#960=DIRECTION('',(0.,0.,1.));
#961=DIRECTION('',(1.,0.,0.));
#962=DIRECTION('',(1.,0.,0.));
#963=DIRECTION('',(0.,0.,1.));
#964=DIRECTION('',(1.,0.,0.));
#965=DIRECTION('',(0.,-1.,0.));
#966=DIRECTION('',(0.,0.,1.));
#967=DIRECTION('',(1.,0.,0.));
#968=DIRECTION('',(1.,0.,0.));
#969=DIRECTION('',(0.,0.,1.));
#970=DIRECTION('',(1.,0.,0.));
#971=DIRECTION('',(0.,0.,1.));
#972=DIRECTION('',(1.,0.,0.));
#973=DIRECTION('',(0.,0.,1.));
#974=DIRECTION('',(1.,0.,0.));
#975=DIRECTION('',(1.,0.,0.));
#976=DIRECTION('',(0.,-1.,0.));
#977=DIRECTION('',(1.,0.,0.));
#978=DIRECTION('',(0.534830718123612,0.844959231532138,0.));
#979=DIRECTION('',(-0.0718699026543979,0.997414014886721,0.));
#980=DIRECTION('',(-1.,0.,0.));
#981=DIRECTION('',(0.,1.,0.));
#982=DIRECTION('',(-1.,0.,0.));
#983=DIRECTION('',(0.,-1.,0.));
#984=DIRECTION('',(-1.,0.,0.));
#985=DIRECTION('',(0.,-1.,0.));
#986=DIRECTION('',(1.,0.,0.));
#987=DIRECTION('',(-0.533081982944659,-0.846063590671405,0.));
#988=DIRECTION('',(-0.497045922110834,-0.867724236905361,0.));
#989=DIRECTION('',(0.,1.,0.));
#990=DIRECTION('',(0.,0.,1.));
#991=DIRECTION('',(1.,0.,0.));
#992=DIRECTION('',(0.,0.,1.));
#993=DIRECTION('',(1.,0.,0.));
#994=DIRECTION('',(1.,0.,0.));
#995=DIRECTION('',(0.,1.,0.));
#996=DIRECTION('',(-0.533081982944659,-0.846063590671405,0.));
#997=DIRECTION('',(0.497045922110834,0.867724236905361,0.));
#998=DIRECTION('',(-0.867724236905361,0.497045922110834,0.));
#999=DIRECTION('',(-0.515177805318051,-0.857083326700314,0.));
#1000=DIRECTION('',(-0.857083326700314,0.51517780531805,0.));
#1001=DIRECTION('',(0.966365416627003,-0.257172863162736,0.));
#1002=DIRECTION('',(0.257172863162736,0.966365416627003,0.));
#1003=DIRECTION('',(1.,0.,0.));
#1004=DIRECTION('',(0.,0.,-1.));
#1005=DIRECTION('',(1.,0.,0.));
#1006=DIRECTION('',(0.,0.,-1.));
#1007=DIRECTION('',(0.483175960212913,-0.875523267236417,0.));
#1008=DIRECTION('',(0.875523267236416,0.483175960212913,0.));
#1009=DIRECTION('',(-0.533081982944659,-0.846063590671405,0.));
#1010=DIRECTION('',(0.846063590671405,-0.533081982944659,0.));
#1011=DIRECTION('',(-0.960745437322344,0.277431441376599,0.));
#1012=DIRECTION('',(-0.2774314413766,-0.960745437322344,0.));
#1013=DIRECTION('',(0.,0.,1.));
#1014=DIRECTION('',(1.,0.,0.));
#1015=DIRECTION('',(0.,1.,0.));
#1016=DIRECTION('',(0.,0.,1.));
#1017=DIRECTION('',(1.,0.,0.));
#1018=DIRECTION('',(0.,0.,-1.));
#1019=DIRECTION('',(0.,1.,0.));
#1020=DIRECTION('',(0.,0.,1.));
#1021=DIRECTION('',(0.,1.,0.));
#1022=DIRECTION('',(0.,0.,1.));
#1023=DIRECTION('',(-1.,0.,0.));
#1024=DIRECTION('',(0.,0.,1.));
#1025=DIRECTION('',(1.,0.,0.));
#1026=DIRECTION('',(0.,0.,-1.));
#1027=DIRECTION('',(0.,0.,1.));
#1028=DIRECTION('',(1.,0.,0.));
#1029=DIRECTION('',(-1.,0.,0.));
#1030=DIRECTION('',(0.,0.,1.));
#1031=DIRECTION('',(0.,0.,1.));
#1032=DIRECTION('',(1.,0.,0.));
#1033=DIRECTION('',(0.,-1.,0.));
#1034=DIRECTION('',(0.,0.,-1.));
#1035=DIRECTION('',(-1.,0.,0.));
#1036=DIRECTION('',(0.,0.,1.));
#1037=DIRECTION('',(-1.,0.,0.));
#1038=DIRECTION('',(0.,0.,1.));
#1039=DIRECTION('',(0.,1.,0.));
#1040=DIRECTION('',(0.,0.,1.));
#1041=DIRECTION('',(0.,-1.,0.));
#1042=DIRECTION('',(0.,0.,-1.));
#1043=DIRECTION('',(0.,0.,1.));
#1044=DIRECTION('',(1.,0.,0.));
#1045=DIRECTION('',(0.,-1.,0.));
#1046=DIRECTION('',(0.,0.,-1.));
#1047=DIRECTION('',(0.,0.,1.));
#1048=DIRECTION('',(1.,0.,0.));
#1049=DIRECTION('',(-1.,0.,0.));
#1050=DIRECTION('',(0.,0.,1.));
#1051=DIRECTION('',(0.,-1.,0.));
#1052=DIRECTION('',(0.,0.,-1.));
#1053=DIRECTION('',(0.,-1.,0.));
#1054=DIRECTION('',(0.,0.,-1.));
#1055=DIRECTION('',(1.,0.,0.));
#1056=DIRECTION('',(0.,0.,-1.));
#1057=DIRECTION('',(-1.,0.,0.));
#1058=DIRECTION('',(0.,0.,1.));
#1059=DIRECTION('',(0.,0.,1.));
#1060=DIRECTION('',(1.,0.,0.));
#1061=DIRECTION('',(-1.,0.,0.));
#1062=DIRECTION('',(0.,0.,1.));
#1063=DIRECTION('',(0.,0.,1.));
#1064=DIRECTION('',(1.,0.,0.));
#1065=DIRECTION('',(0.,1.,0.));
#1066=DIRECTION('',(0.,0.,1.));
#1067=DIRECTION('',(-1.,0.,0.));
#1068=DIRECTION('',(0.,0.,1.));
#1069=DIRECTION('',(-1.,0.,0.));
#1070=DIRECTION('',(0.,0.,1.));
#1071=DIRECTION('',(-1.44560289664734E-16,-1.,0.));
#1072=DIRECTION('',(1.,-1.44560289664734E-16,0.));
#1073=DIRECTION('',(0.,1.,0.));
#1074=DIRECTION('',(0.,0.,1.));
#1075=DIRECTION('',(0.,0.,1.));
#1076=DIRECTION('',(1.,0.,0.));
#1077=DIRECTION('',(0.,1.,0.));
#1078=DIRECTION('',(0.,0.,1.));
#1079=DIRECTION('',(-0.707106781186548,0.707106781186548,0.));
#1080=DIRECTION('',(0.707106781186548,0.707106781186548,0.));
#1081=DIRECTION('',(-0.707106781186548,0.707106781186548,0.));
#1082=DIRECTION('',(0.707106781186548,0.707106781186548,0.));
#1083=DIRECTION('',(-1.,0.,0.));
#1084=DIRECTION('',(0.,0.,1.));
#1085=DIRECTION('',(-0.707106781186548,-0.707106781186548,0.));
#1086=DIRECTION('',(-0.707106781186548,0.707106781186548,0.));
#1087=DIRECTION('',(-1.,0.,0.));
#1088=DIRECTION('',(0.,0.,1.));
#1089=DIRECTION('',(-0.732075782502876,0.681223200333636,0.));
#1090=DIRECTION('',(0.681223200333636,0.732075782502877,0.));
#1091=DIRECTION('',(0.,-1.,0.));
#1092=DIRECTION('',(0.,0.,-1.));
#1093=DIRECTION('',(-0.707106781186548,-0.707106781186548,0.));
#1094=DIRECTION('',(-0.707106781186548,0.707106781186548,0.));
#1095=DIRECTION('',(-0.0718699026543979,0.997414014886721,0.));
#1096=DIRECTION('',(-0.997414014886721,-0.0718699026543979,0.));
#1097=DIRECTION('',(0.243708420878112,0.969848547760472,0.));
#1098=DIRECTION('',(0.969848547760472,-0.243708420878112,0.));
#1099=DIRECTION('',(-1.,0.,0.));
#1100=DIRECTION('',(0.,0.,1.));
#1101=DIRECTION('',(-0.707106781186548,-0.707106781186548,0.));
#1102=DIRECTION('',(-0.707106781186548,0.707106781186548,0.));
#1103=DIRECTION('',(0.534830718123612,0.844959231532138,0.));
#1104=DIRECTION('',(-0.844959231532138,0.534830718123612,0.));
#1105=DIRECTION('',(0.87602246492987,0.482270298627434,0.));
#1106=DIRECTION('',(0.482270298627434,-0.876022464929871,0.));
#1107=DIRECTION('',(0.,-1.,0.));
#1108=DIRECTION('',(0.,0.,-1.));
#1109=DIRECTION('',(0.707106781186548,-0.707106781186548,0.));
#1110=DIRECTION('',(-0.707106781186548,-0.707106781186548,0.));
#1111=DIRECTION('',(1.,0.,0.));
#1112=DIRECTION('',(0.,0.,-1.));
#1113=DIRECTION('',(0.707106781186548,-0.707106781186548,0.));
#1114=DIRECTION('',(-0.707106781186548,-0.707106781186548,0.));
#1115=DIRECTION('',(1.,0.,0.));
#1116=DIRECTION('',(0.,0.,-1.));
#1117=DIRECTION('',(0.707106781186548,-0.707106781186548,0.));
#1118=DIRECTION('',(0.707106781186548,0.707106781186548,0.));
#1119=DIRECTION('',(0.,-1.,0.));
#1120=DIRECTION('',(0.,0.,-1.));
#1121=DIRECTION('',(-0.734319532241096,0.678803966229734,0.));
#1122=DIRECTION('',(-0.678803966229734,-0.734319532241096,0.));
#1123=DIRECTION('',(0.,-1.,0.));
#1124=DIRECTION('',(0.,0.,-1.));
#1125=DIRECTION('',(-0.735880084029156,-0.677111882874051,0.));
#1126=DIRECTION('',(0.677111882874051,-0.735880084029156,0.));
#1127=DIRECTION('',(-1.,0.,0.));
#1128=DIRECTION('',(0.,0.,1.));
#1129=DIRECTION('',(-1.,0.,0.));
#1130=DIRECTION('',(0.,0.,1.));
#1131=DIRECTION('',(-0.733153558883905,-0.680063128757812,0.));
#1132=DIRECTION('',(0.680063128757812,-0.733153558883905,0.));
#1133=DIRECTION('',(-0.734705291935039,0.67838641938253,0.));
#1134=DIRECTION('',(-0.67838641938253,-0.734705291935039,0.));
#1135=DIRECTION('',(0.,-1.,0.));
#1136=DIRECTION('',(0.,0.,-1.));
#1137=DIRECTION('',(0.,1.,0.));
#1138=DIRECTION('',(0.,0.,1.));
#1139=DIRECTION('',(0.,-1.,0.));
#1140=DIRECTION('',(0.,0.,-1.));
#1141=DIRECTION('',(1.,0.,0.));
#1142=DIRECTION('',(0.,0.,-1.));
#1143=CARTESIAN_POINT('',(0.,0.,0.));
#1144=CARTESIAN_POINT('',(0.0525,-0.0425,0.));
#1145=CARTESIAN_POINT('',(0.0525,0.0280741319444445,0.));
#1146=CARTESIAN_POINT('',(0.0371707114217263,0.0280741319444445,0.));
#1147=CARTESIAN_POINT('',(0.0394599826388889,0.0280741319444445,0.));
#1148=CARTESIAN_POINT('',(0.0394599826388889,-0.0425,0.));
#1149=CARTESIAN_POINT('',(0.0394599826388889,0.0219174479166667,0.));
#1150=CARTESIAN_POINT('',(0.0525,0.0219174479166667,0.));
#1151=CARTESIAN_POINT('',(0.0405797743055556,0.0219174479166667,0.));
#1152=CARTESIAN_POINT('',(0.0405797743055556,-0.0425,0.));
#1153=CARTESIAN_POINT('',(0.0405797743055556,0.0199354166666666,0.));
#1154=CARTESIAN_POINT('',(0.0525,0.0199354166666666,0.));
#1155=CARTESIAN_POINT('',(0.0394599826388889,0.0199354166666666,0.));
#1156=CARTESIAN_POINT('',(0.0394599826388889,-0.0425,0.));
#1157=CARTESIAN_POINT('',(0.0394599826388889,0.0178,0.));
#1158=CARTESIAN_POINT('',(0.0525,0.0178,0.));
#1159=CARTESIAN_POINT('',(0.0371003472222223,0.0178,0.));
#1160=CARTESIAN_POINT('',(0.0371003472222223,-0.0425,0.));
#1161=CARTESIAN_POINT('',(0.0371003472222223,0.0199354166666666,0.));
#1162=CARTESIAN_POINT('',(0.0525,0.0199354166666666,0.));
#1163=CARTESIAN_POINT('',(0.0330669309042936,0.0199354166666666,0.));
#1164=CARTESIAN_POINT('',(0.0376429316189107,-0.0435705444703421,0.));
#1165=CARTESIAN_POINT('',(0.0329598462897567,0.0214215421708479,0.));
#1166=CARTESIAN_POINT('',(0.00966239413003483,-0.0153852391273528,0.));
#1167=CARTESIAN_POINT('',(0.0307161458333334,0.0177262152777778,0.));
#1168=CARTESIAN_POINT('',(0.030376988197251,0.0177262152777778,0.));
#1169=CARTESIAN_POINT('',(0.0300370521366812,0.017836194353719,0.));
#1170=CARTESIAN_POINT('',(0.0297872827855679,0.0180668176221686,0.));
#1171=CARTESIAN_POINT('',(0.0307161458333334,0.0177262152777778,0.));
#1172=CARTESIAN_POINT('',(0.0297872827855679,0.0180668176221686,0.));
#1173=CARTESIAN_POINT('',(0.0297872827855679,0.0180668176221686,0.));
#1174=CARTESIAN_POINT('',(0.0295400994016082,0.0182950531509119,0.));
#1175=CARTESIAN_POINT('',(0.0294115451388887,0.0186273720233845,0.));
#1176=CARTESIAN_POINT('',(0.0294115451388887,0.0189635416666666,0.));
#1177=CARTESIAN_POINT('',(0.0294115451388889,0.0189635416666666,0.));
#1178=CARTESIAN_POINT('',(0.0294115451388889,0.0189635416666666,0.));
#1179=CARTESIAN_POINT('',(0.0294115451388889,0.0193023448441582,0.));
#1180=CARTESIAN_POINT('',(0.0295413419784851,0.0196377961918944,0.));
#1181=CARTESIAN_POINT('',(0.0297902026520263,0.0198686359201101,0.));
#1182=CARTESIAN_POINT('',(0.0297902026520263,0.0198686359201101,0.));
#1183=CARTESIAN_POINT('',(0.0297902026520263,0.0198686359201101,0.));
#1184=CARTESIAN_POINT('',(0.030039737445716,0.0201001009528775,0.));
#1185=CARTESIAN_POINT('',(0.0303761852335113,0.0202138888888889,0.));
#1186=CARTESIAN_POINT('',(0.0307161458333334,0.0202138888888889,0.));
#1187=CARTESIAN_POINT('',(0.0307161458333334,0.0202138888888889,0.));
#1188=CARTESIAN_POINT('',(0.0307161458333334,0.0202138888888889,0.));
#1189=CARTESIAN_POINT('',(0.0310573071483886,0.0202138888888889,0.));
#1190=CARTESIAN_POINT('',(0.0313983533138249,0.0201009665248822,0.));
#1191=CARTESIAN_POINT('',(0.0316494326682459,0.0198688691147815,0.));
#1192=CARTESIAN_POINT('',(0.0316494326682459,0.0198688691147815,0.));
#1193=CARTESIAN_POINT('',(0.0316494326682459,0.0198688691147815,0.));
#1194=CARTESIAN_POINT('',(0.0318989117001661,0.0196382510406011,0.));
#1195=CARTESIAN_POINT('',(0.0320294270833335,0.0193030404002456,0.));
#1196=CARTESIAN_POINT('',(0.0320294270833335,0.0189635416666667,0.));
#1197=CARTESIAN_POINT('',(0.0320294270833333,0.0189635416666666,0.));
#1198=CARTESIAN_POINT('',(0.0320294270833333,0.0189635416666666,0.));
#1199=CARTESIAN_POINT('',(0.0320294270833333,0.0186265097700272,0.));
#1200=CARTESIAN_POINT('',(0.0319010365944781,0.0182954093674338,0.));
#1201=CARTESIAN_POINT('',(0.0316523494599081,0.0180665826637497,0.));
#1202=CARTESIAN_POINT('',(0.0316523494599081,0.0180665826637497,0.));
#1203=CARTESIAN_POINT('',(0.0316523494599081,0.0180665826637497,0.));
#1204=CARTESIAN_POINT('',(0.0313998270538871,0.0178342269776539,0.));
#1205=CARTESIAN_POINT('',(0.0310586832353201,0.0177262152777778,0.));
#1206=CARTESIAN_POINT('',(0.0307161458333334,0.0177262152777778,0.));
#1207=CARTESIAN_POINT('',(0.023,0.0148,0.));
#1208=CARTESIAN_POINT('',(0.0245,0.0148,0.));
#1209=CARTESIAN_POINT('',(0.023,0.0148,0.));
#1210=CARTESIAN_POINT('',(0.023,0.012,0.));
#1211=CARTESIAN_POINT('',(0.0202,0.012,0.));
#1212=CARTESIAN_POINT('',(0.0202,-0.0425,0.));
#1213=CARTESIAN_POINT('',(0.0202,-0.012,0.));
#1214=CARTESIAN_POINT('',(0.023,-0.012,0.));
#1215=CARTESIAN_POINT('',(0.023,-0.0148,0.));
#1216=CARTESIAN_POINT('',(0.0525,-0.0148,0.));
#1217=CARTESIAN_POINT('',(0.047,-0.0148,0.));
#1218=CARTESIAN_POINT('',(0.047,-0.012,0.));
#1219=CARTESIAN_POINT('',(0.0498,-0.012,0.));
#1220=CARTESIAN_POINT('',(0.0498,0.012,0.));
#1221=CARTESIAN_POINT('',(0.0498,0.012,0.));
#1222=CARTESIAN_POINT('',(0.047,0.012,0.));
#1223=CARTESIAN_POINT('',(0.047,0.0148,0.));
#1224=CARTESIAN_POINT('',(0.0455,0.0148,0.));
#1225=CARTESIAN_POINT('',(0.0455,0.0148,0.));
#1226=CARTESIAN_POINT('',(0.0455,0.018,0.));
#1227=CARTESIAN_POINT('',(0.0423,0.018,0.));
#1228=CARTESIAN_POINT('',(0.0423,-0.0425,0.));
#1229=CARTESIAN_POINT('',(0.0423,0.027,0.));
#1230=CARTESIAN_POINT('',(0.0395,0.027,0.));
#1231=CARTESIAN_POINT('',(0.0395,0.0298,0.));
#1232=CARTESIAN_POINT('',(0.0305,0.0298,0.));
#1233=CARTESIAN_POINT('',(0.0305,0.0298,0.));
#1234=CARTESIAN_POINT('',(0.0305,0.027,0.));
#1235=CARTESIAN_POINT('',(0.0277,0.027,0.));
#1236=CARTESIAN_POINT('',(0.0277,0.018,0.));
#1237=CARTESIAN_POINT('',(0.0277,0.018,0.));
#1238=CARTESIAN_POINT('',(0.0245,0.018,0.));
#1239=CARTESIAN_POINT('',(0.0525,-0.0425,-0.0004));
#1240=CARTESIAN_POINT('',(0.0202,0.012,-0.0004));
#1241=CARTESIAN_POINT('',(0.0202,-0.012,-0.0004));
#1242=CARTESIAN_POINT('',(0.0202,0.012,-0.0004));
#1243=CARTESIAN_POINT('',(0.023,0.012,-0.0004));
#1244=CARTESIAN_POINT('',(0.023,0.0148,-0.0004));
#1245=CARTESIAN_POINT('',(0.0525,0.0148,-0.0004));
#1246=CARTESIAN_POINT('',(0.0245,0.0148,-0.0004));
#1247=CARTESIAN_POINT('',(0.0245,0.018,-0.0004));
#1248=CARTESIAN_POINT('',(0.0277,0.018,-0.0004));
#1249=CARTESIAN_POINT('',(0.0277,-0.0425,-0.0004));
#1250=CARTESIAN_POINT('',(0.0277,0.027,-0.0004));
#1251=CARTESIAN_POINT('',(0.0305,0.027,-0.0004));
#1252=CARTESIAN_POINT('',(0.0305,0.0298,-0.0004));
#1253=CARTESIAN_POINT('',(0.0525,0.0298,-0.0004));
#1254=CARTESIAN_POINT('',(0.0395,0.0298,-0.0004));
#1255=CARTESIAN_POINT('',(0.0395,0.027,-0.0004));
#1256=CARTESIAN_POINT('',(0.0423,0.027,-0.0004));
#1257=CARTESIAN_POINT('',(0.0423,0.018,-0.0004));
#1258=CARTESIAN_POINT('',(0.0423,0.018,-0.0004));
#1259=CARTESIAN_POINT('',(0.0455,0.018,-0.0004));
#1260=CARTESIAN_POINT('',(0.0455,0.0148,-0.0004));
#1261=CARTESIAN_POINT('',(0.0525,0.0148,-0.0004));
#1262=CARTESIAN_POINT('',(0.047,0.0148,-0.0004));
#1263=CARTESIAN_POINT('',(0.047,0.012,-0.0004));
#1264=CARTESIAN_POINT('',(0.0498,0.012,-0.0004));
#1265=CARTESIAN_POINT('',(0.0498,-0.0425,-0.0004));
#1266=CARTESIAN_POINT('',(0.0498,-0.012,-0.0004));
#1267=CARTESIAN_POINT('',(0.047,-0.012,-0.0004));
#1268=CARTESIAN_POINT('',(0.047,-0.0148,-0.0004));
#1269=CARTESIAN_POINT('',(0.023,-0.0148,-0.0004));
#1270=CARTESIAN_POINT('',(0.023,-0.0148,-0.0004));
#1271=CARTESIAN_POINT('',(0.023,-0.012,-0.0004));
#1272=CARTESIAN_POINT('',(0.0480539279513889,-0.026068359375,-0.0002));
#1273=CARTESIAN_POINT('',(0.0296115451388889,0.0189635416666666,-0.0002));
#1274=CARTESIAN_POINT('',(0.0296115451388889,0.0194301215277778,-0.0002));
#1275=CARTESIAN_POINT('',(0.0299262152777778,0.0197220052083334,-0.0002));
#1276=CARTESIAN_POINT('',(0.0296115451388889,0.0189635416666666,-0.0002));
#1277=CARTESIAN_POINT('',(0.0299262152777778,0.0197220052083334,-0.0002));
#1278=CARTESIAN_POINT('',(0.0299229600694444,0.0182137586805555,-0.0002));
#1279=CARTESIAN_POINT('',(0.0296115451388889,0.0185013020833334,-0.0002));
#1280=CARTESIAN_POINT('',(0.0296115451388889,0.0189635416666666,-0.0002));
#1281=CARTESIAN_POINT('',(0.0299229600694444,0.0182137586805555,-0.0002));
#1282=CARTESIAN_POINT('',(0.0307161458333334,0.0179262152777778,-0.0002));
#1283=CARTESIAN_POINT('',(0.030234375,0.0179262152777778,-0.0002));
#1284=CARTESIAN_POINT('',(0.0299229600694444,0.0182137586805555,-0.0002));
#1285=CARTESIAN_POINT('',(0.0307161458333334,0.0179262152777778,-0.0002));
#1286=CARTESIAN_POINT('',(0.0315169270833333,0.0182137586805555,-0.0002));
#1287=CARTESIAN_POINT('',(0.0312044270833334,0.0179262152777778,-0.0002));
#1288=CARTESIAN_POINT('',(0.0307161458333334,0.0179262152777778,-0.0002));
#1289=CARTESIAN_POINT('',(0.0315169270833333,0.0182137586805555,-0.0002));
#1290=CARTESIAN_POINT('',(0.0318294270833333,0.0189635416666666,-0.0002));
#1291=CARTESIAN_POINT('',(0.0318294270833333,0.0185013020833334,-0.0002));
#1292=CARTESIAN_POINT('',(0.0315169270833333,0.0182137586805555,-0.0002));
#1293=CARTESIAN_POINT('',(0.0318294270833333,0.0189635416666666,-0.0002));
#1294=CARTESIAN_POINT('',(0.031513671875,0.0197220052083334,-0.0002));
#1295=CARTESIAN_POINT('',(0.0318294270833333,0.0194301215277778,-0.0002));
#1296=CARTESIAN_POINT('',(0.0318294270833333,0.0189635416666666,-0.0002));
#1297=CARTESIAN_POINT('',(0.031513671875,0.0197220052083334,-0.0002));
#1298=CARTESIAN_POINT('',(0.0307161458333334,0.0200138888888889,-0.0002));
#1299=CARTESIAN_POINT('',(0.0311979166666667,0.0200138888888889,-0.0002));
#1300=CARTESIAN_POINT('',(0.031513671875,0.0197220052083334,-0.0002));
#1301=CARTESIAN_POINT('',(0.0307161458333334,0.0200138888888889,-0.0002));
#1302=CARTESIAN_POINT('',(0.0299262152777778,0.0197220052083334,-0.0002));
#1303=CARTESIAN_POINT('',(0.0302408854166667,0.0200138888888889,-0.0002));
#1304=CARTESIAN_POINT('',(0.0307161458333334,0.0200138888888889,-0.0002));
#1305=CARTESIAN_POINT('',(0.0480539279513889,-0.026068359375,-0.0002));
#1306=CARTESIAN_POINT('',(0.0398198784722223,0.0217174479166666,-0.0002));
#1307=CARTESIAN_POINT('',(0.0392599826388889,0.0217174479166666,-0.0002));
#1308=CARTESIAN_POINT('',(0.0403797743055556,0.0217174479166666,-0.0002));
#1309=CARTESIAN_POINT('',(0.0392599826388889,0.0247957899305556,-0.0002));
#1310=CARTESIAN_POINT('',(0.0392599826388889,0.0278741319444445,-0.0002));
#1311=CARTESIAN_POINT('',(0.0382703993055555,0.0278741319444445,-0.0002));
#1312=CARTESIAN_POINT('',(0.0372808159722222,0.0278741319444445,-0.0002));
#1313=CARTESIAN_POINT('',(0.0352224392361111,0.0246221788194444,-0.0002));
#1314=CARTESIAN_POINT('',(0.0331640625,0.0213702256944444,-0.0002));
#1315=CARTESIAN_POINT('',(0.0332085503472222,0.0207528211805555,-0.0002));
#1316=CARTESIAN_POINT('',(0.0332530381944445,0.0201354166666666,-0.0002));
#1317=CARTESIAN_POINT('',(0.0352766927083333,0.0201354166666666,-0.0002));
#1318=CARTESIAN_POINT('',(0.0373003472222223,0.0201354166666666,-0.0002));
#1319=CARTESIAN_POINT('',(0.0373003472222223,0.0190677083333333,-0.0002));
#1320=CARTESIAN_POINT('',(0.0373003472222223,0.018,-0.0002));
#1321=CARTESIAN_POINT('',(0.0382801649305555,0.018,-0.0002));
#1322=CARTESIAN_POINT('',(0.0392599826388889,0.018,-0.0002));
#1323=CARTESIAN_POINT('',(0.0392599826388889,0.0190677083333333,-0.0002));
#1324=CARTESIAN_POINT('',(0.0392599826388889,0.0201354166666666,-0.0002));
#1325=CARTESIAN_POINT('',(0.0398198784722223,0.0201354166666666,-0.0002));
#1326=CARTESIAN_POINT('',(0.0403797743055556,0.0201354166666666,-0.0002));
#1327=CARTESIAN_POINT('',(0.0403797743055556,0.0209264322916667,-0.0002));
#1328=CARTESIAN_POINT('',(0.0362087673611112,0.0217174479166666,-0.0002));
#1329=CARTESIAN_POINT('',(0.0351171875,0.0217174479166666,-0.0002));
#1330=CARTESIAN_POINT('',(0.0371003472222223,0.0217174479166666,-0.0002));
#1331=CARTESIAN_POINT('',(0.0361447482638889,0.0233483072916667,-0.0002));
#1332=CARTESIAN_POINT('',(0.0371723090277778,0.0249791666666667,-0.0002));
#1333=CARTESIAN_POINT('',(0.037236328125,0.0250909288194444,-0.0002));
#1334=CARTESIAN_POINT('',(0.0373003472222223,0.0252026909722222,-0.0002));
#1335=CARTESIAN_POINT('',(0.0373003472222223,0.0234600694444445,-0.0002));
#1336=CARTESIAN_POINT('',(0.0373003472222223,0.0219174479166667,-0.0002));
#1337=CARTESIAN_POINT('',(0.0371003472222223,0.0219174479166667,-0.0002));
#1338=CARTESIAN_POINT('',(0.0525,-0.0425,0.));
#1339=CARTESIAN_POINT('',(0.0525,0.0219174479166667,0.));
#1340=CARTESIAN_POINT('',(0.0354795909883071,0.0219174479166667,0.));
#1341=CARTESIAN_POINT('',(0.0371003472222223,0.0219174479166667,0.));
#1342=CARTESIAN_POINT('',(0.0371003472222223,-0.0425,0.));
#1343=CARTESIAN_POINT('',(0.0371003472222223,0.0244897780323735,0.));
#1344=CARTESIAN_POINT('',(0.0112627512498339,-0.0165175152585447,0.));
#1345=CARTESIAN_POINT('',(0.0374098729723811,0.0249915196350223,-0.0002));
#1346=CARTESIAN_POINT('',(0.0373437635840728,0.0248761083300096,-0.0002));
#1347=CARTESIAN_POINT('',(0.037231408401968,0.0249436430659328,-4.89272785587795E-5));
#1348=CARTESIAN_POINT('',(0.0371003472222223,0.0244511611220331,-0.0002));
#1349=CARTESIAN_POINT('',(0.0525,0.0219174479166667,-0.0002));
#1350=CARTESIAN_POINT('',(0.0371003472222223,0.0219174479166667,-0.0002));
#1351=CARTESIAN_POINT('',(0.0354795909883071,0.0219174479166667,-0.0002));
#1352=CARTESIAN_POINT('',(0.0112627512498339,-0.0165175152585447,-0.0002));
#1353=CARTESIAN_POINT('',(0.0371003472222223,0.0244897780323735,-0.0002));
#1354=CARTESIAN_POINT('',(0.0455,0.018,-0.0002));
#1355=CARTESIAN_POINT('',(0.0423,0.018,-0.0002));
#1356=CARTESIAN_POINT('',(0.0455,0.0148,-0.0002));
#1357=CARTESIAN_POINT('',(0.0423,-0.0425,-0.0002));
#1358=CARTESIAN_POINT('',(0.0423,0.027,-0.0002));
#1359=CARTESIAN_POINT('',(0.04625,0.0148,-0.0002));
#1360=CARTESIAN_POINT('',(0.047,0.0148,-0.0002));
#1361=CARTESIAN_POINT('',(0.0395,0.027,-0.0002));
#1362=CARTESIAN_POINT('',(0.0395,0.0298,-0.0002));
#1363=CARTESIAN_POINT('',(0.047,0.012,-0.0002));
#1364=CARTESIAN_POINT('',(0.0498,0.012,-0.0002));
#1365=CARTESIAN_POINT('',(0.035,0.0298,-0.0002));
#1366=CARTESIAN_POINT('',(0.0305,0.0298,-0.0002));
#1367=CARTESIAN_POINT('',(0.0498,0.,-0.0002));
#1368=CARTESIAN_POINT('',(0.0498,-0.012,-0.0002));
#1369=CARTESIAN_POINT('',(0.0305,0.027,-0.0002));
#1370=CARTESIAN_POINT('',(0.0277,0.027,-0.0002));
#1371=CARTESIAN_POINT('',(0.047,-0.012,-0.0002));
#1372=CARTESIAN_POINT('',(0.047,-0.0148,-0.0002));
#1373=CARTESIAN_POINT('',(0.0277,0.0225,-0.0002));
#1374=CARTESIAN_POINT('',(0.0277,0.018,-0.0002));
#1375=CARTESIAN_POINT('',(0.0525,-0.0148,-0.0002));
#1376=CARTESIAN_POINT('',(0.023,-0.0148,-0.0002));
#1377=CARTESIAN_POINT('',(0.0245,0.018,-0.0002));
#1378=CARTESIAN_POINT('',(0.0245,0.0148,-0.0002));
#1379=CARTESIAN_POINT('',(0.023,-0.012,-0.0002));
#1380=CARTESIAN_POINT('',(0.0202,-0.012,-0.0002));
#1381=CARTESIAN_POINT('',(0.02375,0.0148,-0.0002));
#1382=CARTESIAN_POINT('',(0.023,0.0148,-0.0002));
#1383=CARTESIAN_POINT('',(0.0202,-0.0425,-0.0002));
#1384=CARTESIAN_POINT('',(0.0202,0.012,-0.0002));
#1385=CARTESIAN_POINT('',(0.023,0.012,-0.0002));
#1386=CARTESIAN_POINT('',(0.0371003472222223,-0.0425,-0.0002));
#1387=CARTESIAN_POINT('',(0.0371003472222223,0.0199354166666666,-0.0002));
#1388=CARTESIAN_POINT('',(0.0371003472222223,0.0178,-0.0002));
#1389=CARTESIAN_POINT('',(0.0525,0.0178,-0.0002));
#1390=CARTESIAN_POINT('',(0.0394599826388889,0.0178,-0.0002));
#1391=CARTESIAN_POINT('',(0.0525,0.0199354166666666,-0.0002));
#1392=CARTESIAN_POINT('',(0.0330669309042936,0.0199354166666666,-0.0002));
#1393=CARTESIAN_POINT('',(0.0394599826388889,-0.0425,-0.0002));
#1394=CARTESIAN_POINT('',(0.0394599826388889,0.0199354166666666,-0.0002));
#1395=CARTESIAN_POINT('',(0.0376429316189107,-0.0435705444703421,-0.0002));
#1396=CARTESIAN_POINT('',(0.0329598462897567,0.0214215421708479,-0.0002));
#1397=CARTESIAN_POINT('',(0.0525,0.0199354166666666,-0.0002));
#1398=CARTESIAN_POINT('',(0.0405797743055556,0.0199354166666666,-0.0002));
#1399=CARTESIAN_POINT('',(0.00966239413003483,-0.0153852391273528,-0.0002));
#1400=CARTESIAN_POINT('',(0.0371707114217263,0.0280741319444445,-0.0002));
#1401=CARTESIAN_POINT('',(0.0405797743055556,-0.0425,-0.0002));
#1402=CARTESIAN_POINT('',(0.0405797743055556,0.0219174479166667,-0.0002));
#1403=CARTESIAN_POINT('',(0.0525,0.0280741319444445,-0.0002));
#1404=CARTESIAN_POINT('',(0.0394599826388889,0.0280741319444445,-0.0002));
#1405=CARTESIAN_POINT('',(0.0525,0.0219174479166667,-0.0002));
#1406=CARTESIAN_POINT('',(0.0394599826388889,0.0219174479166667,-0.0002));
#1407=CARTESIAN_POINT('',(0.0394599826388889,-0.0425,-0.0002));
#1408=CARTESIAN_POINT('',(0.031513671875,0.0197220052083333,-0.0002));
#1409=CARTESIAN_POINT('',(0.031513671875,0.0197220052083333,2.71050543121376E-20));
#1410=CARTESIAN_POINT('',(0.0316494326682459,0.0198688691147815,2.71050543121376E-20));
#1411=CARTESIAN_POINT('',(0.0317241490442126,0.0195274404024289,-0.0002));
#1412=CARTESIAN_POINT('',(0.0317241490462864,0.0195274404046736,-1.37859744288755E-17));
#1413=CARTESIAN_POINT('',(0.031898911720086,0.0196382510563047,2.71050543121376E-20));
#1414=CARTESIAN_POINT('',(0.0318294270833333,0.0192600358276074,-0.0002));
#1415=CARTESIAN_POINT('',(0.0318294271144823,0.0192600358276082,3.21803555896343E-17));
#1416=CARTESIAN_POINT('',(0.032029427138108,0.0193030404047011,-2.71050543121376E-20));
#1417=CARTESIAN_POINT('',(0.0318294270833333,0.0189635416666666,-0.0002));
#1418=CARTESIAN_POINT('',(0.0318294270833333,0.0189635416666666,-2.71050543121376E-20));
#1419=CARTESIAN_POINT('',(0.0320294270833333,0.0189635416666666,-2.71050543121376E-20));
#1420=CARTESIAN_POINT('',(0.0316494326682459,0.0198688691147815,-0.0002));
#1421=CARTESIAN_POINT('',(0.0320294270833333,0.0189635416666666,-0.0002));
#1422=CARTESIAN_POINT('',(0.0318294270833333,0.0189635416666666,-0.0002));
#1423=CARTESIAN_POINT('',(0.0318294270833333,0.0189635416666666,0.));
#1424=CARTESIAN_POINT('',(0.0320294270833333,0.0189635416666666,0.));
#1425=CARTESIAN_POINT('',(0.0318294270833333,0.0186695133708607,-0.000200000000000037));
#1426=CARTESIAN_POINT('',(0.0318294271047722,0.0186695133708617,-3.65410714533423E-17));
#1427=CARTESIAN_POINT('',(0.0320294271274925,0.0186265097627005,0.));
#1428=CARTESIAN_POINT('',(0.0317261504470588,0.0184062732339835,-0.0002));
#1429=CARTESIAN_POINT('',(0.0317261504627678,0.0184062732169129,0.));
#1430=CARTESIAN_POINT('',(0.031901036629712,0.0182954093322885,0.));
#1431=CARTESIAN_POINT('',(0.0315169270833334,0.0182137586805555,-0.0002));
#1432=CARTESIAN_POINT('',(0.0315169270833334,0.0182137586805555,0.));
#1433=CARTESIAN_POINT('',(0.0316523494599081,0.0180665826637497,0.));
#1434=CARTESIAN_POINT('',(0.0316523494599081,0.0180665826637497,-0.0002));
#1435=CARTESIAN_POINT('',(0.0307161458333334,0.0200138888888889,-0.0002));
#1436=CARTESIAN_POINT('',(0.0307161458333334,0.0200138888888889,0.));
#1437=CARTESIAN_POINT('',(0.0307161458333334,0.0202138888888889,0.));
#1438=CARTESIAN_POINT('',(0.0310191966837372,0.0200138888888889,-0.000199999999999982));
#1439=CARTESIAN_POINT('',(0.0310191966837336,0.0200138889111608,3.6988783895091E-17));
#1440=CARTESIAN_POINT('',(0.031057307153897,0.020213888927501,0.));
#1441=CARTESIAN_POINT('',(0.0313003268554757,0.0199192210511239,-0.0002));
#1442=CARTESIAN_POINT('',(0.0313003268570876,0.0199192210528664,4.63389521825108E-18));
#1443=CARTESIAN_POINT('',(0.0313983533235172,0.0201009665380965,0.));
#1444=CARTESIAN_POINT('',(0.031513671875,0.0197220052083333,-0.0002));
#1445=CARTESIAN_POINT('',(0.031513671875,0.0197220052083333,0.));
#1446=CARTESIAN_POINT('',(0.0316494326682459,0.0198688691147815,0.));
#1447=CARTESIAN_POINT('',(0.0307161458333334,0.0202138888888889,-0.0002));
#1448=CARTESIAN_POINT('',(0.0315169270833334,0.0182137586805555,-0.0002));
#1449=CARTESIAN_POINT('',(0.0315169270833334,0.0182137586805555,0.));
#1450=CARTESIAN_POINT('',(0.0316523494599081,0.0180665826637497,0.));
#1451=CARTESIAN_POINT('',(0.0313035281229146,0.0180174019982258,-0.000199999999999963));
#1452=CARTESIAN_POINT('',(0.0313035281135521,0.018017402008403,5.58077356252654E-17));
#1453=CARTESIAN_POINT('',(0.0313998270518289,0.0178342269809251,0.));
#1454=CARTESIAN_POINT('',(0.031021817839471,0.0179262152777778,-0.0002));
#1455=CARTESIAN_POINT('',(0.0310218178394689,0.0179262152446458,-4.64224744239454E-18));
#1456=CARTESIAN_POINT('',(0.0310586832373479,0.0177262152275803,0.));
#1457=CARTESIAN_POINT('',(0.0307161458333334,0.0179262152777778,-0.0002));
#1458=CARTESIAN_POINT('',(0.0307161458333334,0.0179262152777778,0.));
#1459=CARTESIAN_POINT('',(0.0307161458333334,0.0177262152777778,0.));
#1460=CARTESIAN_POINT('',(0.0307161458333334,0.0177262152777778,-0.0002));
#1461=CARTESIAN_POINT('',(0.0299262152777778,0.0197220052083333,-0.0002));
#1462=CARTESIAN_POINT('',(0.0299262152777778,0.0197220052083333,0.));
#1463=CARTESIAN_POINT('',(0.0297902026520263,0.0198686359201101,0.));
#1464=CARTESIAN_POINT('',(0.0301385035357003,0.0199189208682684,-0.000199999999999991));
#1465=CARTESIAN_POINT('',(0.0301385035398825,0.0199189208637089,4.33595036847676E-16));
#1466=CARTESIAN_POINT('',(0.0300397374419638,0.0201001009587029,0.));
#1467=CARTESIAN_POINT('',(0.0304150892635767,0.0200138888888889,-0.0002));
#1468=CARTESIAN_POINT('',(0.0304150892635726,0.0200138889204405,2.30366263054095E-17));
#1469=CARTESIAN_POINT('',(0.0303761852314333,0.0202138889385501,0.));
#1470=CARTESIAN_POINT('',(0.0307161458333334,0.0200138888888889,-0.0002));
#1471=CARTESIAN_POINT('',(0.0307161458333334,0.0200138888888889,0.));
#1472=CARTESIAN_POINT('',(0.0307161458333334,0.0202138888888889,0.));
#1473=CARTESIAN_POINT('',(0.0297902026520263,0.0198686359201101,-0.0002));
#1474=CARTESIAN_POINT('',(0.0307161458333334,0.0179262152777778,-0.0002));
#1475=CARTESIAN_POINT('',(0.0307161458333334,0.0179262152777778,0.));
#1476=CARTESIAN_POINT('',(0.0307161458333334,0.0177262152777778,0.));
#1477=CARTESIAN_POINT('',(0.0304143735638195,0.0179262152777778,-0.0002));
#1478=CARTESIAN_POINT('',(0.0304143735638177,0.0179262152542945,1.83857722927778E-17));
#1479=CARTESIAN_POINT('',(0.030376988191649,0.0177262152379145,0.));
#1480=CARTESIAN_POINT('',(0.0301342862911416,0.0180186316814276,-0.0002));
#1481=CARTESIAN_POINT('',(0.030134286291127,0.0180186316814226,4.21595114471925E-16));
#1482=CARTESIAN_POINT('',(0.0300370521288565,0.0178361943429963,-2.71050543121376E-20));
#1483=CARTESIAN_POINT('',(0.0299229600694445,0.0182137586805556,-0.0002));
#1484=CARTESIAN_POINT('',(0.0299229600694445,0.0182137586805556,2.33103467084383E-18));
#1485=CARTESIAN_POINT('',(0.0297872827855679,0.0180668176221686,-2.71050543121376E-20));
#1486=CARTESIAN_POINT('',(0.0297872827855679,0.0180668176221686,-0.0002));
#1487=CARTESIAN_POINT('',(0.0296115451388889,0.0189635416666666,-0.0002));
#1488=CARTESIAN_POINT('',(0.0296115451388889,0.0189635416666666,0.));
#1489=CARTESIAN_POINT('',(0.0294115451388889,0.0189635416666666,0.));
#1490=CARTESIAN_POINT('',(0.0296115451388889,0.0192595572327017,-0.000200000000000018));
#1491=CARTESIAN_POINT('',(0.029611545113858,0.0192595572327018,-2.75498355810972E-17));
#1492=CARTESIAN_POINT('',(0.0294115450912798,0.0193023448504866,0.));
#1493=CARTESIAN_POINT('',(0.029716329346866,0.0195273179137979,-0.0002));
#1494=CARTESIAN_POINT('',(0.0297163293382181,0.0195273179229053,1.56411274363271E-15));
#1495=CARTESIAN_POINT('',(0.029541341951184,0.0196377962158855,2.71050543121376E-20));
#1496=CARTESIAN_POINT('',(0.0299262152777778,0.0197220052083333,-0.0002));
#1497=CARTESIAN_POINT('',(0.0299262152777778,0.0197220052083333,2.71050543121376E-20));
#1498=CARTESIAN_POINT('',(0.0297902026520263,0.0198686359201101,2.71050543121376E-20));
#1499=CARTESIAN_POINT('',(0.0294115451388889,0.0189635416666666,-0.0002));
#1500=CARTESIAN_POINT('',(0.0299229600694445,0.0182137586805556,-0.0002));
#1501=CARTESIAN_POINT('',(0.0299229600694445,0.0182137586805556,2.35813972515597E-18));
#1502=CARTESIAN_POINT('',(0.0297872827855679,0.0180668176221686,0.));
#1503=CARTESIAN_POINT('',(0.029715073275042,0.018405709901868,-0.000200000000000009));
#1504=CARTESIAN_POINT('',(0.0297150732735365,0.0184057099002688,7.59251123931457E-16));
#1505=CARTESIAN_POINT('',(0.0295400993821816,0.0182950531355749,0.));
#1506=CARTESIAN_POINT('',(0.0296115451388889,0.0186701356149358,-0.0002));
#1507=CARTESIAN_POINT('',(0.0296115451075167,0.0186701356149642,-6.19581852815017E-16));
#1508=CARTESIAN_POINT('',(0.0294115450834641,0.0186273720188145,2.71050543121376E-20));
#1509=CARTESIAN_POINT('',(0.0296115451388889,0.0189635416666666,-0.0002));
#1510=CARTESIAN_POINT('',(0.0296115451388889,0.0189635416666666,2.71050543121376E-20));
#1511=CARTESIAN_POINT('',(0.0294115451388889,0.0189635416666666,2.71050543121376E-20));
#1512=CARTESIAN_POINT('',(0.0371003472222223,-0.0425,-0.0002));
#1513=CARTESIAN_POINT('',(0.0371003472222223,0.0219174479166667,-0.0002));
#1514=CARTESIAN_POINT('',(0.0371003472222223,0.0219174479166667,-0.0002));
#1515=MECHANICAL_DESIGN_GEOMETRIC_PRESENTATION_REPRESENTATION('',(#799),
#1516);
#1516=(
GEOMETRIC_REPRESENTATION_CONTEXT(3)
GLOBAL_UNCERTAINTY_ASSIGNED_CONTEXT((#1517))
GLOBAL_UNIT_ASSIGNED_CONTEXT((#1520,#1519,#1518))
REPRESENTATION_CONTEXT('CALIBRATION_spacer_0.4',
'TOP_LEVEL_ASSEMBLY_PART')
);
#1517=UNCERTAINTY_MEASURE_WITH_UNIT(LENGTH_MEASURE(2.E-5),#1520,
'DISTANCE_ACCURACY_VALUE','Maximum Tolerance applied to model');
#1518=(
NAMED_UNIT(*)
SI_UNIT($,.STERADIAN.)
SOLID_ANGLE_UNIT()
);
#1519=(
NAMED_UNIT(*)
PLANE_ANGLE_UNIT()
SI_UNIT($,.RADIAN.)
);
#1520=(
LENGTH_UNIT()
NAMED_UNIT(*)
SI_UNIT($,.METRE.)
);
#1521=PRODUCT_DEFINITION_SHAPE('','',#1522);
#1522=PRODUCT_DEFINITION('','',#1524,#1523);
#1523=PRODUCT_DEFINITION_CONTEXT('',#1530,'design');
#1524=PRODUCT_DEFINITION_FORMATION_WITH_SPECIFIED_SOURCE('','',#1526,
 .NOT_KNOWN.);
#1525=PRODUCT_RELATED_PRODUCT_CATEGORY('','',(#1526));
#1526=PRODUCT('CALIBRATION_spacer_0.4','CALIBRATION_spacer_0.4',
'CALIBRATION_spacer_0.4',(#1528));
#1527=PRODUCT_CATEGORY('','');
#1528=PRODUCT_CONTEXT('',#1530,'mechanical');
#1529=APPLICATION_PROTOCOL_DEFINITION('international standard',
'ap242_managed_model_based_3d_engineering',2020,#1530);
#1530=APPLICATION_CONTEXT('managed model based 3d engineering');
ENDSEC;
END-ISO-10303-21;
