ISO-10303-21;
HEADER;
/* Generated by software containing ST-Developer
 * from STEP Tools, Inc. (www.steptools.com) 
 */
/* OPTION: using custom renumber hook */

FILE_DESCRIPTION(
/* description */ ('STEP AP242 Edition 2',
'CAx-IF Rec.Pracs.---Representation and Presentation of Product Manufa
cturing Information (PMI)---4.0---2014-10-13',
'CAx-IF Rec.Pracs.---3D Tessellated Geometry---0.4---2014-09-14','2;1',
'CAx-IF Rec.Pracs.---User Defined Attributes---1.5---2016-08-15'),
/* implementation_level */ '2;1');

FILE_NAME(
/* name */ 'calibration_spacers - CALIBRATION_spacer_4',
/* time_stamp */ '2026-06-01T11:08:44Z',
/* author */ (''),
/* organization */ (''),
/* preprocessor_version */ 'ST-DEVELOPER v20',
/* originating_system */ 'ONSHAPE BY PTC INC, 1.215',
/* authorisation */ '  ');

FILE_SCHEMA (('AP242_MANAGED_MODEL_BASED_3D_ENGINEERING_MIM_LF { 1 0 10303 442 3 1 4 }'));
ENDSEC;

DATA;
#10=SHAPE_REPRESENTATION_RELATIONSHIP('','',#1107,#11);
#11=ADVANCED_BREP_SHAPE_REPRESENTATION('',(#1105),#1962);
#12=SPHERICAL_SURFACE('',#1258,0.0004);
#13=TOROIDAL_SURFACE('',#1192,0.0034,0.0004);
#14=TOROIDAL_SURFACE('',#1199,0.0026,0.0004);
#15=TOROIDAL_SURFACE('',#1201,0.0026,0.0004);
#16=TOROIDAL_SURFACE('',#1207,0.0026,0.0004);
#17=TOROIDAL_SURFACE('',#1209,0.0026,0.0004);
#18=TOROIDAL_SURFACE('',#1215,0.0034,0.0004);
#19=TOROIDAL_SURFACE('',#1217,0.0026,0.0004);
#20=TOROIDAL_SURFACE('',#1223,0.0026,0.0004);
#21=TOROIDAL_SURFACE('',#1224,0.0034,0.0004);
#22=TOROIDAL_SURFACE('',#1231,0.0026,0.0004);
#23=TOROIDAL_SURFACE('',#1233,0.0026,0.0004);
#24=TOROIDAL_SURFACE('',#1239,0.0026,0.0004);
#25=TOROIDAL_SURFACE('',#1241,0.0026,0.0004);
#26=TOROIDAL_SURFACE('',#1247,0.0034,0.0004);
#27=TOROIDAL_SURFACE('',#1249,0.0026,0.0004);
#28=TOROIDAL_SURFACE('',#1255,0.0026,0.0004);
#29=ELLIPSE('',#1164,0.000827855756366146,0.0004);
#30=ELLIPSE('',#1166,0.00144179764923262,0.0004);
#31=ELLIPSE('',#1167,0.000400088418371929,0.0004);
#32=ELLIPSE('',#1169,0.00155537405883633,0.0004);
#33=ELLIPSE('',#1171,0.000565685424949238,0.0004);
#34=ELLIPSE('',#1172,0.000565685424949238,0.0004);
#35=ELLIPSE('',#1174,0.000565685424949238,0.0004);
#36=ELLIPSE('',#1176,0.000546391520605216,0.0004);
#37=ELLIPSE('',#1178,0.000565685424949238,0.0004);
#38=ELLIPSE('',#1180,0.000421130104725796,0.0004);
#39=ELLIPSE('',#1182,0.000565685424949238,0.0004);
#40=ELLIPSE('',#1184,0.000456609294867823,0.0004);
#41=ELLIPSE('',#1186,0.000565685424949238,0.0004);
#42=ELLIPSE('',#1188,0.000565685424949238,0.0004);
#43=ELLIPSE('',#1190,0.000565685424949238,0.0004);
#44=CYLINDRICAL_SURFACE('',#1118,0.003);
#45=CYLINDRICAL_SURFACE('',#1122,0.003);
#46=CYLINDRICAL_SURFACE('',#1126,0.003);
#47=CYLINDRICAL_SURFACE('',#1130,0.003);
#48=CYLINDRICAL_SURFACE('',#1134,0.003);
#49=CYLINDRICAL_SURFACE('',#1138,0.003);
#50=CYLINDRICAL_SURFACE('',#1142,0.003);
#51=CYLINDRICAL_SURFACE('',#1146,0.003);
#52=CYLINDRICAL_SURFACE('',#1162,0.0004);
#53=CYLINDRICAL_SURFACE('',#1165,0.0004);
#54=CYLINDRICAL_SURFACE('',#1168,0.0004);
#55=CYLINDRICAL_SURFACE('',#1170,0.0004);
#56=CYLINDRICAL_SURFACE('',#1173,0.0004);
#57=CYLINDRICAL_SURFACE('',#1175,0.0004);
#58=CYLINDRICAL_SURFACE('',#1177,0.0004);
#59=CYLINDRICAL_SURFACE('',#1179,0.0004);
#60=CYLINDRICAL_SURFACE('',#1181,0.0004);
#61=CYLINDRICAL_SURFACE('',#1183,0.0004);
#62=CYLINDRICAL_SURFACE('',#1185,0.0004);
#63=CYLINDRICAL_SURFACE('',#1187,0.0004);
#64=CYLINDRICAL_SURFACE('',#1189,0.0004);
#65=CYLINDRICAL_SURFACE('',#1191,0.0004);
#66=CYLINDRICAL_SURFACE('',#1195,0.0004);
#67=CYLINDRICAL_SURFACE('',#1197,0.0004);
#68=CYLINDRICAL_SURFACE('',#1203,0.0004);
#69=CYLINDRICAL_SURFACE('',#1205,0.0004);
#70=CYLINDRICAL_SURFACE('',#1211,0.0004);
#71=CYLINDRICAL_SURFACE('',#1213,0.0004);
#72=CYLINDRICAL_SURFACE('',#1219,0.0004);
#73=CYLINDRICAL_SURFACE('',#1221,0.0004);
#74=CYLINDRICAL_SURFACE('',#1227,0.0004);
#75=CYLINDRICAL_SURFACE('',#1229,0.0004);
#76=CYLINDRICAL_SURFACE('',#1235,0.0004);
#77=CYLINDRICAL_SURFACE('',#1237,0.0004);
#78=CYLINDRICAL_SURFACE('',#1243,0.0004);
#79=CYLINDRICAL_SURFACE('',#1245,0.0004);
#80=CYLINDRICAL_SURFACE('',#1251,0.0004);
#81=CYLINDRICAL_SURFACE('',#1253,0.0004);
#82=CYLINDRICAL_SURFACE('',#1256,0.0004);
#83=CIRCLE('',#1110,0.0026);
#84=CIRCLE('',#1111,0.0026);
#85=CIRCLE('',#1112,0.0026);
#86=CIRCLE('',#1113,0.0026);
#87=CIRCLE('',#1114,0.0034);
#88=CIRCLE('',#1115,0.0026);
#89=CIRCLE('',#1116,0.0026);
#90=CIRCLE('',#1117,0.0034);
#91=CIRCLE('',#1119,0.003);
#92=CIRCLE('',#1120,0.003);
#93=CIRCLE('',#1123,0.003);
#94=CIRCLE('',#1124,0.003);
#95=CIRCLE('',#1127,0.003);
#96=CIRCLE('',#1128,0.003);
#97=CIRCLE('',#1131,0.003);
#98=CIRCLE('',#1132,0.003);
#99=CIRCLE('',#1135,0.003);
#100=CIRCLE('',#1136,0.003);
#101=CIRCLE('',#1139,0.003);
#102=CIRCLE('',#1140,0.003);
#103=CIRCLE('',#1143,0.003);
#104=CIRCLE('',#1144,0.003);
#105=CIRCLE('',#1147,0.003);
#106=CIRCLE('',#1148,0.003);
#107=CIRCLE('',#1151,0.0026);
#108=CIRCLE('',#1152,0.0034);
#109=CIRCLE('',#1153,0.0026);
#110=CIRCLE('',#1154,0.0026);
#111=CIRCLE('',#1155,0.0034);
#112=CIRCLE('',#1156,0.0026);
#113=CIRCLE('',#1157,0.0026);
#114=CIRCLE('',#1158,0.0026);
#115=CIRCLE('',#1160,0.0004);
#116=CIRCLE('',#1163,0.0004);
#117=CIRCLE('',#1193,0.0004);
#118=CIRCLE('',#1194,0.0004);
#119=CIRCLE('',#1196,0.0004);
#120=CIRCLE('',#1198,0.0004);
#121=CIRCLE('',#1200,0.0004);
#122=CIRCLE('',#1202,0.0004);
#123=CIRCLE('',#1204,0.0004);
#124=CIRCLE('',#1206,0.0004);
#125=CIRCLE('',#1208,0.0004);
#126=CIRCLE('',#1210,0.0004);
#127=CIRCLE('',#1212,0.0004);
#128=CIRCLE('',#1214,0.0004);
#129=CIRCLE('',#1216,0.0004);
#130=CIRCLE('',#1218,0.0004);
#131=CIRCLE('',#1220,0.0004);
#132=CIRCLE('',#1222,0.0004);
#133=CIRCLE('',#1225,0.0004);
#134=CIRCLE('',#1226,0.0004);
#135=CIRCLE('',#1228,0.0004);
#136=CIRCLE('',#1230,0.0004);
#137=CIRCLE('',#1232,0.0004);
#138=CIRCLE('',#1234,0.0004);
#139=CIRCLE('',#1236,0.0004);
#140=CIRCLE('',#1238,0.0004);
#141=CIRCLE('',#1240,0.0004);
#142=CIRCLE('',#1242,0.0004);
#143=CIRCLE('',#1244,0.0004);
#144=CIRCLE('',#1246,0.0004);
#145=CIRCLE('',#1248,0.0004);
#146=CIRCLE('',#1250,0.0004);
#147=CIRCLE('',#1252,0.0004);
#148=CIRCLE('',#1254,0.0004);
#149=CIRCLE('',#1257,0.0004);
#150=ORIENTED_EDGE('',*,*,#468,.T.);
#151=ORIENTED_EDGE('',*,*,#469,.T.);
#152=ORIENTED_EDGE('',*,*,#470,.T.);
#153=ORIENTED_EDGE('',*,*,#471,.T.);
#154=ORIENTED_EDGE('',*,*,#472,.T.);
#155=ORIENTED_EDGE('',*,*,#473,.T.);
#156=ORIENTED_EDGE('',*,*,#474,.T.);
#157=ORIENTED_EDGE('',*,*,#475,.T.);
#158=ORIENTED_EDGE('',*,*,#476,.T.);
#159=ORIENTED_EDGE('',*,*,#477,.T.);
#160=ORIENTED_EDGE('',*,*,#478,.T.);
#161=ORIENTED_EDGE('',*,*,#479,.T.);
#162=ORIENTED_EDGE('',*,*,#480,.T.);
#163=ORIENTED_EDGE('',*,*,#481,.T.);
#164=ORIENTED_EDGE('',*,*,#482,.T.);
#165=ORIENTED_EDGE('',*,*,#483,.T.);
#166=ORIENTED_EDGE('',*,*,#484,.T.);
#167=ORIENTED_EDGE('',*,*,#485,.T.);
#168=ORIENTED_EDGE('',*,*,#486,.T.);
#169=ORIENTED_EDGE('',*,*,#487,.T.);
#170=ORIENTED_EDGE('',*,*,#488,.T.);
#171=ORIENTED_EDGE('',*,*,#489,.T.);
#172=ORIENTED_EDGE('',*,*,#490,.T.);
#173=ORIENTED_EDGE('',*,*,#491,.T.);
#174=ORIENTED_EDGE('',*,*,#492,.T.);
#175=ORIENTED_EDGE('',*,*,#493,.T.);
#176=ORIENTED_EDGE('',*,*,#494,.T.);
#177=ORIENTED_EDGE('',*,*,#495,.T.);
#178=ORIENTED_EDGE('',*,*,#496,.T.);
#179=ORIENTED_EDGE('',*,*,#497,.F.);
#180=ORIENTED_EDGE('',*,*,#498,.T.);
#181=ORIENTED_EDGE('',*,*,#499,.T.);
#182=ORIENTED_EDGE('',*,*,#500,.T.);
#183=ORIENTED_EDGE('',*,*,#495,.F.);
#184=ORIENTED_EDGE('',*,*,#501,.T.);
#185=ORIENTED_EDGE('',*,*,#502,.T.);
#186=ORIENTED_EDGE('',*,*,#503,.T.);
#187=ORIENTED_EDGE('',*,*,#499,.F.);
#188=ORIENTED_EDGE('',*,*,#504,.T.);
#189=ORIENTED_EDGE('',*,*,#505,.T.);
#190=ORIENTED_EDGE('',*,*,#506,.T.);
#191=ORIENTED_EDGE('',*,*,#502,.F.);
#192=ORIENTED_EDGE('',*,*,#507,.T.);
#193=ORIENTED_EDGE('',*,*,#508,.T.);
#194=ORIENTED_EDGE('',*,*,#509,.T.);
#195=ORIENTED_EDGE('',*,*,#505,.F.);
#196=ORIENTED_EDGE('',*,*,#510,.T.);
#197=ORIENTED_EDGE('',*,*,#511,.T.);
#198=ORIENTED_EDGE('',*,*,#512,.T.);
#199=ORIENTED_EDGE('',*,*,#508,.F.);
#200=ORIENTED_EDGE('',*,*,#513,.T.);
#201=ORIENTED_EDGE('',*,*,#514,.T.);
#202=ORIENTED_EDGE('',*,*,#515,.T.);
#203=ORIENTED_EDGE('',*,*,#511,.F.);
#204=ORIENTED_EDGE('',*,*,#516,.T.);
#205=ORIENTED_EDGE('',*,*,#517,.T.);
#206=ORIENTED_EDGE('',*,*,#518,.T.);
#207=ORIENTED_EDGE('',*,*,#514,.F.);
#208=ORIENTED_EDGE('',*,*,#519,.T.);
#209=ORIENTED_EDGE('',*,*,#520,.T.);
#210=ORIENTED_EDGE('',*,*,#521,.T.);
#211=ORIENTED_EDGE('',*,*,#517,.F.);
#212=ORIENTED_EDGE('',*,*,#522,.T.);
#213=ORIENTED_EDGE('',*,*,#523,.T.);
#214=ORIENTED_EDGE('',*,*,#524,.T.);
#215=ORIENTED_EDGE('',*,*,#520,.F.);
#216=ORIENTED_EDGE('',*,*,#525,.T.);
#217=ORIENTED_EDGE('',*,*,#526,.T.);
#218=ORIENTED_EDGE('',*,*,#527,.T.);
#219=ORIENTED_EDGE('',*,*,#523,.F.);
#220=ORIENTED_EDGE('',*,*,#528,.T.);
#221=ORIENTED_EDGE('',*,*,#529,.T.);
#222=ORIENTED_EDGE('',*,*,#530,.T.);
#223=ORIENTED_EDGE('',*,*,#526,.F.);
#224=ORIENTED_EDGE('',*,*,#531,.T.);
#225=ORIENTED_EDGE('',*,*,#532,.T.);
#226=ORIENTED_EDGE('',*,*,#533,.T.);
#227=ORIENTED_EDGE('',*,*,#529,.F.);
#228=ORIENTED_EDGE('',*,*,#534,.T.);
#229=ORIENTED_EDGE('',*,*,#535,.T.);
#230=ORIENTED_EDGE('',*,*,#536,.T.);
#231=ORIENTED_EDGE('',*,*,#532,.F.);
#232=ORIENTED_EDGE('',*,*,#537,.T.);
#233=ORIENTED_EDGE('',*,*,#538,.T.);
#234=ORIENTED_EDGE('',*,*,#539,.T.);
#235=ORIENTED_EDGE('',*,*,#535,.F.);
#236=ORIENTED_EDGE('',*,*,#540,.T.);
#237=ORIENTED_EDGE('',*,*,#497,.T.);
#238=ORIENTED_EDGE('',*,*,#541,.T.);
#239=ORIENTED_EDGE('',*,*,#538,.F.);
#240=ORIENTED_EDGE('',*,*,#542,.T.);
#241=ORIENTED_EDGE('',*,*,#543,.T.);
#242=ORIENTED_EDGE('',*,*,#544,.T.);
#243=ORIENTED_EDGE('',*,*,#545,.T.);
#244=ORIENTED_EDGE('',*,*,#546,.T.);
#245=ORIENTED_EDGE('',*,*,#547,.T.);
#246=ORIENTED_EDGE('',*,*,#548,.T.);
#247=ORIENTED_EDGE('',*,*,#549,.T.);
#248=ORIENTED_EDGE('',*,*,#550,.T.);
#249=ORIENTED_EDGE('',*,*,#551,.T.);
#250=ORIENTED_EDGE('',*,*,#552,.T.);
#251=ORIENTED_EDGE('',*,*,#553,.T.);
#252=ORIENTED_EDGE('',*,*,#554,.T.);
#253=ORIENTED_EDGE('',*,*,#555,.T.);
#254=ORIENTED_EDGE('',*,*,#556,.T.);
#255=ORIENTED_EDGE('',*,*,#557,.T.);
#256=ORIENTED_EDGE('',*,*,#558,.T.);
#257=ORIENTED_EDGE('',*,*,#559,.F.);
#258=ORIENTED_EDGE('',*,*,#560,.F.);
#259=ORIENTED_EDGE('',*,*,#561,.F.);
#260=ORIENTED_EDGE('',*,*,#562,.F.);
#261=ORIENTED_EDGE('',*,*,#563,.F.);
#262=ORIENTED_EDGE('',*,*,#564,.F.);
#263=ORIENTED_EDGE('',*,*,#565,.F.);
#264=ORIENTED_EDGE('',*,*,#566,.F.);
#265=ORIENTED_EDGE('',*,*,#567,.F.);
#266=ORIENTED_EDGE('',*,*,#568,.F.);
#267=ORIENTED_EDGE('',*,*,#569,.F.);
#268=ORIENTED_EDGE('',*,*,#570,.F.);
#269=ORIENTED_EDGE('',*,*,#571,.F.);
#270=ORIENTED_EDGE('',*,*,#572,.F.);
#271=ORIENTED_EDGE('',*,*,#573,.F.);
#272=ORIENTED_EDGE('',*,*,#574,.T.);
#273=ORIENTED_EDGE('',*,*,#575,.T.);
#274=ORIENTED_EDGE('',*,*,#576,.T.);
#275=ORIENTED_EDGE('',*,*,#577,.T.);
#276=ORIENTED_EDGE('',*,*,#570,.T.);
#277=ORIENTED_EDGE('',*,*,#578,.T.);
#278=ORIENTED_EDGE('',*,*,#575,.F.);
#279=ORIENTED_EDGE('',*,*,#579,.F.);
#280=ORIENTED_EDGE('',*,*,#577,.F.);
#281=ORIENTED_EDGE('',*,*,#580,.T.);
#282=ORIENTED_EDGE('',*,*,#581,.F.);
#283=ORIENTED_EDGE('',*,*,#571,.T.);
#284=ORIENTED_EDGE('',*,*,#579,.T.);
#285=ORIENTED_EDGE('',*,*,#581,.T.);
#286=ORIENTED_EDGE('',*,*,#582,.T.);
#287=ORIENTED_EDGE('',*,*,#572,.T.);
#288=ORIENTED_EDGE('',*,*,#583,.F.);
#289=ORIENTED_EDGE('',*,*,#475,.F.);
#290=ORIENTED_EDGE('',*,*,#584,.F.);
#291=ORIENTED_EDGE('',*,*,#565,.T.);
#292=ORIENTED_EDGE('',*,*,#584,.T.);
#293=ORIENTED_EDGE('',*,*,#474,.F.);
#294=ORIENTED_EDGE('',*,*,#585,.F.);
#295=ORIENTED_EDGE('',*,*,#566,.T.);
#296=ORIENTED_EDGE('',*,*,#583,.T.);
#297=ORIENTED_EDGE('',*,*,#564,.T.);
#298=ORIENTED_EDGE('',*,*,#586,.F.);
#299=ORIENTED_EDGE('',*,*,#476,.F.);
#300=ORIENTED_EDGE('',*,*,#585,.T.);
#301=ORIENTED_EDGE('',*,*,#473,.F.);
#302=ORIENTED_EDGE('',*,*,#587,.F.);
#303=ORIENTED_EDGE('',*,*,#567,.T.);
#304=ORIENTED_EDGE('',*,*,#586,.T.);
#305=ORIENTED_EDGE('',*,*,#563,.T.);
#306=ORIENTED_EDGE('',*,*,#588,.F.);
#307=ORIENTED_EDGE('',*,*,#477,.F.);
#308=ORIENTED_EDGE('',*,*,#587,.T.);
#309=ORIENTED_EDGE('',*,*,#472,.F.);
#310=ORIENTED_EDGE('',*,*,#589,.F.);
#311=ORIENTED_EDGE('',*,*,#568,.T.);
#312=ORIENTED_EDGE('',*,*,#588,.T.);
#313=ORIENTED_EDGE('',*,*,#562,.T.);
#314=ORIENTED_EDGE('',*,*,#590,.F.);
#315=ORIENTED_EDGE('',*,*,#478,.F.);
#316=ORIENTED_EDGE('',*,*,#589,.T.);
#317=ORIENTED_EDGE('',*,*,#471,.F.);
#318=ORIENTED_EDGE('',*,*,#591,.F.);
#319=ORIENTED_EDGE('',*,*,#569,.T.);
#320=ORIENTED_EDGE('',*,*,#590,.T.);
#321=ORIENTED_EDGE('',*,*,#561,.T.);
#322=ORIENTED_EDGE('',*,*,#592,.F.);
#323=ORIENTED_EDGE('',*,*,#468,.F.);
#324=ORIENTED_EDGE('',*,*,#591,.T.);
#325=ORIENTED_EDGE('',*,*,#470,.F.);
#326=ORIENTED_EDGE('',*,*,#593,.F.);
#327=ORIENTED_EDGE('',*,*,#559,.T.);
#328=ORIENTED_EDGE('',*,*,#592,.T.);
#329=ORIENTED_EDGE('',*,*,#560,.T.);
#330=ORIENTED_EDGE('',*,*,#593,.T.);
#331=ORIENTED_EDGE('',*,*,#469,.F.);
#332=ORIENTED_EDGE('',*,*,#594,.F.);
#333=ORIENTED_EDGE('',*,*,#527,.F.);
#334=ORIENTED_EDGE('',*,*,#595,.F.);
#335=ORIENTED_EDGE('',*,*,#488,.F.);
#336=ORIENTED_EDGE('',*,*,#595,.T.);
#337=ORIENTED_EDGE('',*,*,#530,.F.);
#338=ORIENTED_EDGE('',*,*,#596,.F.);
#339=ORIENTED_EDGE('',*,*,#489,.F.);
#340=ORIENTED_EDGE('',*,*,#594,.T.);
#341=ORIENTED_EDGE('',*,*,#487,.F.);
#342=ORIENTED_EDGE('',*,*,#597,.F.);
#343=ORIENTED_EDGE('',*,*,#524,.F.);
#344=ORIENTED_EDGE('',*,*,#596,.T.);
#345=ORIENTED_EDGE('',*,*,#533,.F.);
#346=ORIENTED_EDGE('',*,*,#598,.F.);
#347=ORIENTED_EDGE('',*,*,#490,.F.);
#348=ORIENTED_EDGE('',*,*,#597,.T.);
#349=ORIENTED_EDGE('',*,*,#486,.F.);
#350=ORIENTED_EDGE('',*,*,#599,.F.);
#351=ORIENTED_EDGE('',*,*,#521,.F.);
#352=ORIENTED_EDGE('',*,*,#598,.T.);
#353=ORIENTED_EDGE('',*,*,#536,.F.);
#354=ORIENTED_EDGE('',*,*,#600,.F.);
#355=ORIENTED_EDGE('',*,*,#491,.F.);
#356=ORIENTED_EDGE('',*,*,#599,.T.);
#357=ORIENTED_EDGE('',*,*,#485,.F.);
#358=ORIENTED_EDGE('',*,*,#601,.F.);
#359=ORIENTED_EDGE('',*,*,#518,.F.);
#360=ORIENTED_EDGE('',*,*,#600,.T.);
#361=ORIENTED_EDGE('',*,*,#539,.F.);
#362=ORIENTED_EDGE('',*,*,#602,.F.);
#363=ORIENTED_EDGE('',*,*,#492,.F.);
#364=ORIENTED_EDGE('',*,*,#601,.T.);
#365=ORIENTED_EDGE('',*,*,#484,.F.);
#366=ORIENTED_EDGE('',*,*,#603,.F.);
#367=ORIENTED_EDGE('',*,*,#515,.F.);
#368=ORIENTED_EDGE('',*,*,#602,.T.);
#369=ORIENTED_EDGE('',*,*,#541,.F.);
#370=ORIENTED_EDGE('',*,*,#604,.F.);
#371=ORIENTED_EDGE('',*,*,#493,.F.);
#372=ORIENTED_EDGE('',*,*,#603,.T.);
#373=ORIENTED_EDGE('',*,*,#483,.F.);
#374=ORIENTED_EDGE('',*,*,#605,.F.);
#375=ORIENTED_EDGE('',*,*,#512,.F.);
#376=ORIENTED_EDGE('',*,*,#604,.T.);
#377=ORIENTED_EDGE('',*,*,#496,.F.);
#378=ORIENTED_EDGE('',*,*,#606,.F.);
#379=ORIENTED_EDGE('',*,*,#494,.F.);
#380=ORIENTED_EDGE('',*,*,#605,.T.);
#381=ORIENTED_EDGE('',*,*,#482,.F.);
#382=ORIENTED_EDGE('',*,*,#607,.F.);
#383=ORIENTED_EDGE('',*,*,#509,.F.);
#384=ORIENTED_EDGE('',*,*,#606,.T.);
#385=ORIENTED_EDGE('',*,*,#500,.F.);
#386=ORIENTED_EDGE('',*,*,#608,.F.);
#387=ORIENTED_EDGE('',*,*,#479,.F.);
#388=ORIENTED_EDGE('',*,*,#607,.T.);
#389=ORIENTED_EDGE('',*,*,#481,.F.);
#390=ORIENTED_EDGE('',*,*,#609,.F.);
#391=ORIENTED_EDGE('',*,*,#506,.F.);
#392=ORIENTED_EDGE('',*,*,#608,.T.);
#393=ORIENTED_EDGE('',*,*,#503,.F.);
#394=ORIENTED_EDGE('',*,*,#609,.T.);
#395=ORIENTED_EDGE('',*,*,#480,.F.);
#396=ORIENTED_EDGE('',*,*,#610,.F.);
#397=ORIENTED_EDGE('',*,*,#552,.F.);
#398=ORIENTED_EDGE('',*,*,#611,.F.);
#399=ORIENTED_EDGE('',*,*,#528,.F.);
#400=ORIENTED_EDGE('',*,*,#611,.T.);
#401=ORIENTED_EDGE('',*,*,#551,.F.);
#402=ORIENTED_EDGE('',*,*,#612,.F.);
#403=ORIENTED_EDGE('',*,*,#531,.F.);
#404=ORIENTED_EDGE('',*,*,#610,.T.);
#405=ORIENTED_EDGE('',*,*,#525,.F.);
#406=ORIENTED_EDGE('',*,*,#613,.F.);
#407=ORIENTED_EDGE('',*,*,#553,.F.);
#408=ORIENTED_EDGE('',*,*,#612,.T.);
#409=ORIENTED_EDGE('',*,*,#550,.F.);
#410=ORIENTED_EDGE('',*,*,#614,.F.);
#411=ORIENTED_EDGE('',*,*,#534,.F.);
#412=ORIENTED_EDGE('',*,*,#613,.T.);
#413=ORIENTED_EDGE('',*,*,#522,.F.);
#414=ORIENTED_EDGE('',*,*,#615,.F.);
#415=ORIENTED_EDGE('',*,*,#554,.F.);
#416=ORIENTED_EDGE('',*,*,#614,.T.);
#417=ORIENTED_EDGE('',*,*,#549,.F.);
#418=ORIENTED_EDGE('',*,*,#616,.F.);
#419=ORIENTED_EDGE('',*,*,#537,.F.);
#420=ORIENTED_EDGE('',*,*,#615,.T.);
#421=ORIENTED_EDGE('',*,*,#519,.F.);
#422=ORIENTED_EDGE('',*,*,#617,.F.);
#423=ORIENTED_EDGE('',*,*,#555,.F.);
#424=ORIENTED_EDGE('',*,*,#616,.T.);
#425=ORIENTED_EDGE('',*,*,#548,.F.);
#426=ORIENTED_EDGE('',*,*,#618,.F.);
#427=ORIENTED_EDGE('',*,*,#540,.F.);
#428=ORIENTED_EDGE('',*,*,#617,.T.);
#429=ORIENTED_EDGE('',*,*,#516,.F.);
#430=ORIENTED_EDGE('',*,*,#619,.F.);
#431=ORIENTED_EDGE('',*,*,#556,.F.);
#432=ORIENTED_EDGE('',*,*,#618,.T.);
#433=ORIENTED_EDGE('',*,*,#547,.F.);
#434=ORIENTED_EDGE('',*,*,#620,.F.);
#435=ORIENTED_EDGE('',*,*,#542,.F.);
#436=ORIENTED_EDGE('',*,*,#619,.T.);
#437=ORIENTED_EDGE('',*,*,#513,.F.);
#438=ORIENTED_EDGE('',*,*,#621,.F.);
#439=ORIENTED_EDGE('',*,*,#557,.F.);
#440=ORIENTED_EDGE('',*,*,#620,.T.);
#441=ORIENTED_EDGE('',*,*,#546,.F.);
#442=ORIENTED_EDGE('',*,*,#622,.F.);
#443=ORIENTED_EDGE('',*,*,#498,.F.);
#444=ORIENTED_EDGE('',*,*,#621,.T.);
#445=ORIENTED_EDGE('',*,*,#510,.F.);
#446=ORIENTED_EDGE('',*,*,#623,.F.);
#447=ORIENTED_EDGE('',*,*,#558,.F.);
#448=ORIENTED_EDGE('',*,*,#622,.T.);
#449=ORIENTED_EDGE('',*,*,#545,.F.);
#450=ORIENTED_EDGE('',*,*,#624,.F.);
#451=ORIENTED_EDGE('',*,*,#501,.F.);
#452=ORIENTED_EDGE('',*,*,#623,.T.);
#453=ORIENTED_EDGE('',*,*,#507,.F.);
#454=ORIENTED_EDGE('',*,*,#625,.F.);
#455=ORIENTED_EDGE('',*,*,#543,.F.);
#456=ORIENTED_EDGE('',*,*,#624,.T.);
#457=ORIENTED_EDGE('',*,*,#544,.F.);
#458=ORIENTED_EDGE('',*,*,#625,.T.);
#459=ORIENTED_EDGE('',*,*,#504,.F.);
#460=ORIENTED_EDGE('',*,*,#580,.F.);
#461=ORIENTED_EDGE('',*,*,#576,.F.);
#462=ORIENTED_EDGE('',*,*,#626,.F.);
#463=ORIENTED_EDGE('',*,*,#573,.T.);
#464=ORIENTED_EDGE('',*,*,#582,.F.);
#465=ORIENTED_EDGE('',*,*,#626,.T.);
#466=ORIENTED_EDGE('',*,*,#578,.F.);
#467=ORIENTED_EDGE('',*,*,#574,.F.);
#468=EDGE_CURVE('',#627,#628,#722,.T.);
#469=EDGE_CURVE('',#628,#629,#723,.T.);
#470=EDGE_CURVE('',#629,#630,#724,.T.);
#471=EDGE_CURVE('',#630,#631,#725,.T.);
#472=EDGE_CURVE('',#631,#632,#726,.T.);
#473=EDGE_CURVE('',#632,#633,#727,.T.);
#474=EDGE_CURVE('',#633,#634,#728,.T.);
#475=EDGE_CURVE('',#634,#635,#729,.T.);
#476=EDGE_CURVE('',#635,#636,#730,.T.);
#477=EDGE_CURVE('',#636,#637,#731,.T.);
#478=EDGE_CURVE('',#637,#627,#732,.T.);
#479=EDGE_CURVE('',#638,#639,#733,.F.);
#480=EDGE_CURVE('',#639,#640,#83,.T.);
#481=EDGE_CURVE('',#640,#641,#734,.T.);
#482=EDGE_CURVE('',#641,#642,#84,.T.);
#483=EDGE_CURVE('',#642,#643,#735,.T.);
#484=EDGE_CURVE('',#643,#644,#85,.T.);
#485=EDGE_CURVE('',#644,#645,#736,.F.);
#486=EDGE_CURVE('',#645,#646,#86,.T.);
#487=EDGE_CURVE('',#646,#647,#737,.F.);
#488=EDGE_CURVE('',#647,#648,#87,.F.);
#489=EDGE_CURVE('',#648,#649,#738,.T.);
#490=EDGE_CURVE('',#649,#650,#88,.T.);
#491=EDGE_CURVE('',#650,#651,#739,.F.);
#492=EDGE_CURVE('',#651,#652,#89,.T.);
#493=EDGE_CURVE('',#652,#653,#740,.F.);
#494=EDGE_CURVE('',#653,#638,#90,.F.);
#495=EDGE_CURVE('',#654,#655,#741,.T.);
#496=EDGE_CURVE('',#655,#656,#91,.T.);
#497=EDGE_CURVE('',#657,#656,#742,.T.);
#498=EDGE_CURVE('',#657,#654,#92,.F.);
#499=EDGE_CURVE('',#658,#659,#743,.T.);
#500=EDGE_CURVE('',#659,#655,#744,.T.);
#501=EDGE_CURVE('',#654,#658,#745,.F.);
#502=EDGE_CURVE('',#660,#661,#746,.T.);
#503=EDGE_CURVE('',#661,#659,#93,.F.);
#504=EDGE_CURVE('',#658,#660,#94,.T.);
#505=EDGE_CURVE('',#662,#663,#747,.T.);
#506=EDGE_CURVE('',#663,#661,#748,.F.);
#507=EDGE_CURVE('',#660,#662,#749,.T.);
#508=EDGE_CURVE('',#664,#665,#750,.T.);
#509=EDGE_CURVE('',#665,#663,#95,.F.);
#510=EDGE_CURVE('',#662,#664,#96,.T.);
#511=EDGE_CURVE('',#666,#667,#751,.T.);
#512=EDGE_CURVE('',#667,#665,#752,.F.);
#513=EDGE_CURVE('',#664,#666,#753,.T.);
#514=EDGE_CURVE('',#668,#669,#754,.T.);
#515=EDGE_CURVE('',#669,#667,#97,.F.);
#516=EDGE_CURVE('',#666,#668,#98,.T.);
#517=EDGE_CURVE('',#670,#671,#755,.T.);
#518=EDGE_CURVE('',#671,#669,#756,.T.);
#519=EDGE_CURVE('',#668,#670,#757,.F.);
#520=EDGE_CURVE('',#672,#673,#758,.T.);
#521=EDGE_CURVE('',#673,#671,#99,.F.);
#522=EDGE_CURVE('',#670,#672,#100,.T.);
#523=EDGE_CURVE('',#674,#675,#759,.T.);
#524=EDGE_CURVE('',#675,#673,#760,.T.);
#525=EDGE_CURVE('',#672,#674,#761,.F.);
#526=EDGE_CURVE('',#676,#677,#762,.T.);
#527=EDGE_CURVE('',#677,#675,#101,.T.);
#528=EDGE_CURVE('',#674,#676,#102,.F.);
#529=EDGE_CURVE('',#678,#679,#763,.T.);
#530=EDGE_CURVE('',#679,#677,#764,.F.);
#531=EDGE_CURVE('',#676,#678,#765,.T.);
#532=EDGE_CURVE('',#680,#681,#766,.T.);
#533=EDGE_CURVE('',#681,#679,#103,.F.);
#534=EDGE_CURVE('',#678,#680,#104,.T.);
#535=EDGE_CURVE('',#682,#683,#767,.T.);
#536=EDGE_CURVE('',#683,#681,#768,.T.);
#537=EDGE_CURVE('',#680,#682,#769,.F.);
#538=EDGE_CURVE('',#684,#685,#770,.T.);
#539=EDGE_CURVE('',#685,#683,#105,.F.);
#540=EDGE_CURVE('',#682,#684,#106,.T.);
#541=EDGE_CURVE('',#656,#685,#771,.T.);
#542=EDGE_CURVE('',#684,#657,#772,.F.);
#543=EDGE_CURVE('',#686,#687,#773,.F.);
#544=EDGE_CURVE('',#687,#688,#107,.F.);
#545=EDGE_CURVE('',#688,#689,#774,.T.);
#546=EDGE_CURVE('',#689,#690,#108,.T.);
#547=EDGE_CURVE('',#690,#691,#775,.T.);
#548=EDGE_CURVE('',#691,#692,#109,.F.);
#549=EDGE_CURVE('',#692,#693,#776,.T.);
#550=EDGE_CURVE('',#693,#694,#110,.F.);
#551=EDGE_CURVE('',#694,#695,#777,.F.);
#552=EDGE_CURVE('',#695,#696,#111,.T.);
#553=EDGE_CURVE('',#696,#697,#778,.T.);
#554=EDGE_CURVE('',#697,#698,#112,.F.);
#555=EDGE_CURVE('',#698,#699,#779,.T.);
#556=EDGE_CURVE('',#699,#700,#113,.F.);
#557=EDGE_CURVE('',#700,#701,#780,.F.);
#558=EDGE_CURVE('',#701,#686,#114,.F.);
#559=EDGE_CURVE('',#702,#703,#781,.T.);
#560=EDGE_CURVE('',#704,#702,#782,.T.);
#561=EDGE_CURVE('',#705,#704,#783,.T.);
#562=EDGE_CURVE('',#706,#705,#784,.T.);
#563=EDGE_CURVE('',#707,#706,#785,.T.);
#564=EDGE_CURVE('',#708,#707,#786,.T.);
#565=EDGE_CURVE('',#709,#708,#787,.T.);
#566=EDGE_CURVE('',#710,#709,#788,.T.);
#567=EDGE_CURVE('',#711,#710,#789,.T.);
#568=EDGE_CURVE('',#712,#711,#790,.T.);
#569=EDGE_CURVE('',#703,#712,#791,.T.);
#570=EDGE_CURVE('',#713,#714,#792,.T.);
#571=EDGE_CURVE('',#715,#713,#793,.T.);
#572=EDGE_CURVE('',#716,#715,#794,.T.);
#573=EDGE_CURVE('',#717,#716,#795,.T.);
#574=EDGE_CURVE('',#717,#714,#115,.F.);
#575=EDGE_CURVE('',#718,#719,#796,.T.);
#576=EDGE_CURVE('',#719,#720,#797,.T.);
#577=EDGE_CURVE('',#720,#718,#798,.T.);
#578=EDGE_CURVE('',#714,#719,#116,.F.);
#579=EDGE_CURVE('',#713,#718,#29,.F.);
#580=EDGE_CURVE('',#720,#721,#30,.T.);
#581=EDGE_CURVE('',#715,#721,#31,.F.);
#582=EDGE_CURVE('',#721,#716,#32,.F.);
#583=EDGE_CURVE('',#635,#708,#33,.T.);
#584=EDGE_CURVE('',#709,#634,#34,.F.);
#585=EDGE_CURVE('',#710,#633,#35,.F.);
#586=EDGE_CURVE('',#636,#707,#36,.T.);
#587=EDGE_CURVE('',#711,#632,#37,.F.);
#588=EDGE_CURVE('',#637,#706,#38,.T.);
#589=EDGE_CURVE('',#712,#631,#39,.F.);
#590=EDGE_CURVE('',#627,#705,#40,.T.);
#591=EDGE_CURVE('',#703,#630,#41,.F.);
#592=EDGE_CURVE('',#628,#704,#42,.T.);
#593=EDGE_CURVE('',#702,#629,#43,.F.);
#594=EDGE_CURVE('',#675,#647,#117,.T.);
#595=EDGE_CURVE('',#648,#677,#118,.T.);
#596=EDGE_CURVE('',#649,#679,#119,.T.);
#597=EDGE_CURVE('',#673,#646,#120,.T.);
#598=EDGE_CURVE('',#650,#681,#121,.T.);
#599=EDGE_CURVE('',#671,#645,#122,.T.);
#600=EDGE_CURVE('',#651,#683,#123,.T.);
#601=EDGE_CURVE('',#669,#644,#124,.T.);
#602=EDGE_CURVE('',#652,#685,#125,.T.);
#603=EDGE_CURVE('',#667,#643,#126,.T.);
#604=EDGE_CURVE('',#653,#656,#127,.T.);
#605=EDGE_CURVE('',#665,#642,#128,.T.);
#606=EDGE_CURVE('',#638,#655,#129,.T.);
#607=EDGE_CURVE('',#663,#641,#130,.T.);
#608=EDGE_CURVE('',#639,#659,#131,.T.);
#609=EDGE_CURVE('',#661,#640,#132,.T.);
#610=EDGE_CURVE('',#696,#674,#133,.T.);
#611=EDGE_CURVE('',#676,#695,#134,.T.);
#612=EDGE_CURVE('',#678,#694,#135,.T.);
#613=EDGE_CURVE('',#697,#672,#136,.T.);
#614=EDGE_CURVE('',#680,#693,#137,.T.);
#615=EDGE_CURVE('',#698,#670,#138,.T.);
#616=EDGE_CURVE('',#682,#692,#139,.T.);
#617=EDGE_CURVE('',#699,#668,#140,.T.);
#618=EDGE_CURVE('',#684,#691,#141,.T.);
#619=EDGE_CURVE('',#700,#666,#142,.T.);
#620=EDGE_CURVE('',#657,#690,#143,.T.);
#621=EDGE_CURVE('',#701,#664,#144,.T.);
#622=EDGE_CURVE('',#654,#689,#145,.T.);
#623=EDGE_CURVE('',#686,#662,#146,.T.);
#624=EDGE_CURVE('',#658,#688,#147,.T.);
#625=EDGE_CURVE('',#687,#660,#148,.T.);
#626=EDGE_CURVE('',#717,#719,#149,.T.);
#627=VERTEX_POINT('',#1641);
#628=VERTEX_POINT('',#1642);
#629=VERTEX_POINT('',#1644);
#630=VERTEX_POINT('',#1646);
#631=VERTEX_POINT('',#1648);
#632=VERTEX_POINT('',#1650);
#633=VERTEX_POINT('',#1652);
#634=VERTEX_POINT('',#1654);
#635=VERTEX_POINT('',#1656);
#636=VERTEX_POINT('',#1658);
#637=VERTEX_POINT('',#1660);
#638=VERTEX_POINT('',#1663);
#639=VERTEX_POINT('',#1664);
#640=VERTEX_POINT('',#1666);
#641=VERTEX_POINT('',#1668);
#642=VERTEX_POINT('',#1670);
#643=VERTEX_POINT('',#1672);
#644=VERTEX_POINT('',#1674);
#645=VERTEX_POINT('',#1676);
#646=VERTEX_POINT('',#1678);
#647=VERTEX_POINT('',#1680);
#648=VERTEX_POINT('',#1682);
#649=VERTEX_POINT('',#1684);
#650=VERTEX_POINT('',#1686);
#651=VERTEX_POINT('',#1688);
#652=VERTEX_POINT('',#1690);
#653=VERTEX_POINT('',#1692);
#654=VERTEX_POINT('',#1696);
#655=VERTEX_POINT('',#1697);
#656=VERTEX_POINT('',#1699);
#657=VERTEX_POINT('',#1701);
#658=VERTEX_POINT('',#1705);
#659=VERTEX_POINT('',#1706);
#660=VERTEX_POINT('',#1711);
#661=VERTEX_POINT('',#1712);
#662=VERTEX_POINT('',#1717);
#663=VERTEX_POINT('',#1718);
#664=VERTEX_POINT('',#1723);
#665=VERTEX_POINT('',#1724);
#666=VERTEX_POINT('',#1729);
#667=VERTEX_POINT('',#1730);
#668=VERTEX_POINT('',#1735);
#669=VERTEX_POINT('',#1736);
#670=VERTEX_POINT('',#1741);
#671=VERTEX_POINT('',#1742);
#672=VERTEX_POINT('',#1747);
#673=VERTEX_POINT('',#1748);
#674=VERTEX_POINT('',#1753);
#675=VERTEX_POINT('',#1754);
#676=VERTEX_POINT('',#1759);
#677=VERTEX_POINT('',#1760);
#678=VERTEX_POINT('',#1765);
#679=VERTEX_POINT('',#1766);
#680=VERTEX_POINT('',#1771);
#681=VERTEX_POINT('',#1772);
#682=VERTEX_POINT('',#1777);
#683=VERTEX_POINT('',#1778);
#684=VERTEX_POINT('',#1783);
#685=VERTEX_POINT('',#1784);
#686=VERTEX_POINT('',#1792);
#687=VERTEX_POINT('',#1793);
#688=VERTEX_POINT('',#1795);
#689=VERTEX_POINT('',#1797);
#690=VERTEX_POINT('',#1799);
#691=VERTEX_POINT('',#1801);
#692=VERTEX_POINT('',#1803);
#693=VERTEX_POINT('',#1805);
#694=VERTEX_POINT('',#1807);
#695=VERTEX_POINT('',#1809);
#696=VERTEX_POINT('',#1811);
#697=VERTEX_POINT('',#1813);
#698=VERTEX_POINT('',#1815);
#699=VERTEX_POINT('',#1817);
#700=VERTEX_POINT('',#1819);
#701=VERTEX_POINT('',#1821);
#702=VERTEX_POINT('',#1825);
#703=VERTEX_POINT('',#1826);
#704=VERTEX_POINT('',#1828);
#705=VERTEX_POINT('',#1830);
#706=VERTEX_POINT('',#1832);
#707=VERTEX_POINT('',#1834);
#708=VERTEX_POINT('',#1836);
#709=VERTEX_POINT('',#1838);
#710=VERTEX_POINT('',#1840);
#711=VERTEX_POINT('',#1842);
#712=VERTEX_POINT('',#1844);
#713=VERTEX_POINT('',#1847);
#714=VERTEX_POINT('',#1848);
#715=VERTEX_POINT('',#1850);
#716=VERTEX_POINT('',#1852);
#717=VERTEX_POINT('',#1854);
#718=VERTEX_POINT('',#1858);
#719=VERTEX_POINT('',#1859);
#720=VERTEX_POINT('',#1861);
#721=VERTEX_POINT('',#1868);
#722=LINE('',#1640,#799);
#723=LINE('',#1643,#800);
#724=LINE('',#1645,#801);
#725=LINE('',#1647,#802);
#726=LINE('',#1649,#803);
#727=LINE('',#1651,#804);
#728=LINE('',#1653,#805);
#729=LINE('',#1655,#806);
#730=LINE('',#1657,#807);
#731=LINE('',#1659,#808);
#732=LINE('',#1661,#809);
#733=LINE('',#1662,#810);
#734=LINE('',#1667,#811);
#735=LINE('',#1671,#812);
#736=LINE('',#1675,#813);
#737=LINE('',#1679,#814);
#738=LINE('',#1683,#815);
#739=LINE('',#1687,#816);
#740=LINE('',#1691,#817);
#741=LINE('',#1695,#818);
#742=LINE('',#1700,#819);
#743=LINE('',#1704,#820);
#744=LINE('',#1707,#821);
#745=LINE('',#1708,#822);
#746=LINE('',#1710,#823);
#747=LINE('',#1716,#824);
#748=LINE('',#1719,#825);
#749=LINE('',#1720,#826);
#750=LINE('',#1722,#827);
#751=LINE('',#1728,#828);
#752=LINE('',#1731,#829);
#753=LINE('',#1732,#830);
#754=LINE('',#1734,#831);
#755=LINE('',#1740,#832);
#756=LINE('',#1743,#833);
#757=LINE('',#1744,#834);
#758=LINE('',#1746,#835);
#759=LINE('',#1752,#836);
#760=LINE('',#1755,#837);
#761=LINE('',#1756,#838);
#762=LINE('',#1758,#839);
#763=LINE('',#1764,#840);
#764=LINE('',#1767,#841);
#765=LINE('',#1768,#842);
#766=LINE('',#1770,#843);
#767=LINE('',#1776,#844);
#768=LINE('',#1779,#845);
#769=LINE('',#1780,#846);
#770=LINE('',#1782,#847);
#771=LINE('',#1788,#848);
#772=LINE('',#1789,#849);
#773=LINE('',#1791,#850);
#774=LINE('',#1796,#851);
#775=LINE('',#1800,#852);
#776=LINE('',#1804,#853);
#777=LINE('',#1808,#854);
#778=LINE('',#1812,#855);
#779=LINE('',#1816,#856);
#780=LINE('',#1820,#857);
#781=LINE('',#1824,#858);
#782=LINE('',#1827,#859);
#783=LINE('',#1829,#860);
#784=LINE('',#1831,#861);
#785=LINE('',#1833,#862);
#786=LINE('',#1835,#863);
#787=LINE('',#1837,#864);
#788=LINE('',#1839,#865);
#789=LINE('',#1841,#866);
#790=LINE('',#1843,#867);
#791=LINE('',#1845,#868);
#792=LINE('',#1846,#869);
#793=LINE('',#1849,#870);
#794=LINE('',#1851,#871);
#795=LINE('',#1853,#872);
#796=LINE('',#1857,#873);
#797=LINE('',#1860,#874);
#798=LINE('',#1862,#875);
#799=VECTOR('',#1263,1.);
#800=VECTOR('',#1264,1.);
#801=VECTOR('',#1265,1.);
#802=VECTOR('',#1266,1.);
#803=VECTOR('',#1267,1.);
#804=VECTOR('',#1268,1.);
#805=VECTOR('',#1269,1.);
#806=VECTOR('',#1270,1.);
#807=VECTOR('',#1271,1.);
#808=VECTOR('',#1272,1.);
#809=VECTOR('',#1273,1.);
#810=VECTOR('',#1274,1.);
#811=VECTOR('',#1277,1.);
#812=VECTOR('',#1280,1.);
#813=VECTOR('',#1283,1.);
#814=VECTOR('',#1286,1.);
#815=VECTOR('',#1289,1.);
#816=VECTOR('',#1292,1.);
#817=VECTOR('',#1295,1.);
#818=VECTOR('',#1300,1.);
#819=VECTOR('',#1303,1.);
#820=VECTOR('',#1308,1.);
#821=VECTOR('',#1309,1.);
#822=VECTOR('',#1310,1.);
#823=VECTOR('',#1313,1.);
#824=VECTOR('',#1320,1.);
#825=VECTOR('',#1321,1.);
#826=VECTOR('',#1322,1.);
#827=VECTOR('',#1325,1.);
#828=VECTOR('',#1332,1.);
#829=VECTOR('',#1333,1.);
#830=VECTOR('',#1334,1.);
#831=VECTOR('',#1337,1.);
#832=VECTOR('',#1344,1.);
#833=VECTOR('',#1345,1.);
#834=VECTOR('',#1346,1.);
#835=VECTOR('',#1349,1.);
#836=VECTOR('',#1356,1.);
#837=VECTOR('',#1357,1.);
#838=VECTOR('',#1358,1.);
#839=VECTOR('',#1361,1.);
#840=VECTOR('',#1368,1.);
#841=VECTOR('',#1369,1.);
#842=VECTOR('',#1370,1.);
#843=VECTOR('',#1373,1.);
#844=VECTOR('',#1380,1.);
#845=VECTOR('',#1381,1.);
#846=VECTOR('',#1382,1.);
#847=VECTOR('',#1385,1.);
#848=VECTOR('',#1392,1.);
#849=VECTOR('',#1393,1.);
#850=VECTOR('',#1396,1.);
#851=VECTOR('',#1399,1.);
#852=VECTOR('',#1402,1.);
#853=VECTOR('',#1405,1.);
#854=VECTOR('',#1408,1.);
#855=VECTOR('',#1411,1.);
#856=VECTOR('',#1414,1.);
#857=VECTOR('',#1417,1.);
#858=VECTOR('',#1422,1.);
#859=VECTOR('',#1423,1.);
#860=VECTOR('',#1424,1.);
#861=VECTOR('',#1425,1.);
#862=VECTOR('',#1426,1.);
#863=VECTOR('',#1427,1.);
#864=VECTOR('',#1428,1.);
#865=VECTOR('',#1429,1.);
#866=VECTOR('',#1430,1.);
#867=VECTOR('',#1431,1.);
#868=VECTOR('',#1432,1.);
#869=VECTOR('',#1433,1.);
#870=VECTOR('',#1434,1.);
#871=VECTOR('',#1435,1.);
#872=VECTOR('',#1436,1.);
#873=VECTOR('',#1441,1.);
#874=VECTOR('',#1442,1.);
#875=VECTOR('',#1443,1.);
#876=EDGE_LOOP('',(#150,#151,#152,#153,#154,#155,#156,#157,#158,#159,#160));
#877=EDGE_LOOP('',(#161,#162,#163,#164,#165,#166,#167,#168,#169,#170,#171,
#172,#173,#174,#175,#176));
#878=EDGE_LOOP('',(#177,#178,#179,#180));
#879=EDGE_LOOP('',(#181,#182,#183,#184));
#880=EDGE_LOOP('',(#185,#186,#187,#188));
#881=EDGE_LOOP('',(#189,#190,#191,#192));
#882=EDGE_LOOP('',(#193,#194,#195,#196));
#883=EDGE_LOOP('',(#197,#198,#199,#200));
#884=EDGE_LOOP('',(#201,#202,#203,#204));
#885=EDGE_LOOP('',(#205,#206,#207,#208));
#886=EDGE_LOOP('',(#209,#210,#211,#212));
#887=EDGE_LOOP('',(#213,#214,#215,#216));
#888=EDGE_LOOP('',(#217,#218,#219,#220));
#889=EDGE_LOOP('',(#221,#222,#223,#224));
#890=EDGE_LOOP('',(#225,#226,#227,#228));
#891=EDGE_LOOP('',(#229,#230,#231,#232));
#892=EDGE_LOOP('',(#233,#234,#235,#236));
#893=EDGE_LOOP('',(#237,#238,#239,#240));
#894=EDGE_LOOP('',(#241,#242,#243,#244,#245,#246,#247,#248,#249,#250,#251,
#252,#253,#254,#255,#256));
#895=EDGE_LOOP('',(#257,#258,#259,#260,#261,#262,#263,#264,#265,#266,#267));
#896=EDGE_LOOP('',(#268,#269,#270,#271,#272));
#897=EDGE_LOOP('',(#273,#274,#275));
#898=EDGE_LOOP('',(#276,#277,#278,#279));
#899=EDGE_LOOP('',(#280,#281,#282,#283,#284));
#900=EDGE_LOOP('',(#285,#286,#287));
#901=EDGE_LOOP('',(#288,#289,#290,#291));
#902=EDGE_LOOP('',(#292,#293,#294,#295));
#903=EDGE_LOOP('',(#296,#297,#298,#299));
#904=EDGE_LOOP('',(#300,#301,#302,#303));
#905=EDGE_LOOP('',(#304,#305,#306,#307));
#906=EDGE_LOOP('',(#308,#309,#310,#311));
#907=EDGE_LOOP('',(#312,#313,#314,#315));
#908=EDGE_LOOP('',(#316,#317,#318,#319));
#909=EDGE_LOOP('',(#320,#321,#322,#323));
#910=EDGE_LOOP('',(#324,#325,#326,#327));
#911=EDGE_LOOP('',(#328,#329,#330,#331));
#912=EDGE_LOOP('',(#332,#333,#334,#335));
#913=EDGE_LOOP('',(#336,#337,#338,#339));
#914=EDGE_LOOP('',(#340,#341,#342,#343));
#915=EDGE_LOOP('',(#344,#345,#346,#347));
#916=EDGE_LOOP('',(#348,#349,#350,#351));
#917=EDGE_LOOP('',(#352,#353,#354,#355));
#918=EDGE_LOOP('',(#356,#357,#358,#359));
#919=EDGE_LOOP('',(#360,#361,#362,#363));
#920=EDGE_LOOP('',(#364,#365,#366,#367));
#921=EDGE_LOOP('',(#368,#369,#370,#371));
#922=EDGE_LOOP('',(#372,#373,#374,#375));
#923=EDGE_LOOP('',(#376,#377,#378,#379));
#924=EDGE_LOOP('',(#380,#381,#382,#383));
#925=EDGE_LOOP('',(#384,#385,#386,#387));
#926=EDGE_LOOP('',(#388,#389,#390,#391));
#927=EDGE_LOOP('',(#392,#393,#394,#395));
#928=EDGE_LOOP('',(#396,#397,#398,#399));
#929=EDGE_LOOP('',(#400,#401,#402,#403));
#930=EDGE_LOOP('',(#404,#405,#406,#407));
#931=EDGE_LOOP('',(#408,#409,#410,#411));
#932=EDGE_LOOP('',(#412,#413,#414,#415));
#933=EDGE_LOOP('',(#416,#417,#418,#419));
#934=EDGE_LOOP('',(#420,#421,#422,#423));
#935=EDGE_LOOP('',(#424,#425,#426,#427));
#936=EDGE_LOOP('',(#428,#429,#430,#431));
#937=EDGE_LOOP('',(#432,#433,#434,#435));
#938=EDGE_LOOP('',(#436,#437,#438,#439));
#939=EDGE_LOOP('',(#440,#441,#442,#443));
#940=EDGE_LOOP('',(#444,#445,#446,#447));
#941=EDGE_LOOP('',(#448,#449,#450,#451));
#942=EDGE_LOOP('',(#452,#453,#454,#455));
#943=EDGE_LOOP('',(#456,#457,#458,#459));
#944=EDGE_LOOP('',(#460,#461,#462,#463,#464));
#945=EDGE_LOOP('',(#465,#466,#467));
#946=FACE_BOUND('',#876,.T.);
#947=FACE_BOUND('',#877,.T.);
#948=FACE_BOUND('',#878,.T.);
#949=FACE_BOUND('',#879,.T.);
#950=FACE_BOUND('',#880,.T.);
#951=FACE_BOUND('',#881,.T.);
#952=FACE_BOUND('',#882,.T.);
#953=FACE_BOUND('',#883,.T.);
#954=FACE_BOUND('',#884,.T.);
#955=FACE_BOUND('',#885,.T.);
#956=FACE_BOUND('',#886,.T.);
#957=FACE_BOUND('',#887,.T.);
#958=FACE_BOUND('',#888,.T.);
#959=FACE_BOUND('',#889,.T.);
#960=FACE_BOUND('',#890,.T.);
#961=FACE_BOUND('',#891,.T.);
#962=FACE_BOUND('',#892,.T.);
#963=FACE_BOUND('',#893,.T.);
#964=FACE_BOUND('',#894,.T.);
#965=FACE_BOUND('',#895,.T.);
#966=FACE_BOUND('',#896,.T.);
#967=FACE_BOUND('',#897,.T.);
#968=FACE_BOUND('',#898,.T.);
#969=FACE_BOUND('',#899,.T.);
#970=FACE_BOUND('',#900,.T.);
#971=FACE_BOUND('',#901,.T.);
#972=FACE_BOUND('',#902,.T.);
#973=FACE_BOUND('',#903,.T.);
#974=FACE_BOUND('',#904,.T.);
#975=FACE_BOUND('',#905,.T.);
#976=FACE_BOUND('',#906,.T.);
#977=FACE_BOUND('',#907,.T.);
#978=FACE_BOUND('',#908,.T.);
#979=FACE_BOUND('',#909,.T.);
#980=FACE_BOUND('',#910,.T.);
#981=FACE_BOUND('',#911,.T.);
#982=FACE_BOUND('',#912,.T.);
#983=FACE_BOUND('',#913,.T.);
#984=FACE_BOUND('',#914,.T.);
#985=FACE_BOUND('',#915,.T.);
#986=FACE_BOUND('',#916,.T.);
#987=FACE_BOUND('',#917,.T.);
#988=FACE_BOUND('',#918,.T.);
#989=FACE_BOUND('',#919,.T.);
#990=FACE_BOUND('',#920,.T.);
#991=FACE_BOUND('',#921,.T.);
#992=FACE_BOUND('',#922,.T.);
#993=FACE_BOUND('',#923,.T.);
#994=FACE_BOUND('',#924,.T.);
#995=FACE_BOUND('',#925,.T.);
#996=FACE_BOUND('',#926,.T.);
#997=FACE_BOUND('',#927,.T.);
#998=FACE_BOUND('',#928,.T.);
#999=FACE_BOUND('',#929,.T.);
#1000=FACE_BOUND('',#930,.T.);
#1001=FACE_BOUND('',#931,.T.);
#1002=FACE_BOUND('',#932,.T.);
#1003=FACE_BOUND('',#933,.T.);
#1004=FACE_BOUND('',#934,.T.);
#1005=FACE_BOUND('',#935,.T.);
#1006=FACE_BOUND('',#936,.T.);
#1007=FACE_BOUND('',#937,.T.);
#1008=FACE_BOUND('',#938,.T.);
#1009=FACE_BOUND('',#939,.T.);
#1010=FACE_BOUND('',#940,.T.);
#1011=FACE_BOUND('',#941,.T.);
#1012=FACE_BOUND('',#942,.T.);
#1013=FACE_BOUND('',#943,.T.);
#1014=FACE_BOUND('',#944,.T.);
#1015=FACE_BOUND('',#945,.T.);
#1016=PLANE('',#1109);
#1017=PLANE('',#1121);
#1018=PLANE('',#1125);
#1019=PLANE('',#1129);
#1020=PLANE('',#1133);
#1021=PLANE('',#1137);
#1022=PLANE('',#1141);
#1023=PLANE('',#1145);
#1024=PLANE('',#1149);
#1025=PLANE('',#1150);
#1026=PLANE('',#1159);
#1027=PLANE('',#1161);
#1028=ADVANCED_FACE('',(#946,#947),#1016,.T.);
#1029=ADVANCED_FACE('',(#948),#44,.F.);
#1030=ADVANCED_FACE('',(#949),#1017,.F.);
#1031=ADVANCED_FACE('',(#950),#45,.T.);
#1032=ADVANCED_FACE('',(#951),#1018,.T.);
#1033=ADVANCED_FACE('',(#952),#46,.T.);
#1034=ADVANCED_FACE('',(#953),#1019,.T.);
#1035=ADVANCED_FACE('',(#954),#47,.T.);
#1036=ADVANCED_FACE('',(#955),#1020,.F.);
#1037=ADVANCED_FACE('',(#956),#48,.T.);
#1038=ADVANCED_FACE('',(#957),#1021,.F.);
#1039=ADVANCED_FACE('',(#958),#49,.F.);
#1040=ADVANCED_FACE('',(#959),#1022,.T.);
#1041=ADVANCED_FACE('',(#960),#50,.T.);
#1042=ADVANCED_FACE('',(#961),#1023,.F.);
#1043=ADVANCED_FACE('',(#962),#51,.T.);
#1044=ADVANCED_FACE('',(#963),#1024,.F.);
#1045=ADVANCED_FACE('',(#964),#1025,.F.);
#1046=ADVANCED_FACE('',(#965,#966),#1026,.T.);
#1047=ADVANCED_FACE('',(#967),#1027,.T.);
#1048=ADVANCED_FACE('',(#968),#52,.T.);
#1049=ADVANCED_FACE('',(#969),#53,.T.);
#1050=ADVANCED_FACE('',(#970),#54,.T.);
#1051=ADVANCED_FACE('',(#971),#55,.T.);
#1052=ADVANCED_FACE('',(#972),#56,.T.);
#1053=ADVANCED_FACE('',(#973),#57,.T.);
#1054=ADVANCED_FACE('',(#974),#58,.T.);
#1055=ADVANCED_FACE('',(#975),#59,.T.);
#1056=ADVANCED_FACE('',(#976),#60,.T.);
#1057=ADVANCED_FACE('',(#977),#61,.T.);
#1058=ADVANCED_FACE('',(#978),#62,.T.);
#1059=ADVANCED_FACE('',(#979),#63,.T.);
#1060=ADVANCED_FACE('',(#980),#64,.T.);
#1061=ADVANCED_FACE('',(#981),#65,.T.);
#1062=ADVANCED_FACE('',(#982),#13,.T.);
#1063=ADVANCED_FACE('',(#983),#66,.T.);
#1064=ADVANCED_FACE('',(#984),#67,.T.);
#1065=ADVANCED_FACE('',(#985),#14,.T.);
#1066=ADVANCED_FACE('',(#986),#15,.T.);
#1067=ADVANCED_FACE('',(#987),#68,.T.);
#1068=ADVANCED_FACE('',(#988),#69,.T.);
#1069=ADVANCED_FACE('',(#989),#16,.T.);
#1070=ADVANCED_FACE('',(#990),#17,.T.);
#1071=ADVANCED_FACE('',(#991),#70,.T.);
#1072=ADVANCED_FACE('',(#992),#71,.T.);
#1073=ADVANCED_FACE('',(#993),#18,.T.);
#1074=ADVANCED_FACE('',(#994),#19,.T.);
#1075=ADVANCED_FACE('',(#995),#72,.T.);
#1076=ADVANCED_FACE('',(#996),#73,.T.);
#1077=ADVANCED_FACE('',(#997),#20,.T.);
#1078=ADVANCED_FACE('',(#998),#21,.T.);
#1079=ADVANCED_FACE('',(#999),#74,.T.);
#1080=ADVANCED_FACE('',(#1000),#75,.T.);
#1081=ADVANCED_FACE('',(#1001),#22,.T.);
#1082=ADVANCED_FACE('',(#1002),#23,.T.);
#1083=ADVANCED_FACE('',(#1003),#76,.T.);
#1084=ADVANCED_FACE('',(#1004),#77,.T.);
#1085=ADVANCED_FACE('',(#1005),#24,.T.);
#1086=ADVANCED_FACE('',(#1006),#25,.T.);
#1087=ADVANCED_FACE('',(#1007),#78,.T.);
#1088=ADVANCED_FACE('',(#1008),#79,.T.);
#1089=ADVANCED_FACE('',(#1009),#26,.T.);
#1090=ADVANCED_FACE('',(#1010),#27,.T.);
#1091=ADVANCED_FACE('',(#1011),#80,.T.);
#1092=ADVANCED_FACE('',(#1012),#81,.T.);
#1093=ADVANCED_FACE('',(#1013),#28,.T.);
#1094=ADVANCED_FACE('',(#1014),#82,.T.);
#1095=ADVANCED_FACE('',(#1015),#12,.T.);
#1096=CLOSED_SHELL('',(#1028,#1029,#1030,#1031,#1032,#1033,#1034,#1035,
#1036,#1037,#1038,#1039,#1040,#1041,#1042,#1043,#1044,#1045,#1046,#1047,
#1048,#1049,#1050,#1051,#1052,#1053,#1054,#1055,#1056,#1057,#1058,#1059,
#1060,#1061,#1062,#1063,#1064,#1065,#1066,#1067,#1068,#1069,#1070,#1071,
#1072,#1073,#1074,#1075,#1076,#1077,#1078,#1079,#1080,#1081,#1082,#1083,
#1084,#1085,#1086,#1087,#1088,#1089,#1090,#1091,#1092,#1093,#1094,#1095));
#1097=STYLED_ITEM('',(#1098),#1105);
#1098=PRESENTATION_STYLE_ASSIGNMENT((#1099));
#1099=SURFACE_STYLE_USAGE(.BOTH.,#1100);
#1100=SURFACE_SIDE_STYLE('',(#1101));
#1101=SURFACE_STYLE_FILL_AREA(#1102);
#1102=FILL_AREA_STYLE('',(#1103));
#1103=FILL_AREA_STYLE_COLOUR('',#1104);
#1104=COLOUR_RGB('',0.231372549019608,0.380392156862745,0.705882352941177);
#1105=MANIFOLD_SOLID_BREP('CALIBRATION_spacer_4',#1096);
#1106=SHAPE_DEFINITION_REPRESENTATION(#1967,#1107);
#1107=SHAPE_REPRESENTATION('CALIBRATION_spacer_4',(#1108),#1962);
#1108=AXIS2_PLACEMENT_3D('',#1638,#1259,#1260);
#1109=AXIS2_PLACEMENT_3D('',#1639,#1261,#1262);
#1110=AXIS2_PLACEMENT_3D('',#1665,#1275,#1276);
#1111=AXIS2_PLACEMENT_3D('',#1669,#1278,#1279);
#1112=AXIS2_PLACEMENT_3D('',#1673,#1281,#1282);
#1113=AXIS2_PLACEMENT_3D('',#1677,#1284,#1285);
#1114=AXIS2_PLACEMENT_3D('',#1681,#1287,#1288);
#1115=AXIS2_PLACEMENT_3D('',#1685,#1290,#1291);
#1116=AXIS2_PLACEMENT_3D('',#1689,#1293,#1294);
#1117=AXIS2_PLACEMENT_3D('',#1693,#1296,#1297);
#1118=AXIS2_PLACEMENT_3D('',#1694,#1298,#1299);
#1119=AXIS2_PLACEMENT_3D('',#1698,#1301,#1302);
#1120=AXIS2_PLACEMENT_3D('',#1702,#1304,#1305);
#1121=AXIS2_PLACEMENT_3D('',#1703,#1306,#1307);
#1122=AXIS2_PLACEMENT_3D('',#1709,#1311,#1312);
#1123=AXIS2_PLACEMENT_3D('',#1713,#1314,#1315);
#1124=AXIS2_PLACEMENT_3D('',#1714,#1316,#1317);
#1125=AXIS2_PLACEMENT_3D('',#1715,#1318,#1319);
#1126=AXIS2_PLACEMENT_3D('',#1721,#1323,#1324);
#1127=AXIS2_PLACEMENT_3D('',#1725,#1326,#1327);
#1128=AXIS2_PLACEMENT_3D('',#1726,#1328,#1329);
#1129=AXIS2_PLACEMENT_3D('',#1727,#1330,#1331);
#1130=AXIS2_PLACEMENT_3D('',#1733,#1335,#1336);
#1131=AXIS2_PLACEMENT_3D('',#1737,#1338,#1339);
#1132=AXIS2_PLACEMENT_3D('',#1738,#1340,#1341);
#1133=AXIS2_PLACEMENT_3D('',#1739,#1342,#1343);
#1134=AXIS2_PLACEMENT_3D('',#1745,#1347,#1348);
#1135=AXIS2_PLACEMENT_3D('',#1749,#1350,#1351);
#1136=AXIS2_PLACEMENT_3D('',#1750,#1352,#1353);
#1137=AXIS2_PLACEMENT_3D('',#1751,#1354,#1355);
#1138=AXIS2_PLACEMENT_3D('',#1757,#1359,#1360);
#1139=AXIS2_PLACEMENT_3D('',#1761,#1362,#1363);
#1140=AXIS2_PLACEMENT_3D('',#1762,#1364,#1365);
#1141=AXIS2_PLACEMENT_3D('',#1763,#1366,#1367);
#1142=AXIS2_PLACEMENT_3D('',#1769,#1371,#1372);
#1143=AXIS2_PLACEMENT_3D('',#1773,#1374,#1375);
#1144=AXIS2_PLACEMENT_3D('',#1774,#1376,#1377);
#1145=AXIS2_PLACEMENT_3D('',#1775,#1378,#1379);
#1146=AXIS2_PLACEMENT_3D('',#1781,#1383,#1384);
#1147=AXIS2_PLACEMENT_3D('',#1785,#1386,#1387);
#1148=AXIS2_PLACEMENT_3D('',#1786,#1388,#1389);
#1149=AXIS2_PLACEMENT_3D('',#1787,#1390,#1391);
#1150=AXIS2_PLACEMENT_3D('',#1790,#1394,#1395);
#1151=AXIS2_PLACEMENT_3D('',#1794,#1397,#1398);
#1152=AXIS2_PLACEMENT_3D('',#1798,#1400,#1401);
#1153=AXIS2_PLACEMENT_3D('',#1802,#1403,#1404);
#1154=AXIS2_PLACEMENT_3D('',#1806,#1406,#1407);
#1155=AXIS2_PLACEMENT_3D('',#1810,#1409,#1410);
#1156=AXIS2_PLACEMENT_3D('',#1814,#1412,#1413);
#1157=AXIS2_PLACEMENT_3D('',#1818,#1415,#1416);
#1158=AXIS2_PLACEMENT_3D('',#1822,#1418,#1419);
#1159=AXIS2_PLACEMENT_3D('',#1823,#1420,#1421);
#1160=AXIS2_PLACEMENT_3D('',#1855,#1437,#1438);
#1161=AXIS2_PLACEMENT_3D('',#1856,#1439,#1440);
#1162=AXIS2_PLACEMENT_3D('',#1863,#1444,#1445);
#1163=AXIS2_PLACEMENT_3D('',#1864,#1446,#1447);
#1164=AXIS2_PLACEMENT_3D('',#1865,#1448,#1449);
#1165=AXIS2_PLACEMENT_3D('',#1866,#1450,#1451);
#1166=AXIS2_PLACEMENT_3D('',#1867,#1452,#1453);
#1167=AXIS2_PLACEMENT_3D('',#1869,#1454,#1455);
#1168=AXIS2_PLACEMENT_3D('',#1870,#1456,#1457);
#1169=AXIS2_PLACEMENT_3D('',#1871,#1458,#1459);
#1170=AXIS2_PLACEMENT_3D('',#1872,#1460,#1461);
#1171=AXIS2_PLACEMENT_3D('',#1873,#1462,#1463);
#1172=AXIS2_PLACEMENT_3D('',#1874,#1464,#1465);
#1173=AXIS2_PLACEMENT_3D('',#1875,#1466,#1467);
#1174=AXIS2_PLACEMENT_3D('',#1876,#1468,#1469);
#1175=AXIS2_PLACEMENT_3D('',#1877,#1470,#1471);
#1176=AXIS2_PLACEMENT_3D('',#1878,#1472,#1473);
#1177=AXIS2_PLACEMENT_3D('',#1879,#1474,#1475);
#1178=AXIS2_PLACEMENT_3D('',#1880,#1476,#1477);
#1179=AXIS2_PLACEMENT_3D('',#1881,#1478,#1479);
#1180=AXIS2_PLACEMENT_3D('',#1882,#1480,#1481);
#1181=AXIS2_PLACEMENT_3D('',#1883,#1482,#1483);
#1182=AXIS2_PLACEMENT_3D('',#1884,#1484,#1485);
#1183=AXIS2_PLACEMENT_3D('',#1885,#1486,#1487);
#1184=AXIS2_PLACEMENT_3D('',#1886,#1488,#1489);
#1185=AXIS2_PLACEMENT_3D('',#1887,#1490,#1491);
#1186=AXIS2_PLACEMENT_3D('',#1888,#1492,#1493);
#1187=AXIS2_PLACEMENT_3D('',#1889,#1494,#1495);
#1188=AXIS2_PLACEMENT_3D('',#1890,#1496,#1497);
#1189=AXIS2_PLACEMENT_3D('',#1891,#1498,#1499);
#1190=AXIS2_PLACEMENT_3D('',#1892,#1500,#1501);
#1191=AXIS2_PLACEMENT_3D('',#1893,#1502,#1503);
#1192=AXIS2_PLACEMENT_3D('',#1894,#1504,#1505);
#1193=AXIS2_PLACEMENT_3D('',#1895,#1506,#1507);
#1194=AXIS2_PLACEMENT_3D('',#1896,#1508,#1509);
#1195=AXIS2_PLACEMENT_3D('',#1897,#1510,#1511);
#1196=AXIS2_PLACEMENT_3D('',#1898,#1512,#1513);
#1197=AXIS2_PLACEMENT_3D('',#1899,#1514,#1515);
#1198=AXIS2_PLACEMENT_3D('',#1900,#1516,#1517);
#1199=AXIS2_PLACEMENT_3D('',#1901,#1518,#1519);
#1200=AXIS2_PLACEMENT_3D('',#1902,#1520,#1521);
#1201=AXIS2_PLACEMENT_3D('',#1903,#1522,#1523);
#1202=AXIS2_PLACEMENT_3D('',#1904,#1524,#1525);
#1203=AXIS2_PLACEMENT_3D('',#1905,#1526,#1527);
#1204=AXIS2_PLACEMENT_3D('',#1906,#1528,#1529);
#1205=AXIS2_PLACEMENT_3D('',#1907,#1530,#1531);
#1206=AXIS2_PLACEMENT_3D('',#1908,#1532,#1533);
#1207=AXIS2_PLACEMENT_3D('',#1909,#1534,#1535);
#1208=AXIS2_PLACEMENT_3D('',#1910,#1536,#1537);
#1209=AXIS2_PLACEMENT_3D('',#1911,#1538,#1539);
#1210=AXIS2_PLACEMENT_3D('',#1912,#1540,#1541);
#1211=AXIS2_PLACEMENT_3D('',#1913,#1542,#1543);
#1212=AXIS2_PLACEMENT_3D('',#1914,#1544,#1545);
#1213=AXIS2_PLACEMENT_3D('',#1915,#1546,#1547);
#1214=AXIS2_PLACEMENT_3D('',#1916,#1548,#1549);
#1215=AXIS2_PLACEMENT_3D('',#1917,#1550,#1551);
#1216=AXIS2_PLACEMENT_3D('',#1918,#1552,#1553);
#1217=AXIS2_PLACEMENT_3D('',#1919,#1554,#1555);
#1218=AXIS2_PLACEMENT_3D('',#1920,#1556,#1557);
#1219=AXIS2_PLACEMENT_3D('',#1921,#1558,#1559);
#1220=AXIS2_PLACEMENT_3D('',#1922,#1560,#1561);
#1221=AXIS2_PLACEMENT_3D('',#1923,#1562,#1563);
#1222=AXIS2_PLACEMENT_3D('',#1924,#1564,#1565);
#1223=AXIS2_PLACEMENT_3D('',#1925,#1566,#1567);
#1224=AXIS2_PLACEMENT_3D('',#1926,#1568,#1569);
#1225=AXIS2_PLACEMENT_3D('',#1927,#1570,#1571);
#1226=AXIS2_PLACEMENT_3D('',#1928,#1572,#1573);
#1227=AXIS2_PLACEMENT_3D('',#1929,#1574,#1575);
#1228=AXIS2_PLACEMENT_3D('',#1930,#1576,#1577);
#1229=AXIS2_PLACEMENT_3D('',#1931,#1578,#1579);
#1230=AXIS2_PLACEMENT_3D('',#1932,#1580,#1581);
#1231=AXIS2_PLACEMENT_3D('',#1933,#1582,#1583);
#1232=AXIS2_PLACEMENT_3D('',#1934,#1584,#1585);
#1233=AXIS2_PLACEMENT_3D('',#1935,#1586,#1587);
#1234=AXIS2_PLACEMENT_3D('',#1936,#1588,#1589);
#1235=AXIS2_PLACEMENT_3D('',#1937,#1590,#1591);
#1236=AXIS2_PLACEMENT_3D('',#1938,#1592,#1593);
#1237=AXIS2_PLACEMENT_3D('',#1939,#1594,#1595);
#1238=AXIS2_PLACEMENT_3D('',#1940,#1596,#1597);
#1239=AXIS2_PLACEMENT_3D('',#1941,#1598,#1599);
#1240=AXIS2_PLACEMENT_3D('',#1942,#1600,#1601);
#1241=AXIS2_PLACEMENT_3D('',#1943,#1602,#1603);
#1242=AXIS2_PLACEMENT_3D('',#1944,#1604,#1605);
#1243=AXIS2_PLACEMENT_3D('',#1945,#1606,#1607);
#1244=AXIS2_PLACEMENT_3D('',#1946,#1608,#1609);
#1245=AXIS2_PLACEMENT_3D('',#1947,#1610,#1611);
#1246=AXIS2_PLACEMENT_3D('',#1948,#1612,#1613);
#1247=AXIS2_PLACEMENT_3D('',#1949,#1614,#1615);
#1248=AXIS2_PLACEMENT_3D('',#1950,#1616,#1617);
#1249=AXIS2_PLACEMENT_3D('',#1951,#1618,#1619);
#1250=AXIS2_PLACEMENT_3D('',#1952,#1620,#1621);
#1251=AXIS2_PLACEMENT_3D('',#1953,#1622,#1623);
#1252=AXIS2_PLACEMENT_3D('',#1954,#1624,#1625);
#1253=AXIS2_PLACEMENT_3D('',#1955,#1626,#1627);
#1254=AXIS2_PLACEMENT_3D('',#1956,#1628,#1629);
#1255=AXIS2_PLACEMENT_3D('',#1957,#1630,#1631);
#1256=AXIS2_PLACEMENT_3D('',#1958,#1632,#1633);
#1257=AXIS2_PLACEMENT_3D('',#1959,#1634,#1635);
#1258=AXIS2_PLACEMENT_3D('',#1960,#1636,#1637);
#1259=DIRECTION('',(0.,0.,1.));
#1260=DIRECTION('',(1.,0.,0.));
#1261=DIRECTION('',(0.,0.,1.));
#1262=DIRECTION('',(1.,0.,0.));
#1263=DIRECTION('',(1.,0.,0.));
#1264=DIRECTION('',(0.,-1.,0.));
#1265=DIRECTION('',(1.,0.,0.));
#1266=DIRECTION('',(0.,-1.,0.));
#1267=DIRECTION('',(-1.,0.,0.));
#1268=DIRECTION('',(0.,-1.,0.));
#1269=DIRECTION('',(-1.,0.,0.));
#1270=DIRECTION('',(0.,1.,0.));
#1271=DIRECTION('',(-1.,0.,0.));
#1272=DIRECTION('',(-0.0718699026543979,0.997414014886721,0.));
#1273=DIRECTION('',(0.534830718123613,0.844959231532138,0.));
#1274=DIRECTION('',(1.,0.,0.));
#1275=DIRECTION('',(0.,0.,1.));
#1276=DIRECTION('',(1.,0.,0.));
#1277=DIRECTION('',(0.,-1.,0.));
#1278=DIRECTION('',(0.,0.,1.));
#1279=DIRECTION('',(1.,0.,0.));
#1280=DIRECTION('',(1.,0.,0.));
#1281=DIRECTION('',(0.,0.,1.));
#1282=DIRECTION('',(1.,0.,0.));
#1283=DIRECTION('',(0.,-1.,0.));
#1284=DIRECTION('',(0.,0.,1.));
#1285=DIRECTION('',(1.,0.,0.));
#1286=DIRECTION('',(1.,0.,0.));
#1287=DIRECTION('',(0.,0.,1.));
#1288=DIRECTION('',(1.,0.,0.));
#1289=DIRECTION('',(0.,1.,0.));
#1290=DIRECTION('',(0.,0.,1.));
#1291=DIRECTION('',(1.,0.,0.));
#1292=DIRECTION('',(1.,0.,0.));
#1293=DIRECTION('',(0.,0.,1.));
#1294=DIRECTION('',(1.,0.,0.));
#1295=DIRECTION('',(0.,1.,0.));
#1296=DIRECTION('',(0.,0.,1.));
#1297=DIRECTION('',(1.,0.,0.));
#1298=DIRECTION('',(0.,0.,1.));
#1299=DIRECTION('',(1.,0.,0.));
#1300=DIRECTION('',(0.,0.,1.));
#1301=DIRECTION('',(0.,0.,1.));
#1302=DIRECTION('',(1.,0.,0.));
#1303=DIRECTION('',(0.,0.,1.));
#1304=DIRECTION('',(0.,0.,1.));
#1305=DIRECTION('',(1.,0.,0.));
#1306=DIRECTION('',(0.,-1.,0.));
#1307=DIRECTION('',(0.,0.,-1.));
#1308=DIRECTION('',(0.,0.,1.));
#1309=DIRECTION('',(1.,0.,0.));
#1310=DIRECTION('',(1.,0.,0.));
#1311=DIRECTION('',(0.,0.,1.));
#1312=DIRECTION('',(1.,0.,0.));
#1313=DIRECTION('',(0.,0.,1.));
#1314=DIRECTION('',(0.,0.,1.));
#1315=DIRECTION('',(1.,0.,0.));
#1316=DIRECTION('',(0.,0.,1.));
#1317=DIRECTION('',(1.,0.,0.));
#1318=DIRECTION('',(-1.,0.,0.));
#1319=DIRECTION('',(0.,0.,1.));
#1320=DIRECTION('',(0.,0.,1.));
#1321=DIRECTION('',(0.,-1.,0.));
#1322=DIRECTION('',(0.,-1.,0.));
#1323=DIRECTION('',(0.,0.,1.));
#1324=DIRECTION('',(1.,0.,0.));
#1325=DIRECTION('',(0.,0.,1.));
#1326=DIRECTION('',(0.,0.,1.));
#1327=DIRECTION('',(1.,0.,0.));
#1328=DIRECTION('',(0.,0.,1.));
#1329=DIRECTION('',(1.,0.,0.));
#1330=DIRECTION('',(0.,-1.,0.));
#1331=DIRECTION('',(0.,0.,-1.));
#1332=DIRECTION('',(0.,0.,1.));
#1333=DIRECTION('',(1.,0.,0.));
#1334=DIRECTION('',(1.,0.,0.));
#1335=DIRECTION('',(0.,0.,1.));
#1336=DIRECTION('',(1.,0.,0.));
#1337=DIRECTION('',(0.,0.,1.));
#1338=DIRECTION('',(0.,0.,1.));
#1339=DIRECTION('',(1.,0.,0.));
#1340=DIRECTION('',(0.,0.,1.));
#1341=DIRECTION('',(1.,0.,0.));
#1342=DIRECTION('',(-1.,0.,0.));
#1343=DIRECTION('',(0.,0.,1.));
#1344=DIRECTION('',(0.,0.,1.));
#1345=DIRECTION('',(0.,-1.,0.));
#1346=DIRECTION('',(0.,-1.,0.));
#1347=DIRECTION('',(0.,0.,1.));
#1348=DIRECTION('',(1.,0.,0.));
#1349=DIRECTION('',(0.,0.,1.));
#1350=DIRECTION('',(0.,0.,1.));
#1351=DIRECTION('',(1.,0.,0.));
#1352=DIRECTION('',(0.,0.,1.));
#1353=DIRECTION('',(1.,0.,0.));
#1354=DIRECTION('',(0.,-1.,0.));
#1355=DIRECTION('',(0.,0.,-1.));
#1356=DIRECTION('',(0.,0.,1.));
#1357=DIRECTION('',(1.,0.,0.));
#1358=DIRECTION('',(1.,0.,0.));
#1359=DIRECTION('',(0.,0.,1.));
#1360=DIRECTION('',(1.,0.,0.));
#1361=DIRECTION('',(0.,0.,1.));
#1362=DIRECTION('',(0.,0.,1.));
#1363=DIRECTION('',(1.,0.,0.));
#1364=DIRECTION('',(0.,0.,1.));
#1365=DIRECTION('',(1.,0.,0.));
#1366=DIRECTION('',(1.,0.,0.));
#1367=DIRECTION('',(0.,0.,-1.));
#1368=DIRECTION('',(0.,0.,1.));
#1369=DIRECTION('',(0.,1.,0.));
#1370=DIRECTION('',(0.,1.,0.));
#1371=DIRECTION('',(0.,0.,1.));
#1372=DIRECTION('',(1.,0.,0.));
#1373=DIRECTION('',(0.,0.,1.));
#1374=DIRECTION('',(0.,0.,1.));
#1375=DIRECTION('',(1.,0.,0.));
#1376=DIRECTION('',(0.,0.,1.));
#1377=DIRECTION('',(1.,0.,0.));
#1378=DIRECTION('',(0.,-1.,0.));
#1379=DIRECTION('',(0.,0.,-1.));
#1380=DIRECTION('',(0.,0.,1.));
#1381=DIRECTION('',(1.,0.,0.));
#1382=DIRECTION('',(1.,0.,0.));
#1383=DIRECTION('',(0.,0.,1.));
#1384=DIRECTION('',(1.,0.,0.));
#1385=DIRECTION('',(0.,0.,1.));
#1386=DIRECTION('',(0.,0.,1.));
#1387=DIRECTION('',(1.,0.,0.));
#1388=DIRECTION('',(0.,0.,1.));
#1389=DIRECTION('',(1.,0.,0.));
#1390=DIRECTION('',(1.,0.,0.));
#1391=DIRECTION('',(0.,0.,-1.));
#1392=DIRECTION('',(0.,1.,0.));
#1393=DIRECTION('',(0.,1.,0.));
#1394=DIRECTION('',(0.,0.,1.));
#1395=DIRECTION('',(1.,0.,0.));
#1396=DIRECTION('',(0.,-1.,0.));
#1397=DIRECTION('',(0.,0.,1.));
#1398=DIRECTION('',(1.,0.,0.));
#1399=DIRECTION('',(1.,0.,0.));
#1400=DIRECTION('',(0.,0.,1.));
#1401=DIRECTION('',(1.,0.,0.));
#1402=DIRECTION('',(0.,1.,0.));
#1403=DIRECTION('',(0.,0.,1.));
#1404=DIRECTION('',(1.,0.,0.));
#1405=DIRECTION('',(1.,0.,0.));
#1406=DIRECTION('',(0.,0.,1.));
#1407=DIRECTION('',(1.,0.,0.));
#1408=DIRECTION('',(0.,1.,0.));
#1409=DIRECTION('',(0.,0.,1.));
#1410=DIRECTION('',(1.,0.,0.));
#1411=DIRECTION('',(1.,0.,0.));
#1412=DIRECTION('',(0.,0.,1.));
#1413=DIRECTION('',(1.,0.,0.));
#1414=DIRECTION('',(0.,-1.,0.));
#1415=DIRECTION('',(0.,0.,1.));
#1416=DIRECTION('',(1.,0.,0.));
#1417=DIRECTION('',(1.,0.,0.));
#1418=DIRECTION('',(0.,0.,1.));
#1419=DIRECTION('',(1.,0.,0.));
#1420=DIRECTION('',(0.,0.,1.));
#1421=DIRECTION('',(1.,0.,0.));
#1422=DIRECTION('',(1.,0.,0.));
#1423=DIRECTION('',(0.,-1.,0.));
#1424=DIRECTION('',(1.,0.,0.));
#1425=DIRECTION('',(0.534830718123613,0.844959231532138,0.));
#1426=DIRECTION('',(-0.0718699026543979,0.997414014886721,0.));
#1427=DIRECTION('',(-1.,0.,0.));
#1428=DIRECTION('',(0.,1.,0.));
#1429=DIRECTION('',(-1.,0.,0.));
#1430=DIRECTION('',(0.,-1.,0.));
#1431=DIRECTION('',(-1.,0.,0.));
#1432=DIRECTION('',(0.,-1.,0.));
#1433=DIRECTION('',(1.,0.,0.));
#1434=DIRECTION('',(-0.533081982944659,-0.846063590671405,0.));
#1435=DIRECTION('',(-0.497045922110851,-0.867724236905351,0.));
#1436=DIRECTION('',(0.,1.,0.));
#1437=DIRECTION('',(0.,0.,1.));
#1438=DIRECTION('',(1.,0.,0.));
#1439=DIRECTION('',(0.,0.,1.));
#1440=DIRECTION('',(1.,0.,0.));
#1441=DIRECTION('',(1.,0.,0.));
#1442=DIRECTION('',(0.,1.,0.));
#1443=DIRECTION('',(-0.533081982944659,-0.846063590671405,0.));
#1444=DIRECTION('',(1.,0.,0.));
#1445=DIRECTION('',(0.,0.,-1.));
#1446=DIRECTION('',(1.,0.,0.));
#1447=DIRECTION('',(0.,0.,-1.));
#1448=DIRECTION('',(0.483175960212913,-0.875523267236417,0.));
#1449=DIRECTION('',(0.875523267236416,0.483175960212913,0.));
#1450=DIRECTION('',(-0.533081982944659,-0.846063590671405,0.));
#1451=DIRECTION('',(0.846063590671405,-0.533081982944659,0.));
#1452=DIRECTION('',(-0.960745437322344,0.277431441376599,0.));
#1453=DIRECTION('',(-0.2774314413766,-0.960745437322344,0.));
#1454=DIRECTION('',(-0.515177805318059,-0.857083326700309,0.));
#1455=DIRECTION('',(-0.857083326700309,0.515177805318059,0.));
#1456=DIRECTION('',(0.497045922110851,0.867724236905351,0.));
#1457=DIRECTION('',(-0.867724236905351,0.497045922110851,0.));
#1458=DIRECTION('',(0.966365416627,-0.257172863162746,0.));
#1459=DIRECTION('',(0.257172863162746,0.966365416627,0.));
#1460=DIRECTION('',(0.,1.,0.));
#1461=DIRECTION('',(0.,0.,1.));
#1462=DIRECTION('',(-0.707106781186548,0.707106781186548,0.));
#1463=DIRECTION('',(0.707106781186548,0.707106781186548,0.));
#1464=DIRECTION('',(-0.707106781186548,0.707106781186548,0.));
#1465=DIRECTION('',(0.707106781186548,0.707106781186548,0.));
#1466=DIRECTION('',(-1.,0.,0.));
#1467=DIRECTION('',(0.,0.,1.));
#1468=DIRECTION('',(-0.707106781186548,-0.707106781186548,0.));
#1469=DIRECTION('',(-0.707106781186548,0.707106781186548,0.));
#1470=DIRECTION('',(-1.,0.,0.));
#1471=DIRECTION('',(0.,0.,1.));
#1472=DIRECTION('',(-0.732075782502876,0.681223200333636,0.));
#1473=DIRECTION('',(0.681223200333636,0.732075782502877,0.));
#1474=DIRECTION('',(0.,-1.,0.));
#1475=DIRECTION('',(0.,0.,-1.));
#1476=DIRECTION('',(-0.707106781186548,-0.707106781186548,0.));
#1477=DIRECTION('',(-0.707106781186548,0.707106781186548,0.));
#1478=DIRECTION('',(-0.0718699026543979,0.997414014886721,0.));
#1479=DIRECTION('',(-0.997414014886721,-0.0718699026543979,0.));
#1480=DIRECTION('',(0.243708420878113,0.969848547760472,0.));
#1481=DIRECTION('',(0.969848547760472,-0.243708420878113,0.));
#1482=DIRECTION('',(-1.,0.,0.));
#1483=DIRECTION('',(0.,0.,1.));
#1484=DIRECTION('',(-0.707106781186548,-0.707106781186548,0.));
#1485=DIRECTION('',(-0.707106781186548,0.707106781186548,0.));
#1486=DIRECTION('',(0.534830718123613,0.844959231532138,0.));
#1487=DIRECTION('',(-0.844959231532138,0.534830718123613,0.));
#1488=DIRECTION('',(0.876022464929871,0.482270298627433,0.));
#1489=DIRECTION('',(0.482270298627433,-0.876022464929871,0.));
#1490=DIRECTION('',(0.,-1.,0.));
#1491=DIRECTION('',(0.,0.,-1.));
#1492=DIRECTION('',(0.707106781186548,-0.707106781186548,0.));
#1493=DIRECTION('',(-0.707106781186548,-0.707106781186548,0.));
#1494=DIRECTION('',(1.,0.,0.));
#1495=DIRECTION('',(0.,0.,-1.));
#1496=DIRECTION('',(0.707106781186548,-0.707106781186548,0.));
#1497=DIRECTION('',(-0.707106781186548,-0.707106781186548,0.));
#1498=DIRECTION('',(1.,0.,0.));
#1499=DIRECTION('',(0.,0.,-1.));
#1500=DIRECTION('',(0.707106781186548,-0.707106781186548,0.));
#1501=DIRECTION('',(0.707106781186548,0.707106781186548,0.));
#1502=DIRECTION('',(0.,-1.,0.));
#1503=DIRECTION('',(0.,0.,-1.));
#1504=DIRECTION('',(0.,0.,1.));
#1505=DIRECTION('',(1.,0.,0.));
#1506=DIRECTION('',(1.,0.,0.));
#1507=DIRECTION('',(0.,0.,-1.));
#1508=DIRECTION('',(0.,1.,0.));
#1509=DIRECTION('',(0.,0.,1.));
#1510=DIRECTION('',(0.,1.,0.));
#1511=DIRECTION('',(0.,0.,1.));
#1512=DIRECTION('',(8.67361737988409E-15,1.,0.));
#1513=DIRECTION('',(-1.,8.67361737988409E-15,0.));
#1514=DIRECTION('',(-1.,0.,0.));
#1515=DIRECTION('',(0.,0.,1.));
#1516=DIRECTION('',(1.,0.,0.));
#1517=DIRECTION('',(0.,0.,-1.));
#1518=DIRECTION('',(0.,0.,1.));
#1519=DIRECTION('',(1.,0.,0.));
#1520=DIRECTION('',(-1.,0.,0.));
#1521=DIRECTION('',(0.,0.,1.));
#1522=DIRECTION('',(0.,0.,1.));
#1523=DIRECTION('',(1.,0.,0.));
#1524=DIRECTION('',(0.,-1.,0.));
#1525=DIRECTION('',(0.,0.,-1.));
#1526=DIRECTION('',(-1.,0.,0.));
#1527=DIRECTION('',(0.,0.,1.));
#1528=DIRECTION('',(-1.,0.,0.));
#1529=DIRECTION('',(0.,0.,1.));
#1530=DIRECTION('',(0.,1.,0.));
#1531=DIRECTION('',(0.,0.,1.));
#1532=DIRECTION('',(0.,-1.,0.));
#1533=DIRECTION('',(0.,0.,-1.));
#1534=DIRECTION('',(0.,0.,1.));
#1535=DIRECTION('',(1.,0.,0.));
#1536=DIRECTION('',(0.,-1.,0.));
#1537=DIRECTION('',(0.,0.,-1.));
#1538=DIRECTION('',(0.,0.,1.));
#1539=DIRECTION('',(1.,0.,0.));
#1540=DIRECTION('',(-1.,0.,0.));
#1541=DIRECTION('',(0.,0.,1.));
#1542=DIRECTION('',(0.,-1.,0.));
#1543=DIRECTION('',(0.,0.,-1.));
#1544=DIRECTION('',(0.,-1.,0.));
#1545=DIRECTION('',(0.,0.,-1.));
#1546=DIRECTION('',(1.,0.,0.));
#1547=DIRECTION('',(0.,0.,-1.));
#1548=DIRECTION('',(-1.,0.,0.));
#1549=DIRECTION('',(0.,0.,1.));
#1550=DIRECTION('',(0.,0.,1.));
#1551=DIRECTION('',(1.,0.,0.));
#1552=DIRECTION('',(-1.,0.,0.));
#1553=DIRECTION('',(0.,0.,1.));
#1554=DIRECTION('',(0.,0.,1.));
#1555=DIRECTION('',(1.,0.,0.));
#1556=DIRECTION('',(0.,1.,0.));
#1557=DIRECTION('',(0.,0.,1.));
#1558=DIRECTION('',(-1.,0.,0.));
#1559=DIRECTION('',(0.,0.,1.));
#1560=DIRECTION('',(-1.,0.,0.));
#1561=DIRECTION('',(0.,0.,1.));
#1562=DIRECTION('',(0.,-1.,0.));
#1563=DIRECTION('',(0.,0.,-1.));
#1564=DIRECTION('',(0.,1.,0.));
#1565=DIRECTION('',(0.,0.,1.));
#1566=DIRECTION('',(0.,0.,1.));
#1567=DIRECTION('',(1.,0.,0.));
#1568=DIRECTION('',(0.,0.,1.));
#1569=DIRECTION('',(1.,0.,0.));
#1570=DIRECTION('',(1.,0.,0.));
#1571=DIRECTION('',(0.,0.,-1.));
#1572=DIRECTION('',(0.,1.,0.));
#1573=DIRECTION('',(0.,0.,1.));
#1574=DIRECTION('',(0.,-1.,0.));
#1575=DIRECTION('',(0.,0.,-1.));
#1576=DIRECTION('',(0.,1.,8.67361737988403E-15));
#1577=DIRECTION('',(0.,-8.67361737988403E-15,1.));
#1578=DIRECTION('',(1.,0.,0.));
#1579=DIRECTION('',(0.,0.,-1.));
#1580=DIRECTION('',(1.,0.,0.));
#1581=DIRECTION('',(0.,0.,-1.));
#1582=DIRECTION('',(0.,0.,1.));
#1583=DIRECTION('',(1.,0.,0.));
#1584=DIRECTION('',(-1.,0.,0.));
#1585=DIRECTION('',(0.,0.,1.));
#1586=DIRECTION('',(0.,0.,1.));
#1587=DIRECTION('',(1.,0.,0.));
#1588=DIRECTION('',(0.,-1.,0.));
#1589=DIRECTION('',(0.,0.,-1.));
#1590=DIRECTION('',(1.,0.,0.));
#1591=DIRECTION('',(0.,0.,-1.));
#1592=DIRECTION('',(-1.,0.,0.));
#1593=DIRECTION('',(0.,0.,1.));
#1594=DIRECTION('',(0.,-1.,0.));
#1595=DIRECTION('',(0.,0.,-1.));
#1596=DIRECTION('',(0.,-1.,0.));
#1597=DIRECTION('',(0.,0.,-1.));
#1598=DIRECTION('',(0.,0.,1.));
#1599=DIRECTION('',(1.,0.,0.));
#1600=DIRECTION('',(-8.67361737988409E-15,-1.,-8.67361737988403E-15));
#1601=DIRECTION('',(1.,-8.67361737988409E-15,0.));
#1602=DIRECTION('',(0.,0.,1.));
#1603=DIRECTION('',(1.,0.,0.));
#1604=DIRECTION('',(-1.,0.,0.));
#1605=DIRECTION('',(0.,0.,1.));
#1606=DIRECTION('',(0.,1.,0.));
#1607=DIRECTION('',(0.,0.,1.));
#1608=DIRECTION('',(0.,-1.,0.));
#1609=DIRECTION('',(0.,0.,-1.));
#1610=DIRECTION('',(-1.,0.,0.));
#1611=DIRECTION('',(0.,0.,1.));
#1612=DIRECTION('',(-1.,0.,0.));
#1613=DIRECTION('',(0.,0.,1.));
#1614=DIRECTION('',(0.,0.,1.));
#1615=DIRECTION('',(1.,0.,0.));
#1616=DIRECTION('',(-1.,0.,0.));
#1617=DIRECTION('',(0.,0.,1.));
#1618=DIRECTION('',(0.,0.,1.));
#1619=DIRECTION('',(1.,0.,0.));
#1620=DIRECTION('',(0.,1.,0.));
#1621=DIRECTION('',(0.,0.,1.));
#1622=DIRECTION('',(1.,0.,0.));
#1623=DIRECTION('',(0.,0.,-1.));
#1624=DIRECTION('',(-1.,0.,0.));
#1625=DIRECTION('',(0.,0.,1.));
#1626=DIRECTION('',(0.,1.,0.));
#1627=DIRECTION('',(0.,0.,1.));
#1628=DIRECTION('',(0.,1.,0.));
#1629=DIRECTION('',(0.,0.,1.));
#1630=DIRECTION('',(0.,0.,1.));
#1631=DIRECTION('',(1.,0.,0.));
#1632=DIRECTION('',(0.,1.,0.));
#1633=DIRECTION('',(0.,0.,1.));
#1634=DIRECTION('',(0.,-1.,0.));
#1635=DIRECTION('',(0.,0.,-1.));
#1636=DIRECTION('',(1.,0.,0.));
#1637=DIRECTION('',(0.,0.,-1.));
#1638=CARTESIAN_POINT('',(0.,0.,0.));
#1639=CARTESIAN_POINT('',(0.0525,-0.0425,0.));
#1640=CARTESIAN_POINT('',(0.0525,-0.0217258680555555,0.));
#1641=CARTESIAN_POINT('',(0.105043462774008,-0.0217258680555555,0.));
#1642=CARTESIAN_POINT('',(0.107642838541667,-0.0217258680555555,0.));
#1643=CARTESIAN_POINT('',(0.107642838541667,-0.0425,0.));
#1644=CARTESIAN_POINT('',(0.107642838541667,-0.0278825520833334,0.));
#1645=CARTESIAN_POINT('',(0.0525,-0.0278825520833334,0.));
#1646=CARTESIAN_POINT('',(0.108762630208333,-0.0278825520833334,0.));
#1647=CARTESIAN_POINT('',(0.108762630208333,-0.0425,0.));
#1648=CARTESIAN_POINT('',(0.108762630208333,-0.0302645833333334,0.));
#1649=CARTESIAN_POINT('',(0.0525,-0.0302645833333334,0.));
#1650=CARTESIAN_POINT('',(0.107642838541667,-0.0302645833333334,0.));
#1651=CARTESIAN_POINT('',(0.107642838541667,-0.0425,0.));
#1652=CARTESIAN_POINT('',(0.107642838541667,-0.0324,0.));
#1653=CARTESIAN_POINT('',(0.0525,-0.0324,0.));
#1654=CARTESIAN_POINT('',(0.104883203125,-0.0324,0.));
#1655=CARTESIAN_POINT('',(0.104883203125,-0.0425,0.));
#1656=CARTESIAN_POINT('',(0.104883203125,-0.0302645833333334,0.));
#1657=CARTESIAN_POINT('',(0.0525,-0.0302645833333334,0.));
#1658=CARTESIAN_POINT('',(0.10086367951692,-0.0302645833333334,0.));
#1659=CARTESIAN_POINT('',(0.101490951627308,-0.0389698962799307,0.));
#1660=CARTESIAN_POINT('',(0.100738485982291,-0.0285271413527485,0.));
#1661=CARTESIAN_POINT('',(0.0806256847808563,-0.0603026106203819,0.));
#1662=CARTESIAN_POINT('',(0.093,-0.0354,0.));
#1663=CARTESIAN_POINT('',(0.0945,-0.0354,0.));
#1664=CARTESIAN_POINT('',(0.093,-0.0354,0.));
#1665=CARTESIAN_POINT('',(0.093,-0.038,0.));
#1666=CARTESIAN_POINT('',(0.0904,-0.038,0.));
#1667=CARTESIAN_POINT('',(0.0904,-0.0425,0.));
#1668=CARTESIAN_POINT('',(0.0904,-0.062,0.));
#1669=CARTESIAN_POINT('',(0.093,-0.062,0.));
#1670=CARTESIAN_POINT('',(0.093,-0.0646,0.));
#1671=CARTESIAN_POINT('',(0.0525,-0.0646,0.));
#1672=CARTESIAN_POINT('',(0.117,-0.0646,0.));
#1673=CARTESIAN_POINT('',(0.117,-0.062,0.));
#1674=CARTESIAN_POINT('',(0.1196,-0.062,0.));
#1675=CARTESIAN_POINT('',(0.1196,-0.038,0.));
#1676=CARTESIAN_POINT('',(0.1196,-0.038,0.));
#1677=CARTESIAN_POINT('',(0.117,-0.038,0.));
#1678=CARTESIAN_POINT('',(0.117,-0.0354,0.));
#1679=CARTESIAN_POINT('',(0.1155,-0.0354,0.));
#1680=CARTESIAN_POINT('',(0.1155,-0.0354,0.));
#1681=CARTESIAN_POINT('',(0.1155,-0.032,0.));
#1682=CARTESIAN_POINT('',(0.1121,-0.032,0.));
#1683=CARTESIAN_POINT('',(0.1121,-0.0425,0.));
#1684=CARTESIAN_POINT('',(0.1121,-0.023,0.));
#1685=CARTESIAN_POINT('',(0.1095,-0.023,0.));
#1686=CARTESIAN_POINT('',(0.1095,-0.0204,0.));
#1687=CARTESIAN_POINT('',(0.1005,-0.0204,0.));
#1688=CARTESIAN_POINT('',(0.1005,-0.0204,0.));
#1689=CARTESIAN_POINT('',(0.1005,-0.023,0.));
#1690=CARTESIAN_POINT('',(0.0979,-0.023,0.));
#1691=CARTESIAN_POINT('',(0.0979,-0.032,0.));
#1692=CARTESIAN_POINT('',(0.0979,-0.032,0.));
#1693=CARTESIAN_POINT('',(0.0945,-0.032,0.));
#1694=CARTESIAN_POINT('',(0.0945,-0.032,-0.004));
#1695=CARTESIAN_POINT('',(0.0945,-0.035,-0.004));
#1696=CARTESIAN_POINT('',(0.0945,-0.035,-0.0036));
#1697=CARTESIAN_POINT('',(0.0945,-0.035,-0.0004));
#1698=CARTESIAN_POINT('',(0.0945,-0.032,-0.0004));
#1699=CARTESIAN_POINT('',(0.0975,-0.032,-0.0004));
#1700=CARTESIAN_POINT('',(0.0975,-0.032,-0.004));
#1701=CARTESIAN_POINT('',(0.0975,-0.032,-0.0036));
#1702=CARTESIAN_POINT('',(0.0945,-0.032,-0.0036));
#1703=CARTESIAN_POINT('',(0.09375,-0.035,-0.004));
#1704=CARTESIAN_POINT('',(0.093,-0.035,-0.004));
#1705=CARTESIAN_POINT('',(0.093,-0.035,-0.0036));
#1706=CARTESIAN_POINT('',(0.093,-0.035,-0.0004));
#1707=CARTESIAN_POINT('',(0.0945,-0.035,-0.0004));
#1708=CARTESIAN_POINT('',(0.09375,-0.035,-0.0036));
#1709=CARTESIAN_POINT('',(0.093,-0.038,-0.004));
#1710=CARTESIAN_POINT('',(0.09,-0.038,-0.004));
#1711=CARTESIAN_POINT('',(0.09,-0.038,-0.0036));
#1712=CARTESIAN_POINT('',(0.09,-0.038,-0.0004));
#1713=CARTESIAN_POINT('',(0.093,-0.038,-0.0004));
#1714=CARTESIAN_POINT('',(0.093,-0.038,-0.0036));
#1715=CARTESIAN_POINT('',(0.09,-0.05,-0.004));
#1716=CARTESIAN_POINT('',(0.09,-0.062,-0.004));
#1717=CARTESIAN_POINT('',(0.09,-0.062,-0.0036));
#1718=CARTESIAN_POINT('',(0.09,-0.062,-0.0004));
#1719=CARTESIAN_POINT('',(0.09,-0.05,-0.0004));
#1720=CARTESIAN_POINT('',(0.09,-0.062,-0.0036));
#1721=CARTESIAN_POINT('',(0.093,-0.062,-0.004));
#1722=CARTESIAN_POINT('',(0.093,-0.065,-0.004));
#1723=CARTESIAN_POINT('',(0.093,-0.065,-0.0036));
#1724=CARTESIAN_POINT('',(0.093,-0.065,-0.0004));
#1725=CARTESIAN_POINT('',(0.093,-0.062,-0.0004));
#1726=CARTESIAN_POINT('',(0.093,-0.062,-0.0036));
#1727=CARTESIAN_POINT('',(0.105,-0.065,-0.004));
#1728=CARTESIAN_POINT('',(0.117,-0.065,-0.004));
#1729=CARTESIAN_POINT('',(0.117,-0.065,-0.0036));
#1730=CARTESIAN_POINT('',(0.117,-0.065,-0.0004));
#1731=CARTESIAN_POINT('',(0.105,-0.065,-0.0004));
#1732=CARTESIAN_POINT('',(0.117,-0.065,-0.0036));
#1733=CARTESIAN_POINT('',(0.117,-0.062,-0.004));
#1734=CARTESIAN_POINT('',(0.12,-0.062,-0.004));
#1735=CARTESIAN_POINT('',(0.12,-0.062,-0.0036));
#1736=CARTESIAN_POINT('',(0.12,-0.062,-0.0004));
#1737=CARTESIAN_POINT('',(0.117,-0.062,-0.0004));
#1738=CARTESIAN_POINT('',(0.117,-0.062,-0.0036));
#1739=CARTESIAN_POINT('',(0.12,-0.05,-0.004));
#1740=CARTESIAN_POINT('',(0.12,-0.038,-0.004));
#1741=CARTESIAN_POINT('',(0.12,-0.038,-0.0036));
#1742=CARTESIAN_POINT('',(0.12,-0.038,-0.0004));
#1743=CARTESIAN_POINT('',(0.12,-0.062,-0.0004));
#1744=CARTESIAN_POINT('',(0.12,-0.05,-0.0036));
#1745=CARTESIAN_POINT('',(0.117,-0.038,-0.004));
#1746=CARTESIAN_POINT('',(0.117,-0.035,-0.004));
#1747=CARTESIAN_POINT('',(0.117,-0.035,-0.0036));
#1748=CARTESIAN_POINT('',(0.117,-0.035,-0.0004));
#1749=CARTESIAN_POINT('',(0.117,-0.038,-0.0004));
#1750=CARTESIAN_POINT('',(0.117,-0.038,-0.0036));
#1751=CARTESIAN_POINT('',(0.11625,-0.035,-0.004));
#1752=CARTESIAN_POINT('',(0.1155,-0.035,-0.004));
#1753=CARTESIAN_POINT('',(0.1155,-0.035,-0.0036));
#1754=CARTESIAN_POINT('',(0.1155,-0.035,-0.0004));
#1755=CARTESIAN_POINT('',(0.117,-0.035,-0.0004));
#1756=CARTESIAN_POINT('',(0.11625,-0.035,-0.0036));
#1757=CARTESIAN_POINT('',(0.1155,-0.032,-0.004));
#1758=CARTESIAN_POINT('',(0.1125,-0.032,-0.004));
#1759=CARTESIAN_POINT('',(0.1125,-0.032,-0.0036));
#1760=CARTESIAN_POINT('',(0.1125,-0.032,-0.0004));
#1761=CARTESIAN_POINT('',(0.1155,-0.032,-0.0004));
#1762=CARTESIAN_POINT('',(0.1155,-0.032,-0.0036));
#1763=CARTESIAN_POINT('',(0.1125,-0.0275,-0.004));
#1764=CARTESIAN_POINT('',(0.1125,-0.023,-0.004));
#1765=CARTESIAN_POINT('',(0.1125,-0.023,-0.0036));
#1766=CARTESIAN_POINT('',(0.1125,-0.023,-0.0004));
#1767=CARTESIAN_POINT('',(0.1125,-0.0275,-0.0004));
#1768=CARTESIAN_POINT('',(0.1125,-0.023,-0.0036));
#1769=CARTESIAN_POINT('',(0.1095,-0.023,-0.004));
#1770=CARTESIAN_POINT('',(0.1095,-0.02,-0.004));
#1771=CARTESIAN_POINT('',(0.1095,-0.02,-0.0036));
#1772=CARTESIAN_POINT('',(0.1095,-0.02,-0.0004));
#1773=CARTESIAN_POINT('',(0.1095,-0.023,-0.0004));
#1774=CARTESIAN_POINT('',(0.1095,-0.023,-0.0036));
#1775=CARTESIAN_POINT('',(0.105,-0.02,-0.004));
#1776=CARTESIAN_POINT('',(0.1005,-0.02,-0.004));
#1777=CARTESIAN_POINT('',(0.1005,-0.02,-0.0036));
#1778=CARTESIAN_POINT('',(0.1005,-0.02,-0.0004));
#1779=CARTESIAN_POINT('',(0.1095,-0.02,-0.0004));
#1780=CARTESIAN_POINT('',(0.105,-0.02,-0.0036));
#1781=CARTESIAN_POINT('',(0.1005,-0.023,-0.004));
#1782=CARTESIAN_POINT('',(0.0975,-0.023,-0.004));
#1783=CARTESIAN_POINT('',(0.0975,-0.023,-0.0036));
#1784=CARTESIAN_POINT('',(0.0975,-0.023,-0.0004));
#1785=CARTESIAN_POINT('',(0.1005,-0.023,-0.0004));
#1786=CARTESIAN_POINT('',(0.1005,-0.023,-0.0036));
#1787=CARTESIAN_POINT('',(0.0975,-0.0275,-0.004));
#1788=CARTESIAN_POINT('',(0.0975,-0.023,-0.0004));
#1789=CARTESIAN_POINT('',(0.0975,-0.0275,-0.0036));
#1790=CARTESIAN_POINT('',(0.0525,-0.0425,-0.004));
#1791=CARTESIAN_POINT('',(0.0904,-0.038,-0.004));
#1792=CARTESIAN_POINT('',(0.0904,-0.062,-0.004));
#1793=CARTESIAN_POINT('',(0.0904,-0.038,-0.004));
#1794=CARTESIAN_POINT('',(0.093,-0.038,-0.004));
#1795=CARTESIAN_POINT('',(0.093,-0.0354,-0.004));
#1796=CARTESIAN_POINT('',(0.0525,-0.0354,-0.004));
#1797=CARTESIAN_POINT('',(0.0945,-0.0354,-0.004));
#1798=CARTESIAN_POINT('',(0.0945,-0.032,-0.004));
#1799=CARTESIAN_POINT('',(0.0979,-0.032,-0.004));
#1800=CARTESIAN_POINT('',(0.0979,-0.0425,-0.004));
#1801=CARTESIAN_POINT('',(0.0979,-0.023,-0.004));
#1802=CARTESIAN_POINT('',(0.1005,-0.023,-0.004));
#1803=CARTESIAN_POINT('',(0.1005,-0.0204,-0.004));
#1804=CARTESIAN_POINT('',(0.0525,-0.0204,-0.004));
#1805=CARTESIAN_POINT('',(0.1095,-0.0204,-0.004));
#1806=CARTESIAN_POINT('',(0.1095,-0.023,-0.004));
#1807=CARTESIAN_POINT('',(0.1121,-0.023,-0.004));
#1808=CARTESIAN_POINT('',(0.1121,-0.032,-0.004));
#1809=CARTESIAN_POINT('',(0.1121,-0.032,-0.004));
#1810=CARTESIAN_POINT('',(0.1155,-0.032,-0.004));
#1811=CARTESIAN_POINT('',(0.1155,-0.0354,-0.004));
#1812=CARTESIAN_POINT('',(0.0525,-0.0354,-0.004));
#1813=CARTESIAN_POINT('',(0.117,-0.0354,-0.004));
#1814=CARTESIAN_POINT('',(0.117,-0.038,-0.004));
#1815=CARTESIAN_POINT('',(0.1196,-0.038,-0.004));
#1816=CARTESIAN_POINT('',(0.1196,-0.0425,-0.004));
#1817=CARTESIAN_POINT('',(0.1196,-0.062,-0.004));
#1818=CARTESIAN_POINT('',(0.117,-0.062,-0.004));
#1819=CARTESIAN_POINT('',(0.117,-0.0646,-0.004));
#1820=CARTESIAN_POINT('',(0.093,-0.0646,-0.004));
#1821=CARTESIAN_POINT('',(0.093,-0.0646,-0.004));
#1822=CARTESIAN_POINT('',(0.093,-0.062,-0.004));
#1823=CARTESIAN_POINT('',(0.0480539279513889,-0.026068359375,-0.0004));
#1824=CARTESIAN_POINT('',(0.107802734375,-0.0282825520833333,-0.0004));
#1825=CARTESIAN_POINT('',(0.107242838541667,-0.0282825520833333,-0.0004));
#1826=CARTESIAN_POINT('',(0.108362630208333,-0.0282825520833333,-0.0004));
#1827=CARTESIAN_POINT('',(0.107242838541667,-0.0252042100694445,-0.0004));
#1828=CARTESIAN_POINT('',(0.107242838541667,-0.0221258680555555,-0.0004));
#1829=CARTESIAN_POINT('',(0.106253255208333,-0.0221258680555555,-0.0004));
#1830=CARTESIAN_POINT('',(0.105263671875,-0.0221258680555555,-0.0004));
#1831=CARTESIAN_POINT('',(0.103205295138889,-0.0253778211805555,-0.0004));
#1832=CARTESIAN_POINT('',(0.101146918402778,-0.0286297743055555,-0.0004));
#1833=CARTESIAN_POINT('',(0.10119140625,-0.0292471788194444,-0.0004));
#1834=CARTESIAN_POINT('',(0.101235894097222,-0.0298645833333334,-0.0004));
#1835=CARTESIAN_POINT('',(0.103259548611111,-0.0298645833333334,-0.0004));
#1836=CARTESIAN_POINT('',(0.105283203125,-0.0298645833333334,-0.0004));
#1837=CARTESIAN_POINT('',(0.105283203125,-0.0309322916666667,-0.0004));
#1838=CARTESIAN_POINT('',(0.105283203125,-0.032,-0.0004));
#1839=CARTESIAN_POINT('',(0.106263020833333,-0.032,-0.0004));
#1840=CARTESIAN_POINT('',(0.107242838541667,-0.032,-0.0004));
#1841=CARTESIAN_POINT('',(0.107242838541667,-0.0309322916666667,-0.0004));
#1842=CARTESIAN_POINT('',(0.107242838541667,-0.0298645833333334,-0.0004));
#1843=CARTESIAN_POINT('',(0.107802734375,-0.0298645833333334,-0.0004));
#1844=CARTESIAN_POINT('',(0.108362630208333,-0.0298645833333334,-0.0004));
#1845=CARTESIAN_POINT('',(0.108362630208333,-0.0290735677083334,-0.0004));
#1846=CARTESIAN_POINT('',(0.104191623263889,-0.0282825520833333,-0.0004));
#1847=CARTESIAN_POINT('',(0.103100043402778,-0.0282825520833333,-0.0004));
#1848=CARTESIAN_POINT('',(0.104883203125,-0.0282825520833333,-0.0004));
#1849=CARTESIAN_POINT('',(0.104127604166667,-0.0266516927083334,-0.0004));
#1850=CARTESIAN_POINT('',(0.105155164930556,-0.0250208333333333,-0.0004));
#1851=CARTESIAN_POINT('',(0.105219184027778,-0.0249090711805555,-0.0004));
#1852=CARTESIAN_POINT('',(0.105283203125,-0.0247973090277778,-0.0004));
#1853=CARTESIAN_POINT('',(0.105283203125,-0.0265399305555555,-0.0004));
#1854=CARTESIAN_POINT('',(0.105283203125,-0.0278825520833334,-0.0004));
#1855=CARTESIAN_POINT('',(0.104883203125,-0.0278825520833334,-0.0004));
#1856=CARTESIAN_POINT('',(0.0525,-0.0425,0.));
#1857=CARTESIAN_POINT('',(0.0525,-0.0278825520833334,0.));
#1858=CARTESIAN_POINT('',(0.103824850379392,-0.0278825520833334,0.));
#1859=CARTESIAN_POINT('',(0.104883203125,-0.0278825520833334,0.));
#1860=CARTESIAN_POINT('',(0.104883203125,-0.0425,0.));
#1861=CARTESIAN_POINT('',(0.104883203125,-0.0262028222241475,0.));
#1862=CARTESIAN_POINT('',(0.0826467594124703,-0.061494664779514,0.));
#1863=CARTESIAN_POINT('',(0.0525,-0.0278825520833334,-0.0004));
#1864=CARTESIAN_POINT('',(0.104883203125,-0.0278825520833334,-0.0004));
#1865=CARTESIAN_POINT('',(0.103824850379392,-0.0278825520833334,-0.0004));
#1866=CARTESIAN_POINT('',(0.0826467594124703,-0.061494664779514,-0.0004));
#1867=CARTESIAN_POINT('',(0.104883203125,-0.0262028222241476,-0.0004));
#1868=CARTESIAN_POINT('',(0.105214264304745,-0.0250563569340706,-0.000175503908127566));
#1869=CARTESIAN_POINT('',(0.105498074043145,-0.0252269500066483,-0.0004));
#1870=CARTESIAN_POINT('',(0.10556627372254,-0.0251078895493999,-0.0004));
#1871=CARTESIAN_POINT('',(0.104883203125,-0.026300368728156,-0.0004));
#1872=CARTESIAN_POINT('',(0.104883203125,-0.0425,-0.0004));
#1873=CARTESIAN_POINT('',(0.104883203125,-0.0302645833333334,-0.0004));
#1874=CARTESIAN_POINT('',(0.104883203125,-0.0324,-0.0004));
#1875=CARTESIAN_POINT('',(0.0525,-0.0324,-0.0004));
#1876=CARTESIAN_POINT('',(0.107642838541667,-0.0324,-0.0004));
#1877=CARTESIAN_POINT('',(0.0525,-0.0302645833333334,-0.0004));
#1878=CARTESIAN_POINT('',(0.10086367951692,-0.0302645833333334,-0.0004));
#1879=CARTESIAN_POINT('',(0.107642838541667,-0.0425,-0.0004));
#1880=CARTESIAN_POINT('',(0.107642838541667,-0.0302645833333334,-0.0004));
#1881=CARTESIAN_POINT('',(0.101490951627308,-0.0389698962799307,-0.0004));
#1882=CARTESIAN_POINT('',(0.100738485982291,-0.0285271413527486,-0.0004));
#1883=CARTESIAN_POINT('',(0.0525,-0.0302645833333334,-0.0004));
#1884=CARTESIAN_POINT('',(0.108762630208333,-0.0302645833333334,-0.0004));
#1885=CARTESIAN_POINT('',(0.0806256847808563,-0.0603026106203819,-0.0004));
#1886=CARTESIAN_POINT('',(0.105043462774008,-0.0217258680555555,-0.0004));
#1887=CARTESIAN_POINT('',(0.108762630208333,-0.0425,-0.0004));
#1888=CARTESIAN_POINT('',(0.108762630208333,-0.0278825520833334,-0.0004));
#1889=CARTESIAN_POINT('',(0.0525,-0.0217258680555555,-0.0004));
#1890=CARTESIAN_POINT('',(0.107642838541667,-0.0217258680555555,-0.0004));
#1891=CARTESIAN_POINT('',(0.0525,-0.0278825520833334,-0.0004));
#1892=CARTESIAN_POINT('',(0.107642838541667,-0.0278825520833334,-0.0004));
#1893=CARTESIAN_POINT('',(0.107642838541667,-0.0425,-0.0004));
#1894=CARTESIAN_POINT('',(0.1155,-0.032,-0.0004));
#1895=CARTESIAN_POINT('',(0.1155,-0.0354,-0.0004));
#1896=CARTESIAN_POINT('',(0.1121,-0.032,-0.0004));
#1897=CARTESIAN_POINT('',(0.1121,-0.0425,-0.0004));
#1898=CARTESIAN_POINT('',(0.1121,-0.023,-0.0004));
#1899=CARTESIAN_POINT('',(0.11625,-0.0354,-0.0004));
#1900=CARTESIAN_POINT('',(0.117,-0.0354,-0.0004));
#1901=CARTESIAN_POINT('',(0.1095,-0.023,-0.0004));
#1902=CARTESIAN_POINT('',(0.1095,-0.0204,-0.0004));
#1903=CARTESIAN_POINT('',(0.117,-0.038,-0.0004));
#1904=CARTESIAN_POINT('',(0.1196,-0.038,-0.0004));
#1905=CARTESIAN_POINT('',(0.105,-0.0204,-0.0004));
#1906=CARTESIAN_POINT('',(0.1005,-0.0204,-0.0004));
#1907=CARTESIAN_POINT('',(0.1196,-0.05,-0.0004));
#1908=CARTESIAN_POINT('',(0.1196,-0.062,-0.0004));
#1909=CARTESIAN_POINT('',(0.1005,-0.023,-0.0004));
#1910=CARTESIAN_POINT('',(0.0979,-0.023,-0.0004));
#1911=CARTESIAN_POINT('',(0.117,-0.062,-0.0004));
#1912=CARTESIAN_POINT('',(0.117,-0.0646,-0.0004));
#1913=CARTESIAN_POINT('',(0.0979,-0.0275,-0.0004));
#1914=CARTESIAN_POINT('',(0.0979,-0.032,-0.0004));
#1915=CARTESIAN_POINT('',(0.0525,-0.0646,-0.0004));
#1916=CARTESIAN_POINT('',(0.093,-0.0646,-0.0004));
#1917=CARTESIAN_POINT('',(0.0945,-0.032,-0.0004));
#1918=CARTESIAN_POINT('',(0.0945,-0.0354,-0.0004));
#1919=CARTESIAN_POINT('',(0.093,-0.062,-0.0004));
#1920=CARTESIAN_POINT('',(0.0904,-0.062,-0.0004));
#1921=CARTESIAN_POINT('',(0.09375,-0.0354,-0.0004));
#1922=CARTESIAN_POINT('',(0.093,-0.0354,-0.0004));
#1923=CARTESIAN_POINT('',(0.0904,-0.0425,-0.0004));
#1924=CARTESIAN_POINT('',(0.0904,-0.038,-0.0004));
#1925=CARTESIAN_POINT('',(0.093,-0.038,-0.0004));
#1926=CARTESIAN_POINT('',(0.1155,-0.032,-0.0036));
#1927=CARTESIAN_POINT('',(0.1155,-0.0354,-0.0036));
#1928=CARTESIAN_POINT('',(0.1121,-0.032,-0.0036));
#1929=CARTESIAN_POINT('',(0.1121,-0.0275,-0.0036));
#1930=CARTESIAN_POINT('',(0.1121,-0.023,-0.0036));
#1931=CARTESIAN_POINT('',(0.0525,-0.0354,-0.0036));
#1932=CARTESIAN_POINT('',(0.117,-0.0354,-0.0036));
#1933=CARTESIAN_POINT('',(0.1095,-0.023,-0.0036));
#1934=CARTESIAN_POINT('',(0.1095,-0.0204,-0.0036));
#1935=CARTESIAN_POINT('',(0.117,-0.038,-0.0036));
#1936=CARTESIAN_POINT('',(0.1196,-0.038,-0.0036));
#1937=CARTESIAN_POINT('',(0.0525,-0.0204,-0.0036));
#1938=CARTESIAN_POINT('',(0.1005,-0.0204,-0.0036));
#1939=CARTESIAN_POINT('',(0.1196,-0.0425,-0.0036));
#1940=CARTESIAN_POINT('',(0.1196,-0.062,-0.0036));
#1941=CARTESIAN_POINT('',(0.1005,-0.023,-0.0036));
#1942=CARTESIAN_POINT('',(0.0979,-0.023,-0.0036));
#1943=CARTESIAN_POINT('',(0.117,-0.062,-0.0036));
#1944=CARTESIAN_POINT('',(0.117,-0.0646,-0.0036));
#1945=CARTESIAN_POINT('',(0.0979,-0.0425,-0.0036));
#1946=CARTESIAN_POINT('',(0.0979,-0.032,-0.0036));
#1947=CARTESIAN_POINT('',(0.105,-0.0646,-0.0036));
#1948=CARTESIAN_POINT('',(0.093,-0.0646,-0.0036));
#1949=CARTESIAN_POINT('',(0.0945,-0.032,-0.0036));
#1950=CARTESIAN_POINT('',(0.0945,-0.0354,-0.0036));
#1951=CARTESIAN_POINT('',(0.093,-0.062,-0.0036));
#1952=CARTESIAN_POINT('',(0.0904,-0.062,-0.0036));
#1953=CARTESIAN_POINT('',(0.0525,-0.0354,-0.0036));
#1954=CARTESIAN_POINT('',(0.093,-0.0354,-0.0036));
#1955=CARTESIAN_POINT('',(0.0904,-0.05,-0.0036));
#1956=CARTESIAN_POINT('',(0.0904,-0.038,-0.0036));
#1957=CARTESIAN_POINT('',(0.093,-0.038,-0.0036));
#1958=CARTESIAN_POINT('',(0.104883203125,-0.0425,-0.0004));
#1959=CARTESIAN_POINT('',(0.104883203125,-0.0278825520833334,-0.0004));
#1960=CARTESIAN_POINT('',(0.104883203125,-0.0278825520833334,-0.0004));
#1961=MECHANICAL_DESIGN_GEOMETRIC_PRESENTATION_REPRESENTATION('',(#1097),
#1962);
#1962=(
GEOMETRIC_REPRESENTATION_CONTEXT(3)
GLOBAL_UNCERTAINTY_ASSIGNED_CONTEXT((#1963))
GLOBAL_UNIT_ASSIGNED_CONTEXT((#1966,#1965,#1964))
REPRESENTATION_CONTEXT('CALIBRATION_spacer_4','TOP_LEVEL_ASSEMBLY_PART')
);
#1963=UNCERTAINTY_MEASURE_WITH_UNIT(LENGTH_MEASURE(1.E-8),#1966,
'DISTANCE_ACCURACY_VALUE','Maximum Tolerance applied to model');
#1964=(
NAMED_UNIT(*)
SI_UNIT($,.STERADIAN.)
SOLID_ANGLE_UNIT()
);
#1965=(
NAMED_UNIT(*)
PLANE_ANGLE_UNIT()
SI_UNIT($,.RADIAN.)
);
#1966=(
LENGTH_UNIT()
NAMED_UNIT(*)
SI_UNIT($,.METRE.)
);
#1967=PRODUCT_DEFINITION_SHAPE('','',#1968);
#1968=PRODUCT_DEFINITION('','',#1970,#1969);
#1969=PRODUCT_DEFINITION_CONTEXT('',#1976,'design');
#1970=PRODUCT_DEFINITION_FORMATION_WITH_SPECIFIED_SOURCE('','',#1972,
 .NOT_KNOWN.);
#1971=PRODUCT_RELATED_PRODUCT_CATEGORY('','',(#1972));
#1972=PRODUCT('CALIBRATION_spacer_4','CALIBRATION_spacer_4',
'CALIBRATION_spacer_4',(#1974));
#1973=PRODUCT_CATEGORY('','');
#1974=PRODUCT_CONTEXT('',#1976,'mechanical');
#1975=APPLICATION_PROTOCOL_DEFINITION('international standard',
'ap242_managed_model_based_3d_engineering',2020,#1976);
#1976=APPLICATION_CONTEXT('managed model based 3d engineering');
ENDSEC;
END-ISO-10303-21;
