ISO-10303-21;
HEADER;
/* Generated by software containing ST-Developer
 * from STEP Tools, Inc. (www.steptools.com) 
 */
/* OPTION: using custom renumber hook */

FILE_DESCRIPTION(
/* description */ ('STEP AP242 Edition 2',
'CAx-IF Rec.Pracs.---Representation and Presentation of Product Manufa
cturing Information (PMI)---4.0---2014-10-13',
'CAx-IF Rec.Pracs.---3D Tessellated Geometry---0.4---2014-09-14','2;1',
'CAx-IF Rec.Pracs.---User Defined Attributes---1.5---2016-08-15'),
/* implementation_level */ '2;1');

FILE_NAME(
/* name */ 'calibration_spacers - CALIBRATION_spacer_1',
/* time_stamp */ '2026-06-01T11:08:44Z',
/* author */ (''),
/* organization */ (''),
/* preprocessor_version */ 'ST-DEVELOPER v20',
/* originating_system */ 'ONSHAPE BY PTC INC, 1.215',
/* authorisation */ '  ');

FILE_SCHEMA (('AP242_MANAGED_MODEL_BASED_3D_ENGINEERING_MIM_LF { 1 0 10303 442 3 1 4 }'));
ENDSEC;

DATA;
#10=SHAPE_REPRESENTATION_RELATIONSHIP('','',#929,#11);
#11=ADVANCED_BREP_SHAPE_REPRESENTATION('',(#927),#1653);
#12=TOROIDAL_SURFACE('',#996,0.0034,0.0004);
#13=TOROIDAL_SURFACE('',#1003,0.0026,0.0004);
#14=TOROIDAL_SURFACE('',#1005,0.0026,0.0004);
#15=TOROIDAL_SURFACE('',#1011,0.0026,0.0004);
#16=TOROIDAL_SURFACE('',#1013,0.0026,0.0004);
#17=TOROIDAL_SURFACE('',#1019,0.0034,0.0004);
#18=TOROIDAL_SURFACE('',#1021,0.0026,0.0004);
#19=TOROIDAL_SURFACE('',#1027,0.0026,0.0004);
#20=TOROIDAL_SURFACE('',#1028,0.0034,0.0004);
#21=TOROIDAL_SURFACE('',#1035,0.0026,0.0004);
#22=TOROIDAL_SURFACE('',#1037,0.0026,0.0004);
#23=TOROIDAL_SURFACE('',#1043,0.0026,0.0004);
#24=TOROIDAL_SURFACE('',#1045,0.0026,0.0004);
#25=TOROIDAL_SURFACE('',#1051,0.0034,0.0004);
#26=TOROIDAL_SURFACE('',#1053,0.0026,0.0004);
#27=TOROIDAL_SURFACE('',#1059,0.0026,0.0004);
#28=ELLIPSE('',#983,0.000489173435411651,0.0004);
#29=ELLIPSE('',#984,0.000674177480726714,0.0004);
#30=ELLIPSE('',#986,0.000674177480726714,0.0004);
#31=ELLIPSE('',#988,0.000405991761943275,0.0004);
#32=ELLIPSE('',#990,0.000565685424949238,0.0004);
#33=ELLIPSE('',#992,0.000565685424949238,0.0004);
#34=ELLIPSE('',#994,0.000565685424949238,0.0004);
#35=CYLINDRICAL_SURFACE('',#940,0.003);
#36=CYLINDRICAL_SURFACE('',#944,0.003);
#37=CYLINDRICAL_SURFACE('',#948,0.003);
#38=CYLINDRICAL_SURFACE('',#952,0.003);
#39=CYLINDRICAL_SURFACE('',#956,0.003);
#40=CYLINDRICAL_SURFACE('',#960,0.003);
#41=CYLINDRICAL_SURFACE('',#964,0.003);
#42=CYLINDRICAL_SURFACE('',#968,0.003);
#43=CYLINDRICAL_SURFACE('',#982,0.0004);
#44=CYLINDRICAL_SURFACE('',#985,0.0004);
#45=CYLINDRICAL_SURFACE('',#987,0.0004);
#46=CYLINDRICAL_SURFACE('',#989,0.0004);
#47=CYLINDRICAL_SURFACE('',#991,0.0004);
#48=CYLINDRICAL_SURFACE('',#993,0.0004);
#49=CYLINDRICAL_SURFACE('',#995,0.0004);
#50=CYLINDRICAL_SURFACE('',#999,0.0004);
#51=CYLINDRICAL_SURFACE('',#1001,0.0004);
#52=CYLINDRICAL_SURFACE('',#1007,0.0004);
#53=CYLINDRICAL_SURFACE('',#1009,0.0004);
#54=CYLINDRICAL_SURFACE('',#1015,0.0004);
#55=CYLINDRICAL_SURFACE('',#1017,0.0004);
#56=CYLINDRICAL_SURFACE('',#1023,0.0004);
#57=CYLINDRICAL_SURFACE('',#1025,0.0004);
#58=CYLINDRICAL_SURFACE('',#1031,0.0004);
#59=CYLINDRICAL_SURFACE('',#1033,0.0004);
#60=CYLINDRICAL_SURFACE('',#1039,0.0004);
#61=CYLINDRICAL_SURFACE('',#1041,0.0004);
#62=CYLINDRICAL_SURFACE('',#1047,0.0004);
#63=CYLINDRICAL_SURFACE('',#1049,0.0004);
#64=CYLINDRICAL_SURFACE('',#1055,0.0004);
#65=CYLINDRICAL_SURFACE('',#1057,0.0004);
#66=CIRCLE('',#932,0.0026);
#67=CIRCLE('',#933,0.0026);
#68=CIRCLE('',#934,0.0026);
#69=CIRCLE('',#935,0.0026);
#70=CIRCLE('',#936,0.0034);
#71=CIRCLE('',#937,0.0026);
#72=CIRCLE('',#938,0.0026);
#73=CIRCLE('',#939,0.0034);
#74=CIRCLE('',#941,0.003);
#75=CIRCLE('',#942,0.003);
#76=CIRCLE('',#945,0.003);
#77=CIRCLE('',#946,0.003);
#78=CIRCLE('',#949,0.003);
#79=CIRCLE('',#950,0.003);
#80=CIRCLE('',#953,0.003);
#81=CIRCLE('',#954,0.003);
#82=CIRCLE('',#957,0.003);
#83=CIRCLE('',#958,0.003);
#84=CIRCLE('',#961,0.003);
#85=CIRCLE('',#962,0.003);
#86=CIRCLE('',#965,0.003);
#87=CIRCLE('',#966,0.003);
#88=CIRCLE('',#969,0.003);
#89=CIRCLE('',#970,0.003);
#90=CIRCLE('',#973,0.0026);
#91=CIRCLE('',#974,0.0034);
#92=CIRCLE('',#975,0.0026);
#93=CIRCLE('',#976,0.0026);
#94=CIRCLE('',#977,0.0034);
#95=CIRCLE('',#978,0.0026);
#96=CIRCLE('',#979,0.0026);
#97=CIRCLE('',#980,0.0026);
#98=CIRCLE('',#997,0.0004);
#99=CIRCLE('',#998,0.0004);
#100=CIRCLE('',#1000,0.0004);
#101=CIRCLE('',#1002,0.0004);
#102=CIRCLE('',#1004,0.0004);
#103=CIRCLE('',#1006,0.0004);
#104=CIRCLE('',#1008,0.0004);
#105=CIRCLE('',#1010,0.0004);
#106=CIRCLE('',#1012,0.0004);
#107=CIRCLE('',#1014,0.0004);
#108=CIRCLE('',#1016,0.0004);
#109=CIRCLE('',#1018,0.0004);
#110=CIRCLE('',#1020,0.0004);
#111=CIRCLE('',#1022,0.0004);
#112=CIRCLE('',#1024,0.0004);
#113=CIRCLE('',#1026,0.0004);
#114=CIRCLE('',#1029,0.0004);
#115=CIRCLE('',#1030,0.0004);
#116=CIRCLE('',#1032,0.0004);
#117=CIRCLE('',#1034,0.0004);
#118=CIRCLE('',#1036,0.0004);
#119=CIRCLE('',#1038,0.0004);
#120=CIRCLE('',#1040,0.0004);
#121=CIRCLE('',#1042,0.0004);
#122=CIRCLE('',#1044,0.0004);
#123=CIRCLE('',#1046,0.0004);
#124=CIRCLE('',#1048,0.0004);
#125=CIRCLE('',#1050,0.0004);
#126=CIRCLE('',#1052,0.0004);
#127=CIRCLE('',#1054,0.0004);
#128=CIRCLE('',#1056,0.0004);
#129=CIRCLE('',#1058,0.0004);
#130=ORIENTED_EDGE('',*,*,#396,.T.);
#131=ORIENTED_EDGE('',*,*,#397,.T.);
#132=ORIENTED_EDGE('',*,*,#398,.T.);
#133=ORIENTED_EDGE('',*,*,#399,.T.);
#134=ORIENTED_EDGE('',*,*,#400,.T.);
#135=ORIENTED_EDGE('',*,*,#401,.T.);
#136=ORIENTED_EDGE('',*,*,#402,.T.);
#137=ORIENTED_EDGE('',*,*,#403,.T.);
#138=ORIENTED_EDGE('',*,*,#404,.T.);
#139=ORIENTED_EDGE('',*,*,#405,.T.);
#140=ORIENTED_EDGE('',*,*,#406,.T.);
#141=ORIENTED_EDGE('',*,*,#407,.T.);
#142=ORIENTED_EDGE('',*,*,#408,.T.);
#143=ORIENTED_EDGE('',*,*,#409,.T.);
#144=ORIENTED_EDGE('',*,*,#410,.T.);
#145=ORIENTED_EDGE('',*,*,#411,.T.);
#146=ORIENTED_EDGE('',*,*,#412,.T.);
#147=ORIENTED_EDGE('',*,*,#413,.T.);
#148=ORIENTED_EDGE('',*,*,#414,.T.);
#149=ORIENTED_EDGE('',*,*,#415,.T.);
#150=ORIENTED_EDGE('',*,*,#416,.T.);
#151=ORIENTED_EDGE('',*,*,#417,.T.);
#152=ORIENTED_EDGE('',*,*,#418,.T.);
#153=ORIENTED_EDGE('',*,*,#419,.T.);
#154=ORIENTED_EDGE('',*,*,#420,.T.);
#155=ORIENTED_EDGE('',*,*,#421,.F.);
#156=ORIENTED_EDGE('',*,*,#422,.T.);
#157=ORIENTED_EDGE('',*,*,#423,.T.);
#158=ORIENTED_EDGE('',*,*,#424,.T.);
#159=ORIENTED_EDGE('',*,*,#419,.F.);
#160=ORIENTED_EDGE('',*,*,#425,.T.);
#161=ORIENTED_EDGE('',*,*,#426,.T.);
#162=ORIENTED_EDGE('',*,*,#427,.T.);
#163=ORIENTED_EDGE('',*,*,#423,.F.);
#164=ORIENTED_EDGE('',*,*,#428,.T.);
#165=ORIENTED_EDGE('',*,*,#429,.T.);
#166=ORIENTED_EDGE('',*,*,#430,.T.);
#167=ORIENTED_EDGE('',*,*,#426,.F.);
#168=ORIENTED_EDGE('',*,*,#431,.T.);
#169=ORIENTED_EDGE('',*,*,#432,.T.);
#170=ORIENTED_EDGE('',*,*,#433,.T.);
#171=ORIENTED_EDGE('',*,*,#429,.F.);
#172=ORIENTED_EDGE('',*,*,#434,.T.);
#173=ORIENTED_EDGE('',*,*,#435,.T.);
#174=ORIENTED_EDGE('',*,*,#436,.T.);
#175=ORIENTED_EDGE('',*,*,#432,.F.);
#176=ORIENTED_EDGE('',*,*,#437,.T.);
#177=ORIENTED_EDGE('',*,*,#438,.T.);
#178=ORIENTED_EDGE('',*,*,#439,.T.);
#179=ORIENTED_EDGE('',*,*,#435,.F.);
#180=ORIENTED_EDGE('',*,*,#440,.T.);
#181=ORIENTED_EDGE('',*,*,#441,.T.);
#182=ORIENTED_EDGE('',*,*,#442,.T.);
#183=ORIENTED_EDGE('',*,*,#438,.F.);
#184=ORIENTED_EDGE('',*,*,#443,.T.);
#185=ORIENTED_EDGE('',*,*,#444,.T.);
#186=ORIENTED_EDGE('',*,*,#445,.T.);
#187=ORIENTED_EDGE('',*,*,#441,.F.);
#188=ORIENTED_EDGE('',*,*,#446,.T.);
#189=ORIENTED_EDGE('',*,*,#447,.T.);
#190=ORIENTED_EDGE('',*,*,#448,.T.);
#191=ORIENTED_EDGE('',*,*,#444,.F.);
#192=ORIENTED_EDGE('',*,*,#449,.T.);
#193=ORIENTED_EDGE('',*,*,#450,.T.);
#194=ORIENTED_EDGE('',*,*,#451,.T.);
#195=ORIENTED_EDGE('',*,*,#447,.F.);
#196=ORIENTED_EDGE('',*,*,#452,.T.);
#197=ORIENTED_EDGE('',*,*,#453,.T.);
#198=ORIENTED_EDGE('',*,*,#454,.T.);
#199=ORIENTED_EDGE('',*,*,#450,.F.);
#200=ORIENTED_EDGE('',*,*,#455,.T.);
#201=ORIENTED_EDGE('',*,*,#456,.T.);
#202=ORIENTED_EDGE('',*,*,#457,.T.);
#203=ORIENTED_EDGE('',*,*,#453,.F.);
#204=ORIENTED_EDGE('',*,*,#458,.T.);
#205=ORIENTED_EDGE('',*,*,#459,.T.);
#206=ORIENTED_EDGE('',*,*,#460,.T.);
#207=ORIENTED_EDGE('',*,*,#456,.F.);
#208=ORIENTED_EDGE('',*,*,#461,.T.);
#209=ORIENTED_EDGE('',*,*,#462,.T.);
#210=ORIENTED_EDGE('',*,*,#463,.T.);
#211=ORIENTED_EDGE('',*,*,#459,.F.);
#212=ORIENTED_EDGE('',*,*,#464,.T.);
#213=ORIENTED_EDGE('',*,*,#421,.T.);
#214=ORIENTED_EDGE('',*,*,#465,.T.);
#215=ORIENTED_EDGE('',*,*,#462,.F.);
#216=ORIENTED_EDGE('',*,*,#466,.T.);
#217=ORIENTED_EDGE('',*,*,#467,.T.);
#218=ORIENTED_EDGE('',*,*,#468,.T.);
#219=ORIENTED_EDGE('',*,*,#469,.T.);
#220=ORIENTED_EDGE('',*,*,#470,.T.);
#221=ORIENTED_EDGE('',*,*,#471,.T.);
#222=ORIENTED_EDGE('',*,*,#472,.T.);
#223=ORIENTED_EDGE('',*,*,#473,.T.);
#224=ORIENTED_EDGE('',*,*,#474,.T.);
#225=ORIENTED_EDGE('',*,*,#475,.T.);
#226=ORIENTED_EDGE('',*,*,#476,.T.);
#227=ORIENTED_EDGE('',*,*,#477,.T.);
#228=ORIENTED_EDGE('',*,*,#478,.T.);
#229=ORIENTED_EDGE('',*,*,#479,.T.);
#230=ORIENTED_EDGE('',*,*,#480,.T.);
#231=ORIENTED_EDGE('',*,*,#481,.T.);
#232=ORIENTED_EDGE('',*,*,#482,.T.);
#233=ORIENTED_EDGE('',*,*,#483,.F.);
#234=ORIENTED_EDGE('',*,*,#484,.F.);
#235=ORIENTED_EDGE('',*,*,#485,.F.);
#236=ORIENTED_EDGE('',*,*,#486,.F.);
#237=ORIENTED_EDGE('',*,*,#487,.F.);
#238=ORIENTED_EDGE('',*,*,#488,.F.);
#239=ORIENTED_EDGE('',*,*,#489,.F.);
#240=ORIENTED_EDGE('',*,*,#490,.F.);
#241=ORIENTED_EDGE('',*,*,#401,.F.);
#242=ORIENTED_EDGE('',*,*,#491,.F.);
#243=ORIENTED_EDGE('',*,*,#487,.T.);
#244=ORIENTED_EDGE('',*,*,#491,.T.);
#245=ORIENTED_EDGE('',*,*,#400,.F.);
#246=ORIENTED_EDGE('',*,*,#492,.F.);
#247=ORIENTED_EDGE('',*,*,#488,.T.);
#248=ORIENTED_EDGE('',*,*,#490,.T.);
#249=ORIENTED_EDGE('',*,*,#486,.T.);
#250=ORIENTED_EDGE('',*,*,#493,.F.);
#251=ORIENTED_EDGE('',*,*,#402,.F.);
#252=ORIENTED_EDGE('',*,*,#492,.T.);
#253=ORIENTED_EDGE('',*,*,#399,.F.);
#254=ORIENTED_EDGE('',*,*,#494,.F.);
#255=ORIENTED_EDGE('',*,*,#489,.T.);
#256=ORIENTED_EDGE('',*,*,#493,.T.);
#257=ORIENTED_EDGE('',*,*,#485,.T.);
#258=ORIENTED_EDGE('',*,*,#495,.F.);
#259=ORIENTED_EDGE('',*,*,#396,.F.);
#260=ORIENTED_EDGE('',*,*,#494,.T.);
#261=ORIENTED_EDGE('',*,*,#398,.F.);
#262=ORIENTED_EDGE('',*,*,#496,.F.);
#263=ORIENTED_EDGE('',*,*,#483,.T.);
#264=ORIENTED_EDGE('',*,*,#495,.T.);
#265=ORIENTED_EDGE('',*,*,#484,.T.);
#266=ORIENTED_EDGE('',*,*,#496,.T.);
#267=ORIENTED_EDGE('',*,*,#397,.F.);
#268=ORIENTED_EDGE('',*,*,#497,.F.);
#269=ORIENTED_EDGE('',*,*,#451,.F.);
#270=ORIENTED_EDGE('',*,*,#498,.F.);
#271=ORIENTED_EDGE('',*,*,#412,.F.);
#272=ORIENTED_EDGE('',*,*,#498,.T.);
#273=ORIENTED_EDGE('',*,*,#454,.F.);
#274=ORIENTED_EDGE('',*,*,#499,.F.);
#275=ORIENTED_EDGE('',*,*,#413,.F.);
#276=ORIENTED_EDGE('',*,*,#497,.T.);
#277=ORIENTED_EDGE('',*,*,#411,.F.);
#278=ORIENTED_EDGE('',*,*,#500,.F.);
#279=ORIENTED_EDGE('',*,*,#448,.F.);
#280=ORIENTED_EDGE('',*,*,#499,.T.);
#281=ORIENTED_EDGE('',*,*,#457,.F.);
#282=ORIENTED_EDGE('',*,*,#501,.F.);
#283=ORIENTED_EDGE('',*,*,#414,.F.);
#284=ORIENTED_EDGE('',*,*,#500,.T.);
#285=ORIENTED_EDGE('',*,*,#410,.F.);
#286=ORIENTED_EDGE('',*,*,#502,.F.);
#287=ORIENTED_EDGE('',*,*,#445,.F.);
#288=ORIENTED_EDGE('',*,*,#501,.T.);
#289=ORIENTED_EDGE('',*,*,#460,.F.);
#290=ORIENTED_EDGE('',*,*,#503,.F.);
#291=ORIENTED_EDGE('',*,*,#415,.F.);
#292=ORIENTED_EDGE('',*,*,#502,.T.);
#293=ORIENTED_EDGE('',*,*,#409,.F.);
#294=ORIENTED_EDGE('',*,*,#504,.F.);
#295=ORIENTED_EDGE('',*,*,#442,.F.);
#296=ORIENTED_EDGE('',*,*,#503,.T.);
#297=ORIENTED_EDGE('',*,*,#463,.F.);
#298=ORIENTED_EDGE('',*,*,#505,.F.);
#299=ORIENTED_EDGE('',*,*,#416,.F.);
#300=ORIENTED_EDGE('',*,*,#504,.T.);
#301=ORIENTED_EDGE('',*,*,#408,.F.);
#302=ORIENTED_EDGE('',*,*,#506,.F.);
#303=ORIENTED_EDGE('',*,*,#439,.F.);
#304=ORIENTED_EDGE('',*,*,#505,.T.);
#305=ORIENTED_EDGE('',*,*,#465,.F.);
#306=ORIENTED_EDGE('',*,*,#507,.F.);
#307=ORIENTED_EDGE('',*,*,#417,.F.);
#308=ORIENTED_EDGE('',*,*,#506,.T.);
#309=ORIENTED_EDGE('',*,*,#407,.F.);
#310=ORIENTED_EDGE('',*,*,#508,.F.);
#311=ORIENTED_EDGE('',*,*,#436,.F.);
#312=ORIENTED_EDGE('',*,*,#507,.T.);
#313=ORIENTED_EDGE('',*,*,#420,.F.);
#314=ORIENTED_EDGE('',*,*,#509,.F.);
#315=ORIENTED_EDGE('',*,*,#418,.F.);
#316=ORIENTED_EDGE('',*,*,#508,.T.);
#317=ORIENTED_EDGE('',*,*,#406,.F.);
#318=ORIENTED_EDGE('',*,*,#510,.F.);
#319=ORIENTED_EDGE('',*,*,#433,.F.);
#320=ORIENTED_EDGE('',*,*,#509,.T.);
#321=ORIENTED_EDGE('',*,*,#424,.F.);
#322=ORIENTED_EDGE('',*,*,#511,.F.);
#323=ORIENTED_EDGE('',*,*,#403,.F.);
#324=ORIENTED_EDGE('',*,*,#510,.T.);
#325=ORIENTED_EDGE('',*,*,#405,.F.);
#326=ORIENTED_EDGE('',*,*,#512,.F.);
#327=ORIENTED_EDGE('',*,*,#430,.F.);
#328=ORIENTED_EDGE('',*,*,#511,.T.);
#329=ORIENTED_EDGE('',*,*,#427,.F.);
#330=ORIENTED_EDGE('',*,*,#512,.T.);
#331=ORIENTED_EDGE('',*,*,#404,.F.);
#332=ORIENTED_EDGE('',*,*,#513,.F.);
#333=ORIENTED_EDGE('',*,*,#476,.F.);
#334=ORIENTED_EDGE('',*,*,#514,.F.);
#335=ORIENTED_EDGE('',*,*,#452,.F.);
#336=ORIENTED_EDGE('',*,*,#514,.T.);
#337=ORIENTED_EDGE('',*,*,#475,.F.);
#338=ORIENTED_EDGE('',*,*,#515,.F.);
#339=ORIENTED_EDGE('',*,*,#455,.F.);
#340=ORIENTED_EDGE('',*,*,#513,.T.);
#341=ORIENTED_EDGE('',*,*,#449,.F.);
#342=ORIENTED_EDGE('',*,*,#516,.F.);
#343=ORIENTED_EDGE('',*,*,#477,.F.);
#344=ORIENTED_EDGE('',*,*,#515,.T.);
#345=ORIENTED_EDGE('',*,*,#474,.F.);
#346=ORIENTED_EDGE('',*,*,#517,.F.);
#347=ORIENTED_EDGE('',*,*,#458,.F.);
#348=ORIENTED_EDGE('',*,*,#516,.T.);
#349=ORIENTED_EDGE('',*,*,#446,.F.);
#350=ORIENTED_EDGE('',*,*,#518,.F.);
#351=ORIENTED_EDGE('',*,*,#478,.F.);
#352=ORIENTED_EDGE('',*,*,#517,.T.);
#353=ORIENTED_EDGE('',*,*,#473,.F.);
#354=ORIENTED_EDGE('',*,*,#519,.F.);
#355=ORIENTED_EDGE('',*,*,#461,.F.);
#356=ORIENTED_EDGE('',*,*,#518,.T.);
#357=ORIENTED_EDGE('',*,*,#443,.F.);
#358=ORIENTED_EDGE('',*,*,#520,.F.);
#359=ORIENTED_EDGE('',*,*,#479,.F.);
#360=ORIENTED_EDGE('',*,*,#519,.T.);
#361=ORIENTED_EDGE('',*,*,#472,.F.);
#362=ORIENTED_EDGE('',*,*,#521,.F.);
#363=ORIENTED_EDGE('',*,*,#464,.F.);
#364=ORIENTED_EDGE('',*,*,#520,.T.);
#365=ORIENTED_EDGE('',*,*,#440,.F.);
#366=ORIENTED_EDGE('',*,*,#522,.F.);
#367=ORIENTED_EDGE('',*,*,#480,.F.);
#368=ORIENTED_EDGE('',*,*,#521,.T.);
#369=ORIENTED_EDGE('',*,*,#471,.F.);
#370=ORIENTED_EDGE('',*,*,#523,.F.);
#371=ORIENTED_EDGE('',*,*,#466,.F.);
#372=ORIENTED_EDGE('',*,*,#522,.T.);
#373=ORIENTED_EDGE('',*,*,#437,.F.);
#374=ORIENTED_EDGE('',*,*,#524,.F.);
#375=ORIENTED_EDGE('',*,*,#481,.F.);
#376=ORIENTED_EDGE('',*,*,#523,.T.);
#377=ORIENTED_EDGE('',*,*,#470,.F.);
#378=ORIENTED_EDGE('',*,*,#525,.F.);
#379=ORIENTED_EDGE('',*,*,#422,.F.);
#380=ORIENTED_EDGE('',*,*,#524,.T.);
#381=ORIENTED_EDGE('',*,*,#434,.F.);
#382=ORIENTED_EDGE('',*,*,#526,.F.);
#383=ORIENTED_EDGE('',*,*,#482,.F.);
#384=ORIENTED_EDGE('',*,*,#525,.T.);
#385=ORIENTED_EDGE('',*,*,#469,.F.);
#386=ORIENTED_EDGE('',*,*,#527,.F.);
#387=ORIENTED_EDGE('',*,*,#425,.F.);
#388=ORIENTED_EDGE('',*,*,#526,.T.);
#389=ORIENTED_EDGE('',*,*,#431,.F.);
#390=ORIENTED_EDGE('',*,*,#528,.F.);
#391=ORIENTED_EDGE('',*,*,#467,.F.);
#392=ORIENTED_EDGE('',*,*,#527,.T.);
#393=ORIENTED_EDGE('',*,*,#468,.F.);
#394=ORIENTED_EDGE('',*,*,#528,.T.);
#395=ORIENTED_EDGE('',*,*,#428,.F.);
#396=EDGE_CURVE('',#529,#530,#607,.T.);
#397=EDGE_CURVE('',#530,#531,#608,.T.);
#398=EDGE_CURVE('',#531,#532,#609,.T.);
#399=EDGE_CURVE('',#532,#533,#610,.T.);
#400=EDGE_CURVE('',#533,#534,#611,.T.);
#401=EDGE_CURVE('',#534,#535,#612,.T.);
#402=EDGE_CURVE('',#535,#529,#613,.T.);
#403=EDGE_CURVE('',#536,#537,#614,.F.);
#404=EDGE_CURVE('',#537,#538,#66,.T.);
#405=EDGE_CURVE('',#538,#539,#615,.T.);
#406=EDGE_CURVE('',#539,#540,#67,.T.);
#407=EDGE_CURVE('',#540,#541,#616,.T.);
#408=EDGE_CURVE('',#541,#542,#68,.T.);
#409=EDGE_CURVE('',#542,#543,#617,.F.);
#410=EDGE_CURVE('',#543,#544,#69,.T.);
#411=EDGE_CURVE('',#544,#545,#618,.F.);
#412=EDGE_CURVE('',#545,#546,#70,.F.);
#413=EDGE_CURVE('',#546,#547,#619,.T.);
#414=EDGE_CURVE('',#547,#548,#71,.T.);
#415=EDGE_CURVE('',#548,#549,#620,.F.);
#416=EDGE_CURVE('',#549,#550,#72,.T.);
#417=EDGE_CURVE('',#550,#551,#621,.F.);
#418=EDGE_CURVE('',#551,#536,#73,.F.);
#419=EDGE_CURVE('',#552,#553,#622,.T.);
#420=EDGE_CURVE('',#553,#554,#74,.T.);
#421=EDGE_CURVE('',#555,#554,#623,.T.);
#422=EDGE_CURVE('',#555,#552,#75,.F.);
#423=EDGE_CURVE('',#556,#557,#624,.T.);
#424=EDGE_CURVE('',#557,#553,#625,.T.);
#425=EDGE_CURVE('',#552,#556,#626,.F.);
#426=EDGE_CURVE('',#558,#559,#627,.T.);
#427=EDGE_CURVE('',#559,#557,#76,.F.);
#428=EDGE_CURVE('',#556,#558,#77,.T.);
#429=EDGE_CURVE('',#560,#561,#628,.T.);
#430=EDGE_CURVE('',#561,#559,#629,.F.);
#431=EDGE_CURVE('',#558,#560,#630,.T.);
#432=EDGE_CURVE('',#562,#563,#631,.T.);
#433=EDGE_CURVE('',#563,#561,#78,.F.);
#434=EDGE_CURVE('',#560,#562,#79,.T.);
#435=EDGE_CURVE('',#564,#565,#632,.T.);
#436=EDGE_CURVE('',#565,#563,#633,.F.);
#437=EDGE_CURVE('',#562,#564,#634,.T.);
#438=EDGE_CURVE('',#566,#567,#635,.T.);
#439=EDGE_CURVE('',#567,#565,#80,.F.);
#440=EDGE_CURVE('',#564,#566,#81,.T.);
#441=EDGE_CURVE('',#568,#569,#636,.T.);
#442=EDGE_CURVE('',#569,#567,#637,.T.);
#443=EDGE_CURVE('',#566,#568,#638,.F.);
#444=EDGE_CURVE('',#570,#571,#639,.T.);
#445=EDGE_CURVE('',#571,#569,#82,.F.);
#446=EDGE_CURVE('',#568,#570,#83,.T.);
#447=EDGE_CURVE('',#572,#573,#640,.T.);
#448=EDGE_CURVE('',#573,#571,#641,.T.);
#449=EDGE_CURVE('',#570,#572,#642,.F.);
#450=EDGE_CURVE('',#574,#575,#643,.T.);
#451=EDGE_CURVE('',#575,#573,#84,.T.);
#452=EDGE_CURVE('',#572,#574,#85,.F.);
#453=EDGE_CURVE('',#576,#577,#644,.T.);
#454=EDGE_CURVE('',#577,#575,#645,.F.);
#455=EDGE_CURVE('',#574,#576,#646,.T.);
#456=EDGE_CURVE('',#578,#579,#647,.T.);
#457=EDGE_CURVE('',#579,#577,#86,.F.);
#458=EDGE_CURVE('',#576,#578,#87,.T.);
#459=EDGE_CURVE('',#580,#581,#648,.T.);
#460=EDGE_CURVE('',#581,#579,#649,.T.);
#461=EDGE_CURVE('',#578,#580,#650,.F.);
#462=EDGE_CURVE('',#582,#583,#651,.T.);
#463=EDGE_CURVE('',#583,#581,#88,.F.);
#464=EDGE_CURVE('',#580,#582,#89,.T.);
#465=EDGE_CURVE('',#554,#583,#652,.T.);
#466=EDGE_CURVE('',#582,#555,#653,.F.);
#467=EDGE_CURVE('',#584,#585,#654,.F.);
#468=EDGE_CURVE('',#585,#586,#90,.F.);
#469=EDGE_CURVE('',#586,#587,#655,.T.);
#470=EDGE_CURVE('',#587,#588,#91,.T.);
#471=EDGE_CURVE('',#588,#589,#656,.T.);
#472=EDGE_CURVE('',#589,#590,#92,.F.);
#473=EDGE_CURVE('',#590,#591,#657,.T.);
#474=EDGE_CURVE('',#591,#592,#93,.F.);
#475=EDGE_CURVE('',#592,#593,#658,.F.);
#476=EDGE_CURVE('',#593,#594,#94,.T.);
#477=EDGE_CURVE('',#594,#595,#659,.T.);
#478=EDGE_CURVE('',#595,#596,#95,.F.);
#479=EDGE_CURVE('',#596,#597,#660,.T.);
#480=EDGE_CURVE('',#597,#598,#96,.F.);
#481=EDGE_CURVE('',#598,#599,#661,.F.);
#482=EDGE_CURVE('',#599,#584,#97,.F.);
#483=EDGE_CURVE('',#600,#601,#662,.T.);
#484=EDGE_CURVE('',#602,#600,#663,.T.);
#485=EDGE_CURVE('',#603,#602,#664,.T.);
#486=EDGE_CURVE('',#604,#603,#665,.T.);
#487=EDGE_CURVE('',#605,#604,#666,.T.);
#488=EDGE_CURVE('',#606,#605,#667,.T.);
#489=EDGE_CURVE('',#601,#606,#668,.T.);
#490=EDGE_CURVE('',#535,#604,#28,.T.);
#491=EDGE_CURVE('',#605,#534,#29,.F.);
#492=EDGE_CURVE('',#606,#533,#30,.F.);
#493=EDGE_CURVE('',#529,#603,#31,.T.);
#494=EDGE_CURVE('',#601,#532,#32,.F.);
#495=EDGE_CURVE('',#530,#602,#33,.T.);
#496=EDGE_CURVE('',#600,#531,#34,.F.);
#497=EDGE_CURVE('',#573,#545,#98,.T.);
#498=EDGE_CURVE('',#546,#575,#99,.T.);
#499=EDGE_CURVE('',#547,#577,#100,.T.);
#500=EDGE_CURVE('',#571,#544,#101,.T.);
#501=EDGE_CURVE('',#548,#579,#102,.T.);
#502=EDGE_CURVE('',#569,#543,#103,.T.);
#503=EDGE_CURVE('',#549,#581,#104,.T.);
#504=EDGE_CURVE('',#567,#542,#105,.T.);
#505=EDGE_CURVE('',#550,#583,#106,.T.);
#506=EDGE_CURVE('',#565,#541,#107,.T.);
#507=EDGE_CURVE('',#551,#554,#108,.T.);
#508=EDGE_CURVE('',#563,#540,#109,.T.);
#509=EDGE_CURVE('',#536,#553,#110,.T.);
#510=EDGE_CURVE('',#561,#539,#111,.T.);
#511=EDGE_CURVE('',#537,#557,#112,.T.);
#512=EDGE_CURVE('',#559,#538,#113,.T.);
#513=EDGE_CURVE('',#594,#572,#114,.T.);
#514=EDGE_CURVE('',#574,#593,#115,.T.);
#515=EDGE_CURVE('',#576,#592,#116,.T.);
#516=EDGE_CURVE('',#595,#570,#117,.T.);
#517=EDGE_CURVE('',#578,#591,#118,.T.);
#518=EDGE_CURVE('',#596,#568,#119,.T.);
#519=EDGE_CURVE('',#580,#590,#120,.T.);
#520=EDGE_CURVE('',#597,#566,#121,.T.);
#521=EDGE_CURVE('',#582,#589,#122,.T.);
#522=EDGE_CURVE('',#598,#564,#123,.T.);
#523=EDGE_CURVE('',#555,#588,#124,.T.);
#524=EDGE_CURVE('',#599,#562,#125,.T.);
#525=EDGE_CURVE('',#552,#587,#126,.T.);
#526=EDGE_CURVE('',#584,#560,#127,.T.);
#527=EDGE_CURVE('',#556,#586,#128,.T.);
#528=EDGE_CURVE('',#585,#558,#129,.T.);
#529=VERTEX_POINT('',#1385);
#530=VERTEX_POINT('',#1386);
#531=VERTEX_POINT('',#1388);
#532=VERTEX_POINT('',#1390);
#533=VERTEX_POINT('',#1392);
#534=VERTEX_POINT('',#1394);
#535=VERTEX_POINT('',#1396);
#536=VERTEX_POINT('',#1399);
#537=VERTEX_POINT('',#1400);
#538=VERTEX_POINT('',#1402);
#539=VERTEX_POINT('',#1404);
#540=VERTEX_POINT('',#1406);
#541=VERTEX_POINT('',#1408);
#542=VERTEX_POINT('',#1410);
#543=VERTEX_POINT('',#1412);
#544=VERTEX_POINT('',#1414);
#545=VERTEX_POINT('',#1416);
#546=VERTEX_POINT('',#1418);
#547=VERTEX_POINT('',#1420);
#548=VERTEX_POINT('',#1422);
#549=VERTEX_POINT('',#1424);
#550=VERTEX_POINT('',#1426);
#551=VERTEX_POINT('',#1428);
#552=VERTEX_POINT('',#1432);
#553=VERTEX_POINT('',#1433);
#554=VERTEX_POINT('',#1435);
#555=VERTEX_POINT('',#1437);
#556=VERTEX_POINT('',#1441);
#557=VERTEX_POINT('',#1442);
#558=VERTEX_POINT('',#1447);
#559=VERTEX_POINT('',#1448);
#560=VERTEX_POINT('',#1453);
#561=VERTEX_POINT('',#1454);
#562=VERTEX_POINT('',#1459);
#563=VERTEX_POINT('',#1460);
#564=VERTEX_POINT('',#1465);
#565=VERTEX_POINT('',#1466);
#566=VERTEX_POINT('',#1471);
#567=VERTEX_POINT('',#1472);
#568=VERTEX_POINT('',#1477);
#569=VERTEX_POINT('',#1478);
#570=VERTEX_POINT('',#1483);
#571=VERTEX_POINT('',#1484);
#572=VERTEX_POINT('',#1489);
#573=VERTEX_POINT('',#1490);
#574=VERTEX_POINT('',#1495);
#575=VERTEX_POINT('',#1496);
#576=VERTEX_POINT('',#1501);
#577=VERTEX_POINT('',#1502);
#578=VERTEX_POINT('',#1507);
#579=VERTEX_POINT('',#1508);
#580=VERTEX_POINT('',#1513);
#581=VERTEX_POINT('',#1514);
#582=VERTEX_POINT('',#1519);
#583=VERTEX_POINT('',#1520);
#584=VERTEX_POINT('',#1528);
#585=VERTEX_POINT('',#1529);
#586=VERTEX_POINT('',#1531);
#587=VERTEX_POINT('',#1533);
#588=VERTEX_POINT('',#1535);
#589=VERTEX_POINT('',#1537);
#590=VERTEX_POINT('',#1539);
#591=VERTEX_POINT('',#1541);
#592=VERTEX_POINT('',#1543);
#593=VERTEX_POINT('',#1545);
#594=VERTEX_POINT('',#1547);
#595=VERTEX_POINT('',#1549);
#596=VERTEX_POINT('',#1551);
#597=VERTEX_POINT('',#1553);
#598=VERTEX_POINT('',#1555);
#599=VERTEX_POINT('',#1557);
#600=VERTEX_POINT('',#1561);
#601=VERTEX_POINT('',#1562);
#602=VERTEX_POINT('',#1564);
#603=VERTEX_POINT('',#1566);
#604=VERTEX_POINT('',#1568);
#605=VERTEX_POINT('',#1570);
#606=VERTEX_POINT('',#1572);
#607=LINE('',#1384,#669);
#608=LINE('',#1387,#670);
#609=LINE('',#1389,#671);
#610=LINE('',#1391,#672);
#611=LINE('',#1393,#673);
#612=LINE('',#1395,#674);
#613=LINE('',#1397,#675);
#614=LINE('',#1398,#676);
#615=LINE('',#1403,#677);
#616=LINE('',#1407,#678);
#617=LINE('',#1411,#679);
#618=LINE('',#1415,#680);
#619=LINE('',#1419,#681);
#620=LINE('',#1423,#682);
#621=LINE('',#1427,#683);
#622=LINE('',#1431,#684);
#623=LINE('',#1436,#685);
#624=LINE('',#1440,#686);
#625=LINE('',#1443,#687);
#626=LINE('',#1444,#688);
#627=LINE('',#1446,#689);
#628=LINE('',#1452,#690);
#629=LINE('',#1455,#691);
#630=LINE('',#1456,#692);
#631=LINE('',#1458,#693);
#632=LINE('',#1464,#694);
#633=LINE('',#1467,#695);
#634=LINE('',#1468,#696);
#635=LINE('',#1470,#697);
#636=LINE('',#1476,#698);
#637=LINE('',#1479,#699);
#638=LINE('',#1480,#700);
#639=LINE('',#1482,#701);
#640=LINE('',#1488,#702);
#641=LINE('',#1491,#703);
#642=LINE('',#1492,#704);
#643=LINE('',#1494,#705);
#644=LINE('',#1500,#706);
#645=LINE('',#1503,#707);
#646=LINE('',#1504,#708);
#647=LINE('',#1506,#709);
#648=LINE('',#1512,#710);
#649=LINE('',#1515,#711);
#650=LINE('',#1516,#712);
#651=LINE('',#1518,#713);
#652=LINE('',#1524,#714);
#653=LINE('',#1525,#715);
#654=LINE('',#1527,#716);
#655=LINE('',#1532,#717);
#656=LINE('',#1536,#718);
#657=LINE('',#1540,#719);
#658=LINE('',#1544,#720);
#659=LINE('',#1548,#721);
#660=LINE('',#1552,#722);
#661=LINE('',#1556,#723);
#662=LINE('',#1560,#724);
#663=LINE('',#1563,#725);
#664=LINE('',#1565,#726);
#665=LINE('',#1567,#727);
#666=LINE('',#1569,#728);
#667=LINE('',#1571,#729);
#668=LINE('',#1573,#730);
#669=VECTOR('',#1064,1.);
#670=VECTOR('',#1065,1.);
#671=VECTOR('',#1066,1.);
#672=VECTOR('',#1067,1.);
#673=VECTOR('',#1068,1.);
#674=VECTOR('',#1069,1.);
#675=VECTOR('',#1070,1.);
#676=VECTOR('',#1071,1.);
#677=VECTOR('',#1074,1.);
#678=VECTOR('',#1077,1.);
#679=VECTOR('',#1080,1.);
#680=VECTOR('',#1083,1.);
#681=VECTOR('',#1086,1.);
#682=VECTOR('',#1089,1.);
#683=VECTOR('',#1092,1.);
#684=VECTOR('',#1097,1.);
#685=VECTOR('',#1100,1.);
#686=VECTOR('',#1105,1.);
#687=VECTOR('',#1106,1.);
#688=VECTOR('',#1107,1.);
#689=VECTOR('',#1110,1.);
#690=VECTOR('',#1117,1.);
#691=VECTOR('',#1118,1.);
#692=VECTOR('',#1119,1.);
#693=VECTOR('',#1122,1.);
#694=VECTOR('',#1129,1.);
#695=VECTOR('',#1130,1.);
#696=VECTOR('',#1131,1.);
#697=VECTOR('',#1134,1.);
#698=VECTOR('',#1141,1.);
#699=VECTOR('',#1142,1.);
#700=VECTOR('',#1143,1.);
#701=VECTOR('',#1146,1.);
#702=VECTOR('',#1153,1.);
#703=VECTOR('',#1154,1.);
#704=VECTOR('',#1155,1.);
#705=VECTOR('',#1158,1.);
#706=VECTOR('',#1165,1.);
#707=VECTOR('',#1166,1.);
#708=VECTOR('',#1167,1.);
#709=VECTOR('',#1170,1.);
#710=VECTOR('',#1177,1.);
#711=VECTOR('',#1178,1.);
#712=VECTOR('',#1179,1.);
#713=VECTOR('',#1182,1.);
#714=VECTOR('',#1189,1.);
#715=VECTOR('',#1190,1.);
#716=VECTOR('',#1193,1.);
#717=VECTOR('',#1196,1.);
#718=VECTOR('',#1199,1.);
#719=VECTOR('',#1202,1.);
#720=VECTOR('',#1205,1.);
#721=VECTOR('',#1208,1.);
#722=VECTOR('',#1211,1.);
#723=VECTOR('',#1214,1.);
#724=VECTOR('',#1219,1.);
#725=VECTOR('',#1220,1.);
#726=VECTOR('',#1221,1.);
#727=VECTOR('',#1222,1.);
#728=VECTOR('',#1223,1.);
#729=VECTOR('',#1224,1.);
#730=VECTOR('',#1225,1.);
#731=EDGE_LOOP('',(#130,#131,#132,#133,#134,#135,#136));
#732=EDGE_LOOP('',(#137,#138,#139,#140,#141,#142,#143,#144,#145,#146,#147,
#148,#149,#150,#151,#152));
#733=EDGE_LOOP('',(#153,#154,#155,#156));
#734=EDGE_LOOP('',(#157,#158,#159,#160));
#735=EDGE_LOOP('',(#161,#162,#163,#164));
#736=EDGE_LOOP('',(#165,#166,#167,#168));
#737=EDGE_LOOP('',(#169,#170,#171,#172));
#738=EDGE_LOOP('',(#173,#174,#175,#176));
#739=EDGE_LOOP('',(#177,#178,#179,#180));
#740=EDGE_LOOP('',(#181,#182,#183,#184));
#741=EDGE_LOOP('',(#185,#186,#187,#188));
#742=EDGE_LOOP('',(#189,#190,#191,#192));
#743=EDGE_LOOP('',(#193,#194,#195,#196));
#744=EDGE_LOOP('',(#197,#198,#199,#200));
#745=EDGE_LOOP('',(#201,#202,#203,#204));
#746=EDGE_LOOP('',(#205,#206,#207,#208));
#747=EDGE_LOOP('',(#209,#210,#211,#212));
#748=EDGE_LOOP('',(#213,#214,#215,#216));
#749=EDGE_LOOP('',(#217,#218,#219,#220,#221,#222,#223,#224,#225,#226,#227,
#228,#229,#230,#231,#232));
#750=EDGE_LOOP('',(#233,#234,#235,#236,#237,#238,#239));
#751=EDGE_LOOP('',(#240,#241,#242,#243));
#752=EDGE_LOOP('',(#244,#245,#246,#247));
#753=EDGE_LOOP('',(#248,#249,#250,#251));
#754=EDGE_LOOP('',(#252,#253,#254,#255));
#755=EDGE_LOOP('',(#256,#257,#258,#259));
#756=EDGE_LOOP('',(#260,#261,#262,#263));
#757=EDGE_LOOP('',(#264,#265,#266,#267));
#758=EDGE_LOOP('',(#268,#269,#270,#271));
#759=EDGE_LOOP('',(#272,#273,#274,#275));
#760=EDGE_LOOP('',(#276,#277,#278,#279));
#761=EDGE_LOOP('',(#280,#281,#282,#283));
#762=EDGE_LOOP('',(#284,#285,#286,#287));
#763=EDGE_LOOP('',(#288,#289,#290,#291));
#764=EDGE_LOOP('',(#292,#293,#294,#295));
#765=EDGE_LOOP('',(#296,#297,#298,#299));
#766=EDGE_LOOP('',(#300,#301,#302,#303));
#767=EDGE_LOOP('',(#304,#305,#306,#307));
#768=EDGE_LOOP('',(#308,#309,#310,#311));
#769=EDGE_LOOP('',(#312,#313,#314,#315));
#770=EDGE_LOOP('',(#316,#317,#318,#319));
#771=EDGE_LOOP('',(#320,#321,#322,#323));
#772=EDGE_LOOP('',(#324,#325,#326,#327));
#773=EDGE_LOOP('',(#328,#329,#330,#331));
#774=EDGE_LOOP('',(#332,#333,#334,#335));
#775=EDGE_LOOP('',(#336,#337,#338,#339));
#776=EDGE_LOOP('',(#340,#341,#342,#343));
#777=EDGE_LOOP('',(#344,#345,#346,#347));
#778=EDGE_LOOP('',(#348,#349,#350,#351));
#779=EDGE_LOOP('',(#352,#353,#354,#355));
#780=EDGE_LOOP('',(#356,#357,#358,#359));
#781=EDGE_LOOP('',(#360,#361,#362,#363));
#782=EDGE_LOOP('',(#364,#365,#366,#367));
#783=EDGE_LOOP('',(#368,#369,#370,#371));
#784=EDGE_LOOP('',(#372,#373,#374,#375));
#785=EDGE_LOOP('',(#376,#377,#378,#379));
#786=EDGE_LOOP('',(#380,#381,#382,#383));
#787=EDGE_LOOP('',(#384,#385,#386,#387));
#788=EDGE_LOOP('',(#388,#389,#390,#391));
#789=EDGE_LOOP('',(#392,#393,#394,#395));
#790=FACE_BOUND('',#731,.T.);
#791=FACE_BOUND('',#732,.T.);
#792=FACE_BOUND('',#733,.T.);
#793=FACE_BOUND('',#734,.T.);
#794=FACE_BOUND('',#735,.T.);
#795=FACE_BOUND('',#736,.T.);
#796=FACE_BOUND('',#737,.T.);
#797=FACE_BOUND('',#738,.T.);
#798=FACE_BOUND('',#739,.T.);
#799=FACE_BOUND('',#740,.T.);
#800=FACE_BOUND('',#741,.T.);
#801=FACE_BOUND('',#742,.T.);
#802=FACE_BOUND('',#743,.T.);
#803=FACE_BOUND('',#744,.T.);
#804=FACE_BOUND('',#745,.T.);
#805=FACE_BOUND('',#746,.T.);
#806=FACE_BOUND('',#747,.T.);
#807=FACE_BOUND('',#748,.T.);
#808=FACE_BOUND('',#749,.T.);
#809=FACE_BOUND('',#750,.T.);
#810=FACE_BOUND('',#751,.T.);
#811=FACE_BOUND('',#752,.T.);
#812=FACE_BOUND('',#753,.T.);
#813=FACE_BOUND('',#754,.T.);
#814=FACE_BOUND('',#755,.T.);
#815=FACE_BOUND('',#756,.T.);
#816=FACE_BOUND('',#757,.T.);
#817=FACE_BOUND('',#758,.T.);
#818=FACE_BOUND('',#759,.T.);
#819=FACE_BOUND('',#760,.T.);
#820=FACE_BOUND('',#761,.T.);
#821=FACE_BOUND('',#762,.T.);
#822=FACE_BOUND('',#763,.T.);
#823=FACE_BOUND('',#764,.T.);
#824=FACE_BOUND('',#765,.T.);
#825=FACE_BOUND('',#766,.T.);
#826=FACE_BOUND('',#767,.T.);
#827=FACE_BOUND('',#768,.T.);
#828=FACE_BOUND('',#769,.T.);
#829=FACE_BOUND('',#770,.T.);
#830=FACE_BOUND('',#771,.T.);
#831=FACE_BOUND('',#772,.T.);
#832=FACE_BOUND('',#773,.T.);
#833=FACE_BOUND('',#774,.T.);
#834=FACE_BOUND('',#775,.T.);
#835=FACE_BOUND('',#776,.T.);
#836=FACE_BOUND('',#777,.T.);
#837=FACE_BOUND('',#778,.T.);
#838=FACE_BOUND('',#779,.T.);
#839=FACE_BOUND('',#780,.T.);
#840=FACE_BOUND('',#781,.T.);
#841=FACE_BOUND('',#782,.T.);
#842=FACE_BOUND('',#783,.T.);
#843=FACE_BOUND('',#784,.T.);
#844=FACE_BOUND('',#785,.T.);
#845=FACE_BOUND('',#786,.T.);
#846=FACE_BOUND('',#787,.T.);
#847=FACE_BOUND('',#788,.T.);
#848=FACE_BOUND('',#789,.T.);
#849=PLANE('',#931);
#850=PLANE('',#943);
#851=PLANE('',#947);
#852=PLANE('',#951);
#853=PLANE('',#955);
#854=PLANE('',#959);
#855=PLANE('',#963);
#856=PLANE('',#967);
#857=PLANE('',#971);
#858=PLANE('',#972);
#859=PLANE('',#981);
#860=ADVANCED_FACE('',(#790,#791),#849,.T.);
#861=ADVANCED_FACE('',(#792),#35,.F.);
#862=ADVANCED_FACE('',(#793),#850,.F.);
#863=ADVANCED_FACE('',(#794),#36,.T.);
#864=ADVANCED_FACE('',(#795),#851,.T.);
#865=ADVANCED_FACE('',(#796),#37,.T.);
#866=ADVANCED_FACE('',(#797),#852,.T.);
#867=ADVANCED_FACE('',(#798),#38,.T.);
#868=ADVANCED_FACE('',(#799),#853,.F.);
#869=ADVANCED_FACE('',(#800),#39,.T.);
#870=ADVANCED_FACE('',(#801),#854,.F.);
#871=ADVANCED_FACE('',(#802),#40,.F.);
#872=ADVANCED_FACE('',(#803),#855,.T.);
#873=ADVANCED_FACE('',(#804),#41,.T.);
#874=ADVANCED_FACE('',(#805),#856,.F.);
#875=ADVANCED_FACE('',(#806),#42,.T.);
#876=ADVANCED_FACE('',(#807),#857,.F.);
#877=ADVANCED_FACE('',(#808),#858,.F.);
#878=ADVANCED_FACE('',(#809),#859,.T.);
#879=ADVANCED_FACE('',(#810),#43,.T.);
#880=ADVANCED_FACE('',(#811),#44,.T.);
#881=ADVANCED_FACE('',(#812),#45,.T.);
#882=ADVANCED_FACE('',(#813),#46,.T.);
#883=ADVANCED_FACE('',(#814),#47,.T.);
#884=ADVANCED_FACE('',(#815),#48,.T.);
#885=ADVANCED_FACE('',(#816),#49,.T.);
#886=ADVANCED_FACE('',(#817),#12,.T.);
#887=ADVANCED_FACE('',(#818),#50,.T.);
#888=ADVANCED_FACE('',(#819),#51,.T.);
#889=ADVANCED_FACE('',(#820),#13,.T.);
#890=ADVANCED_FACE('',(#821),#14,.T.);
#891=ADVANCED_FACE('',(#822),#52,.T.);
#892=ADVANCED_FACE('',(#823),#53,.T.);
#893=ADVANCED_FACE('',(#824),#15,.T.);
#894=ADVANCED_FACE('',(#825),#16,.T.);
#895=ADVANCED_FACE('',(#826),#54,.T.);
#896=ADVANCED_FACE('',(#827),#55,.T.);
#897=ADVANCED_FACE('',(#828),#17,.T.);
#898=ADVANCED_FACE('',(#829),#18,.T.);
#899=ADVANCED_FACE('',(#830),#56,.T.);
#900=ADVANCED_FACE('',(#831),#57,.T.);
#901=ADVANCED_FACE('',(#832),#19,.T.);
#902=ADVANCED_FACE('',(#833),#20,.T.);
#903=ADVANCED_FACE('',(#834),#58,.T.);
#904=ADVANCED_FACE('',(#835),#59,.T.);
#905=ADVANCED_FACE('',(#836),#21,.T.);
#906=ADVANCED_FACE('',(#837),#22,.T.);
#907=ADVANCED_FACE('',(#838),#60,.T.);
#908=ADVANCED_FACE('',(#839),#61,.T.);
#909=ADVANCED_FACE('',(#840),#23,.T.);
#910=ADVANCED_FACE('',(#841),#24,.T.);
#911=ADVANCED_FACE('',(#842),#62,.T.);
#912=ADVANCED_FACE('',(#843),#63,.T.);
#913=ADVANCED_FACE('',(#844),#25,.T.);
#914=ADVANCED_FACE('',(#845),#26,.T.);
#915=ADVANCED_FACE('',(#846),#64,.T.);
#916=ADVANCED_FACE('',(#847),#65,.T.);
#917=ADVANCED_FACE('',(#848),#27,.T.);
#918=CLOSED_SHELL('',(#860,#861,#862,#863,#864,#865,#866,#867,#868,#869,
#870,#871,#872,#873,#874,#875,#876,#877,#878,#879,#880,#881,#882,#883,#884,
#885,#886,#887,#888,#889,#890,#891,#892,#893,#894,#895,#896,#897,#898,#899,
#900,#901,#902,#903,#904,#905,#906,#907,#908,#909,#910,#911,#912,#913,#914,
#915,#916,#917));
#919=STYLED_ITEM('',(#920),#927);
#920=PRESENTATION_STYLE_ASSIGNMENT((#921));
#921=SURFACE_STYLE_USAGE(.BOTH.,#922);
#922=SURFACE_SIDE_STYLE('',(#923));
#923=SURFACE_STYLE_FILL_AREA(#924);
#924=FILL_AREA_STYLE('',(#925));
#925=FILL_AREA_STYLE_COLOUR('',#926);
#926=COLOUR_RGB('',0.231372549019608,0.380392156862745,0.705882352941177);
#927=MANIFOLD_SOLID_BREP('CALIBRATION_spacer_1',#918);
#928=SHAPE_DEFINITION_REPRESENTATION(#1658,#929);
#929=SHAPE_REPRESENTATION('CALIBRATION_spacer_1',(#930),#1653);
#930=AXIS2_PLACEMENT_3D('',#1382,#1060,#1061);
#931=AXIS2_PLACEMENT_3D('',#1383,#1062,#1063);
#932=AXIS2_PLACEMENT_3D('',#1401,#1072,#1073);
#933=AXIS2_PLACEMENT_3D('',#1405,#1075,#1076);
#934=AXIS2_PLACEMENT_3D('',#1409,#1078,#1079);
#935=AXIS2_PLACEMENT_3D('',#1413,#1081,#1082);
#936=AXIS2_PLACEMENT_3D('',#1417,#1084,#1085);
#937=AXIS2_PLACEMENT_3D('',#1421,#1087,#1088);
#938=AXIS2_PLACEMENT_3D('',#1425,#1090,#1091);
#939=AXIS2_PLACEMENT_3D('',#1429,#1093,#1094);
#940=AXIS2_PLACEMENT_3D('',#1430,#1095,#1096);
#941=AXIS2_PLACEMENT_3D('',#1434,#1098,#1099);
#942=AXIS2_PLACEMENT_3D('',#1438,#1101,#1102);
#943=AXIS2_PLACEMENT_3D('',#1439,#1103,#1104);
#944=AXIS2_PLACEMENT_3D('',#1445,#1108,#1109);
#945=AXIS2_PLACEMENT_3D('',#1449,#1111,#1112);
#946=AXIS2_PLACEMENT_3D('',#1450,#1113,#1114);
#947=AXIS2_PLACEMENT_3D('',#1451,#1115,#1116);
#948=AXIS2_PLACEMENT_3D('',#1457,#1120,#1121);
#949=AXIS2_PLACEMENT_3D('',#1461,#1123,#1124);
#950=AXIS2_PLACEMENT_3D('',#1462,#1125,#1126);
#951=AXIS2_PLACEMENT_3D('',#1463,#1127,#1128);
#952=AXIS2_PLACEMENT_3D('',#1469,#1132,#1133);
#953=AXIS2_PLACEMENT_3D('',#1473,#1135,#1136);
#954=AXIS2_PLACEMENT_3D('',#1474,#1137,#1138);
#955=AXIS2_PLACEMENT_3D('',#1475,#1139,#1140);
#956=AXIS2_PLACEMENT_3D('',#1481,#1144,#1145);
#957=AXIS2_PLACEMENT_3D('',#1485,#1147,#1148);
#958=AXIS2_PLACEMENT_3D('',#1486,#1149,#1150);
#959=AXIS2_PLACEMENT_3D('',#1487,#1151,#1152);
#960=AXIS2_PLACEMENT_3D('',#1493,#1156,#1157);
#961=AXIS2_PLACEMENT_3D('',#1497,#1159,#1160);
#962=AXIS2_PLACEMENT_3D('',#1498,#1161,#1162);
#963=AXIS2_PLACEMENT_3D('',#1499,#1163,#1164);
#964=AXIS2_PLACEMENT_3D('',#1505,#1168,#1169);
#965=AXIS2_PLACEMENT_3D('',#1509,#1171,#1172);
#966=AXIS2_PLACEMENT_3D('',#1510,#1173,#1174);
#967=AXIS2_PLACEMENT_3D('',#1511,#1175,#1176);
#968=AXIS2_PLACEMENT_3D('',#1517,#1180,#1181);
#969=AXIS2_PLACEMENT_3D('',#1521,#1183,#1184);
#970=AXIS2_PLACEMENT_3D('',#1522,#1185,#1186);
#971=AXIS2_PLACEMENT_3D('',#1523,#1187,#1188);
#972=AXIS2_PLACEMENT_3D('',#1526,#1191,#1192);
#973=AXIS2_PLACEMENT_3D('',#1530,#1194,#1195);
#974=AXIS2_PLACEMENT_3D('',#1534,#1197,#1198);
#975=AXIS2_PLACEMENT_3D('',#1538,#1200,#1201);
#976=AXIS2_PLACEMENT_3D('',#1542,#1203,#1204);
#977=AXIS2_PLACEMENT_3D('',#1546,#1206,#1207);
#978=AXIS2_PLACEMENT_3D('',#1550,#1209,#1210);
#979=AXIS2_PLACEMENT_3D('',#1554,#1212,#1213);
#980=AXIS2_PLACEMENT_3D('',#1558,#1215,#1216);
#981=AXIS2_PLACEMENT_3D('',#1559,#1217,#1218);
#982=AXIS2_PLACEMENT_3D('',#1574,#1226,#1227);
#983=AXIS2_PLACEMENT_3D('',#1575,#1228,#1229);
#984=AXIS2_PLACEMENT_3D('',#1576,#1230,#1231);
#985=AXIS2_PLACEMENT_3D('',#1577,#1232,#1233);
#986=AXIS2_PLACEMENT_3D('',#1578,#1234,#1235);
#987=AXIS2_PLACEMENT_3D('',#1579,#1236,#1237);
#988=AXIS2_PLACEMENT_3D('',#1580,#1238,#1239);
#989=AXIS2_PLACEMENT_3D('',#1581,#1240,#1241);
#990=AXIS2_PLACEMENT_3D('',#1582,#1242,#1243);
#991=AXIS2_PLACEMENT_3D('',#1583,#1244,#1245);
#992=AXIS2_PLACEMENT_3D('',#1584,#1246,#1247);
#993=AXIS2_PLACEMENT_3D('',#1585,#1248,#1249);
#994=AXIS2_PLACEMENT_3D('',#1586,#1250,#1251);
#995=AXIS2_PLACEMENT_3D('',#1587,#1252,#1253);
#996=AXIS2_PLACEMENT_3D('',#1588,#1254,#1255);
#997=AXIS2_PLACEMENT_3D('',#1589,#1256,#1257);
#998=AXIS2_PLACEMENT_3D('',#1590,#1258,#1259);
#999=AXIS2_PLACEMENT_3D('',#1591,#1260,#1261);
#1000=AXIS2_PLACEMENT_3D('',#1592,#1262,#1263);
#1001=AXIS2_PLACEMENT_3D('',#1593,#1264,#1265);
#1002=AXIS2_PLACEMENT_3D('',#1594,#1266,#1267);
#1003=AXIS2_PLACEMENT_3D('',#1595,#1268,#1269);
#1004=AXIS2_PLACEMENT_3D('',#1596,#1270,#1271);
#1005=AXIS2_PLACEMENT_3D('',#1597,#1272,#1273);
#1006=AXIS2_PLACEMENT_3D('',#1598,#1274,#1275);
#1007=AXIS2_PLACEMENT_3D('',#1599,#1276,#1277);
#1008=AXIS2_PLACEMENT_3D('',#1600,#1278,#1279);
#1009=AXIS2_PLACEMENT_3D('',#1601,#1280,#1281);
#1010=AXIS2_PLACEMENT_3D('',#1602,#1282,#1283);
#1011=AXIS2_PLACEMENT_3D('',#1603,#1284,#1285);
#1012=AXIS2_PLACEMENT_3D('',#1604,#1286,#1287);
#1013=AXIS2_PLACEMENT_3D('',#1605,#1288,#1289);
#1014=AXIS2_PLACEMENT_3D('',#1606,#1290,#1291);
#1015=AXIS2_PLACEMENT_3D('',#1607,#1292,#1293);
#1016=AXIS2_PLACEMENT_3D('',#1608,#1294,#1295);
#1017=AXIS2_PLACEMENT_3D('',#1609,#1296,#1297);
#1018=AXIS2_PLACEMENT_3D('',#1610,#1298,#1299);
#1019=AXIS2_PLACEMENT_3D('',#1611,#1300,#1301);
#1020=AXIS2_PLACEMENT_3D('',#1612,#1302,#1303);
#1021=AXIS2_PLACEMENT_3D('',#1613,#1304,#1305);
#1022=AXIS2_PLACEMENT_3D('',#1614,#1306,#1307);
#1023=AXIS2_PLACEMENT_3D('',#1615,#1308,#1309);
#1024=AXIS2_PLACEMENT_3D('',#1616,#1310,#1311);
#1025=AXIS2_PLACEMENT_3D('',#1617,#1312,#1313);
#1026=AXIS2_PLACEMENT_3D('',#1618,#1314,#1315);
#1027=AXIS2_PLACEMENT_3D('',#1619,#1316,#1317);
#1028=AXIS2_PLACEMENT_3D('',#1620,#1318,#1319);
#1029=AXIS2_PLACEMENT_3D('',#1621,#1320,#1321);
#1030=AXIS2_PLACEMENT_3D('',#1622,#1322,#1323);
#1031=AXIS2_PLACEMENT_3D('',#1623,#1324,#1325);
#1032=AXIS2_PLACEMENT_3D('',#1624,#1326,#1327);
#1033=AXIS2_PLACEMENT_3D('',#1625,#1328,#1329);
#1034=AXIS2_PLACEMENT_3D('',#1626,#1330,#1331);
#1035=AXIS2_PLACEMENT_3D('',#1627,#1332,#1333);
#1036=AXIS2_PLACEMENT_3D('',#1628,#1334,#1335);
#1037=AXIS2_PLACEMENT_3D('',#1629,#1336,#1337);
#1038=AXIS2_PLACEMENT_3D('',#1630,#1338,#1339);
#1039=AXIS2_PLACEMENT_3D('',#1631,#1340,#1341);
#1040=AXIS2_PLACEMENT_3D('',#1632,#1342,#1343);
#1041=AXIS2_PLACEMENT_3D('',#1633,#1344,#1345);
#1042=AXIS2_PLACEMENT_3D('',#1634,#1346,#1347);
#1043=AXIS2_PLACEMENT_3D('',#1635,#1348,#1349);
#1044=AXIS2_PLACEMENT_3D('',#1636,#1350,#1351);
#1045=AXIS2_PLACEMENT_3D('',#1637,#1352,#1353);
#1046=AXIS2_PLACEMENT_3D('',#1638,#1354,#1355);
#1047=AXIS2_PLACEMENT_3D('',#1639,#1356,#1357);
#1048=AXIS2_PLACEMENT_3D('',#1640,#1358,#1359);
#1049=AXIS2_PLACEMENT_3D('',#1641,#1360,#1361);
#1050=AXIS2_PLACEMENT_3D('',#1642,#1362,#1363);
#1051=AXIS2_PLACEMENT_3D('',#1643,#1364,#1365);
#1052=AXIS2_PLACEMENT_3D('',#1644,#1366,#1367);
#1053=AXIS2_PLACEMENT_3D('',#1645,#1368,#1369);
#1054=AXIS2_PLACEMENT_3D('',#1646,#1370,#1371);
#1055=AXIS2_PLACEMENT_3D('',#1647,#1372,#1373);
#1056=AXIS2_PLACEMENT_3D('',#1648,#1374,#1375);
#1057=AXIS2_PLACEMENT_3D('',#1649,#1376,#1377);
#1058=AXIS2_PLACEMENT_3D('',#1650,#1378,#1379);
#1059=AXIS2_PLACEMENT_3D('',#1651,#1380,#1381);
#1060=DIRECTION('',(0.,0.,1.));
#1061=DIRECTION('',(1.,0.,0.));
#1062=DIRECTION('',(0.,0.,1.));
#1063=DIRECTION('',(1.,0.,0.));
#1064=DIRECTION('',(1.,0.,0.));
#1065=DIRECTION('',(0.,-1.,0.));
#1066=DIRECTION('',(-1.,0.,0.));
#1067=DIRECTION('',(0.,1.,0.));
#1068=DIRECTION('',(-0.955202423828445,-0.295953255620317,0.));
#1069=DIRECTION('',(0.,1.,0.));
#1070=DIRECTION('',(0.941402281628582,0.337285849309603,0.));
#1071=DIRECTION('',(1.,0.,0.));
#1072=DIRECTION('',(0.,0.,1.));
#1073=DIRECTION('',(1.,0.,0.));
#1074=DIRECTION('',(-2.16840434497101E-16,-1.,0.));
#1075=DIRECTION('',(0.,0.,1.));
#1076=DIRECTION('',(1.,0.,0.));
#1077=DIRECTION('',(1.,0.,0.));
#1078=DIRECTION('',(0.,0.,1.));
#1079=DIRECTION('',(1.,0.,0.));
#1080=DIRECTION('',(-2.16840434497101E-16,-1.,0.));
#1081=DIRECTION('',(0.,0.,1.));
#1082=DIRECTION('',(1.,0.,0.));
#1083=DIRECTION('',(1.,0.,0.));
#1084=DIRECTION('',(0.,0.,1.));
#1085=DIRECTION('',(1.,0.,0.));
#1086=DIRECTION('',(1.92747052886312E-16,1.,0.));
#1087=DIRECTION('',(0.,0.,1.));
#1088=DIRECTION('',(1.,0.,0.));
#1089=DIRECTION('',(1.,0.,0.));
#1090=DIRECTION('',(0.,0.,1.));
#1091=DIRECTION('',(1.,0.,0.));
#1092=DIRECTION('',(1.92747052886312E-16,1.,0.));
#1093=DIRECTION('',(0.,0.,1.));
#1094=DIRECTION('',(1.,0.,0.));
#1095=DIRECTION('',(0.,0.,1.));
#1096=DIRECTION('',(1.,0.,0.));
#1097=DIRECTION('',(0.,0.,1.));
#1098=DIRECTION('',(0.,0.,1.));
#1099=DIRECTION('',(1.,0.,0.));
#1100=DIRECTION('',(0.,0.,1.));
#1101=DIRECTION('',(0.,0.,1.));
#1102=DIRECTION('',(1.,0.,0.));
#1103=DIRECTION('',(0.,-1.,0.));
#1104=DIRECTION('',(0.,0.,-1.));
#1105=DIRECTION('',(0.,0.,1.));
#1106=DIRECTION('',(1.,0.,0.));
#1107=DIRECTION('',(1.,0.,0.));
#1108=DIRECTION('',(0.,0.,1.));
#1109=DIRECTION('',(1.,0.,0.));
#1110=DIRECTION('',(0.,0.,1.));
#1111=DIRECTION('',(0.,0.,1.));
#1112=DIRECTION('',(1.,0.,0.));
#1113=DIRECTION('',(0.,0.,1.));
#1114=DIRECTION('',(1.,0.,0.));
#1115=DIRECTION('',(-1.,2.16840434497101E-16,0.));
#1116=DIRECTION('',(-2.16840434497101E-16,-1.,0.));
#1117=DIRECTION('',(0.,0.,1.));
#1118=DIRECTION('',(-2.16840434497101E-16,-1.,0.));
#1119=DIRECTION('',(-2.16840434497101E-16,-1.,0.));
#1120=DIRECTION('',(0.,0.,1.));
#1121=DIRECTION('',(1.,0.,0.));
#1122=DIRECTION('',(0.,0.,1.));
#1123=DIRECTION('',(0.,0.,1.));
#1124=DIRECTION('',(1.,0.,0.));
#1125=DIRECTION('',(0.,0.,1.));
#1126=DIRECTION('',(1.,0.,0.));
#1127=DIRECTION('',(0.,-1.,0.));
#1128=DIRECTION('',(0.,0.,-1.));
#1129=DIRECTION('',(0.,0.,1.));
#1130=DIRECTION('',(1.,0.,0.));
#1131=DIRECTION('',(1.,0.,0.));
#1132=DIRECTION('',(0.,0.,1.));
#1133=DIRECTION('',(1.,0.,0.));
#1134=DIRECTION('',(0.,0.,1.));
#1135=DIRECTION('',(0.,0.,1.));
#1136=DIRECTION('',(1.,0.,0.));
#1137=DIRECTION('',(0.,0.,1.));
#1138=DIRECTION('',(1.,0.,0.));
#1139=DIRECTION('',(-1.,2.16840434497101E-16,0.));
#1140=DIRECTION('',(-2.16840434497101E-16,-1.,0.));
#1141=DIRECTION('',(0.,0.,1.));
#1142=DIRECTION('',(-2.16840434497101E-16,-1.,0.));
#1143=DIRECTION('',(-2.16840434497101E-16,-1.,0.));
#1144=DIRECTION('',(0.,0.,1.));
#1145=DIRECTION('',(1.,0.,0.));
#1146=DIRECTION('',(0.,0.,1.));
#1147=DIRECTION('',(0.,0.,1.));
#1148=DIRECTION('',(1.,0.,0.));
#1149=DIRECTION('',(0.,0.,1.));
#1150=DIRECTION('',(1.,0.,0.));
#1151=DIRECTION('',(0.,-1.,0.));
#1152=DIRECTION('',(0.,0.,-1.));
#1153=DIRECTION('',(0.,0.,1.));
#1154=DIRECTION('',(1.,0.,0.));
#1155=DIRECTION('',(1.,0.,0.));
#1156=DIRECTION('',(0.,0.,1.));
#1157=DIRECTION('',(1.,0.,0.));
#1158=DIRECTION('',(0.,0.,1.));
#1159=DIRECTION('',(0.,0.,1.));
#1160=DIRECTION('',(1.,0.,0.));
#1161=DIRECTION('',(0.,0.,1.));
#1162=DIRECTION('',(1.,0.,0.));
#1163=DIRECTION('',(1.,-1.92747052886312E-16,0.));
#1164=DIRECTION('',(1.92747052886312E-16,1.,0.));
#1165=DIRECTION('',(0.,0.,1.));
#1166=DIRECTION('',(1.92747052886312E-16,1.,0.));
#1167=DIRECTION('',(1.92747052886312E-16,1.,0.));
#1168=DIRECTION('',(0.,0.,1.));
#1169=DIRECTION('',(1.,0.,0.));
#1170=DIRECTION('',(0.,0.,1.));
#1171=DIRECTION('',(0.,0.,1.));
#1172=DIRECTION('',(1.,0.,0.));
#1173=DIRECTION('',(0.,0.,1.));
#1174=DIRECTION('',(1.,0.,0.));
#1175=DIRECTION('',(0.,-1.,0.));
#1176=DIRECTION('',(0.,0.,-1.));
#1177=DIRECTION('',(0.,0.,1.));
#1178=DIRECTION('',(1.,0.,0.));
#1179=DIRECTION('',(1.,0.,0.));
#1180=DIRECTION('',(0.,0.,1.));
#1181=DIRECTION('',(1.,0.,0.));
#1182=DIRECTION('',(0.,0.,1.));
#1183=DIRECTION('',(0.,0.,1.));
#1184=DIRECTION('',(1.,0.,0.));
#1185=DIRECTION('',(0.,0.,1.));
#1186=DIRECTION('',(1.,0.,0.));
#1187=DIRECTION('',(1.,-1.92747052886312E-16,0.));
#1188=DIRECTION('',(1.92747052886312E-16,1.,0.));
#1189=DIRECTION('',(1.92747052886312E-16,1.,0.));
#1190=DIRECTION('',(1.92747052886312E-16,1.,0.));
#1191=DIRECTION('',(0.,0.,1.));
#1192=DIRECTION('',(1.,0.,0.));
#1193=DIRECTION('',(-2.16840434497101E-16,-1.,0.));
#1194=DIRECTION('',(0.,0.,1.));
#1195=DIRECTION('',(1.,0.,0.));
#1196=DIRECTION('',(1.,0.,0.));
#1197=DIRECTION('',(0.,0.,1.));
#1198=DIRECTION('',(1.,0.,0.));
#1199=DIRECTION('',(1.92747052886312E-16,1.,0.));
#1200=DIRECTION('',(0.,0.,1.));
#1201=DIRECTION('',(1.,0.,0.));
#1202=DIRECTION('',(1.,0.,0.));
#1203=DIRECTION('',(0.,0.,1.));
#1204=DIRECTION('',(1.,0.,0.));
#1205=DIRECTION('',(1.92747052886312E-16,1.,0.));
#1206=DIRECTION('',(0.,0.,1.));
#1207=DIRECTION('',(1.,0.,0.));
#1208=DIRECTION('',(1.,0.,0.));
#1209=DIRECTION('',(0.,0.,1.));
#1210=DIRECTION('',(1.,0.,0.));
#1211=DIRECTION('',(-2.16840434497101E-16,-1.,0.));
#1212=DIRECTION('',(0.,0.,1.));
#1213=DIRECTION('',(1.,0.,0.));
#1214=DIRECTION('',(1.,0.,0.));
#1215=DIRECTION('',(0.,0.,1.));
#1216=DIRECTION('',(1.,0.,0.));
#1217=DIRECTION('',(0.,0.,1.));
#1218=DIRECTION('',(1.,0.,0.));
#1219=DIRECTION('',(-1.,0.,0.));
#1220=DIRECTION('',(0.,-1.,0.));
#1221=DIRECTION('',(1.,0.,0.));
#1222=DIRECTION('',(0.941402281628582,0.337285849309603,0.));
#1223=DIRECTION('',(0.,1.,0.));
#1224=DIRECTION('',(-0.955202423828445,-0.295953255620317,0.));
#1225=DIRECTION('',(0.,1.,0.));
#1226=DIRECTION('',(0.,1.,0.));
#1227=DIRECTION('',(0.,0.,1.));
#1228=DIRECTION('',(0.575636235260775,0.817705891292708,0.));
#1229=DIRECTION('',(0.817705891292708,-0.575636235260775,0.));
#1230=DIRECTION('',(-0.80496995460089,0.593315575549675,0.));
#1231=DIRECTION('',(0.593315575549675,0.80496995460089,0.));
#1232=DIRECTION('',(-0.955202423828445,-0.295953255620317,0.));
#1233=DIRECTION('',(0.295953255620317,-0.955202423828445,0.));
#1234=DIRECTION('',(-0.80496995460089,0.593315575549675,0.));
#1235=DIRECTION('',(0.593315575549675,0.80496995460089,0.));
#1236=DIRECTION('',(0.941402281628582,0.337285849309603,0.));
#1237=DIRECTION('',(-0.337285849309603,0.941402281628582,0.));
#1238=DIRECTION('',(0.985241666198852,0.171169095299675,0.));
#1239=DIRECTION('',(0.171169095299675,-0.985241666198852,0.));
#1240=DIRECTION('',(0.,1.,0.));
#1241=DIRECTION('',(0.,0.,1.));
#1242=DIRECTION('',(-0.707106781186548,0.707106781186548,0.));
#1243=DIRECTION('',(0.707106781186548,0.707106781186548,0.));
#1244=DIRECTION('',(1.,0.,0.));
#1245=DIRECTION('',(0.,0.,-1.));
#1246=DIRECTION('',(0.707106781186548,-0.707106781186548,0.));
#1247=DIRECTION('',(-0.707106781186548,-0.707106781186548,0.));
#1248=DIRECTION('',(-1.,0.,0.));
#1249=DIRECTION('',(0.,0.,1.));
#1250=DIRECTION('',(-0.707106781186548,-0.707106781186548,0.));
#1251=DIRECTION('',(0.707106781186548,-0.707106781186548,0.));
#1252=DIRECTION('',(0.,-1.,0.));
#1253=DIRECTION('',(0.,0.,-1.));
#1254=DIRECTION('',(0.,0.,1.));
#1255=DIRECTION('',(1.,0.,0.));
#1256=DIRECTION('',(1.,0.,0.));
#1257=DIRECTION('',(0.,0.,-1.));
#1258=DIRECTION('',(0.,1.,0.));
#1259=DIRECTION('',(0.,0.,1.));
#1260=DIRECTION('',(1.92747052886312E-16,1.,0.));
#1261=DIRECTION('',(-1.,1.92747052886312E-16,0.));
#1262=DIRECTION('',(0.,1.,0.));
#1263=DIRECTION('',(0.,0.,1.));
#1264=DIRECTION('',(-1.,0.,0.));
#1265=DIRECTION('',(0.,0.,1.));
#1266=DIRECTION('',(1.,0.,0.));
#1267=DIRECTION('',(0.,0.,-1.));
#1268=DIRECTION('',(0.,0.,1.));
#1269=DIRECTION('',(1.,0.,0.));
#1270=DIRECTION('',(-1.,0.,0.));
#1271=DIRECTION('',(0.,0.,1.));
#1272=DIRECTION('',(0.,0.,1.));
#1273=DIRECTION('',(1.,0.,0.));
#1274=DIRECTION('',(0.,-1.,0.));
#1275=DIRECTION('',(0.,0.,-1.));
#1276=DIRECTION('',(-1.,0.,0.));
#1277=DIRECTION('',(0.,0.,1.));
#1278=DIRECTION('',(-1.,0.,0.));
#1279=DIRECTION('',(0.,0.,1.));
#1280=DIRECTION('',(2.16840434497101E-16,1.,0.));
#1281=DIRECTION('',(-1.,2.16840434497101E-16,0.));
#1282=DIRECTION('',(0.,-1.,0.));
#1283=DIRECTION('',(0.,0.,-1.));
#1284=DIRECTION('',(0.,0.,1.));
#1285=DIRECTION('',(1.,0.,0.));
#1286=DIRECTION('',(0.,-1.,0.));
#1287=DIRECTION('',(0.,0.,-1.));
#1288=DIRECTION('',(0.,0.,1.));
#1289=DIRECTION('',(1.,0.,0.));
#1290=DIRECTION('',(-1.,0.,0.));
#1291=DIRECTION('',(0.,0.,1.));
#1292=DIRECTION('',(-1.92747052886312E-16,-1.,0.));
#1293=DIRECTION('',(1.,-1.92747052886312E-16,0.));
#1294=DIRECTION('',(0.,-1.,0.));
#1295=DIRECTION('',(0.,0.,-1.));
#1296=DIRECTION('',(1.,0.,0.));
#1297=DIRECTION('',(0.,0.,-1.));
#1298=DIRECTION('',(-1.,0.,0.));
#1299=DIRECTION('',(0.,0.,1.));
#1300=DIRECTION('',(0.,0.,1.));
#1301=DIRECTION('',(1.,0.,0.));
#1302=DIRECTION('',(-1.,0.,0.));
#1303=DIRECTION('',(0.,0.,1.));
#1304=DIRECTION('',(0.,0.,1.));
#1305=DIRECTION('',(1.,0.,0.));
#1306=DIRECTION('',(0.,1.,0.));
#1307=DIRECTION('',(0.,0.,1.));
#1308=DIRECTION('',(-1.,0.,0.));
#1309=DIRECTION('',(0.,0.,1.));
#1310=DIRECTION('',(-1.,0.,0.));
#1311=DIRECTION('',(0.,0.,1.));
#1312=DIRECTION('',(-2.16840434497101E-16,-1.,0.));
#1313=DIRECTION('',(1.,-2.16840434497101E-16,0.));
#1314=DIRECTION('',(0.,1.,0.));
#1315=DIRECTION('',(0.,0.,1.));
#1316=DIRECTION('',(0.,0.,1.));
#1317=DIRECTION('',(1.,0.,0.));
#1318=DIRECTION('',(0.,0.,1.));
#1319=DIRECTION('',(1.,0.,0.));
#1320=DIRECTION('',(1.,0.,0.));
#1321=DIRECTION('',(0.,0.,-1.));
#1322=DIRECTION('',(0.,1.,0.));
#1323=DIRECTION('',(0.,0.,1.));
#1324=DIRECTION('',(-1.92747052886312E-16,-1.,0.));
#1325=DIRECTION('',(1.,-1.92747052886312E-16,0.));
#1326=DIRECTION('',(0.,1.,0.));
#1327=DIRECTION('',(0.,0.,1.));
#1328=DIRECTION('',(1.,0.,0.));
#1329=DIRECTION('',(0.,0.,-1.));
#1330=DIRECTION('',(1.,0.,0.));
#1331=DIRECTION('',(0.,0.,-1.));
#1332=DIRECTION('',(0.,0.,1.));
#1333=DIRECTION('',(1.,0.,0.));
#1334=DIRECTION('',(-1.,2.16840434497101E-15,-2.16840434497101E-15));
#1335=DIRECTION('',(-2.16840434497101E-15,0.,1.));
#1336=DIRECTION('',(0.,0.,1.));
#1337=DIRECTION('',(1.,0.,0.));
#1338=DIRECTION('',(0.,-1.,0.));
#1339=DIRECTION('',(0.,0.,-1.));
#1340=DIRECTION('',(1.,0.,0.));
#1341=DIRECTION('',(0.,0.,-1.));
#1342=DIRECTION('',(-1.,0.,0.));
#1343=DIRECTION('',(0.,0.,1.));
#1344=DIRECTION('',(-2.16840434497101E-16,-1.,0.));
#1345=DIRECTION('',(1.,-2.16840434497101E-16,0.));
#1346=DIRECTION('',(0.,-1.,0.));
#1347=DIRECTION('',(0.,0.,-1.));
#1348=DIRECTION('',(0.,0.,1.));
#1349=DIRECTION('',(1.,0.,0.));
#1350=DIRECTION('',(0.,-1.,0.));
#1351=DIRECTION('',(0.,0.,-1.));
#1352=DIRECTION('',(0.,0.,1.));
#1353=DIRECTION('',(1.,0.,0.));
#1354=DIRECTION('',(-1.,0.,0.));
#1355=DIRECTION('',(0.,0.,1.));
#1356=DIRECTION('',(1.92747052886312E-16,1.,0.));
#1357=DIRECTION('',(-1.,1.92747052886312E-16,0.));
#1358=DIRECTION('',(0.,-1.,0.));
#1359=DIRECTION('',(0.,0.,-1.));
#1360=DIRECTION('',(-1.,0.,0.));
#1361=DIRECTION('',(0.,0.,1.));
#1362=DIRECTION('',(-1.,0.,0.));
#1363=DIRECTION('',(0.,0.,1.));
#1364=DIRECTION('',(0.,0.,1.));
#1365=DIRECTION('',(1.,0.,0.));
#1366=DIRECTION('',(-1.,0.,0.));
#1367=DIRECTION('',(0.,0.,1.));
#1368=DIRECTION('',(0.,0.,1.));
#1369=DIRECTION('',(1.,0.,0.));
#1370=DIRECTION('',(0.,1.,0.));
#1371=DIRECTION('',(0.,0.,1.));
#1372=DIRECTION('',(1.,0.,0.));
#1373=DIRECTION('',(0.,0.,-1.));
#1374=DIRECTION('',(-1.,0.,0.));
#1375=DIRECTION('',(0.,0.,1.));
#1376=DIRECTION('',(2.16840434497101E-16,1.,0.));
#1377=DIRECTION('',(-1.,2.16840434497101E-16,0.));
#1378=DIRECTION('',(0.,1.,0.));
#1379=DIRECTION('',(0.,0.,1.));
#1380=DIRECTION('',(0.,0.,1.));
#1381=DIRECTION('',(1.,0.,0.));
#1382=CARTESIAN_POINT('',(0.,0.,0.));
#1383=CARTESIAN_POINT('',(0.0525,-0.0425,0.));
#1384=CARTESIAN_POINT('',(0.0525,-0.0217128472222222,0.));
#1385=CARTESIAN_POINT('',(0.00200407446574238,-0.0217128472222222,0.));
#1386=CARTESIAN_POINT('',(0.00268407118055555,-0.0217128472222222,0.));
#1387=CARTESIAN_POINT('',(0.00268407118055555,-0.0425,0.));
#1388=CARTESIAN_POINT('',(0.00268407118055555,-0.0324,0.));
#1389=CARTESIAN_POINT('',(0.0525,-0.0324,0.));
#1390=CARTESIAN_POINT('',(-7.5564236111117E-5,-0.0324,0.));
#1391=CARTESIAN_POINT('',(-7.5564236111117E-5,-0.0425,0.));
#1392=CARTESIAN_POINT('',(-7.5564236111117E-5,-0.0249884391438313,0.));
#1393=CARTESIAN_POINT('',(0.0429445587816739,-0.0116593843312708,0.));
#1394=CARTESIAN_POINT('',(-0.00241497395833333,-0.0257132655327202,0.));
#1395=CARTESIAN_POINT('',(-0.00241497395833333,-0.0425,0.));
#1396=CARTESIAN_POINT('',(-0.00241497395833333,-0.0232961050174723,0.));
#1397=CARTESIAN_POINT('',(0.0401551240139598,-0.00804407947007429,0.));
#1398=CARTESIAN_POINT('',(-0.012,-0.0354,0.));
#1399=CARTESIAN_POINT('',(-0.0105,-0.0354,0.));
#1400=CARTESIAN_POINT('',(-0.012,-0.0354,0.));
#1401=CARTESIAN_POINT('',(-0.012,-0.038,0.));
#1402=CARTESIAN_POINT('',(-0.0146,-0.038,0.));
#1403=CARTESIAN_POINT('',(-0.0146,-0.0425,0.));
#1404=CARTESIAN_POINT('',(-0.0146,-0.062,0.));
#1405=CARTESIAN_POINT('',(-0.012,-0.062,0.));
#1406=CARTESIAN_POINT('',(-0.012,-0.0646,0.));
#1407=CARTESIAN_POINT('',(0.0525,-0.0646,0.));
#1408=CARTESIAN_POINT('',(0.012,-0.0646,0.));
#1409=CARTESIAN_POINT('',(0.012,-0.062,0.));
#1410=CARTESIAN_POINT('',(0.0146,-0.062,0.));
#1411=CARTESIAN_POINT('',(0.0146,-0.038,0.));
#1412=CARTESIAN_POINT('',(0.0146,-0.038,0.));
#1413=CARTESIAN_POINT('',(0.012,-0.038,0.));
#1414=CARTESIAN_POINT('',(0.012,-0.0354,0.));
#1415=CARTESIAN_POINT('',(0.0105,-0.0354,0.));
#1416=CARTESIAN_POINT('',(0.0105,-0.0354,0.));
#1417=CARTESIAN_POINT('',(0.0105,-0.032,0.));
#1418=CARTESIAN_POINT('',(0.0071,-0.032,0.));
#1419=CARTESIAN_POINT('',(0.0071,-0.0425,0.));
#1420=CARTESIAN_POINT('',(0.0071,-0.023,0.));
#1421=CARTESIAN_POINT('',(0.0045,-0.023,0.));
#1422=CARTESIAN_POINT('',(0.0045,-0.0204,0.));
#1423=CARTESIAN_POINT('',(-0.0045,-0.0204,0.));
#1424=CARTESIAN_POINT('',(-0.0045,-0.0204,0.));
#1425=CARTESIAN_POINT('',(-0.0045,-0.023,0.));
#1426=CARTESIAN_POINT('',(-0.0071,-0.023,0.));
#1427=CARTESIAN_POINT('',(-0.0071,-0.032,0.));
#1428=CARTESIAN_POINT('',(-0.0071,-0.032,0.));
#1429=CARTESIAN_POINT('',(-0.0105,-0.032,0.));
#1430=CARTESIAN_POINT('',(-0.0105,-0.032,-0.001));
#1431=CARTESIAN_POINT('',(-0.0105,-0.035,-0.001));
#1432=CARTESIAN_POINT('',(-0.0105,-0.035,-0.0006));
#1433=CARTESIAN_POINT('',(-0.0105,-0.035,-0.0004));
#1434=CARTESIAN_POINT('',(-0.0105,-0.032,-0.0004));
#1435=CARTESIAN_POINT('',(-0.0075,-0.032,-0.0004));
#1436=CARTESIAN_POINT('',(-0.0075,-0.032,-0.001));
#1437=CARTESIAN_POINT('',(-0.0075,-0.032,-0.0006));
#1438=CARTESIAN_POINT('',(-0.0105,-0.032,-0.0006));
#1439=CARTESIAN_POINT('',(-0.01125,-0.035,-0.001));
#1440=CARTESIAN_POINT('',(-0.012,-0.035,-0.001));
#1441=CARTESIAN_POINT('',(-0.012,-0.035,-0.0006));
#1442=CARTESIAN_POINT('',(-0.012,-0.035,-0.0004));
#1443=CARTESIAN_POINT('',(-0.0105,-0.035,-0.0004));
#1444=CARTESIAN_POINT('',(-0.01125,-0.035,-0.0006));
#1445=CARTESIAN_POINT('',(-0.012,-0.038,-0.001));
#1446=CARTESIAN_POINT('',(-0.015,-0.038,-0.001));
#1447=CARTESIAN_POINT('',(-0.015,-0.038,-0.0006));
#1448=CARTESIAN_POINT('',(-0.015,-0.038,-0.0004));
#1449=CARTESIAN_POINT('',(-0.012,-0.038,-0.0004));
#1450=CARTESIAN_POINT('',(-0.012,-0.038,-0.0006));
#1451=CARTESIAN_POINT('',(-0.015,-0.05,-0.001));
#1452=CARTESIAN_POINT('',(-0.015,-0.062,-0.001));
#1453=CARTESIAN_POINT('',(-0.015,-0.062,-0.0006));
#1454=CARTESIAN_POINT('',(-0.015,-0.062,-0.0004));
#1455=CARTESIAN_POINT('',(-0.015,-0.05,-0.0004));
#1456=CARTESIAN_POINT('',(-0.015,-0.062,-0.0006));
#1457=CARTESIAN_POINT('',(-0.012,-0.062,-0.001));
#1458=CARTESIAN_POINT('',(-0.012,-0.065,-0.001));
#1459=CARTESIAN_POINT('',(-0.012,-0.065,-0.0006));
#1460=CARTESIAN_POINT('',(-0.012,-0.065,-0.0004));
#1461=CARTESIAN_POINT('',(-0.012,-0.062,-0.0004));
#1462=CARTESIAN_POINT('',(-0.012,-0.062,-0.0006));
#1463=CARTESIAN_POINT('',(-1.7347234759768E-18,-0.065,-0.001));
#1464=CARTESIAN_POINT('',(0.012,-0.065,-0.001));
#1465=CARTESIAN_POINT('',(0.012,-0.065,-0.0006));
#1466=CARTESIAN_POINT('',(0.012,-0.065,-0.0004));
#1467=CARTESIAN_POINT('',(-1.7347234759768E-18,-0.065,-0.0004));
#1468=CARTESIAN_POINT('',(0.012,-0.065,-0.0006));
#1469=CARTESIAN_POINT('',(0.012,-0.062,-0.001));
#1470=CARTESIAN_POINT('',(0.015,-0.062,-0.001));
#1471=CARTESIAN_POINT('',(0.015,-0.062,-0.0006));
#1472=CARTESIAN_POINT('',(0.015,-0.062,-0.0004));
#1473=CARTESIAN_POINT('',(0.012,-0.062,-0.0004));
#1474=CARTESIAN_POINT('',(0.012,-0.062,-0.0006));
#1475=CARTESIAN_POINT('',(0.015,-0.05,-0.001));
#1476=CARTESIAN_POINT('',(0.015,-0.038,-0.001));
#1477=CARTESIAN_POINT('',(0.015,-0.038,-0.0006));
#1478=CARTESIAN_POINT('',(0.015,-0.038,-0.0004));
#1479=CARTESIAN_POINT('',(0.015,-0.062,-0.0004));
#1480=CARTESIAN_POINT('',(0.015,-0.05,-0.0006));
#1481=CARTESIAN_POINT('',(0.012,-0.038,-0.001));
#1482=CARTESIAN_POINT('',(0.012,-0.035,-0.001));
#1483=CARTESIAN_POINT('',(0.012,-0.035,-0.0006));
#1484=CARTESIAN_POINT('',(0.012,-0.035,-0.0004));
#1485=CARTESIAN_POINT('',(0.012,-0.038,-0.0004));
#1486=CARTESIAN_POINT('',(0.012,-0.038,-0.0006));
#1487=CARTESIAN_POINT('',(0.01125,-0.035,-0.001));
#1488=CARTESIAN_POINT('',(0.0105,-0.035,-0.001));
#1489=CARTESIAN_POINT('',(0.0105,-0.035,-0.0006));
#1490=CARTESIAN_POINT('',(0.0105,-0.035,-0.0004));
#1491=CARTESIAN_POINT('',(0.012,-0.035,-0.0004));
#1492=CARTESIAN_POINT('',(0.01125,-0.035,-0.0006));
#1493=CARTESIAN_POINT('',(0.0105,-0.032,-0.001));
#1494=CARTESIAN_POINT('',(0.0075,-0.032,-0.001));
#1495=CARTESIAN_POINT('',(0.0075,-0.032,-0.0006));
#1496=CARTESIAN_POINT('',(0.0075,-0.032,-0.0004));
#1497=CARTESIAN_POINT('',(0.0105,-0.032,-0.0004));
#1498=CARTESIAN_POINT('',(0.0105,-0.032,-0.0006));
#1499=CARTESIAN_POINT('',(0.0075,-0.0275,-0.001));
#1500=CARTESIAN_POINT('',(0.0075,-0.023,-0.001));
#1501=CARTESIAN_POINT('',(0.0075,-0.023,-0.0006));
#1502=CARTESIAN_POINT('',(0.0075,-0.023,-0.0004));
#1503=CARTESIAN_POINT('',(0.0075,-0.0275,-0.0004));
#1504=CARTESIAN_POINT('',(0.0075,-0.023,-0.0006));
#1505=CARTESIAN_POINT('',(0.0045,-0.023,-0.001));
#1506=CARTESIAN_POINT('',(0.0045,-0.02,-0.001));
#1507=CARTESIAN_POINT('',(0.0045,-0.02,-0.0006));
#1508=CARTESIAN_POINT('',(0.0045,-0.02,-0.0004));
#1509=CARTESIAN_POINT('',(0.0045,-0.023,-0.0004));
#1510=CARTESIAN_POINT('',(0.0045,-0.023,-0.0006));
#1511=CARTESIAN_POINT('',(-1.7347234759768E-18,-0.02,-0.001));
#1512=CARTESIAN_POINT('',(-0.0045,-0.02,-0.001));
#1513=CARTESIAN_POINT('',(-0.0045,-0.02,-0.0006));
#1514=CARTESIAN_POINT('',(-0.0045,-0.02,-0.0004));
#1515=CARTESIAN_POINT('',(0.0045,-0.02,-0.0004));
#1516=CARTESIAN_POINT('',(-1.7347234759768E-18,-0.02,-0.0006));
#1517=CARTESIAN_POINT('',(-0.0045,-0.023,-0.001));
#1518=CARTESIAN_POINT('',(-0.0075,-0.023,-0.001));
#1519=CARTESIAN_POINT('',(-0.0075,-0.023,-0.0006));
#1520=CARTESIAN_POINT('',(-0.0075,-0.023,-0.0004));
#1521=CARTESIAN_POINT('',(-0.0045,-0.023,-0.0004));
#1522=CARTESIAN_POINT('',(-0.0045,-0.023,-0.0006));
#1523=CARTESIAN_POINT('',(-0.0075,-0.0275,-0.001));
#1524=CARTESIAN_POINT('',(-0.0075,-0.023,-0.0004));
#1525=CARTESIAN_POINT('',(-0.0075,-0.0275,-0.0006));
#1526=CARTESIAN_POINT('',(0.0525,-0.0425,-0.001));
#1527=CARTESIAN_POINT('',(-0.0146,-0.038,-0.001));
#1528=CARTESIAN_POINT('',(-0.0146,-0.062,-0.001));
#1529=CARTESIAN_POINT('',(-0.0146,-0.038,-0.001));
#1530=CARTESIAN_POINT('',(-0.012,-0.038,-0.001));
#1531=CARTESIAN_POINT('',(-0.012,-0.0354,-0.001));
#1532=CARTESIAN_POINT('',(0.0525,-0.0354,-0.001));
#1533=CARTESIAN_POINT('',(-0.0105,-0.0354,-0.001));
#1534=CARTESIAN_POINT('',(-0.0105,-0.032,-0.001));
#1535=CARTESIAN_POINT('',(-0.0071,-0.032,-0.001));
#1536=CARTESIAN_POINT('',(-0.0071,-0.0425,-0.001));
#1537=CARTESIAN_POINT('',(-0.0071,-0.023,-0.001));
#1538=CARTESIAN_POINT('',(-0.0045,-0.023,-0.001));
#1539=CARTESIAN_POINT('',(-0.0045,-0.0204,-0.001));
#1540=CARTESIAN_POINT('',(0.0525,-0.0204,-0.001));
#1541=CARTESIAN_POINT('',(0.0045,-0.0204,-0.001));
#1542=CARTESIAN_POINT('',(0.0045,-0.023,-0.001));
#1543=CARTESIAN_POINT('',(0.0071,-0.023,-0.001));
#1544=CARTESIAN_POINT('',(0.0071,-0.032,-0.001));
#1545=CARTESIAN_POINT('',(0.0071,-0.032,-0.001));
#1546=CARTESIAN_POINT('',(0.0105,-0.032,-0.001));
#1547=CARTESIAN_POINT('',(0.0105,-0.0354,-0.001));
#1548=CARTESIAN_POINT('',(0.0525,-0.0354,-0.001));
#1549=CARTESIAN_POINT('',(0.012,-0.0354,-0.001));
#1550=CARTESIAN_POINT('',(0.012,-0.038,-0.001));
#1551=CARTESIAN_POINT('',(0.0146,-0.038,-0.001));
#1552=CARTESIAN_POINT('',(0.0146,-0.0425,-0.001));
#1553=CARTESIAN_POINT('',(0.0146,-0.062,-0.001));
#1554=CARTESIAN_POINT('',(0.012,-0.062,-0.001));
#1555=CARTESIAN_POINT('',(0.012,-0.0646,-0.001));
#1556=CARTESIAN_POINT('',(-0.012,-0.0646,-0.001));
#1557=CARTESIAN_POINT('',(-0.012,-0.0646,-0.001));
#1558=CARTESIAN_POINT('',(-0.012,-0.062,-0.001));
#1559=CARTESIAN_POINT('',(0.0480539279513889,-0.026068359375,-0.0004));
#1560=CARTESIAN_POINT('',(0.00130425347222222,-0.032,-0.0004));
#1561=CARTESIAN_POINT('',(0.00228407118055555,-0.032,-0.0004));
#1562=CARTESIAN_POINT('',(0.000324435763888883,-0.032,-0.0004));
#1563=CARTESIAN_POINT('',(0.00228407118055555,-0.0270564236111111,-0.0004));
#1564=CARTESIAN_POINT('',(0.00228407118055555,-0.0221128472222222,-0.0004));
#1565=CARTESIAN_POINT('',(0.00217881944444444,-0.0221128472222222,-0.0004));
#1566=CARTESIAN_POINT('',(0.00207356770833333,-0.0221128472222222,-0.0004));
#1567=CARTESIAN_POINT('',(2.92968749999946E-5,-0.0228452690972223,-0.0004));
#1568=CARTESIAN_POINT('',(-0.00201497395833334,-0.0235776909722222,-0.0004));
#1569=CARTESIAN_POINT('',(-0.00201497395833334,-0.0243741319444444,-0.0004));
#1570=CARTESIAN_POINT('',(-0.00201497395833334,-0.0251705729166667,-0.0004));
#1571=CARTESIAN_POINT('',(-0.000845269097222228,-0.0248081597222222,-0.0004));
#1572=CARTESIAN_POINT('',(0.000324435763888885,-0.0244457465277778,-0.0004));
#1573=CARTESIAN_POINT('',(0.000324435763888883,-0.0282228732638889,-0.0004));
#1574=CARTESIAN_POINT('',(-0.00241497395833333,-0.0425,-0.0004));
#1575=CARTESIAN_POINT('',(-0.00241497395833333,-0.0232961050174723,-0.0004));
#1576=CARTESIAN_POINT('',(-0.00241497395833334,-0.0257132655327202,-0.0004));
#1577=CARTESIAN_POINT('',(0.0429445587816739,-0.0116593843312708,-0.0004));
#1578=CARTESIAN_POINT('',(-7.55642361111239E-5,-0.0249884391438313,-0.0004));
#1579=CARTESIAN_POINT('',(0.0401551240139598,-0.0080440794700743,-0.0004));
#1580=CARTESIAN_POINT('',(0.00200407446574238,-0.0217128472222222,-0.0004));
#1581=CARTESIAN_POINT('',(-7.5564236111117E-5,-0.0425,-0.0004));
#1582=CARTESIAN_POINT('',(-7.5564236111117E-5,-0.0324,-0.0004));
#1583=CARTESIAN_POINT('',(0.0525,-0.0217128472222222,-0.0004));
#1584=CARTESIAN_POINT('',(0.00268407118055555,-0.0217128472222222,-0.0004));
#1585=CARTESIAN_POINT('',(0.0525,-0.0324,-0.0004));
#1586=CARTESIAN_POINT('',(0.00268407118055555,-0.0324,-0.0004));
#1587=CARTESIAN_POINT('',(0.00268407118055555,-0.0425,-0.0004));
#1588=CARTESIAN_POINT('',(0.0105,-0.032,-0.0004));
#1589=CARTESIAN_POINT('',(0.0105,-0.0354,-0.0004));
#1590=CARTESIAN_POINT('',(0.0071,-0.032,-0.0004));
#1591=CARTESIAN_POINT('',(0.0071,-0.0425,-0.0004));
#1592=CARTESIAN_POINT('',(0.0071,-0.023,-0.0004));
#1593=CARTESIAN_POINT('',(0.01125,-0.0354,-0.0004));
#1594=CARTESIAN_POINT('',(0.012,-0.0354,-0.0004));
#1595=CARTESIAN_POINT('',(0.0045,-0.023,-0.0004));
#1596=CARTESIAN_POINT('',(0.0045,-0.0204,-0.0004));
#1597=CARTESIAN_POINT('',(0.012,-0.038,-0.0004));
#1598=CARTESIAN_POINT('',(0.0146,-0.038,-0.0004));
#1599=CARTESIAN_POINT('',(-1.7347234759768E-18,-0.0204,-0.0004));
#1600=CARTESIAN_POINT('',(-0.0045,-0.0204,-0.0004));
#1601=CARTESIAN_POINT('',(0.0146,-0.05,-0.0004));
#1602=CARTESIAN_POINT('',(0.0146,-0.062,-0.0004));
#1603=CARTESIAN_POINT('',(-0.0045,-0.023,-0.0004));
#1604=CARTESIAN_POINT('',(-0.0071,-0.023,-0.0004));
#1605=CARTESIAN_POINT('',(0.012,-0.062,-0.0004));
#1606=CARTESIAN_POINT('',(0.012,-0.0646,-0.0004));
#1607=CARTESIAN_POINT('',(-0.0071,-0.0275,-0.0004));
#1608=CARTESIAN_POINT('',(-0.0071,-0.032,-0.0004));
#1609=CARTESIAN_POINT('',(0.0525,-0.0646,-0.0004));
#1610=CARTESIAN_POINT('',(-0.012,-0.0646,-0.0004));
#1611=CARTESIAN_POINT('',(-0.0105,-0.032,-0.0004));
#1612=CARTESIAN_POINT('',(-0.0105,-0.0354,-0.0004));
#1613=CARTESIAN_POINT('',(-0.012,-0.062,-0.0004));
#1614=CARTESIAN_POINT('',(-0.0146,-0.062,-0.0004));
#1615=CARTESIAN_POINT('',(-0.01125,-0.0354,-0.0004));
#1616=CARTESIAN_POINT('',(-0.012,-0.0354,-0.0004));
#1617=CARTESIAN_POINT('',(-0.0146,-0.0425,-0.0004));
#1618=CARTESIAN_POINT('',(-0.0146,-0.038,-0.0004));
#1619=CARTESIAN_POINT('',(-0.012,-0.038,-0.0004));
#1620=CARTESIAN_POINT('',(0.0105,-0.032,-0.0006));
#1621=CARTESIAN_POINT('',(0.0105,-0.0354,-0.0006));
#1622=CARTESIAN_POINT('',(0.0071,-0.032,-0.0006));
#1623=CARTESIAN_POINT('',(0.0071,-0.0275,-0.0006));
#1624=CARTESIAN_POINT('',(0.0071,-0.023,-0.0006));
#1625=CARTESIAN_POINT('',(0.0525,-0.0354,-0.0006));
#1626=CARTESIAN_POINT('',(0.012,-0.0354,-0.0006));
#1627=CARTESIAN_POINT('',(0.0045,-0.023,-0.0006));
#1628=CARTESIAN_POINT('',(0.0045,-0.0204,-0.0006));
#1629=CARTESIAN_POINT('',(0.012,-0.038,-0.0006));
#1630=CARTESIAN_POINT('',(0.0146,-0.038,-0.0006));
#1631=CARTESIAN_POINT('',(0.0525,-0.0204,-0.0006));
#1632=CARTESIAN_POINT('',(-0.0045,-0.0204,-0.0006));
#1633=CARTESIAN_POINT('',(0.0146,-0.0425,-0.0006));
#1634=CARTESIAN_POINT('',(0.0146,-0.062,-0.0006));
#1635=CARTESIAN_POINT('',(-0.0045,-0.023,-0.0006));
#1636=CARTESIAN_POINT('',(-0.0071,-0.023,-0.0006));
#1637=CARTESIAN_POINT('',(0.012,-0.062,-0.0006));
#1638=CARTESIAN_POINT('',(0.012,-0.0646,-0.0006));
#1639=CARTESIAN_POINT('',(-0.0071,-0.0425,-0.0006));
#1640=CARTESIAN_POINT('',(-0.0071,-0.032,-0.0006));
#1641=CARTESIAN_POINT('',(-1.7347234759768E-18,-0.0646,-0.0006));
#1642=CARTESIAN_POINT('',(-0.012,-0.0646,-0.0006));
#1643=CARTESIAN_POINT('',(-0.0105,-0.032,-0.0006));
#1644=CARTESIAN_POINT('',(-0.0105,-0.0354,-0.0006));
#1645=CARTESIAN_POINT('',(-0.012,-0.062,-0.0006));
#1646=CARTESIAN_POINT('',(-0.0146,-0.062,-0.0006));
#1647=CARTESIAN_POINT('',(0.0525,-0.0354,-0.0006));
#1648=CARTESIAN_POINT('',(-0.012,-0.0354,-0.0006));
#1649=CARTESIAN_POINT('',(-0.0146,-0.05,-0.0006));
#1650=CARTESIAN_POINT('',(-0.0146,-0.038,-0.0006));
#1651=CARTESIAN_POINT('',(-0.012,-0.038,-0.0006));
#1652=MECHANICAL_DESIGN_GEOMETRIC_PRESENTATION_REPRESENTATION('',(#919),
#1653);
#1653=(
GEOMETRIC_REPRESENTATION_CONTEXT(3)
GLOBAL_UNCERTAINTY_ASSIGNED_CONTEXT((#1654))
GLOBAL_UNIT_ASSIGNED_CONTEXT((#1657,#1656,#1655))
REPRESENTATION_CONTEXT('CALIBRATION_spacer_1','TOP_LEVEL_ASSEMBLY_PART')
);
#1654=UNCERTAINTY_MEASURE_WITH_UNIT(LENGTH_MEASURE(1.E-8),#1657,
'DISTANCE_ACCURACY_VALUE','Maximum Tolerance applied to model');
#1655=(
NAMED_UNIT(*)
SI_UNIT($,.STERADIAN.)
SOLID_ANGLE_UNIT()
);
#1656=(
NAMED_UNIT(*)
PLANE_ANGLE_UNIT()
SI_UNIT($,.RADIAN.)
);
#1657=(
LENGTH_UNIT()
NAMED_UNIT(*)
SI_UNIT($,.METRE.)
);
#1658=PRODUCT_DEFINITION_SHAPE('','',#1659);
#1659=PRODUCT_DEFINITION('','',#1661,#1660);
#1660=PRODUCT_DEFINITION_CONTEXT('',#1667,'design');
#1661=PRODUCT_DEFINITION_FORMATION_WITH_SPECIFIED_SOURCE('','',#1663,
 .NOT_KNOWN.);
#1662=PRODUCT_RELATED_PRODUCT_CATEGORY('','',(#1663));
#1663=PRODUCT('CALIBRATION_spacer_1','CALIBRATION_spacer_1',
'CALIBRATION_spacer_1',(#1665));
#1664=PRODUCT_CATEGORY('','');
#1665=PRODUCT_CONTEXT('',#1667,'mechanical');
#1666=APPLICATION_PROTOCOL_DEFINITION('international standard',
'ap242_managed_model_based_3d_engineering',2020,#1667);
#1667=APPLICATION_CONTEXT('managed model based 3d engineering');
ENDSEC;
END-ISO-10303-21;
