ISO-10303-21;
HEADER;
/* Generated by software containing ST-Developer
 * from STEP Tools, Inc. (www.steptools.com) 
 */
/* OPTION: using custom renumber hook */

FILE_DESCRIPTION(
/* description */ ('STEP AP242 Edition 2',
'CAx-IF Rec.Pracs.---Representation and Presentation of Product Manufa
cturing Information (PMI)---4.0---2014-10-13',
'CAx-IF Rec.Pracs.---3D Tessellated Geometry---0.4---2014-09-14','2;1',
'CAx-IF Rec.Pracs.---User Defined Attributes---1.5---2016-08-15'),
/* implementation_level */ '2;1');

FILE_NAME(
/* name */ 'calibration_spacers - CALIBRATION_spacer_0.2',
/* time_stamp */ '2026-06-01T11:08:44Z',
/* author */ (''),
/* organization */ (''),
/* preprocessor_version */ 'ST-DEVELOPER v20',
/* originating_system */ 'ONSHAPE BY PTC INC, 1.215',
/* authorisation */ '  ');

FILE_SCHEMA (('AP242_MANAGED_MODEL_BASED_3D_ENGINEERING_MIM_LF { 1 0 10303 442 3 1 4 }'));
ENDSEC;

DATA;
#10=SHAPE_REPRESENTATION_RELATIONSHIP('','',#351,#11);
#11=ADVANCED_BREP_SHAPE_REPRESENTATION('',(#349),#589);
#12=CIRCLE('',#355,0.003);
#13=CIRCLE('',#356,0.003);
#14=CIRCLE('',#359,0.003);
#15=CIRCLE('',#360,0.003);
#16=CIRCLE('',#363,0.003);
#17=CIRCLE('',#364,0.003);
#18=CIRCLE('',#367,0.003);
#19=CIRCLE('',#368,0.003);
#20=CIRCLE('',#371,0.003);
#21=CIRCLE('',#372,0.003);
#22=CIRCLE('',#375,0.003);
#23=CIRCLE('',#376,0.003);
#24=CIRCLE('',#379,0.003);
#25=CIRCLE('',#380,0.003);
#26=CIRCLE('',#383,0.003);
#27=CIRCLE('',#384,0.003);
#28=CYLINDRICAL_SURFACE('',#354,0.003);
#29=CYLINDRICAL_SURFACE('',#358,0.003);
#30=CYLINDRICAL_SURFACE('',#362,0.003);
#31=CYLINDRICAL_SURFACE('',#366,0.003);
#32=CYLINDRICAL_SURFACE('',#370,0.003);
#33=CYLINDRICAL_SURFACE('',#374,0.003);
#34=CYLINDRICAL_SURFACE('',#378,0.003);
#35=CYLINDRICAL_SURFACE('',#382,0.003);
#36=ORIENTED_EDGE('',*,*,#132,.T.);
#37=ORIENTED_EDGE('',*,*,#133,.F.);
#38=ORIENTED_EDGE('',*,*,#134,.F.);
#39=ORIENTED_EDGE('',*,*,#135,.T.);
#40=ORIENTED_EDGE('',*,*,#136,.F.);
#41=ORIENTED_EDGE('',*,*,#135,.F.);
#42=ORIENTED_EDGE('',*,*,#137,.T.);
#43=ORIENTED_EDGE('',*,*,#138,.T.);
#44=ORIENTED_EDGE('',*,*,#139,.T.);
#45=ORIENTED_EDGE('',*,*,#138,.F.);
#46=ORIENTED_EDGE('',*,*,#140,.F.);
#47=ORIENTED_EDGE('',*,*,#141,.T.);
#48=ORIENTED_EDGE('',*,*,#142,.T.);
#49=ORIENTED_EDGE('',*,*,#141,.F.);
#50=ORIENTED_EDGE('',*,*,#143,.F.);
#51=ORIENTED_EDGE('',*,*,#144,.T.);
#52=ORIENTED_EDGE('',*,*,#145,.T.);
#53=ORIENTED_EDGE('',*,*,#144,.F.);
#54=ORIENTED_EDGE('',*,*,#146,.F.);
#55=ORIENTED_EDGE('',*,*,#147,.T.);
#56=ORIENTED_EDGE('',*,*,#148,.F.);
#57=ORIENTED_EDGE('',*,*,#147,.F.);
#58=ORIENTED_EDGE('',*,*,#149,.T.);
#59=ORIENTED_EDGE('',*,*,#150,.T.);
#60=ORIENTED_EDGE('',*,*,#151,.F.);
#61=ORIENTED_EDGE('',*,*,#150,.F.);
#62=ORIENTED_EDGE('',*,*,#152,.T.);
#63=ORIENTED_EDGE('',*,*,#153,.T.);
#64=ORIENTED_EDGE('',*,*,#154,.F.);
#65=ORIENTED_EDGE('',*,*,#153,.F.);
#66=ORIENTED_EDGE('',*,*,#155,.T.);
#67=ORIENTED_EDGE('',*,*,#156,.T.);
#68=ORIENTED_EDGE('',*,*,#157,.F.);
#69=ORIENTED_EDGE('',*,*,#156,.F.);
#70=ORIENTED_EDGE('',*,*,#158,.T.);
#71=ORIENTED_EDGE('',*,*,#159,.T.);
#72=ORIENTED_EDGE('',*,*,#160,.F.);
#73=ORIENTED_EDGE('',*,*,#159,.F.);
#74=ORIENTED_EDGE('',*,*,#161,.T.);
#75=ORIENTED_EDGE('',*,*,#162,.T.);
#76=ORIENTED_EDGE('',*,*,#163,.T.);
#77=ORIENTED_EDGE('',*,*,#162,.F.);
#78=ORIENTED_EDGE('',*,*,#164,.F.);
#79=ORIENTED_EDGE('',*,*,#165,.T.);
#80=ORIENTED_EDGE('',*,*,#166,.F.);
#81=ORIENTED_EDGE('',*,*,#165,.F.);
#82=ORIENTED_EDGE('',*,*,#167,.T.);
#83=ORIENTED_EDGE('',*,*,#168,.T.);
#84=ORIENTED_EDGE('',*,*,#169,.T.);
#85=ORIENTED_EDGE('',*,*,#168,.F.);
#86=ORIENTED_EDGE('',*,*,#170,.F.);
#87=ORIENTED_EDGE('',*,*,#171,.T.);
#88=ORIENTED_EDGE('',*,*,#172,.T.);
#89=ORIENTED_EDGE('',*,*,#171,.F.);
#90=ORIENTED_EDGE('',*,*,#173,.F.);
#91=ORIENTED_EDGE('',*,*,#174,.T.);
#92=ORIENTED_EDGE('',*,*,#175,.F.);
#93=ORIENTED_EDGE('',*,*,#174,.F.);
#94=ORIENTED_EDGE('',*,*,#176,.T.);
#95=ORIENTED_EDGE('',*,*,#177,.T.);
#96=ORIENTED_EDGE('',*,*,#178,.F.);
#97=ORIENTED_EDGE('',*,*,#177,.F.);
#98=ORIENTED_EDGE('',*,*,#179,.T.);
#99=ORIENTED_EDGE('',*,*,#133,.T.);
#100=ORIENTED_EDGE('',*,*,#134,.T.);
#101=ORIENTED_EDGE('',*,*,#179,.F.);
#102=ORIENTED_EDGE('',*,*,#176,.F.);
#103=ORIENTED_EDGE('',*,*,#173,.T.);
#104=ORIENTED_EDGE('',*,*,#170,.T.);
#105=ORIENTED_EDGE('',*,*,#167,.F.);
#106=ORIENTED_EDGE('',*,*,#164,.T.);
#107=ORIENTED_EDGE('',*,*,#161,.F.);
#108=ORIENTED_EDGE('',*,*,#158,.F.);
#109=ORIENTED_EDGE('',*,*,#155,.F.);
#110=ORIENTED_EDGE('',*,*,#152,.F.);
#111=ORIENTED_EDGE('',*,*,#149,.F.);
#112=ORIENTED_EDGE('',*,*,#146,.T.);
#113=ORIENTED_EDGE('',*,*,#143,.T.);
#114=ORIENTED_EDGE('',*,*,#140,.T.);
#115=ORIENTED_EDGE('',*,*,#137,.F.);
#116=ORIENTED_EDGE('',*,*,#132,.F.);
#117=ORIENTED_EDGE('',*,*,#136,.T.);
#118=ORIENTED_EDGE('',*,*,#139,.F.);
#119=ORIENTED_EDGE('',*,*,#142,.F.);
#120=ORIENTED_EDGE('',*,*,#145,.F.);
#121=ORIENTED_EDGE('',*,*,#148,.T.);
#122=ORIENTED_EDGE('',*,*,#151,.T.);
#123=ORIENTED_EDGE('',*,*,#154,.T.);
#124=ORIENTED_EDGE('',*,*,#157,.T.);
#125=ORIENTED_EDGE('',*,*,#160,.T.);
#126=ORIENTED_EDGE('',*,*,#163,.F.);
#127=ORIENTED_EDGE('',*,*,#166,.T.);
#128=ORIENTED_EDGE('',*,*,#169,.F.);
#129=ORIENTED_EDGE('',*,*,#172,.F.);
#130=ORIENTED_EDGE('',*,*,#175,.T.);
#131=ORIENTED_EDGE('',*,*,#178,.T.);
#132=EDGE_CURVE('',#180,#181,#212,.T.);
#133=EDGE_CURVE('',#182,#181,#213,.T.);
#134=EDGE_CURVE('',#183,#182,#214,.T.);
#135=EDGE_CURVE('',#183,#180,#215,.T.);
#136=EDGE_CURVE('',#180,#184,#12,.T.);
#137=EDGE_CURVE('',#183,#185,#13,.T.);
#138=EDGE_CURVE('',#185,#184,#216,.T.);
#139=EDGE_CURVE('',#186,#184,#217,.T.);
#140=EDGE_CURVE('',#187,#185,#218,.T.);
#141=EDGE_CURVE('',#187,#186,#219,.T.);
#142=EDGE_CURVE('',#188,#186,#14,.T.);
#143=EDGE_CURVE('',#189,#187,#15,.T.);
#144=EDGE_CURVE('',#189,#188,#220,.T.);
#145=EDGE_CURVE('',#190,#188,#221,.T.);
#146=EDGE_CURVE('',#191,#189,#222,.T.);
#147=EDGE_CURVE('',#191,#190,#223,.T.);
#148=EDGE_CURVE('',#190,#192,#16,.T.);
#149=EDGE_CURVE('',#191,#193,#17,.T.);
#150=EDGE_CURVE('',#193,#192,#224,.T.);
#151=EDGE_CURVE('',#192,#194,#225,.T.);
#152=EDGE_CURVE('',#193,#195,#226,.T.);
#153=EDGE_CURVE('',#195,#194,#227,.T.);
#154=EDGE_CURVE('',#194,#196,#18,.T.);
#155=EDGE_CURVE('',#195,#197,#19,.T.);
#156=EDGE_CURVE('',#197,#196,#228,.T.);
#157=EDGE_CURVE('',#196,#198,#229,.T.);
#158=EDGE_CURVE('',#197,#199,#230,.T.);
#159=EDGE_CURVE('',#199,#198,#231,.T.);
#160=EDGE_CURVE('',#198,#200,#20,.T.);
#161=EDGE_CURVE('',#199,#201,#21,.T.);
#162=EDGE_CURVE('',#201,#200,#232,.T.);
#163=EDGE_CURVE('',#202,#200,#233,.T.);
#164=EDGE_CURVE('',#203,#201,#234,.T.);
#165=EDGE_CURVE('',#203,#202,#235,.T.);
#166=EDGE_CURVE('',#202,#204,#22,.T.);
#167=EDGE_CURVE('',#203,#205,#23,.T.);
#168=EDGE_CURVE('',#205,#204,#236,.T.);
#169=EDGE_CURVE('',#206,#204,#237,.T.);
#170=EDGE_CURVE('',#207,#205,#238,.T.);
#171=EDGE_CURVE('',#207,#206,#239,.T.);
#172=EDGE_CURVE('',#208,#206,#24,.T.);
#173=EDGE_CURVE('',#209,#207,#25,.T.);
#174=EDGE_CURVE('',#209,#208,#240,.T.);
#175=EDGE_CURVE('',#208,#210,#241,.T.);
#176=EDGE_CURVE('',#209,#211,#242,.T.);
#177=EDGE_CURVE('',#211,#210,#243,.T.);
#178=EDGE_CURVE('',#210,#181,#26,.T.);
#179=EDGE_CURVE('',#211,#182,#27,.T.);
#180=VERTEX_POINT('',#492);
#181=VERTEX_POINT('',#493);
#182=VERTEX_POINT('',#495);
#183=VERTEX_POINT('',#497);
#184=VERTEX_POINT('',#501);
#185=VERTEX_POINT('',#503);
#186=VERTEX_POINT('',#507);
#187=VERTEX_POINT('',#509);
#188=VERTEX_POINT('',#513);
#189=VERTEX_POINT('',#515);
#190=VERTEX_POINT('',#519);
#191=VERTEX_POINT('',#521);
#192=VERTEX_POINT('',#525);
#193=VERTEX_POINT('',#527);
#194=VERTEX_POINT('',#531);
#195=VERTEX_POINT('',#533);
#196=VERTEX_POINT('',#537);
#197=VERTEX_POINT('',#539);
#198=VERTEX_POINT('',#543);
#199=VERTEX_POINT('',#545);
#200=VERTEX_POINT('',#549);
#201=VERTEX_POINT('',#551);
#202=VERTEX_POINT('',#555);
#203=VERTEX_POINT('',#557);
#204=VERTEX_POINT('',#561);
#205=VERTEX_POINT('',#563);
#206=VERTEX_POINT('',#567);
#207=VERTEX_POINT('',#569);
#208=VERTEX_POINT('',#573);
#209=VERTEX_POINT('',#575);
#210=VERTEX_POINT('',#579);
#211=VERTEX_POINT('',#581);
#212=LINE('',#491,#244);
#213=LINE('',#494,#245);
#214=LINE('',#496,#246);
#215=LINE('',#498,#247);
#216=LINE('',#504,#248);
#217=LINE('',#506,#249);
#218=LINE('',#508,#250);
#219=LINE('',#510,#251);
#220=LINE('',#516,#252);
#221=LINE('',#518,#253);
#222=LINE('',#520,#254);
#223=LINE('',#522,#255);
#224=LINE('',#528,#256);
#225=LINE('',#530,#257);
#226=LINE('',#532,#258);
#227=LINE('',#534,#259);
#228=LINE('',#540,#260);
#229=LINE('',#542,#261);
#230=LINE('',#544,#262);
#231=LINE('',#546,#263);
#232=LINE('',#552,#264);
#233=LINE('',#554,#265);
#234=LINE('',#556,#266);
#235=LINE('',#558,#267);
#236=LINE('',#564,#268);
#237=LINE('',#566,#269);
#238=LINE('',#568,#270);
#239=LINE('',#570,#271);
#240=LINE('',#576,#272);
#241=LINE('',#578,#273);
#242=LINE('',#580,#274);
#243=LINE('',#582,#275);
#244=VECTOR('',#391,1.);
#245=VECTOR('',#392,1.);
#246=VECTOR('',#393,1.);
#247=VECTOR('',#394,1.);
#248=VECTOR('',#401,1.);
#249=VECTOR('',#404,1.);
#250=VECTOR('',#405,1.);
#251=VECTOR('',#406,1.);
#252=VECTOR('',#413,1.);
#253=VECTOR('',#416,1.);
#254=VECTOR('',#417,1.);
#255=VECTOR('',#418,1.);
#256=VECTOR('',#425,1.);
#257=VECTOR('',#428,1.);
#258=VECTOR('',#429,1.);
#259=VECTOR('',#430,1.);
#260=VECTOR('',#437,1.);
#261=VECTOR('',#440,1.);
#262=VECTOR('',#441,1.);
#263=VECTOR('',#442,1.);
#264=VECTOR('',#449,1.);
#265=VECTOR('',#452,1.);
#266=VECTOR('',#453,1.);
#267=VECTOR('',#454,1.);
#268=VECTOR('',#461,1.);
#269=VECTOR('',#464,1.);
#270=VECTOR('',#465,1.);
#271=VECTOR('',#466,1.);
#272=VECTOR('',#473,1.);
#273=VECTOR('',#476,1.);
#274=VECTOR('',#477,1.);
#275=VECTOR('',#478,1.);
#276=EDGE_LOOP('',(#36,#37,#38,#39));
#277=EDGE_LOOP('',(#40,#41,#42,#43));
#278=EDGE_LOOP('',(#44,#45,#46,#47));
#279=EDGE_LOOP('',(#48,#49,#50,#51));
#280=EDGE_LOOP('',(#52,#53,#54,#55));
#281=EDGE_LOOP('',(#56,#57,#58,#59));
#282=EDGE_LOOP('',(#60,#61,#62,#63));
#283=EDGE_LOOP('',(#64,#65,#66,#67));
#284=EDGE_LOOP('',(#68,#69,#70,#71));
#285=EDGE_LOOP('',(#72,#73,#74,#75));
#286=EDGE_LOOP('',(#76,#77,#78,#79));
#287=EDGE_LOOP('',(#80,#81,#82,#83));
#288=EDGE_LOOP('',(#84,#85,#86,#87));
#289=EDGE_LOOP('',(#88,#89,#90,#91));
#290=EDGE_LOOP('',(#92,#93,#94,#95));
#291=EDGE_LOOP('',(#96,#97,#98,#99));
#292=EDGE_LOOP('',(#100,#101,#102,#103,#104,#105,#106,#107,#108,#109,#110,
#111,#112,#113,#114,#115));
#293=EDGE_LOOP('',(#116,#117,#118,#119,#120,#121,#122,#123,#124,#125,#126,
#127,#128,#129,#130,#131));
#294=FACE_BOUND('',#276,.T.);
#295=FACE_BOUND('',#277,.T.);
#296=FACE_BOUND('',#278,.T.);
#297=FACE_BOUND('',#279,.T.);
#298=FACE_BOUND('',#280,.T.);
#299=FACE_BOUND('',#281,.T.);
#300=FACE_BOUND('',#282,.T.);
#301=FACE_BOUND('',#283,.T.);
#302=FACE_BOUND('',#284,.T.);
#303=FACE_BOUND('',#285,.T.);
#304=FACE_BOUND('',#286,.T.);
#305=FACE_BOUND('',#287,.T.);
#306=FACE_BOUND('',#288,.T.);
#307=FACE_BOUND('',#289,.T.);
#308=FACE_BOUND('',#290,.T.);
#309=FACE_BOUND('',#291,.T.);
#310=FACE_BOUND('',#292,.T.);
#311=FACE_BOUND('',#293,.T.);
#312=PLANE('',#353);
#313=PLANE('',#357);
#314=PLANE('',#361);
#315=PLANE('',#365);
#316=PLANE('',#369);
#317=PLANE('',#373);
#318=PLANE('',#377);
#319=PLANE('',#381);
#320=PLANE('',#385);
#321=PLANE('',#386);
#322=ADVANCED_FACE('',(#294),#312,.F.);
#323=ADVANCED_FACE('',(#295),#28,.T.);
#324=ADVANCED_FACE('',(#296),#313,.F.);
#325=ADVANCED_FACE('',(#297),#29,.F.);
#326=ADVANCED_FACE('',(#298),#314,.F.);
#327=ADVANCED_FACE('',(#299),#30,.T.);
#328=ADVANCED_FACE('',(#300),#315,.T.);
#329=ADVANCED_FACE('',(#301),#31,.T.);
#330=ADVANCED_FACE('',(#302),#316,.T.);
#331=ADVANCED_FACE('',(#303),#32,.T.);
#332=ADVANCED_FACE('',(#304),#317,.F.);
#333=ADVANCED_FACE('',(#305),#33,.T.);
#334=ADVANCED_FACE('',(#306),#318,.F.);
#335=ADVANCED_FACE('',(#307),#34,.F.);
#336=ADVANCED_FACE('',(#308),#319,.T.);
#337=ADVANCED_FACE('',(#309),#35,.T.);
#338=ADVANCED_FACE('',(#310),#320,.F.);
#339=ADVANCED_FACE('',(#311),#321,.T.);
#340=CLOSED_SHELL('',(#322,#323,#324,#325,#326,#327,#328,#329,#330,#331,
#332,#333,#334,#335,#336,#337,#338,#339));
#341=STYLED_ITEM('',(#342),#349);
#342=PRESENTATION_STYLE_ASSIGNMENT((#343));
#343=SURFACE_STYLE_USAGE(.BOTH.,#344);
#344=SURFACE_SIDE_STYLE('',(#345));
#345=SURFACE_STYLE_FILL_AREA(#346);
#346=FILL_AREA_STYLE('',(#347));
#347=FILL_AREA_STYLE_COLOUR('',#348);
#348=COLOUR_RGB('',0.231372549019608,0.380392156862745,0.705882352941177);
#349=MANIFOLD_SOLID_BREP('CALIBRATION_spacer_0.2',#340);
#350=SHAPE_DEFINITION_REPRESENTATION(#594,#351);
#351=SHAPE_REPRESENTATION('CALIBRATION_spacer_0.2',(#352),#589);
#352=AXIS2_PLACEMENT_3D('',#489,#387,#388);
#353=AXIS2_PLACEMENT_3D('',#490,#389,#390);
#354=AXIS2_PLACEMENT_3D('',#499,#395,#396);
#355=AXIS2_PLACEMENT_3D('',#500,#397,#398);
#356=AXIS2_PLACEMENT_3D('',#502,#399,#400);
#357=AXIS2_PLACEMENT_3D('',#505,#402,#403);
#358=AXIS2_PLACEMENT_3D('',#511,#407,#408);
#359=AXIS2_PLACEMENT_3D('',#512,#409,#410);
#360=AXIS2_PLACEMENT_3D('',#514,#411,#412);
#361=AXIS2_PLACEMENT_3D('',#517,#414,#415);
#362=AXIS2_PLACEMENT_3D('',#523,#419,#420);
#363=AXIS2_PLACEMENT_3D('',#524,#421,#422);
#364=AXIS2_PLACEMENT_3D('',#526,#423,#424);
#365=AXIS2_PLACEMENT_3D('',#529,#426,#427);
#366=AXIS2_PLACEMENT_3D('',#535,#431,#432);
#367=AXIS2_PLACEMENT_3D('',#536,#433,#434);
#368=AXIS2_PLACEMENT_3D('',#538,#435,#436);
#369=AXIS2_PLACEMENT_3D('',#541,#438,#439);
#370=AXIS2_PLACEMENT_3D('',#547,#443,#444);
#371=AXIS2_PLACEMENT_3D('',#548,#445,#446);
#372=AXIS2_PLACEMENT_3D('',#550,#447,#448);
#373=AXIS2_PLACEMENT_3D('',#553,#450,#451);
#374=AXIS2_PLACEMENT_3D('',#559,#455,#456);
#375=AXIS2_PLACEMENT_3D('',#560,#457,#458);
#376=AXIS2_PLACEMENT_3D('',#562,#459,#460);
#377=AXIS2_PLACEMENT_3D('',#565,#462,#463);
#378=AXIS2_PLACEMENT_3D('',#571,#467,#468);
#379=AXIS2_PLACEMENT_3D('',#572,#469,#470);
#380=AXIS2_PLACEMENT_3D('',#574,#471,#472);
#381=AXIS2_PLACEMENT_3D('',#577,#474,#475);
#382=AXIS2_PLACEMENT_3D('',#583,#479,#480);
#383=AXIS2_PLACEMENT_3D('',#584,#481,#482);
#384=AXIS2_PLACEMENT_3D('',#585,#483,#484);
#385=AXIS2_PLACEMENT_3D('',#586,#485,#486);
#386=AXIS2_PLACEMENT_3D('',#587,#487,#488);
#387=DIRECTION('',(0.,0.,1.));
#388=DIRECTION('',(1.,0.,0.));
#389=DIRECTION('',(0.,-1.,0.));
#390=DIRECTION('',(0.,0.,-1.));
#391=DIRECTION('',(1.,0.,0.));
#392=DIRECTION('',(0.,0.,1.));
#393=DIRECTION('',(1.,0.,0.));
#394=DIRECTION('',(0.,0.,1.));
#395=DIRECTION('',(0.,0.,1.));
#396=DIRECTION('',(1.,0.,0.));
#397=DIRECTION('',(0.,0.,1.));
#398=DIRECTION('',(1.,0.,0.));
#399=DIRECTION('',(0.,0.,1.));
#400=DIRECTION('',(1.,0.,0.));
#401=DIRECTION('',(0.,0.,1.));
#402=DIRECTION('',(1.,-1.92747052886312E-16,0.));
#403=DIRECTION('',(1.92747052886312E-16,1.,0.));
#404=DIRECTION('',(1.92747052886312E-16,1.,0.));
#405=DIRECTION('',(1.92747052886312E-16,1.,0.));
#406=DIRECTION('',(0.,0.,1.));
#407=DIRECTION('',(0.,0.,1.));
#408=DIRECTION('',(1.,0.,0.));
#409=DIRECTION('',(0.,0.,1.));
#410=DIRECTION('',(1.,0.,0.));
#411=DIRECTION('',(0.,0.,1.));
#412=DIRECTION('',(1.,0.,0.));
#413=DIRECTION('',(0.,0.,1.));
#414=DIRECTION('',(0.,-1.,0.));
#415=DIRECTION('',(0.,0.,-1.));
#416=DIRECTION('',(1.,0.,0.));
#417=DIRECTION('',(1.,0.,0.));
#418=DIRECTION('',(0.,0.,1.));
#419=DIRECTION('',(0.,0.,1.));
#420=DIRECTION('',(1.,0.,0.));
#421=DIRECTION('',(0.,0.,1.));
#422=DIRECTION('',(1.,0.,0.));
#423=DIRECTION('',(0.,0.,1.));
#424=DIRECTION('',(1.,0.,0.));
#425=DIRECTION('',(0.,0.,1.));
#426=DIRECTION('',(-1.,2.16840434497101E-16,0.));
#427=DIRECTION('',(-2.16840434497101E-16,-1.,0.));
#428=DIRECTION('',(-2.16840434497101E-16,-1.,0.));
#429=DIRECTION('',(-2.16840434497101E-16,-1.,0.));
#430=DIRECTION('',(0.,0.,1.));
#431=DIRECTION('',(0.,0.,1.));
#432=DIRECTION('',(1.,0.,0.));
#433=DIRECTION('',(0.,0.,1.));
#434=DIRECTION('',(1.,0.,0.));
#435=DIRECTION('',(0.,0.,1.));
#436=DIRECTION('',(1.,0.,0.));
#437=DIRECTION('',(0.,0.,1.));
#438=DIRECTION('',(0.,-1.,0.));
#439=DIRECTION('',(0.,0.,-1.));
#440=DIRECTION('',(1.,0.,0.));
#441=DIRECTION('',(1.,0.,0.));
#442=DIRECTION('',(0.,0.,1.));
#443=DIRECTION('',(0.,0.,1.));
#444=DIRECTION('',(1.,0.,0.));
#445=DIRECTION('',(0.,0.,1.));
#446=DIRECTION('',(1.,0.,0.));
#447=DIRECTION('',(0.,0.,1.));
#448=DIRECTION('',(1.,0.,0.));
#449=DIRECTION('',(0.,0.,1.));
#450=DIRECTION('',(-1.,2.16840434497101E-16,0.));
#451=DIRECTION('',(-2.16840434497101E-16,-1.,0.));
#452=DIRECTION('',(-2.16840434497101E-16,-1.,0.));
#453=DIRECTION('',(-2.16840434497101E-16,-1.,0.));
#454=DIRECTION('',(0.,0.,1.));
#455=DIRECTION('',(0.,0.,1.));
#456=DIRECTION('',(1.,0.,0.));
#457=DIRECTION('',(0.,0.,1.));
#458=DIRECTION('',(1.,0.,0.));
#459=DIRECTION('',(0.,0.,1.));
#460=DIRECTION('',(1.,0.,0.));
#461=DIRECTION('',(0.,0.,1.));
#462=DIRECTION('',(0.,-1.,0.));
#463=DIRECTION('',(0.,0.,-1.));
#464=DIRECTION('',(1.,0.,0.));
#465=DIRECTION('',(1.,0.,0.));
#466=DIRECTION('',(0.,0.,1.));
#467=DIRECTION('',(0.,0.,1.));
#468=DIRECTION('',(1.,0.,0.));
#469=DIRECTION('',(0.,0.,1.));
#470=DIRECTION('',(1.,0.,0.));
#471=DIRECTION('',(0.,0.,1.));
#472=DIRECTION('',(1.,0.,0.));
#473=DIRECTION('',(0.,0.,1.));
#474=DIRECTION('',(1.,-1.92747052886312E-16,0.));
#475=DIRECTION('',(1.92747052886312E-16,1.,0.));
#476=DIRECTION('',(1.92747052886312E-16,1.,0.));
#477=DIRECTION('',(1.92747052886312E-16,1.,0.));
#478=DIRECTION('',(0.,0.,1.));
#479=DIRECTION('',(0.,0.,1.));
#480=DIRECTION('',(1.,0.,0.));
#481=DIRECTION('',(0.,0.,1.));
#482=DIRECTION('',(1.,0.,0.));
#483=DIRECTION('',(0.,0.,1.));
#484=DIRECTION('',(1.,0.,0.));
#485=DIRECTION('',(0.,0.,1.));
#486=DIRECTION('',(1.,0.,0.));
#487=DIRECTION('',(0.,0.,1.));
#488=DIRECTION('',(1.,0.,0.));
#489=CARTESIAN_POINT('',(0.,0.,0.));
#490=CARTESIAN_POINT('',(-1.7347234759768E-18,0.03,-0.0002));
#491=CARTESIAN_POINT('',(-1.7347234759768E-18,0.03,0.));
#492=CARTESIAN_POINT('',(-0.0045,0.03,0.));
#493=CARTESIAN_POINT('',(0.0045,0.03,0.));
#494=CARTESIAN_POINT('',(0.0045,0.03,-0.0002));
#495=CARTESIAN_POINT('',(0.0045,0.03,-0.0002));
#496=CARTESIAN_POINT('',(-1.7347234759768E-18,0.03,-0.0002));
#497=CARTESIAN_POINT('',(-0.0045,0.03,-0.0002));
#498=CARTESIAN_POINT('',(-0.0045,0.03,-0.0002));
#499=CARTESIAN_POINT('',(-0.0045,0.027,-0.0002));
#500=CARTESIAN_POINT('',(-0.0045,0.027,0.));
#501=CARTESIAN_POINT('',(-0.0075,0.027,0.));
#502=CARTESIAN_POINT('',(-0.0045,0.027,-0.0002));
#503=CARTESIAN_POINT('',(-0.0075,0.027,-0.0002));
#504=CARTESIAN_POINT('',(-0.0075,0.027,-0.0002));
#505=CARTESIAN_POINT('',(-0.0075,0.0225,-0.0002));
#506=CARTESIAN_POINT('',(-0.0075,0.0225,0.));
#507=CARTESIAN_POINT('',(-0.0075,0.018,0.));
#508=CARTESIAN_POINT('',(-0.0075,0.0225,-0.0002));
#509=CARTESIAN_POINT('',(-0.0075,0.018,-0.0002));
#510=CARTESIAN_POINT('',(-0.0075,0.018,-0.0002));
#511=CARTESIAN_POINT('',(-0.0105,0.018,-0.0002));
#512=CARTESIAN_POINT('',(-0.0105,0.018,0.));
#513=CARTESIAN_POINT('',(-0.0105,0.015,0.));
#514=CARTESIAN_POINT('',(-0.0105,0.018,-0.0002));
#515=CARTESIAN_POINT('',(-0.0105,0.015,-0.0002));
#516=CARTESIAN_POINT('',(-0.0105,0.015,-0.0002));
#517=CARTESIAN_POINT('',(-0.01125,0.015,-0.0002));
#518=CARTESIAN_POINT('',(-0.01125,0.015,0.));
#519=CARTESIAN_POINT('',(-0.012,0.015,0.));
#520=CARTESIAN_POINT('',(-0.01125,0.015,-0.0002));
#521=CARTESIAN_POINT('',(-0.012,0.015,-0.0002));
#522=CARTESIAN_POINT('',(-0.012,0.015,-0.0002));
#523=CARTESIAN_POINT('',(-0.012,0.012,-0.0002));
#524=CARTESIAN_POINT('',(-0.012,0.012,0.));
#525=CARTESIAN_POINT('',(-0.015,0.012,0.));
#526=CARTESIAN_POINT('',(-0.012,0.012,-0.0002));
#527=CARTESIAN_POINT('',(-0.015,0.012,-0.0002));
#528=CARTESIAN_POINT('',(-0.015,0.012,-0.0002));
#529=CARTESIAN_POINT('',(-0.015,0.,-0.0002));
#530=CARTESIAN_POINT('',(-0.015,0.,0.));
#531=CARTESIAN_POINT('',(-0.015,-0.012,0.));
#532=CARTESIAN_POINT('',(-0.015,0.,-0.0002));
#533=CARTESIAN_POINT('',(-0.015,-0.012,-0.0002));
#534=CARTESIAN_POINT('',(-0.015,-0.012,-0.0002));
#535=CARTESIAN_POINT('',(-0.012,-0.012,-0.0002));
#536=CARTESIAN_POINT('',(-0.012,-0.012,0.));
#537=CARTESIAN_POINT('',(-0.012,-0.015,0.));
#538=CARTESIAN_POINT('',(-0.012,-0.012,-0.0002));
#539=CARTESIAN_POINT('',(-0.012,-0.015,-0.0002));
#540=CARTESIAN_POINT('',(-0.012,-0.015,-0.0002));
#541=CARTESIAN_POINT('',(-1.7347234759768E-18,-0.015,-0.0002));
#542=CARTESIAN_POINT('',(-1.7347234759768E-18,-0.015,0.));
#543=CARTESIAN_POINT('',(0.012,-0.015,0.));
#544=CARTESIAN_POINT('',(-1.7347234759768E-18,-0.015,-0.0002));
#545=CARTESIAN_POINT('',(0.012,-0.015,-0.0002));
#546=CARTESIAN_POINT('',(0.012,-0.015,-0.0002));
#547=CARTESIAN_POINT('',(0.012,-0.012,-0.0002));
#548=CARTESIAN_POINT('',(0.012,-0.012,0.));
#549=CARTESIAN_POINT('',(0.015,-0.012,0.));
#550=CARTESIAN_POINT('',(0.012,-0.012,-0.0002));
#551=CARTESIAN_POINT('',(0.015,-0.012,-0.0002));
#552=CARTESIAN_POINT('',(0.015,-0.012,-0.0002));
#553=CARTESIAN_POINT('',(0.015,0.,-0.0002));
#554=CARTESIAN_POINT('',(0.015,0.,0.));
#555=CARTESIAN_POINT('',(0.015,0.012,0.));
#556=CARTESIAN_POINT('',(0.015,0.,-0.0002));
#557=CARTESIAN_POINT('',(0.015,0.012,-0.0002));
#558=CARTESIAN_POINT('',(0.015,0.012,-0.0002));
#559=CARTESIAN_POINT('',(0.012,0.012,-0.0002));
#560=CARTESIAN_POINT('',(0.012,0.012,0.));
#561=CARTESIAN_POINT('',(0.012,0.015,0.));
#562=CARTESIAN_POINT('',(0.012,0.012,-0.0002));
#563=CARTESIAN_POINT('',(0.012,0.015,-0.0002));
#564=CARTESIAN_POINT('',(0.012,0.015,-0.0002));
#565=CARTESIAN_POINT('',(0.01125,0.015,-0.0002));
#566=CARTESIAN_POINT('',(0.01125,0.015,0.));
#567=CARTESIAN_POINT('',(0.0105,0.015,0.));
#568=CARTESIAN_POINT('',(0.01125,0.015,-0.0002));
#569=CARTESIAN_POINT('',(0.0105,0.015,-0.0002));
#570=CARTESIAN_POINT('',(0.0105,0.015,-0.0002));
#571=CARTESIAN_POINT('',(0.0105,0.018,-0.0002));
#572=CARTESIAN_POINT('',(0.0105,0.018,0.));
#573=CARTESIAN_POINT('',(0.0075,0.018,0.));
#574=CARTESIAN_POINT('',(0.0105,0.018,-0.0002));
#575=CARTESIAN_POINT('',(0.0075,0.018,-0.0002));
#576=CARTESIAN_POINT('',(0.0075,0.018,-0.0002));
#577=CARTESIAN_POINT('',(0.0075,0.0225,-0.0002));
#578=CARTESIAN_POINT('',(0.0075,0.0225,0.));
#579=CARTESIAN_POINT('',(0.0075,0.027,0.));
#580=CARTESIAN_POINT('',(0.0075,0.0225,-0.0002));
#581=CARTESIAN_POINT('',(0.0075,0.027,-0.0002));
#582=CARTESIAN_POINT('',(0.0075,0.027,-0.0002));
#583=CARTESIAN_POINT('',(0.0045,0.027,-0.0002));
#584=CARTESIAN_POINT('',(0.0045,0.027,0.));
#585=CARTESIAN_POINT('',(0.0045,0.027,-0.0002));
#586=CARTESIAN_POINT('',(0.0525,-0.0425,-0.0002));
#587=CARTESIAN_POINT('',(0.0525,-0.0425,0.));
#588=MECHANICAL_DESIGN_GEOMETRIC_PRESENTATION_REPRESENTATION('',(#341),
#589);
#589=(
GEOMETRIC_REPRESENTATION_CONTEXT(3)
GLOBAL_UNCERTAINTY_ASSIGNED_CONTEXT((#590))
GLOBAL_UNIT_ASSIGNED_CONTEXT((#593,#592,#591))
REPRESENTATION_CONTEXT('CALIBRATION_spacer_0.2',
'TOP_LEVEL_ASSEMBLY_PART')
);
#590=UNCERTAINTY_MEASURE_WITH_UNIT(LENGTH_MEASURE(1.E-8),#593,
'DISTANCE_ACCURACY_VALUE','Maximum Tolerance applied to model');
#591=(
NAMED_UNIT(*)
SI_UNIT($,.STERADIAN.)
SOLID_ANGLE_UNIT()
);
#592=(
NAMED_UNIT(*)
PLANE_ANGLE_UNIT()
SI_UNIT($,.RADIAN.)
);
#593=(
LENGTH_UNIT()
NAMED_UNIT(*)
SI_UNIT($,.METRE.)
);
#594=PRODUCT_DEFINITION_SHAPE('','',#595);
#595=PRODUCT_DEFINITION('','',#597,#596);
#596=PRODUCT_DEFINITION_CONTEXT('',#603,'design');
#597=PRODUCT_DEFINITION_FORMATION_WITH_SPECIFIED_SOURCE('','',#599,
 .NOT_KNOWN.);
#598=PRODUCT_RELATED_PRODUCT_CATEGORY('','',(#599));
#599=PRODUCT('CALIBRATION_spacer_0.2','CALIBRATION_spacer_0.2',
'CALIBRATION_spacer_0.2',(#601));
#600=PRODUCT_CATEGORY('','');
#601=PRODUCT_CONTEXT('',#603,'mechanical');
#602=APPLICATION_PROTOCOL_DEFINITION('international standard',
'ap242_managed_model_based_3d_engineering',2020,#603);
#603=APPLICATION_CONTEXT('managed model based 3d engineering');
ENDSEC;
END-ISO-10303-21;
